<?xml version="1.0" encoding="UTF-8"?>
<svg id="Playing_Cards" data-name="Playing Cards" xmlns="http://www.w3.org/2000/svg" viewBox="0 0 152.06 215.64">
  <g id="Cards">
    <g id="Diamonds">
      <g>
        <g>
          <path d="M6.71,.01H145.68c.47,0,.95,.06,1.41,.17l.11,.03c.98,.25,1.88,.74,2.61,1.44l.04,.04c.48,.46,.87,1,1.17,1.59l.41,.83c.29,.58,.48,1.2,.56,1.84l.26,1.97c.03,.25,.05,.5,.05,.75V207.05c0,.26-.02,.52-.05,.78l-.25,1.86c-.08,.61-.26,1.2-.53,1.75l-.41,.85c-.32,.65-.75,1.24-1.28,1.73l-.05,.04c-.67,.62-1.48,1.07-2.36,1.32l-.2,.05c-.51,.14-1.04,.22-1.57,.22H6.79c-.53,0-1.06-.07-1.57-.22l-.14-.04c-.92-.26-1.76-.74-2.45-1.4h0c-.49-.48-.9-1.04-1.2-1.65l-.41-.84c-.29-.59-.47-1.23-.55-1.88l-.21-1.85c-.02-.22-.04-.43-.04-.65V8.6c0-.21,.01-.42,.03-.62l.21-1.96c.07-.68,.27-1.35,.58-1.97l.41-.82c.28-.56,.64-1.06,1.08-1.5h0C3.3,.98,4.23,.45,5.25,.2h.05C5.76,.07,6.23,.01,6.71,.01Z" style="fill: #fff; fill-rule: evenodd;"/>
          <g>
            <g>
              <path d="M14.84,51.41c.48,.7,.94,1.41,1.4,2.13,.22,.37,.45,.73,.67,1.1,0-.02,.02-.03,.03-.05,.61-1.01,1.27-2,1.92-2.99,.48-.68,.96-1.35,1.46-2.01,.25-.35,.51-.69,.76-1.04,.47-.57,.93-1.14,1.42-1.7,.07-.07,.13-.15,.2-.22-.29-.33-.57-.65-.85-.97-.27-.31-.55-.63-.82-.94-.25-.32-.51-.65-.76-.97-.5-.66-.99-1.33-1.46-2.01-.6-.94-1.2-1.89-1.78-2.84-.04-.06-.07-.12-.1-.17-.17,.31-.35,.63-.52,.94-.43,.67-.87,1.34-1.31,2.01-.49,.66-.98,1.32-1.46,1.98-.27,.33-.55,.67-.82,1-.28,.33-.57,.67-.85,1-.29,.32-.59,.65-.88,.97,.03,.04,.06,.07,.09,.11,.49,.58,.97,1.17,1.46,1.75,.26,.32,.53,.65,.79,.97,.47,.65,.95,1.3,1.43,1.95Z" style="fill: #db0f1a;"/>
              <path d="M14.84,51.41c.48,.7,.94,1.41,1.4,2.13,.22,.37,.45,.73,.67,1.1,0-.02,.02-.03,.03-.05,.61-1.01,1.27-2,1.92-2.99,.48-.68,.96-1.35,1.46-2.01,.25-.35,.51-.69,.76-1.04,.47-.57,.93-1.14,1.42-1.7,.07-.07,.13-.15,.2-.22-.29-.33-.57-.65-.85-.97-.27-.31-.55-.63-.82-.94-.25-.32-.51-.65-.76-.97-.5-.66-.99-1.33-1.46-2.01-.6-.94-1.2-1.89-1.78-2.84-.04-.06-.07-.12-.1-.17-.17,.31-.35,.63-.52,.94-.43,.67-.87,1.34-1.31,2.01-.49,.66-.98,1.32-1.46,1.98-.27,.33-.55,.67-.82,1-.28,.33-.57,.67-.85,1-.29,.32-.59,.65-.88,.97,.03,.04,.06,.07,.09,.11,.49,.58,.97,1.17,1.46,1.75,.26,.32,.53,.65,.79,.97,.47,.65,.95,1.3,1.43,1.95Z" style="fill: #db0f1a;"/>
              <path d="M14.84,51.41c.48,.7,.94,1.41,1.4,2.13,.22,.37,.45,.73,.67,1.1,0-.02,.02-.03,.03-.05,.61-1.01,1.27-2,1.92-2.99,.48-.68,.96-1.35,1.46-2.01,.25-.35,.51-.69,.76-1.04,.47-.57,.93-1.14,1.42-1.7,.07-.07,.13-.15,.2-.22-.29-.33-.57-.65-.85-.97-.27-.31-.55-.63-.82-.94-.25-.32-.51-.65-.76-.97-.5-.66-.99-1.33-1.46-2.01-.6-.94-1.2-1.89-1.78-2.84-.04-.06-.07-.12-.1-.17-.17,.31-.35,.63-.52,.94-.43,.67-.87,1.34-1.31,2.01-.49,.66-.98,1.32-1.46,1.98-.27,.33-.55,.67-.82,1-.28,.33-.57,.67-.85,1-.29,.32-.59,.65-.88,.97,.03,.04,.06,.07,.09,.11,.49,.58,.97,1.17,1.46,1.75,.26,.32,.53,.65,.79,.97,.47,.65,.95,1.3,1.43,1.95Z" style="fill: #db0f1a;"/>
            </g>
            <g>
              <path d="M137.69,164.26c-.48-.71-.94-1.41-1.4-2.13-.22-.37-.45-.73-.67-1.1,0,.02-.02,.03-.03,.05-.61,1.01-1.27,2-1.92,2.99-.48,.68-.96,1.35-1.46,2.01-.25,.35-.51,.69-.76,1.04-.46,.57-.93,1.14-1.42,1.7-.07,.07-.13,.15-.19,.22,.28,.33,.57,.65,.85,.97,.27,.31,.55,.63,.82,.94,.25,.32,.51,.65,.76,.97,.5,.66,.99,1.33,1.46,2.01,.6,.94,1.2,1.88,1.78,2.84,.04,.06,.07,.12,.1,.17,.17-.31,.35-.63,.52-.94,.43-.67,.87-1.34,1.31-2.01,.49-.66,.98-1.32,1.46-1.98,.27-.34,.55-.67,.82-1,.28-.34,.57-.67,.85-1,.29-.33,.59-.65,.88-.97-.03-.04-.06-.07-.09-.11-.49-.58-.98-1.16-1.46-1.75-.26-.33-.53-.65-.79-.97-.47-.66-.95-1.3-1.43-1.95Z" style="fill: #db0f1a;"/>
              <path d="M137.69,164.26c-.48-.71-.94-1.41-1.4-2.13-.22-.37-.45-.73-.67-1.1,0,.02-.02,.03-.03,.05-.61,1.01-1.27,2-1.92,2.99-.48,.68-.96,1.35-1.46,2.01-.25,.35-.51,.69-.76,1.04-.46,.57-.93,1.14-1.42,1.7-.07,.07-.13,.15-.19,.22,.28,.33,.57,.65,.85,.97,.27,.31,.55,.63,.82,.94,.25,.32,.51,.65,.76,.97,.5,.66,.99,1.33,1.46,2.01,.6,.94,1.2,1.88,1.78,2.84,.04,.06,.07,.12,.1,.17,.17-.31,.35-.63,.52-.94,.43-.67,.87-1.34,1.31-2.01,.49-.66,.98-1.32,1.46-1.98,.27-.34,.55-.67,.82-1,.28-.34,.57-.67,.85-1,.29-.33,.59-.65,.88-.97-.03-.04-.06-.07-.09-.11-.49-.58-.98-1.16-1.46-1.75-.26-.33-.53-.65-.79-.97-.47-.66-.95-1.3-1.43-1.95Z" style="fill: #db0f1a;"/>
              <path d="M137.69,164.26c-.48-.71-.94-1.41-1.4-2.13-.22-.37-.45-.73-.67-1.1,0,.02-.02,.03-.03,.05-.61,1.01-1.27,2-1.92,2.99-.48,.68-.96,1.35-1.46,2.01-.25,.35-.51,.69-.76,1.04-.46,.57-.93,1.14-1.42,1.7-.07,.07-.13,.15-.19,.22,.28,.33,.57,.65,.85,.97,.27,.31,.55,.63,.82,.94,.25,.32,.51,.65,.76,.97,.5,.66,.99,1.33,1.46,2.01,.6,.94,1.2,1.88,1.78,2.84,.04,.06,.07,.12,.1,.17,.17-.31,.35-.63,.52-.94,.43-.67,.87-1.34,1.31-2.01,.49-.66,.98-1.32,1.46-1.98,.27-.34,.55-.67,.82-1,.28-.34,.57-.67,.85-1,.29-.33,.59-.65,.88-.97-.03-.04-.06-.07-.09-.11-.49-.58-.98-1.16-1.46-1.75-.26-.33-.53-.65-.79-.97-.47-.66-.95-1.3-1.43-1.95Z" style="fill: #db0f1a;"/>
            </g>
          </g>
        </g>
        <g>
          <path d="M6.51,11.73l5.32-2.6h.53V27.6c0,1.23,.05,1.99,.15,2.29,.1,.3,.31,.53,.64,.69s.98,.25,1.97,.27v.6H6.9v-.6c1.03-.02,1.7-.11,2-.27,.3-.16,.51-.37,.63-.63,.12-.26,.18-1.05,.18-2.36V15.79c0-1.59-.05-2.61-.16-3.06-.07-.34-.21-.6-.41-.76-.2-.16-.44-.24-.72-.24-.4,0-.95,.17-1.66,.5l-.24-.5Z" style="fill: #db0f1a;"/>
          <path d="M15.72,20.65c0-2.49,.38-4.64,1.13-6.44,.75-1.8,1.75-3.14,3-4.02,.97-.7,1.97-1.05,3-1.05,1.68,0,3.18,.85,4.51,2.56,1.67,2.12,2.5,4.99,2.5,8.61,0,2.54-.37,4.69-1.1,6.47-.73,1.77-1.66,3.06-2.8,3.86-1.13,.8-2.23,1.2-3.28,1.2-2.09,0-3.82-1.23-5.21-3.69-1.17-2.08-1.76-4.58-1.76-7.5Zm3.16,.4c0,3.01,.37,5.47,1.11,7.37,.61,1.6,1.53,2.4,2.74,2.4,.58,0,1.18-.26,1.81-.78,.62-.52,1.1-1.4,1.42-2.62,.49-1.85,.74-4.46,.74-7.82,0-2.49-.26-4.58-.77-6.24-.39-1.24-.89-2.11-1.5-2.63-.44-.35-.97-.53-1.6-.53-.73,0-1.38,.33-1.95,.98-.77,.89-1.3,2.29-1.58,4.21-.28,1.91-.42,3.8-.42,5.66Z" style="fill: #db0f1a;"/>
        </g>
        <g>
          <path d="M144.68,202.76l-5.32,2.6h-.53v-18.46c0-1.22-.05-1.99-.15-2.29-.1-.3-.31-.53-.64-.69-.32-.16-.98-.25-1.97-.27v-.6h8.22v.6c-1.03,.02-1.7,.11-2,.27-.3,.16-.51,.37-.63,.63-.12,.26-.18,1.05-.18,2.36v11.8c0,1.59,.05,2.61,.16,3.06,.07,.34,.21,.6,.41,.76,.2,.16,.44,.24,.72,.24,.4,0,.95-.17,1.66-.5l.24,.5Z" style="fill: #db0f1a;"/>
          <path d="M135.47,193.84c0,2.49-.38,4.64-1.13,6.44-.75,1.8-1.75,3.14-3,4.02-.97,.7-1.97,1.05-3,1.05-1.68,0-3.18-.85-4.51-2.56-1.67-2.12-2.5-4.99-2.5-8.61,0-2.54,.37-4.69,1.1-6.47,.73-1.77,1.66-3.06,2.8-3.86,1.13-.8,2.23-1.2,3.28-1.2,2.09,0,3.82,1.23,5.21,3.69,1.17,2.08,1.76,4.58,1.76,7.5Zm-3.16-.4c0-3.01-.37-5.47-1.11-7.37-.61-1.6-1.53-2.4-2.74-2.4-.58,0-1.18,.26-1.81,.78-.62,.52-1.1,1.4-1.42,2.62-.49,1.85-.74,4.46-.74,7.82,0,2.49,.26,4.58,.77,6.24,.39,1.24,.89,2.11,1.5,2.63,.44,.35,.97,.53,1.6,.53,.73,0,1.38-.33,1.95-.98,.77-.89,1.3-2.3,1.58-4.21,.28-1.91,.42-3.8,.42-5.66Z" style="fill: #db0f1a;"/>
        </g>
        <g>
          <g>
            <g>
              <path d="M43.7,57.6c1.13,1.67,2.23,3.34,3.31,5.04,.53,.86,1.06,1.73,1.58,2.59,.03-.04,.05-.08,.08-.12,1.45-2.4,3.01-4.72,4.53-7.08,1.13-1.6,2.28-3.18,3.46-4.75,.6-.82,1.2-1.63,1.8-2.45,1.1-1.35,2.21-2.69,3.36-4.01,.15-.18,.31-.35,.46-.53-.67-.77-1.34-1.54-2.02-2.3-.65-.74-1.3-1.49-1.94-2.23-.6-.77-1.2-1.54-1.8-2.3-1.19-1.56-2.33-3.14-3.46-4.75-1.42-2.23-2.85-4.46-4.22-6.72-.08-.14-.17-.27-.25-.41-.41,.74-.82,1.49-1.22,2.23-1.01,1.6-2.05,3.18-3.1,4.75-1.16,1.55-2.31,3.11-3.46,4.68-.65,.79-1.3,1.58-1.94,2.38-.67,.79-1.34,1.58-2.02,2.38-.7,.77-1.39,1.54-2.09,2.3,.07,.08,.14,.17,.21,.25,1.15,1.38,2.31,2.76,3.46,4.14,.62,.77,1.25,1.54,1.87,2.3,1.11,1.55,2.24,3.08,3.38,4.61Z" style="fill: #db0f1a;"/>
              <path d="M43.7,57.6c1.13,1.67,2.23,3.34,3.31,5.04,.53,.86,1.06,1.73,1.58,2.59,.03-.04,.05-.08,.08-.12,1.45-2.4,3.01-4.72,4.53-7.08,1.13-1.6,2.28-3.18,3.46-4.75,.6-.82,1.2-1.63,1.8-2.45,1.1-1.35,2.21-2.69,3.36-4.01,.15-.18,.31-.35,.46-.53-.67-.77-1.34-1.54-2.02-2.3-.65-.74-1.3-1.49-1.94-2.23-.6-.77-1.2-1.54-1.8-2.3-1.19-1.56-2.33-3.14-3.46-4.75-1.42-2.23-2.85-4.46-4.22-6.72-.08-.14-.17-.27-.25-.41-.41,.74-.82,1.49-1.22,2.23-1.01,1.6-2.05,3.18-3.1,4.75-1.16,1.55-2.31,3.11-3.46,4.68-.65,.79-1.3,1.58-1.94,2.38-.67,.79-1.34,1.58-2.02,2.38-.7,.77-1.39,1.54-2.09,2.3,.07,.08,.14,.17,.21,.25,1.15,1.38,2.31,2.76,3.46,4.14,.62,.77,1.25,1.54,1.87,2.3,1.11,1.55,2.24,3.08,3.38,4.61Z" style="fill: #db0f1a;"/>
              <path d="M43.7,57.6c1.13,1.67,2.23,3.34,3.31,5.04,.53,.86,1.06,1.73,1.58,2.59,.03-.04,.05-.08,.08-.12,1.45-2.4,3.01-4.72,4.53-7.08,1.13-1.6,2.28-3.18,3.46-4.75,.6-.82,1.2-1.63,1.8-2.45,1.1-1.35,2.21-2.69,3.36-4.01,.15-.18,.31-.35,.46-.53-.67-.77-1.34-1.54-2.02-2.3-.65-.74-1.3-1.49-1.94-2.23-.6-.77-1.2-1.54-1.8-2.3-1.19-1.56-2.33-3.14-3.46-4.75-1.42-2.23-2.85-4.46-4.22-6.72-.08-.14-.17-.27-.25-.41-.41,.74-.82,1.49-1.22,2.23-1.01,1.6-2.05,3.18-3.1,4.75-1.16,1.55-2.31,3.11-3.46,4.68-.65,.79-1.3,1.58-1.94,2.38-.67,.79-1.34,1.58-2.02,2.38-.7,.77-1.39,1.54-2.09,2.3,.07,.08,.14,.17,.21,.25,1.15,1.38,2.31,2.76,3.46,4.14,.62,.77,1.25,1.54,1.87,2.3,1.11,1.55,2.24,3.08,3.38,4.61Z" style="fill: #db0f1a;"/>
            </g>
            <g>
              <path d="M43.7,181.27c1.13,1.67,2.23,3.34,3.31,5.04,.53,.86,1.06,1.73,1.58,2.59,.03-.04,.05-.08,.08-.12,1.45-2.4,3.01-4.72,4.53-7.08,1.13-1.6,2.28-3.18,3.46-4.75,.6-.82,1.2-1.63,1.8-2.45,1.1-1.35,2.21-2.69,3.36-4.01,.15-.17,.31-.35,.46-.53-.67-.77-1.34-1.54-2.02-2.3-.65-.74-1.3-1.49-1.94-2.23-.6-.77-1.2-1.54-1.8-2.3-1.19-1.56-2.33-3.14-3.46-4.75-1.42-2.23-2.85-4.46-4.22-6.72-.08-.14-.17-.27-.25-.41-.41,.74-.82,1.49-1.22,2.23-1.01,1.6-2.05,3.18-3.1,4.75-1.16,1.55-2.31,3.11-3.46,4.68-.65,.79-1.3,1.58-1.94,2.38-.67,.79-1.34,1.58-2.02,2.38-.7,.77-1.39,1.54-2.09,2.3,.07,.09,.14,.17,.21,.26,1.15,1.38,2.31,2.76,3.46,4.14,.62,.77,1.25,1.54,1.87,2.3,1.11,1.55,2.24,3.08,3.38,4.61Z" style="fill: #db0f1a;"/>
              <path d="M43.7,181.27c1.13,1.67,2.23,3.34,3.31,5.04,.53,.86,1.06,1.73,1.58,2.59,.03-.04,.05-.08,.08-.12,1.45-2.4,3.01-4.72,4.53-7.08,1.13-1.6,2.28-3.18,3.46-4.75,.6-.82,1.2-1.63,1.8-2.45,1.1-1.35,2.21-2.69,3.36-4.01,.15-.17,.31-.35,.46-.53-.67-.77-1.34-1.54-2.02-2.3-.65-.74-1.3-1.49-1.94-2.23-.6-.77-1.2-1.54-1.8-2.3-1.19-1.56-2.33-3.14-3.46-4.75-1.42-2.23-2.85-4.46-4.22-6.72-.08-.14-.17-.27-.25-.41-.41,.74-.82,1.49-1.22,2.23-1.01,1.6-2.05,3.18-3.1,4.75-1.16,1.55-2.31,3.11-3.46,4.68-.65,.79-1.3,1.58-1.94,2.38-.67,.79-1.34,1.58-2.02,2.38-.7,.77-1.39,1.54-2.09,2.3,.07,.09,.14,.17,.21,.26,1.15,1.38,2.31,2.76,3.46,4.14,.62,.77,1.25,1.54,1.87,2.3,1.11,1.55,2.24,3.08,3.38,4.61Z" style="fill: #db0f1a;"/>
              <path d="M43.7,181.27c1.13,1.67,2.23,3.34,3.31,5.04,.53,.86,1.06,1.73,1.58,2.59,.03-.04,.05-.08,.08-.12,1.45-2.4,3.01-4.72,4.53-7.08,1.13-1.6,2.28-3.18,3.46-4.75,.6-.82,1.2-1.63,1.8-2.45,1.1-1.35,2.21-2.69,3.36-4.01,.15-.17,.31-.35,.46-.53-.67-.77-1.34-1.54-2.02-2.3-.65-.74-1.3-1.49-1.94-2.23-.6-.77-1.2-1.54-1.8-2.3-1.19-1.56-2.33-3.14-3.46-4.75-1.42-2.23-2.85-4.46-4.22-6.72-.08-.14-.17-.27-.25-.41-.41,.74-.82,1.49-1.22,2.23-1.01,1.6-2.05,3.18-3.1,4.75-1.16,1.55-2.31,3.11-3.46,4.68-.65,.79-1.3,1.58-1.94,2.38-.67,.79-1.34,1.58-2.02,2.38-.7,.77-1.39,1.54-2.09,2.3,.07,.09,.14,.17,.21,.26,1.15,1.38,2.31,2.76,3.46,4.14,.62,.77,1.25,1.54,1.87,2.3,1.11,1.55,2.24,3.08,3.38,4.61Z" style="fill: #db0f1a;"/>
            </g>
            <g>
              <path d="M43.7,140.04c1.13,1.67,2.23,3.34,3.31,5.04,.53,.86,1.06,1.73,1.58,2.59,.03-.04,.05-.08,.07-.12,1.45-2.4,3.01-4.72,4.53-7.08,1.13-1.6,2.28-3.18,3.46-4.75,.6-.82,1.2-1.63,1.8-2.45,1.1-1.36,2.21-2.69,3.36-4.01,.15-.18,.31-.35,.46-.53-.67-.77-1.34-1.54-2.02-2.3-.65-.74-1.3-1.49-1.94-2.23-.6-.77-1.2-1.54-1.8-2.3-1.19-1.56-2.33-3.14-3.46-4.75-1.42-2.23-2.85-4.46-4.22-6.72-.08-.13-.17-.27-.25-.41-.41,.74-.82,1.49-1.22,2.23-1.01,1.6-2.05,3.18-3.1,4.75-1.16,1.55-2.31,3.11-3.46,4.68-.65,.79-1.3,1.58-1.94,2.38-.67,.79-1.34,1.58-2.02,2.38-.7,.77-1.39,1.54-2.09,2.3,.07,.09,.14,.17,.21,.25,1.16,1.38,2.31,2.76,3.46,4.14,.62,.77,1.25,1.54,1.87,2.3,1.11,1.55,2.24,3.08,3.38,4.61Z" style="fill: #db0f1a;"/>
              <path d="M43.7,140.04c1.13,1.67,2.23,3.34,3.31,5.04,.53,.86,1.06,1.73,1.58,2.59,.03-.04,.05-.08,.07-.12,1.45-2.4,3.01-4.72,4.53-7.08,1.13-1.6,2.28-3.18,3.46-4.75,.6-.82,1.2-1.63,1.8-2.45,1.1-1.36,2.21-2.69,3.36-4.01,.15-.18,.31-.35,.46-.53-.67-.77-1.34-1.54-2.02-2.3-.65-.74-1.3-1.49-1.94-2.23-.6-.77-1.2-1.54-1.8-2.3-1.19-1.56-2.33-3.14-3.46-4.75-1.42-2.23-2.85-4.46-4.22-6.72-.08-.13-.17-.27-.25-.41-.41,.74-.82,1.49-1.22,2.23-1.01,1.6-2.05,3.18-3.1,4.75-1.16,1.55-2.31,3.11-3.46,4.68-.65,.79-1.3,1.58-1.94,2.38-.67,.79-1.34,1.58-2.02,2.38-.7,.77-1.39,1.54-2.09,2.3,.07,.09,.14,.17,.21,.25,1.16,1.38,2.31,2.76,3.46,4.14,.62,.77,1.25,1.54,1.87,2.3,1.11,1.55,2.24,3.08,3.38,4.61Z" style="fill: #db0f1a;"/>
              <path d="M43.7,140.04c1.13,1.67,2.23,3.34,3.31,5.04,.53,.86,1.06,1.73,1.58,2.59,.03-.04,.05-.08,.07-.12,1.45-2.4,3.01-4.72,4.53-7.08,1.13-1.6,2.28-3.18,3.46-4.75,.6-.82,1.2-1.63,1.8-2.45,1.1-1.36,2.21-2.69,3.36-4.01,.15-.18,.31-.35,.46-.53-.67-.77-1.34-1.54-2.02-2.3-.65-.74-1.3-1.49-1.94-2.23-.6-.77-1.2-1.54-1.8-2.3-1.19-1.56-2.33-3.14-3.46-4.75-1.42-2.23-2.85-4.46-4.22-6.72-.08-.13-.17-.27-.25-.41-.41,.74-.82,1.49-1.22,2.23-1.01,1.6-2.05,3.18-3.1,4.75-1.16,1.55-2.31,3.11-3.46,4.68-.65,.79-1.3,1.58-1.94,2.38-.67,.79-1.34,1.58-2.02,2.38-.7,.77-1.39,1.54-2.09,2.3,.07,.09,.14,.17,.21,.25,1.16,1.38,2.31,2.76,3.46,4.14,.62,.77,1.25,1.54,1.87,2.3,1.11,1.55,2.24,3.08,3.38,4.61Z" style="fill: #db0f1a;"/>
            </g>
            <g>
              <path d="M43.7,98.82c1.13,1.67,2.23,3.34,3.31,5.04,.53,.86,1.06,1.73,1.58,2.59,.03-.04,.05-.08,.07-.12,1.45-2.4,3.01-4.72,4.53-7.08,1.13-1.6,2.28-3.18,3.46-4.75,.6-.82,1.2-1.63,1.8-2.45,1.1-1.35,2.21-2.69,3.36-4.01,.15-.18,.31-.35,.46-.53-.67-.77-1.34-1.54-2.02-2.3-.65-.74-1.3-1.49-1.94-2.23-.6-.77-1.2-1.54-1.8-2.3-1.19-1.56-2.33-3.14-3.46-4.75-1.42-2.23-2.85-4.46-4.22-6.72-.08-.14-.17-.27-.25-.41-.41,.74-.82,1.49-1.22,2.23-1.01,1.6-2.05,3.18-3.1,4.75-1.16,1.55-2.31,3.11-3.46,4.68-.65,.79-1.3,1.58-1.94,2.38-.67,.79-1.34,1.58-2.02,2.38-.7,.77-1.39,1.54-2.09,2.3,.07,.09,.14,.17,.21,.25,1.16,1.38,2.31,2.76,3.46,4.14,.62,.77,1.25,1.54,1.87,2.3,1.11,1.55,2.24,3.08,3.38,4.61Z" style="fill: #db0f1a;"/>
              <path d="M43.7,98.82c1.13,1.67,2.23,3.34,3.31,5.04,.53,.86,1.06,1.73,1.58,2.59,.03-.04,.05-.08,.07-.12,1.45-2.4,3.01-4.72,4.53-7.08,1.13-1.6,2.28-3.18,3.46-4.75,.6-.82,1.2-1.63,1.8-2.45,1.1-1.35,2.21-2.69,3.36-4.01,.15-.18,.31-.35,.46-.53-.67-.77-1.34-1.54-2.02-2.3-.65-.74-1.3-1.49-1.94-2.23-.6-.77-1.2-1.54-1.8-2.3-1.19-1.56-2.33-3.14-3.46-4.75-1.42-2.23-2.85-4.46-4.22-6.72-.08-.14-.17-.27-.25-.41-.41,.74-.82,1.49-1.22,2.23-1.01,1.6-2.05,3.18-3.1,4.75-1.16,1.55-2.31,3.11-3.46,4.68-.65,.79-1.3,1.58-1.94,2.38-.67,.79-1.34,1.58-2.02,2.38-.7,.77-1.39,1.54-2.09,2.3,.07,.09,.14,.17,.21,.25,1.16,1.38,2.31,2.76,3.46,4.14,.62,.77,1.25,1.54,1.87,2.3,1.11,1.55,2.24,3.08,3.38,4.61Z" style="fill: #db0f1a;"/>
              <path d="M43.7,98.82c1.13,1.67,2.23,3.34,3.31,5.04,.53,.86,1.06,1.73,1.58,2.59,.03-.04,.05-.08,.07-.12,1.45-2.4,3.01-4.72,4.53-7.08,1.13-1.6,2.28-3.18,3.46-4.75,.6-.82,1.2-1.63,1.8-2.45,1.1-1.35,2.21-2.69,3.36-4.01,.15-.18,.31-.35,.46-.53-.67-.77-1.34-1.54-2.02-2.3-.65-.74-1.3-1.49-1.94-2.23-.6-.77-1.2-1.54-1.8-2.3-1.19-1.56-2.33-3.14-3.46-4.75-1.42-2.23-2.85-4.46-4.22-6.72-.08-.14-.17-.27-.25-.41-.41,.74-.82,1.49-1.22,2.23-1.01,1.6-2.05,3.18-3.1,4.75-1.16,1.55-2.31,3.11-3.46,4.68-.65,.79-1.3,1.58-1.94,2.38-.67,.79-1.34,1.58-2.02,2.38-.7,.77-1.39,1.54-2.09,2.3,.07,.09,.14,.17,.21,.25,1.16,1.38,2.31,2.76,3.46,4.14,.62,.77,1.25,1.54,1.87,2.3,1.11,1.55,2.24,3.08,3.38,4.61Z" style="fill: #db0f1a;"/>
            </g>
          </g>
          <g>
            <g>
              <path d="M99.03,57.6c1.13,1.67,2.23,3.34,3.31,5.04,.53,.86,1.06,1.73,1.58,2.59,.03-.04,.05-.08,.08-.12,1.45-2.4,3.01-4.72,4.53-7.08,1.13-1.6,2.28-3.18,3.46-4.75,.6-.82,1.2-1.63,1.8-2.45,1.1-1.35,2.21-2.69,3.36-4.01,.15-.18,.31-.35,.46-.53-.67-.77-1.34-1.54-2.02-2.3-.65-.74-1.3-1.49-1.94-2.23-.6-.77-1.2-1.54-1.8-2.3-1.19-1.56-2.33-3.14-3.45-4.75-1.42-2.23-2.85-4.46-4.22-6.72-.08-.14-.17-.27-.25-.41-.41,.74-.82,1.49-1.22,2.23-1.01,1.6-2.05,3.18-3.1,4.75-1.16,1.55-2.31,3.11-3.46,4.68-.65,.79-1.3,1.58-1.94,2.38-.67,.79-1.34,1.58-2.02,2.38-.7,.77-1.39,1.54-2.09,2.3,.07,.08,.14,.17,.21,.25,1.15,1.38,2.31,2.76,3.46,4.14,.62,.77,1.25,1.54,1.87,2.3,1.11,1.55,2.24,3.08,3.38,4.61Z" style="fill: #db0f1a;"/>
              <path d="M99.03,57.6c1.13,1.67,2.23,3.34,3.31,5.04,.53,.86,1.06,1.73,1.58,2.59,.03-.04,.05-.08,.08-.12,1.45-2.4,3.01-4.72,4.53-7.08,1.13-1.6,2.28-3.18,3.46-4.75,.6-.82,1.2-1.63,1.8-2.45,1.1-1.35,2.21-2.69,3.36-4.01,.15-.18,.31-.35,.46-.53-.67-.77-1.34-1.54-2.02-2.3-.65-.74-1.3-1.49-1.94-2.23-.6-.77-1.2-1.54-1.8-2.3-1.19-1.56-2.33-3.14-3.45-4.75-1.42-2.23-2.85-4.46-4.22-6.72-.08-.14-.17-.27-.25-.41-.41,.74-.82,1.49-1.22,2.23-1.01,1.6-2.05,3.18-3.1,4.75-1.16,1.55-2.31,3.11-3.46,4.68-.65,.79-1.3,1.58-1.94,2.38-.67,.79-1.34,1.58-2.02,2.38-.7,.77-1.39,1.54-2.09,2.3,.07,.08,.14,.17,.21,.25,1.15,1.38,2.31,2.76,3.46,4.14,.62,.77,1.25,1.54,1.87,2.3,1.11,1.55,2.24,3.08,3.38,4.61Z" style="fill: #db0f1a;"/>
              <path d="M99.03,57.6c1.13,1.67,2.23,3.34,3.31,5.04,.53,.86,1.06,1.73,1.58,2.59,.03-.04,.05-.08,.08-.12,1.45-2.4,3.01-4.72,4.53-7.08,1.13-1.6,2.28-3.18,3.46-4.75,.6-.82,1.2-1.63,1.8-2.45,1.1-1.35,2.21-2.69,3.36-4.01,.15-.18,.31-.35,.46-.53-.67-.77-1.34-1.54-2.02-2.3-.65-.74-1.3-1.49-1.94-2.23-.6-.77-1.2-1.54-1.8-2.3-1.19-1.56-2.33-3.14-3.45-4.75-1.42-2.23-2.85-4.46-4.22-6.72-.08-.14-.17-.27-.25-.41-.41,.74-.82,1.49-1.22,2.23-1.01,1.6-2.05,3.18-3.1,4.75-1.16,1.55-2.31,3.11-3.46,4.68-.65,.79-1.3,1.58-1.94,2.38-.67,.79-1.34,1.58-2.02,2.38-.7,.77-1.39,1.54-2.09,2.3,.07,.08,.14,.17,.21,.25,1.15,1.38,2.31,2.76,3.46,4.14,.62,.77,1.25,1.54,1.87,2.3,1.11,1.55,2.24,3.08,3.38,4.61Z" style="fill: #db0f1a;"/>
            </g>
            <g>
              <path d="M99.03,181.27c1.13,1.67,2.23,3.34,3.31,5.04,.53,.86,1.06,1.73,1.58,2.59,.03-.04,.05-.08,.08-.12,1.45-2.4,3.01-4.72,4.53-7.08,1.13-1.6,2.28-3.18,3.46-4.75,.6-.82,1.2-1.63,1.8-2.45,1.1-1.35,2.21-2.69,3.36-4.01,.15-.17,.31-.35,.46-.53-.67-.77-1.34-1.54-2.02-2.3-.65-.74-1.3-1.49-1.94-2.23-.6-.77-1.2-1.54-1.8-2.3-1.19-1.56-2.33-3.14-3.45-4.75-1.42-2.23-2.85-4.46-4.22-6.72-.08-.14-.17-.27-.25-.41-.41,.74-.82,1.49-1.22,2.23-1.01,1.6-2.05,3.18-3.1,4.75-1.16,1.55-2.31,3.11-3.46,4.68-.65,.79-1.3,1.58-1.94,2.38-.67,.79-1.34,1.58-2.02,2.38-.7,.77-1.39,1.54-2.09,2.3,.07,.09,.14,.17,.21,.26,1.15,1.38,2.31,2.76,3.46,4.14,.62,.77,1.25,1.54,1.87,2.3,1.11,1.55,2.24,3.08,3.38,4.61Z" style="fill: #db0f1a;"/>
              <path d="M99.03,181.27c1.13,1.67,2.23,3.34,3.31,5.04,.53,.86,1.06,1.73,1.58,2.59,.03-.04,.05-.08,.08-.12,1.45-2.4,3.01-4.72,4.53-7.08,1.13-1.6,2.28-3.18,3.46-4.75,.6-.82,1.2-1.63,1.8-2.45,1.1-1.35,2.21-2.69,3.36-4.01,.15-.17,.31-.35,.46-.53-.67-.77-1.34-1.54-2.02-2.3-.65-.74-1.3-1.49-1.94-2.23-.6-.77-1.2-1.54-1.8-2.3-1.19-1.56-2.33-3.14-3.45-4.75-1.42-2.23-2.85-4.46-4.22-6.72-.08-.14-.17-.27-.25-.41-.41,.74-.82,1.49-1.22,2.23-1.01,1.6-2.05,3.18-3.1,4.75-1.16,1.55-2.31,3.11-3.46,4.68-.65,.79-1.3,1.58-1.94,2.38-.67,.79-1.34,1.58-2.02,2.38-.7,.77-1.39,1.54-2.09,2.3,.07,.09,.14,.17,.21,.26,1.15,1.38,2.31,2.76,3.46,4.14,.62,.77,1.25,1.54,1.87,2.3,1.11,1.55,2.24,3.08,3.38,4.61Z" style="fill: #db0f1a;"/>
              <path d="M99.03,181.27c1.13,1.67,2.23,3.34,3.31,5.04,.53,.86,1.06,1.73,1.58,2.59,.03-.04,.05-.08,.08-.12,1.45-2.4,3.01-4.72,4.53-7.08,1.13-1.6,2.28-3.18,3.46-4.75,.6-.82,1.2-1.63,1.8-2.45,1.1-1.35,2.21-2.69,3.36-4.01,.15-.17,.31-.35,.46-.53-.67-.77-1.34-1.54-2.02-2.3-.65-.74-1.3-1.49-1.94-2.23-.6-.77-1.2-1.54-1.8-2.3-1.19-1.56-2.33-3.14-3.45-4.75-1.42-2.23-2.85-4.46-4.22-6.72-.08-.14-.17-.27-.25-.41-.41,.74-.82,1.49-1.22,2.23-1.01,1.6-2.05,3.18-3.1,4.75-1.16,1.55-2.31,3.11-3.46,4.68-.65,.79-1.3,1.58-1.94,2.38-.67,.79-1.34,1.58-2.02,2.38-.7,.77-1.39,1.54-2.09,2.3,.07,.09,.14,.17,.21,.26,1.15,1.38,2.31,2.76,3.46,4.14,.62,.77,1.25,1.54,1.87,2.3,1.11,1.55,2.24,3.08,3.38,4.61Z" style="fill: #db0f1a;"/>
            </g>
            <g>
              <path d="M71.7,79.27c1.13,1.67,2.23,3.34,3.31,5.04,.53,.86,1.06,1.73,1.58,2.59,.03-.04,.05-.08,.08-.12,1.45-2.4,3.01-4.72,4.53-7.08,1.13-1.6,2.28-3.18,3.46-4.75,.6-.82,1.2-1.63,1.8-2.45,1.1-1.35,2.21-2.69,3.36-4.01,.15-.18,.31-.35,.46-.53-.67-.77-1.34-1.54-2.02-2.3-.65-.74-1.3-1.49-1.94-2.23-.6-.77-1.2-1.54-1.8-2.3-1.19-1.56-2.33-3.14-3.45-4.75-1.42-2.23-2.85-4.46-4.22-6.72-.08-.14-.17-.27-.25-.41-.41,.74-.82,1.49-1.22,2.23-1.01,1.6-2.05,3.18-3.1,4.75-1.16,1.55-2.31,3.11-3.46,4.68-.65,.79-1.3,1.58-1.94,2.38-.67,.79-1.34,1.58-2.02,2.38-.7,.77-1.39,1.54-2.09,2.3,.07,.09,.14,.17,.21,.25,1.15,1.38,2.31,2.76,3.46,4.14,.62,.77,1.25,1.54,1.87,2.3,1.11,1.55,2.24,3.08,3.38,4.61Z" style="fill: #db0f1a;"/>
              <path d="M71.7,79.27c1.13,1.67,2.23,3.34,3.31,5.04,.53,.86,1.06,1.73,1.58,2.59,.03-.04,.05-.08,.08-.12,1.45-2.4,3.01-4.72,4.53-7.08,1.13-1.6,2.28-3.18,3.46-4.75,.6-.82,1.2-1.63,1.8-2.45,1.1-1.35,2.21-2.69,3.36-4.01,.15-.18,.31-.35,.46-.53-.67-.77-1.34-1.54-2.02-2.3-.65-.74-1.3-1.49-1.94-2.23-.6-.77-1.2-1.54-1.8-2.3-1.19-1.56-2.33-3.14-3.45-4.75-1.42-2.23-2.85-4.46-4.22-6.72-.08-.14-.17-.27-.25-.41-.41,.74-.82,1.49-1.22,2.23-1.01,1.6-2.05,3.18-3.1,4.75-1.16,1.55-2.31,3.11-3.46,4.68-.65,.79-1.3,1.58-1.94,2.38-.67,.79-1.34,1.58-2.02,2.38-.7,.77-1.39,1.54-2.09,2.3,.07,.09,.14,.17,.21,.25,1.15,1.38,2.31,2.76,3.46,4.14,.62,.77,1.25,1.54,1.87,2.3,1.11,1.55,2.24,3.08,3.38,4.61Z" style="fill: #db0f1a;"/>
              <path d="M71.7,79.27c1.13,1.67,2.23,3.34,3.31,5.04,.53,.86,1.06,1.73,1.58,2.59,.03-.04,.05-.08,.08-.12,1.45-2.4,3.01-4.72,4.53-7.08,1.13-1.6,2.28-3.18,3.46-4.75,.6-.82,1.2-1.63,1.8-2.45,1.1-1.35,2.21-2.69,3.36-4.01,.15-.18,.31-.35,.46-.53-.67-.77-1.34-1.54-2.02-2.3-.65-.74-1.3-1.49-1.94-2.23-.6-.77-1.2-1.54-1.8-2.3-1.19-1.56-2.33-3.14-3.45-4.75-1.42-2.23-2.85-4.46-4.22-6.72-.08-.14-.17-.27-.25-.41-.41,.74-.82,1.49-1.22,2.23-1.01,1.6-2.05,3.18-3.1,4.75-1.16,1.55-2.31,3.11-3.46,4.68-.65,.79-1.3,1.58-1.94,2.38-.67,.79-1.34,1.58-2.02,2.38-.7,.77-1.39,1.54-2.09,2.3,.07,.09,.14,.17,.21,.25,1.15,1.38,2.31,2.76,3.46,4.14,.62,.77,1.25,1.54,1.87,2.3,1.11,1.55,2.24,3.08,3.38,4.61Z" style="fill: #db0f1a;"/>
            </g>
            <g>
              <path d="M71.7,158.84c1.13,1.67,2.23,3.34,3.31,5.04,.53,.86,1.06,1.73,1.58,2.59,.03-.04,.05-.08,.08-.12,1.45-2.4,3.01-4.72,4.53-7.08,1.13-1.6,2.28-3.18,3.46-4.75,.6-.82,1.2-1.63,1.8-2.45,1.1-1.35,2.21-2.69,3.36-4.01,.15-.17,.31-.35,.46-.53-.67-.77-1.34-1.54-2.02-2.3-.65-.74-1.3-1.49-1.94-2.23-.6-.77-1.2-1.54-1.8-2.3-1.19-1.56-2.33-3.14-3.45-4.75-1.42-2.23-2.85-4.46-4.22-6.72-.08-.14-.17-.27-.25-.41-.41,.74-.82,1.49-1.22,2.23-1.01,1.6-2.05,3.18-3.1,4.75-1.16,1.55-2.31,3.11-3.46,4.68-.65,.79-1.3,1.58-1.94,2.38-.67,.79-1.34,1.58-2.02,2.38-.7,.77-1.39,1.54-2.09,2.3,.07,.08,.14,.17,.21,.25,1.15,1.38,2.31,2.76,3.46,4.14,.62,.77,1.25,1.54,1.87,2.3,1.11,1.55,2.24,3.08,3.38,4.61Z" style="fill: #db0f1a;"/>
              <path d="M71.7,158.84c1.13,1.67,2.23,3.34,3.31,5.04,.53,.86,1.06,1.73,1.58,2.59,.03-.04,.05-.08,.08-.12,1.45-2.4,3.01-4.72,4.53-7.08,1.13-1.6,2.28-3.18,3.46-4.75,.6-.82,1.2-1.63,1.8-2.45,1.1-1.35,2.21-2.69,3.36-4.01,.15-.17,.31-.35,.46-.53-.67-.77-1.34-1.54-2.02-2.3-.65-.74-1.3-1.49-1.94-2.23-.6-.77-1.2-1.54-1.8-2.3-1.19-1.56-2.33-3.14-3.45-4.75-1.42-2.23-2.85-4.46-4.22-6.72-.08-.14-.17-.27-.25-.41-.41,.74-.82,1.49-1.22,2.23-1.01,1.6-2.05,3.18-3.1,4.75-1.16,1.55-2.31,3.11-3.46,4.68-.65,.79-1.3,1.58-1.94,2.38-.67,.79-1.34,1.58-2.02,2.38-.7,.77-1.39,1.54-2.09,2.3,.07,.08,.14,.17,.21,.25,1.15,1.38,2.31,2.76,3.46,4.14,.62,.77,1.25,1.54,1.87,2.3,1.11,1.55,2.24,3.08,3.38,4.61Z" style="fill: #db0f1a;"/>
              <path d="M71.7,158.84c1.13,1.67,2.23,3.34,3.31,5.04,.53,.86,1.06,1.73,1.58,2.59,.03-.04,.05-.08,.08-.12,1.45-2.4,3.01-4.72,4.53-7.08,1.13-1.6,2.28-3.18,3.46-4.75,.6-.82,1.2-1.63,1.8-2.45,1.1-1.35,2.21-2.69,3.36-4.01,.15-.17,.31-.35,.46-.53-.67-.77-1.34-1.54-2.02-2.3-.65-.74-1.3-1.49-1.94-2.23-.6-.77-1.2-1.54-1.8-2.3-1.19-1.56-2.33-3.14-3.45-4.75-1.42-2.23-2.85-4.46-4.22-6.72-.08-.14-.17-.27-.25-.41-.41,.74-.82,1.49-1.22,2.23-1.01,1.6-2.05,3.18-3.1,4.75-1.16,1.55-2.31,3.11-3.46,4.68-.65,.79-1.3,1.58-1.94,2.38-.67,.79-1.34,1.58-2.02,2.38-.7,.77-1.39,1.54-2.09,2.3,.07,.08,.14,.17,.21,.25,1.15,1.38,2.31,2.76,3.46,4.14,.62,.77,1.25,1.54,1.87,2.3,1.11,1.55,2.24,3.08,3.38,4.61Z" style="fill: #db0f1a;"/>
            </g>
            <g>
              <path d="M99.03,140.04c1.13,1.67,2.23,3.34,3.31,5.04,.53,.86,1.06,1.73,1.58,2.59,.03-.04,.05-.08,.07-.12,1.45-2.4,3.01-4.72,4.53-7.08,1.13-1.6,2.28-3.18,3.46-4.75,.6-.82,1.2-1.63,1.8-2.45,1.1-1.36,2.21-2.69,3.36-4.01,.15-.18,.31-.35,.46-.53-.67-.77-1.34-1.54-2.02-2.3-.65-.74-1.3-1.49-1.94-2.23-.6-.77-1.2-1.54-1.8-2.3-1.19-1.56-2.33-3.14-3.46-4.75-1.42-2.23-2.85-4.46-4.22-6.72-.08-.13-.16-.27-.25-.41-.41,.74-.82,1.49-1.22,2.23-1.01,1.6-2.05,3.18-3.1,4.75-1.16,1.55-2.31,3.11-3.46,4.68-.65,.79-1.3,1.58-1.94,2.38-.67,.79-1.34,1.58-2.02,2.38-.7,.77-1.39,1.54-2.09,2.3,.07,.09,.14,.17,.21,.25,1.16,1.38,2.31,2.76,3.46,4.14,.62,.77,1.25,1.54,1.87,2.3,1.11,1.55,2.24,3.08,3.38,4.61Z" style="fill: #db0f1a;"/>
              <path d="M99.03,140.04c1.13,1.67,2.23,3.34,3.31,5.04,.53,.86,1.06,1.73,1.58,2.59,.03-.04,.05-.08,.07-.12,1.45-2.4,3.01-4.72,4.53-7.08,1.13-1.6,2.28-3.18,3.46-4.75,.6-.82,1.2-1.63,1.8-2.45,1.1-1.36,2.21-2.69,3.36-4.01,.15-.18,.31-.35,.46-.53-.67-.77-1.34-1.54-2.02-2.3-.65-.74-1.3-1.49-1.94-2.23-.6-.77-1.2-1.54-1.8-2.3-1.19-1.56-2.33-3.14-3.46-4.75-1.42-2.23-2.85-4.46-4.22-6.72-.08-.13-.16-.27-.25-.41-.41,.74-.82,1.49-1.22,2.23-1.01,1.6-2.05,3.18-3.1,4.75-1.16,1.55-2.31,3.11-3.46,4.68-.65,.79-1.3,1.58-1.94,2.38-.67,.79-1.34,1.58-2.02,2.38-.7,.77-1.39,1.54-2.09,2.3,.07,.09,.14,.17,.21,.25,1.16,1.38,2.31,2.76,3.46,4.14,.62,.77,1.25,1.54,1.87,2.3,1.11,1.55,2.24,3.08,3.38,4.61Z" style="fill: #db0f1a;"/>
              <path d="M99.03,140.04c1.13,1.67,2.23,3.34,3.31,5.04,.53,.86,1.06,1.73,1.58,2.59,.03-.04,.05-.08,.07-.12,1.45-2.4,3.01-4.72,4.53-7.08,1.13-1.6,2.28-3.18,3.46-4.75,.6-.82,1.2-1.63,1.8-2.45,1.1-1.36,2.21-2.69,3.36-4.01,.15-.18,.31-.35,.46-.53-.67-.77-1.34-1.54-2.02-2.3-.65-.74-1.3-1.49-1.94-2.23-.6-.77-1.2-1.54-1.8-2.3-1.19-1.56-2.33-3.14-3.46-4.75-1.42-2.23-2.85-4.46-4.22-6.72-.08-.13-.16-.27-.25-.41-.41,.74-.82,1.49-1.22,2.23-1.01,1.6-2.05,3.18-3.1,4.75-1.16,1.55-2.31,3.11-3.46,4.68-.65,.79-1.3,1.58-1.94,2.38-.67,.79-1.34,1.58-2.02,2.38-.7,.77-1.39,1.54-2.09,2.3,.07,.09,.14,.17,.21,.25,1.16,1.38,2.31,2.76,3.46,4.14,.62,.77,1.25,1.54,1.87,2.3,1.11,1.55,2.24,3.08,3.38,4.61Z" style="fill: #db0f1a;"/>
            </g>
            <g>
              <path d="M99.03,98.82c1.13,1.67,2.23,3.34,3.31,5.04,.53,.86,1.06,1.73,1.58,2.59,.03-.04,.05-.08,.07-.12,1.45-2.4,3.01-4.72,4.53-7.08,1.13-1.6,2.28-3.18,3.46-4.75,.6-.82,1.2-1.63,1.8-2.45,1.1-1.35,2.21-2.69,3.36-4.01,.15-.18,.31-.35,.46-.53-.67-.77-1.34-1.54-2.02-2.3-.65-.74-1.3-1.49-1.94-2.23-.6-.77-1.2-1.54-1.8-2.3-1.19-1.56-2.33-3.14-3.46-4.75-1.42-2.23-2.85-4.46-4.22-6.72-.08-.14-.16-.27-.25-.41-.41,.74-.82,1.49-1.22,2.23-1.01,1.6-2.05,3.18-3.1,4.75-1.16,1.55-2.31,3.11-3.46,4.68-.65,.79-1.3,1.58-1.94,2.38-.67,.79-1.34,1.58-2.02,2.38-.7,.77-1.39,1.54-2.09,2.3,.07,.09,.14,.17,.21,.25,1.16,1.38,2.31,2.76,3.46,4.14l1.87,2.3c1.11,1.55,2.24,3.08,3.38,4.61Z" style="fill: #db0f1a;"/>
              <path d="M99.03,98.82c1.13,1.67,2.23,3.34,3.31,5.04,.53,.86,1.06,1.73,1.58,2.59,.03-.04,.05-.08,.07-.12,1.45-2.4,3.01-4.72,4.53-7.08,1.13-1.6,2.28-3.18,3.46-4.75,.6-.82,1.2-1.63,1.8-2.45,1.1-1.35,2.21-2.69,3.36-4.01,.15-.18,.31-.35,.46-.53-.67-.77-1.34-1.54-2.02-2.3-.65-.74-1.3-1.49-1.94-2.23-.6-.77-1.2-1.54-1.8-2.3-1.19-1.56-2.33-3.14-3.46-4.75-1.42-2.23-2.85-4.46-4.22-6.72-.08-.14-.16-.27-.25-.41-.41,.74-.82,1.49-1.22,2.23-1.01,1.6-2.05,3.18-3.1,4.75-1.16,1.55-2.31,3.11-3.46,4.68-.65,.79-1.3,1.58-1.94,2.38-.67,.79-1.34,1.58-2.02,2.38-.7,.77-1.39,1.54-2.09,2.3,.07,.09,.14,.17,.21,.25,1.16,1.38,2.31,2.76,3.46,4.14l1.87,2.3c1.11,1.55,2.24,3.08,3.38,4.61Z" style="fill: #db0f1a;"/>
              <path d="M99.03,98.82c1.13,1.67,2.23,3.34,3.31,5.04,.53,.86,1.06,1.73,1.58,2.59,.03-.04,.05-.08,.07-.12,1.45-2.4,3.01-4.72,4.53-7.08,1.13-1.6,2.28-3.18,3.46-4.75,.6-.82,1.2-1.63,1.8-2.45,1.1-1.35,2.21-2.69,3.36-4.01,.15-.18,.31-.35,.46-.53-.67-.77-1.34-1.54-2.02-2.3-.65-.74-1.3-1.49-1.94-2.23-.6-.77-1.2-1.54-1.8-2.3-1.19-1.56-2.33-3.14-3.46-4.75-1.42-2.23-2.85-4.46-4.22-6.72-.08-.14-.16-.27-.25-.41-.41,.74-.82,1.49-1.22,2.23-1.01,1.6-2.05,3.18-3.1,4.75-1.16,1.55-2.31,3.11-3.46,4.68-.65,.79-1.3,1.58-1.94,2.38-.67,.79-1.34,1.58-2.02,2.38-.7,.77-1.39,1.54-2.09,2.3,.07,.09,.14,.17,.21,.25,1.16,1.38,2.31,2.76,3.46,4.14l1.87,2.3c1.11,1.55,2.24,3.08,3.38,4.61Z" style="fill: #db0f1a;"/>
            </g>
          </g>
        </g>
        <g>
          <path d="M133.67,51.72c.48,.7,.94,1.41,1.4,2.13,.22,.37,.45,.73,.67,1.1,0-.02,.02-.03,.03-.05,.61-1.01,1.27-2,1.92-2.99,.48-.68,.96-1.35,1.46-2.01,.25-.35,.51-.69,.76-1.04,.47-.57,.93-1.14,1.42-1.7,.07-.07,.13-.15,.2-.22-.29-.33-.57-.65-.85-.97-.27-.31-.55-.63-.82-.94-.25-.32-.51-.65-.76-.97-.5-.66-.99-1.33-1.46-2.01-.6-.94-1.2-1.89-1.78-2.84-.04-.06-.07-.12-.1-.17-.17,.31-.35,.63-.52,.94-.43,.67-.87,1.34-1.31,2.01-.49,.66-.98,1.32-1.46,1.98-.27,.33-.55,.67-.82,1-.28,.33-.57,.67-.85,1-.29,.32-.59,.65-.88,.97,.03,.04,.06,.07,.09,.11,.49,.58,.97,1.17,1.46,1.75,.26,.32,.53,.65,.79,.97,.47,.65,.95,1.3,1.43,1.95Z" style="fill: #db0f1a;"/>
          <path d="M133.67,51.72c.48,.7,.94,1.41,1.4,2.13,.22,.37,.45,.73,.67,1.1,0-.02,.02-.03,.03-.05,.61-1.01,1.27-2,1.92-2.99,.48-.68,.96-1.35,1.46-2.01,.25-.35,.51-.69,.76-1.04,.47-.57,.93-1.14,1.42-1.7,.07-.07,.13-.15,.2-.22-.29-.33-.57-.65-.85-.97-.27-.31-.55-.63-.82-.94-.25-.32-.51-.65-.76-.97-.5-.66-.99-1.33-1.46-2.01-.6-.94-1.2-1.89-1.78-2.84-.04-.06-.07-.12-.1-.17-.17,.31-.35,.63-.52,.94-.43,.67-.87,1.34-1.31,2.01-.49,.66-.98,1.32-1.46,1.98-.27,.33-.55,.67-.82,1-.28,.33-.57,.67-.85,1-.29,.32-.59,.65-.88,.97,.03,.04,.06,.07,.09,.11,.49,.58,.97,1.17,1.46,1.75,.26,.32,.53,.65,.79,.97,.47,.65,.95,1.3,1.43,1.95Z" style="fill: #db0f1a;"/>
          <path d="M133.67,51.72c.48,.7,.94,1.41,1.4,2.13,.22,.37,.45,.73,.67,1.1,0-.02,.02-.03,.03-.05,.61-1.01,1.27-2,1.92-2.99,.48-.68,.96-1.35,1.46-2.01,.25-.35,.51-.69,.76-1.04,.47-.57,.93-1.14,1.42-1.7,.07-.07,.13-.15,.2-.22-.29-.33-.57-.65-.85-.97-.27-.31-.55-.63-.82-.94-.25-.32-.51-.65-.76-.97-.5-.66-.99-1.33-1.46-2.01-.6-.94-1.2-1.89-1.78-2.84-.04-.06-.07-.12-.1-.17-.17,.31-.35,.63-.52,.94-.43,.67-.87,1.34-1.31,2.01-.49,.66-.98,1.32-1.46,1.98-.27,.33-.55,.67-.82,1-.28,.33-.57,.67-.85,1-.29,.32-.59,.65-.88,.97,.03,.04,.06,.07,.09,.11,.49,.58,.97,1.17,1.46,1.75,.26,.32,.53,.65,.79,.97,.47,.65,.95,1.3,1.43,1.95Z" style="fill: #db0f1a;"/>
        </g>
        <g>
          <path d="M125.35,12.04l5.32-2.6h.53V27.91c0,1.23,.05,1.99,.15,2.29,.1,.3,.31,.53,.64,.69s.98,.25,1.97,.27v.6h-8.22v-.6c1.03-.02,1.7-.11,2-.27,.3-.16,.51-.37,.63-.63,.12-.26,.18-1.05,.18-2.36v-11.8c0-1.59-.05-2.61-.16-3.06-.07-.34-.21-.6-.41-.76-.2-.16-.44-.24-.72-.24-.4,0-.95,.17-1.66,.5l-.24-.5Z" style="fill: #db0f1a;"/>
          <path d="M134.56,20.96c0-2.49,.38-4.64,1.13-6.44,.75-1.8,1.75-3.14,3-4.02,.97-.7,1.97-1.05,3-1.05,1.68,0,3.18,.85,4.51,2.56,1.67,2.12,2.5,4.99,2.5,8.61,0,2.54-.37,4.69-1.1,6.47-.73,1.77-1.66,3.06-2.8,3.86-1.13,.8-2.23,1.2-3.28,1.2-2.09,0-3.82-1.23-5.21-3.69-1.17-2.08-1.76-4.58-1.76-7.5Zm3.16,.4c0,3.01,.37,5.47,1.11,7.37,.61,1.6,1.53,2.4,2.74,2.4,.58,0,1.18-.26,1.81-.78,.62-.52,1.1-1.4,1.42-2.62,.49-1.85,.74-4.46,.74-7.82,0-2.49-.26-4.58-.77-6.24-.39-1.24-.89-2.11-1.5-2.63-.44-.35-.97-.53-1.6-.53-.73,0-1.38,.33-1.95,.98-.77,.89-1.3,2.29-1.58,4.21-.28,1.91-.42,3.8-.42,5.66Z" style="fill: #db0f1a;"/>
        </g>
        <g>
          <path d="M18.98,163.45c-.48-.71-.94-1.41-1.4-2.13-.22-.37-.45-.73-.67-1.1,0,.02-.02,.03-.03,.05-.61,1.01-1.27,2-1.92,2.99-.48,.68-.96,1.35-1.46,2.01-.25,.35-.51,.69-.76,1.04-.46,.57-.93,1.14-1.42,1.7-.07,.07-.13,.15-.19,.22,.28,.33,.57,.65,.85,.97,.27,.31,.55,.63,.82,.94,.25,.32,.51,.65,.76,.97,.5,.66,.99,1.33,1.46,2.01,.6,.94,1.2,1.88,1.78,2.84,.04,.06,.07,.12,.1,.17,.17-.31,.35-.63,.52-.94,.43-.67,.87-1.34,1.31-2.01,.49-.66,.98-1.32,1.46-1.98,.27-.34,.55-.67,.82-1,.28-.34,.57-.67,.85-1,.29-.33,.59-.65,.88-.97-.03-.04-.06-.07-.09-.11-.49-.58-.98-1.16-1.46-1.75-.26-.33-.53-.65-.79-.97-.47-.66-.95-1.3-1.43-1.95Z" style="fill: #db0f1a;"/>
          <path d="M18.98,163.45c-.48-.71-.94-1.41-1.4-2.13-.22-.37-.45-.73-.67-1.1,0,.02-.02,.03-.03,.05-.61,1.01-1.27,2-1.92,2.99-.48,.68-.96,1.35-1.46,2.01-.25,.35-.51,.69-.76,1.04-.46,.57-.93,1.14-1.42,1.7-.07,.07-.13,.15-.19,.22,.28,.33,.57,.65,.85,.97,.27,.31,.55,.63,.82,.94,.25,.32,.51,.65,.76,.97,.5,.66,.99,1.33,1.46,2.01,.6,.94,1.2,1.88,1.78,2.84,.04,.06,.07,.12,.1,.17,.17-.31,.35-.63,.52-.94,.43-.67,.87-1.34,1.31-2.01,.49-.66,.98-1.32,1.46-1.98,.27-.34,.55-.67,.82-1,.28-.34,.57-.67,.85-1,.29-.33,.59-.65,.88-.97-.03-.04-.06-.07-.09-.11-.49-.58-.98-1.16-1.46-1.75-.26-.33-.53-.65-.79-.97-.47-.66-.95-1.3-1.43-1.95Z" style="fill: #db0f1a;"/>
          <path d="M18.98,163.45c-.48-.71-.94-1.41-1.4-2.13-.22-.37-.45-.73-.67-1.1,0,.02-.02,.03-.03,.05-.61,1.01-1.27,2-1.92,2.99-.48,.68-.96,1.35-1.46,2.01-.25,.35-.51,.69-.76,1.04-.46,.57-.93,1.14-1.42,1.7-.07,.07-.13,.15-.19,.22,.28,.33,.57,.65,.85,.97,.27,.31,.55,.63,.82,.94,.25,.32,.51,.65,.76,.97,.5,.66,.99,1.33,1.46,2.01,.6,.94,1.2,1.88,1.78,2.84,.04,.06,.07,.12,.1,.17,.17-.31,.35-.63,.52-.94,.43-.67,.87-1.34,1.31-2.01,.49-.66,.98-1.32,1.46-1.98,.27-.34,.55-.67,.82-1,.28-.34,.57-.67,.85-1,.29-.33,.59-.65,.88-.97-.03-.04-.06-.07-.09-.11-.49-.58-.98-1.16-1.46-1.75-.26-.33-.53-.65-.79-.97-.47-.66-.95-1.3-1.43-1.95Z" style="fill: #db0f1a;"/>
        </g>
        <g>
          <path d="M25.97,201.95l-5.32,2.6h-.53v-18.46c0-1.22-.05-1.99-.15-2.29-.1-.3-.31-.53-.64-.69-.32-.16-.98-.25-1.97-.27v-.6h8.22v.6c-1.03,.02-1.7,.11-2,.27-.3,.16-.51,.37-.63,.63-.12,.26-.18,1.05-.18,2.36v11.8c0,1.59,.05,2.61,.16,3.06,.07,.34,.21,.6,.41,.76,.2,.16,.44,.24,.72,.24,.4,0,.95-.17,1.66-.5l.24,.5Z" style="fill: #db0f1a;"/>
          <path d="M16.76,193.03c0,2.49-.38,4.64-1.13,6.44-.75,1.8-1.75,3.14-3,4.02-.97,.7-1.97,1.05-3,1.05-1.68,0-3.18-.85-4.51-2.56-1.67-2.12-2.5-4.99-2.5-8.61,0-2.54,.37-4.69,1.1-6.47,.73-1.77,1.66-3.06,2.8-3.86,1.13-.8,2.23-1.2,3.28-1.2,2.09,0,3.82,1.23,5.21,3.69,1.17,2.08,1.76,4.58,1.76,7.5Zm-3.16-.4c0-3.01-.37-5.47-1.11-7.37-.61-1.6-1.53-2.4-2.74-2.4-.58,0-1.18,.26-1.81,.78-.62,.52-1.1,1.4-1.42,2.62-.49,1.85-.74,4.46-.74,7.82,0,2.49,.26,4.58,.77,6.24,.39,1.24,.89,2.11,1.5,2.63,.44,.35,.97,.53,1.6,.53,.73,0,1.38-.33,1.95-.98,.77-.89,1.3-2.3,1.58-4.21,.28-1.91,.42-3.8,.42-5.66Z" style="fill: #db0f1a;"/>
        </g>
      </g>
    </g>
  </g>
</svg>