<?xml version="1.0" encoding="UTF-8"?>
<svg id="Playing_Cards" data-name="Playing Cards" xmlns="http://www.w3.org/2000/svg" viewBox="0 0 152.06 215.64">
  <g id="Cards">
    <g id="Hearts">
      <g>
        <path d="M6.47,.02H145.45c.47,0,.95,.06,1.41,.17l.11,.03c.98,.25,1.88,.74,2.61,1.44l.04,.04c.48,.46,.87,1,1.17,1.59l.41,.83c.29,.58,.48,1.2,.56,1.84l.26,1.97c.03,.25,.05,.5,.05,.75V207.06c0,.26-.02,.52-.05,.78l-.25,1.86c-.08,.61-.26,1.2-.53,1.75l-.41,.85c-.32,.65-.75,1.23-1.28,1.72l-.05,.04c-.67,.62-1.48,1.07-2.36,1.32l-.19,.05c-.51,.14-1.04,.22-1.57,.22H6.56c-.53,0-1.06-.07-1.57-.22l-.14-.04c-.92-.26-1.76-.74-2.44-1.4h0c-.49-.48-.9-1.04-1.2-1.65l-.41-.84c-.29-.59-.47-1.23-.55-1.88l-.21-1.85c-.02-.22-.04-.44-.04-.65V8.62c0-.21,.01-.42,.03-.63l.21-1.96c.07-.68,.27-1.35,.58-1.97l.41-.82c.28-.56,.65-1.07,1.09-1.51h0C3.06,.99,3.99,.47,5.01,.21h.05c.46-.13,.93-.19,1.41-.19Z" style="fill: #fff; fill-rule: evenodd;"/>
        <g>
          <path d="M23.81,26.93l-1.51,4.16H9.55v-.59c3.75-3.42,6.39-6.21,7.92-8.38,1.53-2.17,2.29-4.15,2.29-5.94,0-1.37-.42-2.5-1.26-3.38-.84-.88-1.84-1.32-3.01-1.32-1.06,0-2.02,.31-2.86,.93-.85,.62-1.47,1.53-1.87,2.73h-.59c.27-1.96,.95-3.47,2.05-4.53,1.1-1.05,2.47-1.58,4.12-1.58,1.75,0,3.22,.56,4.39,1.69s1.76,2.45,1.76,3.98c0,1.09-.25,2.19-.76,3.28-.79,1.72-2.06,3.54-3.82,5.46-2.64,2.89-4.3,4.63-4.96,5.23h5.64c1.15,0,1.95-.04,2.41-.13,.46-.08,.88-.26,1.25-.52,.37-.26,.7-.63,.97-1.11h.59Z" style="fill: #db0f1a;"/>
          <path d="M128.26,188.75l1.51-4.16h12.75v.59c-3.75,3.42-6.39,6.21-7.92,8.38-1.53,2.17-2.29,4.15-2.29,5.94,0,1.37,.42,2.5,1.26,3.38,.84,.88,1.84,1.32,3.01,1.32,1.06,0,2.02-.31,2.86-.93,.84-.62,1.47-1.53,1.87-2.73h.59c-.27,1.96-.95,3.47-2.05,4.53-1.1,1.05-2.47,1.58-4.12,1.58-1.75,0-3.22-.56-4.39-1.69-1.17-1.13-1.76-2.45-1.76-3.98,0-1.09,.25-2.19,.76-3.28,.79-1.72,2.06-3.54,3.82-5.46,2.65-2.89,4.3-4.63,4.96-5.23h-5.64c-1.15,0-1.95,.04-2.41,.13-.46,.09-.88,.26-1.25,.52-.37,.26-.7,.63-.97,1.11h-.59Z" style="fill: #db0f1a;"/>
        </g>
        <g>
          <path d="M14.8,48.28c.5,.67,.95,1.41,1.28,2.28,.08,.22,.16,.44,.23,.67,.06,.19,.1,.28,.14,.28,.01,0,.03,0,.04-.03,.01,.02,.02,.03,.04,.03,.13,0,.25-.62,.29-.73,.32-.91,.8-1.74,1.37-2.5,1.51-2.02,3.46-3.37,3.97-5.39,.34-1.34,.01-2.94-.9-3.98-.52-.59-1.19-.95-1.93-.95-.89,0-1.68,.52-2.22,1.34-.28,.43-.5,.94-.62,1.51-.35-1.64-1.49-2.85-2.84-2.85-.74,0-1.41,.36-1.93,.95-.91,1.04-1.24,2.63-.9,3.98,.51,2.01,2.46,3.37,3.97,5.39Z" style="fill: #db0f1a;"/>
          <path d="M137.26,167.41c-.5-.67-.95-1.41-1.28-2.28-.08-.22-.16-.44-.23-.67-.06-.19-.1-.28-.14-.28-.01,0-.03,0-.04,.03-.01-.02-.02-.03-.04-.03-.13,0-.25,.62-.29,.73-.32,.91-.8,1.74-1.37,2.5-1.51,2.02-3.46,3.37-3.97,5.39-.34,1.34-.01,2.94,.9,3.98,.52,.59,1.19,.95,1.93,.95,.89,0,1.68-.52,2.22-1.34,.28-.43,.5-.94,.62-1.51,.35,1.64,1.49,2.85,2.84,2.85,.74,0,1.41-.36,1.93-.95,.91-1.04,1.24-2.63,.9-3.98-.51-2.02-2.46-3.37-3.97-5.39Z" style="fill: #db0f1a;"/>
        </g>
        <g>
          <path d="M71.63,67.95c1.3,1.74,2.47,3.67,3.33,5.92,.22,.56,.42,1.14,.59,1.75,.14,.5,.27,.73,.38,.74,.03,0,.07-.02,.1-.07,.03,.05,.06,.07,.1,.07,.34-.02,.65-1.61,.75-1.9,.84-2.35,2.07-4.51,3.54-6.5,3.91-5.25,8.99-8.75,10.31-13.98,.88-3.48,.03-7.63-2.33-10.32-1.34-1.53-3.09-2.45-5-2.45-2.31,0-4.37,1.35-5.77,3.48-.73,1.12-1.29,2.45-1.6,3.91-.9-4.26-3.86-7.39-7.37-7.39-1.91,0-3.66,.93-5,2.45-2.36,2.69-3.22,6.84-2.33,10.32,1.32,5.23,6.4,8.73,10.31,13.98Z" style="fill: #db0f1a;"/>
          <path d="M71.63,166.1c1.3,1.74,2.47,3.67,3.33,5.92,.22,.56,.42,1.14,.59,1.75,.14,.5,.27,.73,.38,.74,.03,0,.07-.02,.1-.07,.03,.05,.06,.07,.1,.07,.34-.02,.65-1.61,.75-1.9,.84-2.35,2.07-4.51,3.54-6.5,3.91-5.25,8.99-8.75,10.31-13.98,.88-3.48,.03-7.63-2.33-10.32-1.34-1.53-3.09-2.46-5-2.46-2.31,0-4.37,1.35-5.77,3.48-.73,1.12-1.29,2.45-1.6,3.91-.9-4.26-3.86-7.39-7.37-7.39-1.91,0-3.66,.93-5,2.46-2.36,2.69-3.22,6.84-2.33,10.32,1.32,5.23,6.4,8.73,10.31,13.98Z" style="fill: #db0f1a;"/>
        </g>
        <path d="M142.64,27.24l-1.51,4.16h-12.75v-.59c3.75-3.42,6.39-6.21,7.92-8.38,1.53-2.17,2.29-4.15,2.29-5.94,0-1.37-.42-2.5-1.26-3.38-.84-.88-1.84-1.32-3.01-1.32-1.06,0-2.02,.31-2.86,.93-.85,.62-1.47,1.53-1.87,2.73h-.59c.27-1.96,.95-3.47,2.05-4.53,1.1-1.05,2.47-1.58,4.12-1.58,1.75,0,3.22,.56,4.39,1.69s1.76,2.45,1.76,3.98c0,1.09-.25,2.19-.76,3.28-.79,1.72-2.06,3.54-3.82,5.46-2.64,2.89-4.3,4.63-4.96,5.23h5.64c1.15,0,1.95-.04,2.41-.13,.46-.08,.88-.26,1.25-.52,.37-.26,.7-.63,.97-1.11h.59Z" style="fill: #db0f1a;"/>
        <path d="M133.64,48.59c.5,.67,.95,1.41,1.28,2.28,.08,.22,.16,.44,.23,.67,.06,.19,.1,.28,.14,.28,.01,0,.03,0,.04-.03,.01,.02,.02,.03,.04,.03,.13,0,.25-.62,.29-.73,.32-.91,.8-1.74,1.37-2.5,1.51-2.02,3.46-3.37,3.97-5.39,.34-1.34,.01-2.94-.9-3.98-.52-.59-1.19-.95-1.93-.95-.89,0-1.68,.52-2.22,1.34-.28,.43-.5,.94-.62,1.51-.35-1.64-1.49-2.85-2.84-2.85-.74,0-1.41,.36-1.93,.95-.91,1.04-1.24,2.63-.9,3.98,.51,2.01,2.46,3.37,3.97,5.39Z" style="fill: #db0f1a;"/>
        <path d="M9.54,187.95l1.51-4.16h12.75v.59c-3.75,3.42-6.39,6.21-7.92,8.38-1.53,2.17-2.29,4.15-2.29,5.94,0,1.37,.42,2.5,1.26,3.38,.84,.88,1.84,1.32,3.01,1.32,1.06,0,2.02-.31,2.86-.93,.84-.62,1.47-1.53,1.87-2.73h.59c-.27,1.96-.95,3.47-2.05,4.53-1.1,1.05-2.47,1.58-4.12,1.58-1.75,0-3.22-.56-4.39-1.69-1.17-1.13-1.76-2.45-1.76-3.98,0-1.09,.25-2.19,.76-3.28,.79-1.72,2.06-3.54,3.82-5.46,2.65-2.89,4.3-4.63,4.96-5.23h-5.64c-1.15,0-1.95,.04-2.41,.13-.46,.09-.88,.26-1.25,.52-.37,.26-.7,.63-.97,1.11h-.59Z" style="fill: #db0f1a;"/>
        <path d="M18.55,166.61c-.5-.67-.95-1.41-1.28-2.28-.08-.22-.16-.44-.23-.67-.06-.19-.1-.28-.14-.28-.01,0-.03,0-.04,.03-.01-.02-.02-.03-.04-.03-.13,0-.25,.62-.29,.73-.32,.91-.8,1.74-1.37,2.5-1.51,2.02-3.46,3.37-3.97,5.39-.34,1.34-.01,2.94,.9,3.98,.52,.59,1.19,.95,1.93,.95,.89,0,1.68-.52,2.22-1.34,.28-.43,.5-.94,.62-1.51,.35,1.64,1.49,2.85,2.84,2.85,.74,0,1.41-.36,1.93-.95,.91-1.04,1.24-2.63,.9-3.98-.51-2.02-2.46-3.37-3.97-5.39Z" style="fill: #db0f1a;"/>
      </g>
    </g>
  </g>
</svg>