<?xml version="1.0" encoding="UTF-8"?>
<svg id="Playing_Cards" data-name="Playing Cards" xmlns="http://www.w3.org/2000/svg" viewBox="0 0 152.06 215.64">
  <g id="Cards">
    <g id="Diamonds">
      <g>
        <g>
          <path d="M6.47,.14H145.44c.47,0,.95,.06,1.41,.17l.11,.03c.98,.25,1.88,.74,2.61,1.44l.04,.04c.48,.46,.87,1,1.17,1.59l.41,.83c.29,.58,.48,1.2,.56,1.84l.26,1.97c.03,.25,.05,.5,.05,.75V207.18c0,.26-.02,.52-.05,.78l-.25,1.86c-.08,.61-.26,1.2-.53,1.75l-.41,.85c-.32,.65-.75,1.24-1.28,1.73l-.05,.04c-.67,.62-1.48,1.07-2.36,1.32l-.2,.06c-.51,.14-1.04,.22-1.57,.22H6.56c-.53,0-1.06-.07-1.57-.22l-.14-.04c-.92-.26-1.76-.74-2.44-1.4h0c-.49-.48-.9-1.04-1.2-1.65l-.41-.84c-.29-.59-.47-1.23-.55-1.88l-.21-1.85c-.02-.22-.04-.43-.04-.65V8.73c0-.21,.01-.42,.03-.62l.21-1.96c.07-.68,.27-1.35,.58-1.97l.41-.82c.28-.56,.64-1.06,1.08-1.5h0c.74-.74,1.67-1.27,2.69-1.53h.05c.46-.13,.93-.19,1.41-.19Z" style="fill: #fff; fill-rule: evenodd;"/>
          <g>
            <path d="M14.6,51.53c.48,.7,.94,1.41,1.4,2.13,.22,.37,.45,.73,.67,1.1,0-.02,.02-.03,.03-.05,.61-1.01,1.27-2,1.92-2.99,.48-.68,.96-1.35,1.46-2.01,.25-.35,.51-.69,.76-1.04,.47-.57,.93-1.14,1.42-1.7,.07-.07,.13-.15,.2-.22-.29-.33-.57-.65-.85-.97-.27-.31-.55-.63-.82-.94-.25-.32-.51-.65-.76-.97-.5-.66-.99-1.33-1.46-2.01-.6-.94-1.2-1.89-1.78-2.84-.04-.06-.07-.12-.1-.17-.17,.31-.35,.63-.52,.94-.43,.67-.87,1.34-1.31,2.01-.49,.66-.98,1.32-1.46,1.98-.27,.34-.55,.67-.82,1-.28,.34-.57,.67-.85,1-.29,.32-.59,.65-.88,.97,.03,.04,.06,.07,.09,.11,.49,.58,.97,1.17,1.46,1.75,.26,.32,.53,.65,.79,.97,.47,.65,.95,1.3,1.43,1.95Z" style="fill: #db0f1a;"/>
            <path d="M14.6,51.53c.48,.7,.94,1.41,1.4,2.13,.22,.37,.45,.73,.67,1.1,0-.02,.02-.03,.03-.05,.61-1.01,1.27-2,1.92-2.99,.48-.68,.96-1.35,1.46-2.01,.25-.35,.51-.69,.76-1.04,.47-.57,.93-1.14,1.42-1.7,.07-.07,.13-.15,.2-.22-.29-.33-.57-.65-.85-.97-.27-.31-.55-.63-.82-.94-.25-.32-.51-.65-.76-.97-.5-.66-.99-1.33-1.46-2.01-.6-.94-1.2-1.89-1.78-2.84-.04-.06-.07-.12-.1-.17-.17,.31-.35,.63-.52,.94-.43,.67-.87,1.34-1.31,2.01-.49,.66-.98,1.32-1.46,1.98-.27,.34-.55,.67-.82,1-.28,.34-.57,.67-.85,1-.29,.32-.59,.65-.88,.97,.03,.04,.06,.07,.09,.11,.49,.58,.97,1.17,1.46,1.75,.26,.32,.53,.65,.79,.97,.47,.65,.95,1.3,1.43,1.95Z" style="fill: #db0f1a;"/>
            <path d="M14.6,51.53c.48,.7,.94,1.41,1.4,2.13,.22,.37,.45,.73,.67,1.1,0-.02,.02-.03,.03-.05,.61-1.01,1.27-2,1.92-2.99,.48-.68,.96-1.35,1.46-2.01,.25-.35,.51-.69,.76-1.04,.47-.57,.93-1.14,1.42-1.7,.07-.07,.13-.15,.2-.22-.29-.33-.57-.65-.85-.97-.27-.31-.55-.63-.82-.94-.25-.32-.51-.65-.76-.97-.5-.66-.99-1.33-1.46-2.01-.6-.94-1.2-1.89-1.78-2.84-.04-.06-.07-.12-.1-.17-.17,.31-.35,.63-.52,.94-.43,.67-.87,1.34-1.31,2.01-.49,.66-.98,1.32-1.46,1.98-.27,.34-.55,.67-.82,1-.28,.34-.57,.67-.85,1-.29,.32-.59,.65-.88,.97,.03,.04,.06,.07,.09,.11,.49,.58,.97,1.17,1.46,1.75,.26,.32,.53,.65,.79,.97,.47,.65,.95,1.3,1.43,1.95Z" style="fill: #db0f1a;"/>
          </g>
          <g>
            <path d="M137.46,164.38c-.48-.7-.94-1.41-1.4-2.13-.22-.37-.45-.73-.67-1.1,0,.02-.02,.03-.03,.05-.61,1.01-1.27,2-1.92,2.99-.48,.68-.96,1.35-1.46,2.01-.25,.35-.51,.69-.76,1.04-.46,.57-.93,1.14-1.42,1.7-.07,.07-.13,.15-.19,.22,.28,.33,.57,.65,.85,.97,.27,.31,.55,.63,.82,.94,.25,.32,.51,.65,.76,.97,.5,.66,.99,1.33,1.46,2.01,.6,.94,1.2,1.89,1.78,2.84,.04,.06,.07,.12,.1,.17,.17-.31,.35-.63,.52-.94,.43-.67,.87-1.34,1.31-2.01,.49-.66,.98-1.32,1.46-1.98,.27-.33,.55-.67,.82-1,.28-.33,.57-.67,.85-1,.29-.32,.59-.65,.88-.97-.03-.04-.06-.07-.09-.11-.49-.58-.98-1.17-1.46-1.75-.26-.32-.53-.65-.79-.97-.47-.65-.95-1.3-1.43-1.95Z" style="fill: #db0f1a;"/>
            <path d="M137.46,164.38c-.48-.7-.94-1.41-1.4-2.13-.22-.37-.45-.73-.67-1.1,0,.02-.02,.03-.03,.05-.61,1.01-1.27,2-1.92,2.99-.48,.68-.96,1.35-1.46,2.01-.25,.35-.51,.69-.76,1.04-.46,.57-.93,1.14-1.42,1.7-.07,.07-.13,.15-.19,.22,.28,.33,.57,.65,.85,.97,.27,.31,.55,.63,.82,.94,.25,.32,.51,.65,.76,.97,.5,.66,.99,1.33,1.46,2.01,.6,.94,1.2,1.89,1.78,2.84,.04,.06,.07,.12,.1,.17,.17-.31,.35-.63,.52-.94,.43-.67,.87-1.34,1.31-2.01,.49-.66,.98-1.32,1.46-1.98,.27-.33,.55-.67,.82-1,.28-.33,.57-.67,.85-1,.29-.32,.59-.65,.88-.97-.03-.04-.06-.07-.09-.11-.49-.58-.98-1.17-1.46-1.75-.26-.32-.53-.65-.79-.97-.47-.65-.95-1.3-1.43-1.95Z" style="fill: #db0f1a;"/>
            <path d="M137.46,164.38c-.48-.7-.94-1.41-1.4-2.13-.22-.37-.45-.73-.67-1.1,0,.02-.02,.03-.03,.05-.61,1.01-1.27,2-1.92,2.99-.48,.68-.96,1.35-1.46,2.01-.25,.35-.51,.69-.76,1.04-.46,.57-.93,1.14-1.42,1.7-.07,.07-.13,.15-.19,.22,.28,.33,.57,.65,.85,.97,.27,.31,.55,.63,.82,.94,.25,.32,.51,.65,.76,.97,.5,.66,.99,1.33,1.46,2.01,.6,.94,1.2,1.89,1.78,2.84,.04,.06,.07,.12,.1,.17,.17-.31,.35-.63,.52-.94,.43-.67,.87-1.34,1.31-2.01,.49-.66,.98-1.32,1.46-1.98,.27-.33,.55-.67,.82-1,.28-.33,.57-.67,.85-1,.29-.32,.59-.65,.88-.97-.03-.04-.06-.07-.09-.11-.49-.58-.98-1.17-1.46-1.75-.26-.32-.53-.65-.79-.97-.47-.65-.95-1.3-1.43-1.95Z" style="fill: #db0f1a;"/>
          </g>
          <path d="M11.15,14.07c.62-1.46,1.39-2.58,2.33-3.37,.94-.79,2.11-1.19,3.51-1.19,1.73,0,3.06,.56,3.98,1.69,.7,.84,1.05,1.74,1.05,2.69,0,1.57-.99,3.2-2.96,4.88,1.33,.52,2.33,1.26,3.01,2.23,.68,.97,1.02,2.1,1.02,3.41,0,1.87-.6,3.49-1.79,4.86-1.55,1.78-3.8,2.68-6.74,2.68-1.46,0-2.45-.18-2.97-.54-.53-.36-.79-.75-.79-1.16,0-.31,.12-.58,.37-.81,.25-.23,.55-.35,.9-.35,.27,0,.54,.04,.81,.13,.18,.05,.59,.25,1.23,.58,.64,.34,1.08,.53,1.32,.6,.39,.12,.81,.18,1.26,.18,1.08,0,2.03-.42,2.83-1.26,.8-.84,1.2-1.83,1.2-2.98,0-.84-.19-1.66-.56-2.45-.28-.59-.58-1.05-.91-1.35-.46-.42-1.08-.81-1.88-1.16-.8-.34-1.61-.52-2.44-.52h-.51v-.48c.84-.11,1.68-.41,2.53-.91,.84-.5,1.46-1.1,1.84-1.8,.38-.7,.57-1.47,.57-2.31,0-1.09-.34-1.98-1.03-2.65-.69-.67-1.54-1.01-2.56-1.01-1.65,0-3.02,.88-4.13,2.65l-.53-.25Z" style="fill: #db0f1a;"/>
          <path d="M140.7,200.48c-.62,1.46-1.39,2.58-2.33,3.37-.94,.79-2.11,1.19-3.51,1.19-1.73,0-3.06-.56-3.98-1.69-.7-.84-1.05-1.74-1.05-2.69,0-1.57,.99-3.2,2.96-4.88-1.33-.52-2.33-1.26-3.01-2.23s-1.02-2.1-1.02-3.41c0-1.87,.59-3.49,1.78-4.86,1.55-1.78,3.8-2.68,6.74-2.68,1.46,0,2.45,.18,2.97,.54,.53,.36,.79,.75,.79,1.16,0,.31-.13,.58-.37,.81-.25,.23-.55,.35-.9,.35-.27,0-.54-.04-.81-.13-.18-.05-.59-.25-1.23-.58-.64-.33-1.08-.53-1.32-.6-.39-.12-.81-.18-1.26-.18-1.08,0-2.03,.42-2.83,1.26-.8,.84-1.2,1.83-1.2,2.98,0,.84,.19,1.66,.56,2.45,.28,.59,.58,1.05,.91,1.35,.46,.42,1.08,.81,1.88,1.16,.8,.34,1.61,.52,2.44,.52h.51v.48c-.84,.11-1.68,.41-2.53,.91-.84,.5-1.46,1.1-1.84,1.8-.38,.7-.57,1.47-.57,2.31,0,1.09,.34,1.98,1.03,2.65,.69,.67,1.54,1.01,2.56,1.01,1.65,0,3.02-.88,4.13-2.65l.53,.25Z" style="fill: #db0f1a;"/>
        </g>
        <g>
          <g>
            <path d="M71.13,57.32c1.13,1.67,2.23,3.34,3.31,5.04,.53,.86,1.06,1.73,1.58,2.59,.02-.04,.05-.08,.07-.12,1.45-2.4,3.01-4.72,4.53-7.08,1.13-1.6,2.28-3.18,3.46-4.75,.6-.82,1.2-1.63,1.8-2.45,1.1-1.35,2.21-2.69,3.36-4.01,.15-.18,.31-.35,.46-.53-.67-.77-1.34-1.54-2.02-2.3-.65-.74-1.3-1.49-1.94-2.23-.6-.77-1.2-1.54-1.8-2.3-1.18-1.56-2.33-3.14-3.46-4.75-1.42-2.23-2.85-4.46-4.22-6.72-.08-.14-.16-.27-.25-.41-.41,.74-.82,1.49-1.22,2.23-1.02,1.6-2.05,3.18-3.1,4.75-1.17,1.55-2.32,3.11-3.46,4.68-.65,.79-1.29,1.58-1.94,2.38-.67,.79-1.34,1.58-2.02,2.38-.7,.77-1.39,1.54-2.09,2.3,.07,.08,.14,.17,.21,.25,1.16,1.38,2.31,2.76,3.46,4.14,.62,.77,1.25,1.54,1.87,2.3,1.11,1.55,2.24,3.08,3.38,4.61Z" style="fill: #db0f1a;"/>
            <path d="M71.13,57.32c1.13,1.67,2.23,3.34,3.31,5.04,.53,.86,1.06,1.73,1.58,2.59,.02-.04,.05-.08,.07-.12,1.45-2.4,3.01-4.72,4.53-7.08,1.13-1.6,2.28-3.18,3.46-4.75,.6-.82,1.2-1.63,1.8-2.45,1.1-1.35,2.21-2.69,3.36-4.01,.15-.18,.31-.35,.46-.53-.67-.77-1.34-1.54-2.02-2.3-.65-.74-1.3-1.49-1.94-2.23-.6-.77-1.2-1.54-1.8-2.3-1.18-1.56-2.33-3.14-3.46-4.75-1.42-2.23-2.85-4.46-4.22-6.72-.08-.14-.16-.27-.25-.41-.41,.74-.82,1.49-1.22,2.23-1.02,1.6-2.05,3.18-3.1,4.75-1.17,1.55-2.32,3.11-3.46,4.68-.65,.79-1.29,1.58-1.94,2.38-.67,.79-1.34,1.58-2.02,2.38-.7,.77-1.39,1.54-2.09,2.3,.07,.08,.14,.17,.21,.25,1.16,1.38,2.31,2.76,3.46,4.14,.62,.77,1.25,1.54,1.87,2.3,1.11,1.55,2.24,3.08,3.38,4.61Z" style="fill: #db0f1a;"/>
            <path d="M71.13,57.32c1.13,1.67,2.23,3.34,3.31,5.04,.53,.86,1.06,1.73,1.58,2.59,.02-.04,.05-.08,.07-.12,1.45-2.4,3.01-4.72,4.53-7.08,1.13-1.6,2.28-3.18,3.46-4.75,.6-.82,1.2-1.63,1.8-2.45,1.1-1.35,2.21-2.69,3.36-4.01,.15-.18,.31-.35,.46-.53-.67-.77-1.34-1.54-2.02-2.3-.65-.74-1.3-1.49-1.94-2.23-.6-.77-1.2-1.54-1.8-2.3-1.18-1.56-2.33-3.14-3.46-4.75-1.42-2.23-2.85-4.46-4.22-6.72-.08-.14-.16-.27-.25-.41-.41,.74-.82,1.49-1.22,2.23-1.02,1.6-2.05,3.18-3.1,4.75-1.17,1.55-2.32,3.11-3.46,4.68-.65,.79-1.29,1.58-1.94,2.38-.67,.79-1.34,1.58-2.02,2.38-.7,.77-1.39,1.54-2.09,2.3,.07,.08,.14,.17,.21,.25,1.16,1.38,2.31,2.76,3.46,4.14,.62,.77,1.25,1.54,1.87,2.3,1.11,1.55,2.24,3.08,3.38,4.61Z" style="fill: #db0f1a;"/>
          </g>
          <g>
            <path d="M71.13,180.99c1.13,1.67,2.23,3.34,3.31,5.04,.53,.86,1.06,1.73,1.58,2.59,.02-.04,.05-.08,.07-.12,1.45-2.4,3.01-4.72,4.53-7.08,1.13-1.6,2.28-3.18,3.46-4.75,.6-.82,1.2-1.63,1.8-2.45,1.1-1.35,2.21-2.69,3.36-4.01,.15-.18,.31-.35,.46-.53-.67-.77-1.34-1.54-2.02-2.3-.65-.74-1.3-1.49-1.94-2.23-.6-.77-1.2-1.54-1.8-2.3-1.18-1.56-2.33-3.14-3.46-4.75-1.42-2.23-2.85-4.46-4.22-6.72-.08-.14-.16-.27-.25-.41-.41,.74-.82,1.49-1.22,2.23-1.02,1.6-2.05,3.18-3.1,4.75-1.17,1.55-2.32,3.11-3.46,4.68-.65,.79-1.29,1.58-1.94,2.38-.67,.79-1.34,1.58-2.02,2.38-.7,.77-1.39,1.54-2.09,2.3,.07,.08,.14,.17,.21,.25,1.16,1.38,2.31,2.76,3.46,4.14,.62,.77,1.25,1.54,1.87,2.3,1.11,1.55,2.24,3.08,3.38,4.61Z" style="fill: #db0f1a;"/>
            <path d="M71.13,180.99c1.13,1.67,2.23,3.34,3.31,5.04,.53,.86,1.06,1.73,1.58,2.59,.02-.04,.05-.08,.07-.12,1.45-2.4,3.01-4.72,4.53-7.08,1.13-1.6,2.28-3.18,3.46-4.75,.6-.82,1.2-1.63,1.8-2.45,1.1-1.35,2.21-2.69,3.36-4.01,.15-.18,.31-.35,.46-.53-.67-.77-1.34-1.54-2.02-2.3-.65-.74-1.3-1.49-1.94-2.23-.6-.77-1.2-1.54-1.8-2.3-1.18-1.56-2.33-3.14-3.46-4.75-1.42-2.23-2.85-4.46-4.22-6.72-.08-.14-.16-.27-.25-.41-.41,.74-.82,1.49-1.22,2.23-1.02,1.6-2.05,3.18-3.1,4.75-1.17,1.55-2.32,3.11-3.46,4.68-.65,.79-1.29,1.58-1.94,2.38-.67,.79-1.34,1.58-2.02,2.38-.7,.77-1.39,1.54-2.09,2.3,.07,.08,.14,.17,.21,.25,1.16,1.38,2.31,2.76,3.46,4.14,.62,.77,1.25,1.54,1.87,2.3,1.11,1.55,2.24,3.08,3.38,4.61Z" style="fill: #db0f1a;"/>
            <path d="M71.13,180.99c1.13,1.67,2.23,3.34,3.31,5.04,.53,.86,1.06,1.73,1.58,2.59,.02-.04,.05-.08,.07-.12,1.45-2.4,3.01-4.72,4.53-7.08,1.13-1.6,2.28-3.18,3.46-4.75,.6-.82,1.2-1.63,1.8-2.45,1.1-1.35,2.21-2.69,3.36-4.01,.15-.18,.31-.35,.46-.53-.67-.77-1.34-1.54-2.02-2.3-.65-.74-1.3-1.49-1.94-2.23-.6-.77-1.2-1.54-1.8-2.3-1.18-1.56-2.33-3.14-3.46-4.75-1.42-2.23-2.85-4.46-4.22-6.72-.08-.14-.16-.27-.25-.41-.41,.74-.82,1.49-1.22,2.23-1.02,1.6-2.05,3.18-3.1,4.75-1.17,1.55-2.32,3.11-3.46,4.68-.65,.79-1.29,1.58-1.94,2.38-.67,.79-1.34,1.58-2.02,2.38-.7,.77-1.39,1.54-2.09,2.3,.07,.08,.14,.17,.21,.25,1.16,1.38,2.31,2.76,3.46,4.14,.62,.77,1.25,1.54,1.87,2.3,1.11,1.55,2.24,3.08,3.38,4.61Z" style="fill: #db0f1a;"/>
          </g>
          <g>
            <path d="M71.13,118.99c1.13,1.67,2.23,3.34,3.31,5.04,.53,.86,1.06,1.73,1.58,2.59,.02-.04,.05-.08,.07-.12,1.45-2.4,3.01-4.72,4.53-7.08,1.13-1.6,2.28-3.18,3.46-4.75,.6-.82,1.2-1.63,1.8-2.45,1.1-1.35,2.21-2.69,3.36-4.01,.15-.18,.31-.35,.46-.53-.67-.77-1.34-1.54-2.02-2.3-.65-.74-1.3-1.49-1.94-2.23-.6-.77-1.2-1.54-1.8-2.3-1.18-1.56-2.33-3.14-3.46-4.75-1.42-2.23-2.85-4.46-4.22-6.72-.08-.14-.16-.27-.25-.41-.41,.74-.82,1.49-1.22,2.23-1.02,1.6-2.05,3.18-3.1,4.75-1.17,1.55-2.32,3.11-3.46,4.68-.65,.79-1.29,1.58-1.94,2.38-.67,.79-1.34,1.58-2.02,2.38-.7,.77-1.39,1.54-2.09,2.3,.07,.08,.14,.17,.21,.25,1.16,1.38,2.31,2.76,3.46,4.14,.62,.77,1.25,1.54,1.87,2.3,1.11,1.55,2.24,3.08,3.38,4.61Z" style="fill: #db0f1a;"/>
            <path d="M71.13,118.99c1.13,1.67,2.23,3.34,3.31,5.04,.53,.86,1.06,1.73,1.58,2.59,.02-.04,.05-.08,.07-.12,1.45-2.4,3.01-4.72,4.53-7.08,1.13-1.6,2.28-3.18,3.46-4.75,.6-.82,1.2-1.63,1.8-2.45,1.1-1.35,2.21-2.69,3.36-4.01,.15-.18,.31-.35,.46-.53-.67-.77-1.34-1.54-2.02-2.3-.65-.74-1.3-1.49-1.94-2.23-.6-.77-1.2-1.54-1.8-2.3-1.18-1.56-2.33-3.14-3.46-4.75-1.42-2.23-2.85-4.46-4.22-6.72-.08-.14-.16-.27-.25-.41-.41,.74-.82,1.49-1.22,2.23-1.02,1.6-2.05,3.18-3.1,4.75-1.17,1.55-2.32,3.11-3.46,4.68-.65,.79-1.29,1.58-1.94,2.38-.67,.79-1.34,1.58-2.02,2.38-.7,.77-1.39,1.54-2.09,2.3,.07,.08,.14,.17,.21,.25,1.16,1.38,2.31,2.76,3.46,4.14,.62,.77,1.25,1.54,1.87,2.3,1.11,1.55,2.24,3.08,3.38,4.61Z" style="fill: #db0f1a;"/>
            <path d="M71.13,118.99c1.13,1.67,2.23,3.34,3.31,5.04,.53,.86,1.06,1.73,1.58,2.59,.02-.04,.05-.08,.07-.12,1.45-2.4,3.01-4.72,4.53-7.08,1.13-1.6,2.28-3.18,3.46-4.75,.6-.82,1.2-1.63,1.8-2.45,1.1-1.35,2.21-2.69,3.36-4.01,.15-.18,.31-.35,.46-.53-.67-.77-1.34-1.54-2.02-2.3-.65-.74-1.3-1.49-1.94-2.23-.6-.77-1.2-1.54-1.8-2.3-1.18-1.56-2.33-3.14-3.46-4.75-1.42-2.23-2.85-4.46-4.22-6.72-.08-.14-.16-.27-.25-.41-.41,.74-.82,1.49-1.22,2.23-1.02,1.6-2.05,3.18-3.1,4.75-1.17,1.55-2.32,3.11-3.46,4.68-.65,.79-1.29,1.58-1.94,2.38-.67,.79-1.34,1.58-2.02,2.38-.7,.77-1.39,1.54-2.09,2.3,.07,.08,.14,.17,.21,.25,1.16,1.38,2.31,2.76,3.46,4.14,.62,.77,1.25,1.54,1.87,2.3,1.11,1.55,2.24,3.08,3.38,4.61Z" style="fill: #db0f1a;"/>
          </g>
        </g>
        <g>
          <path d="M133.44,51.84c.48,.7,.94,1.41,1.4,2.13,.22,.37,.45,.73,.67,1.1,0-.02,.02-.03,.03-.05,.61-1.01,1.27-2,1.92-2.99,.48-.68,.96-1.35,1.46-2.01,.25-.35,.51-.69,.76-1.04,.47-.57,.93-1.14,1.42-1.7,.07-.07,.13-.15,.2-.22-.29-.33-.57-.65-.85-.97-.27-.31-.55-.63-.82-.94-.25-.32-.51-.65-.76-.97-.5-.66-.99-1.33-1.46-2.01-.6-.94-1.2-1.89-1.78-2.84-.04-.06-.07-.12-.1-.17-.17,.31-.35,.63-.52,.94-.43,.67-.87,1.34-1.31,2.01-.49,.66-.98,1.32-1.46,1.98-.27,.34-.55,.67-.82,1-.28,.34-.57,.67-.85,1-.29,.32-.59,.65-.88,.97,.03,.04,.06,.07,.09,.11,.49,.58,.97,1.17,1.46,1.75,.26,.32,.53,.65,.79,.97,.47,.65,.95,1.3,1.43,1.95Z" style="fill: #db0f1a;"/>
          <path d="M133.44,51.84c.48,.7,.94,1.41,1.4,2.13,.22,.37,.45,.73,.67,1.1,0-.02,.02-.03,.03-.05,.61-1.01,1.27-2,1.92-2.99,.48-.68,.96-1.35,1.46-2.01,.25-.35,.51-.69,.76-1.04,.47-.57,.93-1.14,1.42-1.7,.07-.07,.13-.15,.2-.22-.29-.33-.57-.65-.85-.97-.27-.31-.55-.63-.82-.94-.25-.32-.51-.65-.76-.97-.5-.66-.99-1.33-1.46-2.01-.6-.94-1.2-1.89-1.78-2.84-.04-.06-.07-.12-.1-.17-.17,.31-.35,.63-.52,.94-.43,.67-.87,1.34-1.31,2.01-.49,.66-.98,1.32-1.46,1.98-.27,.34-.55,.67-.82,1-.28,.34-.57,.67-.85,1-.29,.32-.59,.65-.88,.97,.03,.04,.06,.07,.09,.11,.49,.58,.97,1.17,1.46,1.75,.26,.32,.53,.65,.79,.97,.47,.65,.95,1.3,1.43,1.95Z" style="fill: #db0f1a;"/>
          <path d="M133.44,51.84c.48,.7,.94,1.41,1.4,2.13,.22,.37,.45,.73,.67,1.1,0-.02,.02-.03,.03-.05,.61-1.01,1.27-2,1.92-2.99,.48-.68,.96-1.35,1.46-2.01,.25-.35,.51-.69,.76-1.04,.47-.57,.93-1.14,1.42-1.7,.07-.07,.13-.15,.2-.22-.29-.33-.57-.65-.85-.97-.27-.31-.55-.63-.82-.94-.25-.32-.51-.65-.76-.97-.5-.66-.99-1.33-1.46-2.01-.6-.94-1.2-1.89-1.78-2.84-.04-.06-.07-.12-.1-.17-.17,.31-.35,.63-.52,.94-.43,.67-.87,1.34-1.31,2.01-.49,.66-.98,1.32-1.46,1.98-.27,.34-.55,.67-.82,1-.28,.34-.57,.67-.85,1-.29,.32-.59,.65-.88,.97,.03,.04,.06,.07,.09,.11,.49,.58,.97,1.17,1.46,1.75,.26,.32,.53,.65,.79,.97,.47,.65,.95,1.3,1.43,1.95Z" style="fill: #db0f1a;"/>
        </g>
        <path d="M129.99,14.38c.62-1.46,1.39-2.58,2.33-3.37,.94-.79,2.11-1.19,3.51-1.19,1.73,0,3.06,.56,3.98,1.69,.7,.84,1.05,1.74,1.05,2.69,0,1.57-.99,3.2-2.96,4.88,1.33,.52,2.33,1.26,3.01,2.23,.68,.97,1.02,2.1,1.02,3.41,0,1.87-.6,3.49-1.79,4.86-1.55,1.78-3.8,2.68-6.74,2.68-1.46,0-2.45-.18-2.97-.54-.53-.36-.79-.75-.79-1.16,0-.31,.12-.58,.37-.81,.25-.23,.55-.35,.9-.35,.27,0,.54,.04,.81,.13,.18,.05,.59,.25,1.23,.58,.64,.34,1.08,.53,1.32,.6,.39,.12,.81,.18,1.26,.18,1.08,0,2.03-.42,2.83-1.26,.8-.84,1.2-1.83,1.2-2.98,0-.84-.19-1.66-.56-2.45-.28-.59-.58-1.05-.91-1.35-.46-.42-1.08-.81-1.88-1.16-.8-.34-1.61-.52-2.44-.52h-.51v-.48c.84-.11,1.68-.41,2.53-.91,.84-.5,1.46-1.1,1.84-1.8,.38-.7,.57-1.47,.57-2.31,0-1.09-.34-1.98-1.03-2.65-.69-.67-1.54-1.01-2.56-1.01-1.65,0-3.02,.88-4.13,2.65l-.53-.25Z" style="fill: #db0f1a;"/>
        <g>
          <path d="M18.74,163.58c-.48-.7-.94-1.41-1.4-2.13-.22-.37-.45-.73-.67-1.1,0,.02-.02,.03-.03,.05-.61,1.01-1.27,2-1.92,2.99-.48,.68-.96,1.35-1.46,2.01-.25,.35-.51,.69-.76,1.04-.46,.57-.93,1.14-1.42,1.7-.07,.07-.13,.15-.19,.22,.28,.33,.57,.65,.85,.97,.27,.31,.55,.63,.82,.94,.25,.32,.51,.65,.76,.97,.5,.66,.99,1.33,1.46,2.01,.6,.94,1.2,1.89,1.78,2.84,.04,.06,.07,.12,.1,.17,.17-.31,.35-.63,.52-.94,.43-.67,.87-1.34,1.31-2.01,.49-.66,.98-1.32,1.46-1.98,.27-.33,.55-.67,.82-1,.28-.33,.57-.67,.85-1,.29-.32,.59-.65,.88-.97-.03-.04-.06-.07-.09-.11-.49-.58-.98-1.17-1.46-1.75-.26-.32-.53-.65-.79-.97-.47-.65-.95-1.3-1.43-1.95Z" style="fill: #db0f1a;"/>
          <path d="M18.74,163.58c-.48-.7-.94-1.41-1.4-2.13-.22-.37-.45-.73-.67-1.1,0,.02-.02,.03-.03,.05-.61,1.01-1.27,2-1.92,2.99-.48,.68-.96,1.35-1.46,2.01-.25,.35-.51,.69-.76,1.04-.46,.57-.93,1.14-1.42,1.7-.07,.07-.13,.15-.19,.22,.28,.33,.57,.65,.85,.97,.27,.31,.55,.63,.82,.94,.25,.32,.51,.65,.76,.97,.5,.66,.99,1.33,1.46,2.01,.6,.94,1.2,1.89,1.78,2.84,.04,.06,.07,.12,.1,.17,.17-.31,.35-.63,.52-.94,.43-.67,.87-1.34,1.31-2.01,.49-.66,.98-1.32,1.46-1.98,.27-.33,.55-.67,.82-1,.28-.33,.57-.67,.85-1,.29-.32,.59-.65,.88-.97-.03-.04-.06-.07-.09-.11-.49-.58-.98-1.17-1.46-1.75-.26-.32-.53-.65-.79-.97-.47-.65-.95-1.3-1.43-1.95Z" style="fill: #db0f1a;"/>
          <path d="M18.74,163.58c-.48-.7-.94-1.41-1.4-2.13-.22-.37-.45-.73-.67-1.1,0,.02-.02,.03-.03,.05-.61,1.01-1.27,2-1.92,2.99-.48,.68-.96,1.35-1.46,2.01-.25,.35-.51,.69-.76,1.04-.46,.57-.93,1.14-1.42,1.7-.07,.07-.13,.15-.19,.22,.28,.33,.57,.65,.85,.97,.27,.31,.55,.63,.82,.94,.25,.32,.51,.65,.76,.97,.5,.66,.99,1.33,1.46,2.01,.6,.94,1.2,1.89,1.78,2.84,.04,.06,.07,.12,.1,.17,.17-.31,.35-.63,.52-.94,.43-.67,.87-1.34,1.31-2.01,.49-.66,.98-1.32,1.46-1.98,.27-.33,.55-.67,.82-1,.28-.33,.57-.67,.85-1,.29-.32,.59-.65,.88-.97-.03-.04-.06-.07-.09-.11-.49-.58-.98-1.17-1.46-1.75-.26-.32-.53-.65-.79-.97-.47-.65-.95-1.3-1.43-1.95Z" style="fill: #db0f1a;"/>
        </g>
        <path d="M21.98,199.67c-.62,1.46-1.39,2.58-2.33,3.37-.94,.79-2.11,1.19-3.51,1.19-1.73,0-3.06-.56-3.98-1.69-.7-.84-1.05-1.74-1.05-2.69,0-1.57,.99-3.2,2.96-4.88-1.33-.52-2.33-1.26-3.01-2.23s-1.02-2.1-1.02-3.41c0-1.87,.59-3.49,1.78-4.86,1.55-1.78,3.8-2.68,6.74-2.68,1.46,0,2.45,.18,2.97,.54,.53,.36,.79,.75,.79,1.16,0,.31-.13,.58-.37,.81-.25,.23-.55,.35-.9,.35-.27,0-.54-.04-.81-.13-.18-.05-.59-.25-1.23-.58-.64-.33-1.08-.53-1.32-.6-.39-.12-.81-.18-1.26-.18-1.08,0-2.03,.42-2.83,1.26-.8,.84-1.2,1.83-1.2,2.98,0,.84,.19,1.66,.56,2.45,.28,.59,.58,1.05,.91,1.35,.46,.42,1.08,.81,1.88,1.16,.8,.34,1.61,.52,2.44,.52h.51v.48c-.84,.11-1.68,.41-2.53,.91-.84,.5-1.46,1.1-1.84,1.8-.38,.7-.57,1.47-.57,2.31,0,1.09,.34,1.98,1.03,2.65,.69,.67,1.54,1.01,2.56,1.01,1.65,0,3.02-.88,4.13-2.65l.53,.25Z" style="fill: #db0f1a;"/>
      </g>
    </g>
  </g>
</svg>