<?xml version="1.0" encoding="UTF-8"?>
<svg id="Playing_Cards" data-name="Playing Cards" xmlns="http://www.w3.org/2000/svg" viewBox="0 0 152.06 215.64">
  <g id="Cards">
    <g id="Hearts">
      <g>
        <path d="M6.49,.02H145.46c.47,0,.95,.06,1.41,.17l.11,.03c.98,.25,1.88,.74,2.61,1.44l.04,.04c.48,.46,.87,1,1.17,1.59l.41,.83c.29,.58,.48,1.2,.56,1.84l.26,1.97c.03,.25,.05,.5,.05,.75V207.06c0,.26-.02,.52-.05,.78l-.25,1.86c-.08,.61-.26,1.2-.53,1.75l-.41,.85c-.32,.65-.75,1.24-1.28,1.73l-.05,.04c-.67,.62-1.48,1.07-2.36,1.32l-.2,.06c-.51,.14-1.04,.22-1.57,.22H6.57c-.53,0-1.06-.07-1.57-.22l-.14-.04c-.92-.26-1.76-.74-2.44-1.4h0c-.49-.48-.9-1.04-1.2-1.65l-.41-.84c-.29-.59-.47-1.23-.55-1.88l-.21-1.85c-.02-.22-.04-.43-.04-.65V8.62c0-.21,.01-.42,.03-.63l.21-1.96c.07-.68,.27-1.35,.58-1.97l.41-.82c.28-.56,.64-1.06,1.08-1.5h0C3.08,.99,4.01,.47,5.03,.21h.06c.46-.13,.93-.19,1.4-.19Z" style="fill: #fff; fill-rule: evenodd;"/>
        <g>
          <path d="M11.27,14.64c.62-1.46,1.39-2.58,2.33-3.37,.94-.79,2.11-1.19,3.51-1.19,1.73,0,3.06,.56,3.98,1.69,.7,.84,1.05,1.74,1.05,2.69,0,1.57-.99,3.2-2.96,4.88,1.33,.52,2.33,1.26,3.01,2.23s1.02,2.1,1.02,3.41c0,1.87-.6,3.49-1.79,4.86-1.55,1.78-3.8,2.68-6.74,2.68-1.46,0-2.45-.18-2.97-.54-.53-.36-.79-.75-.79-1.16,0-.31,.12-.58,.37-.81,.25-.23,.55-.35,.9-.35,.27,0,.54,.04,.81,.13,.18,.05,.59,.25,1.23,.58,.64,.33,1.08,.53,1.32,.6,.39,.12,.81,.18,1.26,.18,1.08,0,2.03-.42,2.83-1.26,.8-.84,1.2-1.83,1.2-2.98,0-.84-.19-1.66-.56-2.45-.28-.59-.58-1.05-.91-1.35-.46-.42-1.08-.81-1.88-1.16-.8-.34-1.61-.52-2.44-.52h-.51v-.48c.84-.11,1.68-.41,2.53-.91,.84-.5,1.46-1.1,1.84-1.8,.38-.7,.57-1.47,.57-2.31,0-1.09-.34-1.98-1.03-2.65-.69-.67-1.54-1.01-2.56-1.01-1.65,0-3.02,.88-4.13,2.65l-.53-.25Z" style="fill: #db0f1a;"/>
          <path d="M140.82,201.05c-.62,1.46-1.39,2.58-2.33,3.37-.94,.79-2.11,1.19-3.51,1.19-1.73,0-3.06-.56-3.98-1.69-.7-.84-1.05-1.74-1.05-2.69,0-1.57,.99-3.2,2.96-4.88-1.33-.52-2.33-1.26-3.01-2.23-.68-.97-1.02-2.1-1.02-3.41,0-1.87,.59-3.49,1.78-4.86,1.55-1.78,3.8-2.68,6.74-2.68,1.46,0,2.45,.18,2.97,.54,.53,.36,.79,.75,.79,1.16,0,.31-.13,.58-.37,.81-.25,.23-.55,.35-.9,.35-.27,0-.54-.04-.81-.13-.18-.05-.59-.25-1.23-.58-.64-.33-1.08-.53-1.32-.6-.39-.12-.81-.18-1.26-.18-1.08,0-2.03,.42-2.83,1.26-.8,.84-1.2,1.83-1.2,2.98,0,.84,.19,1.66,.56,2.45,.28,.59,.58,1.05,.91,1.35,.46,.42,1.08,.81,1.88,1.16,.8,.34,1.61,.52,2.44,.52h.51v.48c-.84,.11-1.68,.41-2.53,.91-.84,.5-1.46,1.1-1.84,1.8-.38,.7-.57,1.47-.57,2.31,0,1.09,.34,1.98,1.03,2.65,.69,.67,1.54,1.01,2.56,1.01,1.65,0,3.02-.88,4.13-2.65l.53,.25Z" style="fill: #db0f1a;"/>
        </g>
        <g>
          <path d="M14.82,48.28c.5,.67,.95,1.41,1.28,2.28,.08,.22,.16,.44,.23,.67,.06,.19,.1,.28,.14,.28,.01,0,.03,0,.04-.03,.01,.02,.02,.03,.04,.03,.13,0,.25-.62,.29-.73,.32-.91,.8-1.74,1.37-2.5,1.51-2.02,3.46-3.37,3.97-5.39,.34-1.34,.01-2.94-.9-3.98-.52-.59-1.19-.95-1.93-.95-.89,0-1.68,.52-2.22,1.34-.28,.43-.5,.94-.62,1.51-.35-1.64-1.49-2.85-2.84-2.85-.74,0-1.41,.36-1.93,.95-.91,1.04-1.24,2.63-.9,3.98,.51,2.01,2.46,3.37,3.97,5.39Z" style="fill: #db0f1a;"/>
          <path d="M137.28,167.41c-.5-.67-.95-1.41-1.28-2.28-.08-.22-.16-.44-.23-.67-.06-.19-.1-.28-.14-.28-.01,0-.03,0-.04,.03-.01-.02-.02-.03-.04-.03-.13,0-.25,.62-.29,.73-.32,.91-.8,1.74-1.37,2.5-1.51,2.02-3.46,3.37-3.97,5.39-.34,1.34-.01,2.94,.9,3.98,.52,.59,1.19,.95,1.93,.95,.89,0,1.68-.52,2.22-1.34,.28-.43,.5-.94,.62-1.51,.35,1.64,1.49,2.85,2.84,2.85,.74,0,1.41-.36,1.93-.95,.91-1.04,1.24-2.63,.9-3.98-.51-2.02-2.46-3.37-3.97-5.39Z" style="fill: #db0f1a;"/>
        </g>
        <g>
          <path d="M71.65,55.99c1.3,1.74,2.47,3.67,3.33,5.92,.22,.56,.42,1.14,.59,1.75,.14,.5,.27,.73,.38,.74,.03,0,.07-.02,.1-.07,.03,.05,.06,.07,.1,.07,.34-.02,.65-1.61,.75-1.9,.84-2.35,2.07-4.51,3.54-6.5,3.91-5.25,8.99-8.75,10.31-13.98,.88-3.48,.03-7.63-2.33-10.32-1.34-1.53-3.09-2.45-5-2.45-2.31,0-4.37,1.35-5.77,3.48-.73,1.12-1.29,2.45-1.6,3.91-.9-4.26-3.86-7.39-7.37-7.39-1.91,0-3.66,.93-5,2.45-2.36,2.69-3.22,6.84-2.33,10.32,1.32,5.23,6.4,8.73,10.31,13.98Z" style="fill: #db0f1a;"/>
          <path d="M71.65,178.06c1.3,1.74,2.47,3.67,3.33,5.92,.22,.56,.42,1.14,.59,1.75,.14,.5,.27,.73,.38,.74,.03,0,.07-.02,.1-.07,.03,.05,.06,.07,.1,.07,.34-.02,.65-1.61,.75-1.9,.84-2.35,2.07-4.51,3.54-6.5,3.91-5.25,8.99-8.75,10.31-13.98,.88-3.48,.03-7.63-2.33-10.32-1.34-1.53-3.09-2.46-5-2.46-2.31,0-4.37,1.35-5.77,3.48-.73,1.12-1.29,2.45-1.6,3.91-.9-4.26-3.86-7.39-7.37-7.39-1.91,0-3.66,.93-5,2.46-2.36,2.69-3.22,6.84-2.33,10.32,1.32,5.23,6.4,8.73,10.31,13.98Z" style="fill: #db0f1a;"/>
          <path d="M71.65,117.03c1.3,1.74,2.47,3.67,3.33,5.92,.22,.56,.42,1.14,.59,1.75,.14,.5,.27,.73,.38,.74,.03,0,.07-.02,.1-.07,.03,.05,.06,.07,.1,.07,.34-.02,.65-1.61,.75-1.9,.84-2.35,2.07-4.51,3.54-6.5,3.91-5.25,8.99-8.75,10.31-13.98,.88-3.48,.03-7.63-2.33-10.32-1.34-1.53-3.09-2.46-5-2.46-2.31,0-4.37,1.35-5.77,3.48-.73,1.12-1.29,2.45-1.6,3.91-.9-4.26-3.86-7.39-7.37-7.39-1.91,0-3.66,.93-5,2.46-2.36,2.69-3.22,6.84-2.33,10.32,1.32,5.23,6.4,8.73,10.31,13.98Z" style="fill: #db0f1a;"/>
        </g>
        <path d="M130.11,14.95c.62-1.46,1.39-2.58,2.33-3.37,.94-.79,2.11-1.19,3.51-1.19,1.73,0,3.06,.56,3.98,1.69,.7,.84,1.05,1.74,1.05,2.69,0,1.57-.99,3.2-2.96,4.88,1.33,.52,2.33,1.26,3.01,2.23s1.02,2.1,1.02,3.41c0,1.87-.6,3.49-1.79,4.86-1.55,1.78-3.8,2.68-6.74,2.68-1.46,0-2.45-.18-2.97-.54-.53-.36-.79-.75-.79-1.16,0-.31,.12-.58,.37-.81,.25-.23,.55-.35,.9-.35,.27,0,.54,.04,.81,.13,.18,.05,.59,.25,1.23,.58,.64,.33,1.08,.53,1.32,.6,.39,.12,.81,.18,1.26,.18,1.08,0,2.03-.42,2.83-1.26,.8-.84,1.2-1.83,1.2-2.98,0-.84-.19-1.66-.56-2.45-.28-.59-.58-1.05-.91-1.35-.46-.42-1.08-.81-1.88-1.16-.8-.34-1.61-.52-2.44-.52h-.51v-.48c.84-.11,1.68-.41,2.53-.91,.84-.5,1.46-1.1,1.84-1.8,.38-.7,.57-1.47,.57-2.31,0-1.09-.34-1.98-1.03-2.65-.69-.67-1.54-1.01-2.56-1.01-1.65,0-3.02,.88-4.13,2.65l-.53-.25Z" style="fill: #db0f1a;"/>
        <path d="M133.65,48.59c.5,.67,.95,1.41,1.28,2.28,.08,.22,.16,.44,.23,.67,.06,.19,.1,.28,.14,.28,.01,0,.03,0,.04-.03,.01,.02,.02,.03,.04,.03,.13,0,.25-.62,.29-.73,.32-.91,.8-1.74,1.37-2.5,1.51-2.02,3.46-3.37,3.97-5.39,.34-1.34,.01-2.94-.9-3.98-.52-.59-1.19-.95-1.93-.95-.89,0-1.68,.52-2.22,1.34-.28,.43-.5,.94-.62,1.51-.35-1.64-1.49-2.85-2.84-2.85-.74,0-1.41,.36-1.93,.95-.91,1.04-1.24,2.63-.9,3.98,.51,2.01,2.46,3.37,3.97,5.39Z" style="fill: #db0f1a;"/>
        <path d="M22.1,200.24c-.62,1.46-1.39,2.58-2.33,3.37-.94,.79-2.11,1.19-3.51,1.19-1.73,0-3.06-.56-3.98-1.69-.7-.84-1.05-1.74-1.05-2.69,0-1.57,.99-3.2,2.96-4.88-1.33-.52-2.33-1.26-3.01-2.23-.68-.97-1.02-2.1-1.02-3.41,0-1.87,.59-3.49,1.78-4.86,1.55-1.78,3.8-2.68,6.74-2.68,1.46,0,2.45,.18,2.97,.54,.53,.36,.79,.75,.79,1.16,0,.31-.13,.58-.37,.81-.25,.23-.55,.35-.9,.35-.27,0-.54-.04-.81-.13-.18-.05-.59-.25-1.23-.58-.64-.33-1.08-.53-1.32-.6-.39-.12-.81-.18-1.26-.18-1.08,0-2.03,.42-2.83,1.26-.8,.84-1.2,1.83-1.2,2.98,0,.84,.19,1.66,.56,2.45,.28,.59,.58,1.05,.91,1.35,.46,.42,1.08,.81,1.88,1.16,.8,.34,1.61,.52,2.44,.52h.51v.48c-.84,.11-1.68,.41-2.53,.91-.84,.5-1.46,1.1-1.84,1.8-.38,.7-.57,1.47-.57,2.31,0,1.09,.34,1.98,1.03,2.65,.69,.67,1.54,1.01,2.56,1.01,1.65,0,3.02-.88,4.13-2.65l.53,.25Z" style="fill: #db0f1a;"/>
        <path d="M18.56,166.61c-.5-.67-.95-1.41-1.28-2.28-.08-.22-.16-.44-.23-.67-.06-.19-.1-.28-.14-.28-.01,0-.03,0-.04,.03-.01-.02-.02-.03-.04-.03-.13,0-.25,.62-.29,.73-.32,.91-.8,1.74-1.37,2.5-1.51,2.02-3.46,3.37-3.97,5.39-.34,1.34-.01,2.94,.9,3.98,.52,.59,1.19,.95,1.93,.95,.89,0,1.68-.52,2.22-1.34,.28-.43,.5-.94,.62-1.51,.35,1.64,1.49,2.85,2.84,2.85,.74,0,1.41-.36,1.93-.95,.91-1.04,1.24-2.63,.9-3.98-.51-2.02-2.46-3.37-3.97-5.39Z" style="fill: #db0f1a;"/>
      </g>
    </g>
  </g>
</svg>