<?xml version="1.0" encoding="UTF-8"?>
<svg id="Playing_Cards" data-name="Playing Cards" xmlns="http://www.w3.org/2000/svg" viewBox="0 0 152.06 215.64">
  <g id="Cards">
    <g id="Diamonds">
      <g>
        <g>
          <g>
            <path d="M6.47,.14H145.44c.47,0,.95,.06,1.41,.17l.11,.03c.98,.25,1.88,.74,2.61,1.44l.04,.04c.48,.46,.87,.99,1.17,1.59l.41,.83c.29,.58,.48,1.2,.56,1.84l.26,1.97c.03,.25,.05,.5,.05,.75V207.18c0,.26-.02,.52-.05,.78l-.25,1.86c-.08,.61-.26,1.2-.53,1.75l-.41,.85c-.32,.65-.75,1.23-1.28,1.72l-.05,.04c-.67,.62-1.48,1.07-2.36,1.32l-.2,.06c-.51,.14-1.04,.22-1.57,.22H6.55c-.53,0-1.06-.07-1.57-.22l-.14-.04c-.92-.26-1.76-.74-2.44-1.4h0c-.49-.48-.9-1.04-1.2-1.65l-.41-.84c-.29-.59-.47-1.23-.55-1.88l-.21-1.86c-.02-.22-.04-.44-.04-.65V8.73c0-.21,.01-.42,.03-.63l.21-1.97c.07-.68,.27-1.35,.58-1.96l.41-.82c.28-.56,.65-1.07,1.09-1.51h0c.74-.74,1.67-1.27,2.69-1.52h.06c.46-.13,.93-.19,1.4-.19Z" style="fill: #fff; fill-rule: evenodd;"/>
            <g>
              <g>
                <path d="M14.59,51.53c.48,.7,.94,1.41,1.4,2.13,.22,.37,.45,.73,.67,1.1,.01-.02,.02-.03,.03-.05,.61-1.01,1.27-2,1.92-2.99,.48-.68,.96-1.35,1.46-2.01,.25-.35,.51-.69,.76-1.04,.47-.57,.94-1.14,1.42-1.7,.06-.07,.13-.15,.19-.22-.28-.33-.57-.65-.85-.97-.27-.31-.55-.63-.82-.94-.25-.32-.51-.65-.76-.97-.5-.66-.99-1.33-1.46-2.01-.6-.94-1.2-1.89-1.78-2.84-.04-.06-.07-.12-.1-.17-.17,.31-.34,.63-.52,.94-.43,.67-.87,1.34-1.31,2.01-.49,.66-.98,1.32-1.46,1.98-.27,.34-.55,.67-.82,1-.29,.34-.57,.67-.85,1-.29,.32-.59,.65-.88,.97,.03,.04,.06,.07,.09,.11,.49,.58,.98,1.17,1.46,1.75,.26,.32,.53,.65,.79,.97,.47,.65,.95,1.3,1.43,1.95Z" style="fill: #db0f1a;"/>
                <path d="M14.59,51.53c.48,.7,.94,1.41,1.4,2.13,.22,.37,.45,.73,.67,1.1,.01-.02,.02-.03,.03-.05,.61-1.01,1.27-2,1.92-2.99,.48-.68,.96-1.35,1.46-2.01,.25-.35,.51-.69,.76-1.04,.47-.57,.94-1.14,1.42-1.7,.06-.07,.13-.15,.19-.22-.28-.33-.57-.65-.85-.97-.27-.31-.55-.63-.82-.94-.25-.32-.51-.65-.76-.97-.5-.66-.99-1.33-1.46-2.01-.6-.94-1.2-1.89-1.78-2.84-.04-.06-.07-.12-.1-.17-.17,.31-.34,.63-.52,.94-.43,.67-.87,1.34-1.31,2.01-.49,.66-.98,1.32-1.46,1.98-.27,.34-.55,.67-.82,1-.29,.34-.57,.67-.85,1-.29,.32-.59,.65-.88,.97,.03,.04,.06,.07,.09,.11,.49,.58,.98,1.17,1.46,1.75,.26,.32,.53,.65,.79,.97,.47,.65,.95,1.3,1.43,1.95Z" style="fill: #db0f1a;"/>
                <path d="M14.59,51.53c.48,.7,.94,1.41,1.4,2.13,.22,.37,.45,.73,.67,1.1,.01-.02,.02-.03,.03-.05,.61-1.01,1.27-2,1.92-2.99,.48-.68,.96-1.35,1.46-2.01,.25-.35,.51-.69,.76-1.04,.47-.57,.94-1.14,1.42-1.7,.06-.07,.13-.15,.19-.22-.28-.33-.57-.65-.85-.97-.27-.31-.55-.63-.82-.94-.25-.32-.51-.65-.76-.97-.5-.66-.99-1.33-1.46-2.01-.6-.94-1.2-1.89-1.78-2.84-.04-.06-.07-.12-.1-.17-.17,.31-.34,.63-.52,.94-.43,.67-.87,1.34-1.31,2.01-.49,.66-.98,1.32-1.46,1.98-.27,.34-.55,.67-.82,1-.29,.34-.57,.67-.85,1-.29,.32-.59,.65-.88,.97,.03,.04,.06,.07,.09,.11,.49,.58,.98,1.17,1.46,1.75,.26,.32,.53,.65,.79,.97,.47,.65,.95,1.3,1.43,1.95Z" style="fill: #db0f1a;"/>
              </g>
              <g>
                <path d="M137.45,164.38c-.48-.7-.94-1.41-1.4-2.13-.22-.37-.45-.73-.67-1.1-.01,.02-.02,.03-.03,.05-.62,1.01-1.27,2-1.92,2.99-.48,.68-.96,1.35-1.46,2.01-.25,.35-.51,.69-.76,1.04-.46,.57-.94,1.14-1.42,1.7-.06,.07-.13,.15-.19,.22,.28,.33,.57,.65,.85,.97,.27,.31,.55,.63,.82,.94,.25,.32,.51,.65,.76,.97,.5,.66,.99,1.33,1.46,2.01,.6,.94,1.2,1.89,1.78,2.84,.04,.06,.07,.12,.11,.17,.17-.31,.34-.63,.52-.94,.43-.67,.87-1.34,1.31-2.01,.49-.66,.98-1.32,1.46-1.98,.27-.33,.55-.67,.82-1,.28-.33,.57-.67,.85-1,.29-.32,.59-.65,.88-.97-.03-.04-.06-.07-.09-.11-.49-.58-.98-1.17-1.46-1.75-.26-.32-.53-.65-.79-.97-.47-.65-.95-1.3-1.43-1.95Z" style="fill: #db0f1a;"/>
                <path d="M137.45,164.38c-.48-.7-.94-1.41-1.4-2.13-.22-.37-.45-.73-.67-1.1-.01,.02-.02,.03-.03,.05-.62,1.01-1.27,2-1.92,2.99-.48,.68-.96,1.35-1.46,2.01-.25,.35-.51,.69-.76,1.04-.46,.57-.94,1.14-1.42,1.7-.06,.07-.13,.15-.19,.22,.28,.33,.57,.65,.85,.97,.27,.31,.55,.63,.82,.94,.25,.32,.51,.65,.76,.97,.5,.66,.99,1.33,1.46,2.01,.6,.94,1.2,1.89,1.78,2.84,.04,.06,.07,.12,.11,.17,.17-.31,.34-.63,.52-.94,.43-.67,.87-1.34,1.31-2.01,.49-.66,.98-1.32,1.46-1.98,.27-.33,.55-.67,.82-1,.28-.33,.57-.67,.85-1,.29-.32,.59-.65,.88-.97-.03-.04-.06-.07-.09-.11-.49-.58-.98-1.17-1.46-1.75-.26-.32-.53-.65-.79-.97-.47-.65-.95-1.3-1.43-1.95Z" style="fill: #db0f1a;"/>
                <path d="M137.45,164.38c-.48-.7-.94-1.41-1.4-2.13-.22-.37-.45-.73-.67-1.1-.01,.02-.02,.03-.03,.05-.62,1.01-1.27,2-1.92,2.99-.48,.68-.96,1.35-1.46,2.01-.25,.35-.51,.69-.76,1.04-.46,.57-.94,1.14-1.42,1.7-.06,.07-.13,.15-.19,.22,.28,.33,.57,.65,.85,.97,.27,.31,.55,.63,.82,.94,.25,.32,.51,.65,.76,.97,.5,.66,.99,1.33,1.46,2.01,.6,.94,1.2,1.89,1.78,2.84,.04,.06,.07,.12,.11,.17,.17-.31,.34-.63,.52-.94,.43-.67,.87-1.34,1.31-2.01,.49-.66,.98-1.32,1.46-1.98,.27-.33,.55-.67,.82-1,.28-.33,.57-.67,.85-1,.29-.32,.59-.65,.88-.97-.03-.04-.06-.07-.09-.11-.49-.58-.98-1.17-1.46-1.75-.26-.32-.53-.65-.79-.97-.47-.65-.95-1.3-1.43-1.95Z" style="fill: #db0f1a;"/>
              </g>
            </g>
          </g>
          <path d="M22.68,9.71l-1.26,2.74h-6.58l-1.44,2.94c2.85,.42,5.11,1.48,6.77,3.18,1.43,1.46,2.15,3.18,2.15,5.16,0,1.15-.23,2.21-.7,3.19-.47,.98-1.06,1.81-1.77,2.5-.71,.69-1.5,1.24-2.37,1.66-1.24,.59-2.5,.89-3.81,.89s-2.27-.22-2.86-.67c-.6-.45-.9-.94-.9-1.48,0-.3,.12-.57,.37-.8,.25-.23,.56-.35,.94-.35,.28,0,.52,.04,.73,.13,.21,.09,.57,.31,1.07,.66,.81,.56,1.62,.84,2.45,.84,1.26,0,2.36-.48,3.31-1.43,.95-.95,1.43-2.11,1.43-3.48s-.42-2.56-1.27-3.7c-.85-1.14-2.02-2.03-3.51-2.65-1.17-.48-2.77-.76-4.79-.84l4.19-8.5h7.84Z" style="fill: #db0f1a;"/>
          <path d="M128.03,205.03l1.26-2.74h6.58l1.44-2.93c-2.85-.42-5.11-1.48-6.77-3.18-1.43-1.46-2.15-3.18-2.15-5.16,0-1.15,.23-2.21,.7-3.19,.47-.98,1.06-1.81,1.77-2.5,.71-.69,1.5-1.24,2.37-1.66,1.24-.59,2.5-.89,3.81-.89s2.27,.22,2.86,.67c.6,.45,.9,.94,.9,1.48,0,.3-.12,.57-.37,.8-.25,.23-.56,.35-.94,.35-.28,0-.52-.04-.73-.13-.21-.09-.57-.31-1.07-.66-.81-.56-1.62-.84-2.45-.84-1.26,0-2.36,.48-3.31,1.43-.95,.95-1.43,2.11-1.43,3.47s.42,2.56,1.27,3.7c.85,1.15,2.02,2.03,3.51,2.65,1.17,.48,2.77,.76,4.79,.84l-4.19,8.5h-7.84Z" style="fill: #db0f1a;"/>
        </g>
        <g>
          <g>
            <g>
              <path d="M43.62,57.32c1.13,1.67,2.23,3.34,3.31,5.04,.53,.86,1.06,1.73,1.58,2.59,.02-.04,.05-.08,.07-.12,1.45-2.4,3.01-4.72,4.53-7.08,1.13-1.6,2.28-3.18,3.46-4.75,.6-.82,1.2-1.63,1.8-2.45,1.1-1.35,2.21-2.69,3.36-4.01,.15-.18,.31-.35,.46-.53-.67-.77-1.34-1.54-2.02-2.3-.65-.74-1.3-1.49-1.94-2.23-.6-.77-1.2-1.54-1.8-2.3-1.18-1.56-2.33-3.14-3.46-4.75-1.42-2.23-2.85-4.46-4.22-6.72-.08-.14-.16-.27-.25-.41-.41,.74-.82,1.49-1.22,2.23-1.02,1.6-2.05,3.18-3.1,4.75-1.16,1.55-2.32,3.11-3.46,4.68-.65,.79-1.29,1.58-1.94,2.38-.67,.79-1.34,1.58-2.02,2.38-.7,.77-1.39,1.54-2.09,2.3,.07,.08,.14,.17,.21,.25,1.16,1.38,2.31,2.76,3.46,4.14,.62,.77,1.25,1.54,1.87,2.3,1.11,1.55,2.24,3.08,3.38,4.61Z" style="fill: #db0f1a;"/>
              <path d="M43.62,57.32c1.13,1.67,2.23,3.34,3.31,5.04,.53,.86,1.06,1.73,1.58,2.59,.02-.04,.05-.08,.07-.12,1.45-2.4,3.01-4.72,4.53-7.08,1.13-1.6,2.28-3.18,3.46-4.75,.6-.82,1.2-1.63,1.8-2.45,1.1-1.35,2.21-2.69,3.36-4.01,.15-.18,.31-.35,.46-.53-.67-.77-1.34-1.54-2.02-2.3-.65-.74-1.3-1.49-1.94-2.23-.6-.77-1.2-1.54-1.8-2.3-1.18-1.56-2.33-3.14-3.46-4.75-1.42-2.23-2.85-4.46-4.22-6.72-.08-.14-.16-.27-.25-.41-.41,.74-.82,1.49-1.22,2.23-1.02,1.6-2.05,3.18-3.1,4.75-1.16,1.55-2.32,3.11-3.46,4.68-.65,.79-1.29,1.58-1.94,2.38-.67,.79-1.34,1.58-2.02,2.38-.7,.77-1.39,1.54-2.09,2.3,.07,.08,.14,.17,.21,.25,1.16,1.38,2.31,2.76,3.46,4.14,.62,.77,1.25,1.54,1.87,2.3,1.11,1.55,2.24,3.08,3.38,4.61Z" style="fill: #db0f1a;"/>
              <path d="M43.62,57.32c1.13,1.67,2.23,3.34,3.31,5.04,.53,.86,1.06,1.73,1.58,2.59,.02-.04,.05-.08,.07-.12,1.45-2.4,3.01-4.72,4.53-7.08,1.13-1.6,2.28-3.18,3.46-4.75,.6-.82,1.2-1.63,1.8-2.45,1.1-1.35,2.21-2.69,3.36-4.01,.15-.18,.31-.35,.46-.53-.67-.77-1.34-1.54-2.02-2.3-.65-.74-1.3-1.49-1.94-2.23-.6-.77-1.2-1.54-1.8-2.3-1.18-1.56-2.33-3.14-3.46-4.75-1.42-2.23-2.85-4.46-4.22-6.72-.08-.14-.16-.27-.25-.41-.41,.74-.82,1.49-1.22,2.23-1.02,1.6-2.05,3.18-3.1,4.75-1.16,1.55-2.32,3.11-3.46,4.68-.65,.79-1.29,1.58-1.94,2.38-.67,.79-1.34,1.58-2.02,2.38-.7,.77-1.39,1.54-2.09,2.3,.07,.08,.14,.17,.21,.25,1.16,1.38,2.31,2.76,3.46,4.14,.62,.77,1.25,1.54,1.87,2.3,1.11,1.55,2.24,3.08,3.38,4.61Z" style="fill: #db0f1a;"/>
            </g>
            <g>
              <path d="M43.62,180.99c1.13,1.67,2.23,3.34,3.31,5.04,.53,.86,1.06,1.73,1.58,2.59,.02-.04,.05-.08,.07-.12,1.45-2.4,3.01-4.72,4.53-7.08,1.13-1.6,2.28-3.18,3.46-4.75,.6-.82,1.2-1.63,1.8-2.45,1.1-1.35,2.21-2.69,3.36-4.01,.15-.18,.31-.35,.46-.53-.67-.77-1.34-1.54-2.02-2.3-.65-.74-1.3-1.49-1.94-2.23-.6-.77-1.2-1.54-1.8-2.3-1.18-1.56-2.33-3.14-3.46-4.75-1.42-2.23-2.85-4.46-4.22-6.72-.08-.14-.16-.27-.25-.41-.41,.74-.82,1.49-1.22,2.23-1.02,1.6-2.05,3.18-3.1,4.75-1.16,1.55-2.32,3.11-3.46,4.68-.65,.79-1.29,1.58-1.94,2.38-.67,.79-1.34,1.58-2.02,2.38-.7,.77-1.39,1.54-2.09,2.3,.07,.08,.14,.17,.21,.25,1.16,1.38,2.31,2.76,3.46,4.14,.62,.77,1.25,1.54,1.87,2.3,1.11,1.55,2.24,3.08,3.38,4.61Z" style="fill: #db0f1a;"/>
              <path d="M43.62,180.99c1.13,1.67,2.23,3.34,3.31,5.04,.53,.86,1.06,1.73,1.58,2.59,.02-.04,.05-.08,.07-.12,1.45-2.4,3.01-4.72,4.53-7.08,1.13-1.6,2.28-3.18,3.46-4.75,.6-.82,1.2-1.63,1.8-2.45,1.1-1.35,2.21-2.69,3.36-4.01,.15-.18,.31-.35,.46-.53-.67-.77-1.34-1.54-2.02-2.3-.65-.74-1.3-1.49-1.94-2.23-.6-.77-1.2-1.54-1.8-2.3-1.18-1.56-2.33-3.14-3.46-4.75-1.42-2.23-2.85-4.46-4.22-6.72-.08-.14-.16-.27-.25-.41-.41,.74-.82,1.49-1.22,2.23-1.02,1.6-2.05,3.18-3.1,4.75-1.16,1.55-2.32,3.11-3.46,4.68-.65,.79-1.29,1.58-1.94,2.38-.67,.79-1.34,1.58-2.02,2.38-.7,.77-1.39,1.54-2.09,2.3,.07,.08,.14,.17,.21,.25,1.16,1.38,2.31,2.76,3.46,4.14,.62,.77,1.25,1.54,1.87,2.3,1.11,1.55,2.24,3.08,3.38,4.61Z" style="fill: #db0f1a;"/>
              <path d="M43.62,180.99c1.13,1.67,2.23,3.34,3.31,5.04,.53,.86,1.06,1.73,1.58,2.59,.02-.04,.05-.08,.07-.12,1.45-2.4,3.01-4.72,4.53-7.08,1.13-1.6,2.28-3.18,3.46-4.75,.6-.82,1.2-1.63,1.8-2.45,1.1-1.35,2.21-2.69,3.36-4.01,.15-.18,.31-.35,.46-.53-.67-.77-1.34-1.54-2.02-2.3-.65-.74-1.3-1.49-1.94-2.23-.6-.77-1.2-1.54-1.8-2.3-1.18-1.56-2.33-3.14-3.46-4.75-1.42-2.23-2.85-4.46-4.22-6.72-.08-.14-.16-.27-.25-.41-.41,.74-.82,1.49-1.22,2.23-1.02,1.6-2.05,3.18-3.1,4.75-1.16,1.55-2.32,3.11-3.46,4.68-.65,.79-1.29,1.58-1.94,2.38-.67,.79-1.34,1.58-2.02,2.38-.7,.77-1.39,1.54-2.09,2.3,.07,.08,.14,.17,.21,.25,1.16,1.38,2.31,2.76,3.46,4.14,.62,.77,1.25,1.54,1.87,2.3,1.11,1.55,2.24,3.08,3.38,4.61Z" style="fill: #db0f1a;"/>
            </g>
          </g>
          <g>
            <g>
              <path d="M98.62,57.32c1.13,1.67,2.23,3.34,3.31,5.04,.53,.86,1.06,1.73,1.58,2.59,.02-.04,.05-.08,.07-.12,1.45-2.4,3.01-4.72,4.53-7.08,1.13-1.6,2.28-3.18,3.46-4.75,.6-.82,1.2-1.63,1.8-2.45,1.1-1.35,2.21-2.69,3.36-4.01,.15-.18,.31-.35,.46-.53-.67-.77-1.34-1.54-2.02-2.3-.65-.74-1.3-1.49-1.94-2.23-.6-.77-1.2-1.54-1.8-2.3-1.18-1.56-2.33-3.14-3.46-4.75-1.42-2.23-2.85-4.46-4.22-6.72-.08-.14-.16-.27-.25-.41-.41,.74-.82,1.49-1.22,2.23-1.02,1.6-2.05,3.18-3.1,4.75-1.16,1.55-2.32,3.11-3.46,4.68-.65,.79-1.29,1.58-1.94,2.38-.67,.79-1.34,1.58-2.02,2.38-.7,.77-1.39,1.54-2.09,2.3,.07,.08,.14,.17,.21,.25,1.16,1.38,2.31,2.76,3.46,4.14,.62,.77,1.25,1.54,1.87,2.3,1.11,1.55,2.24,3.08,3.38,4.61Z" style="fill: #db0f1a;"/>
              <path d="M98.62,57.32c1.13,1.67,2.23,3.34,3.31,5.04,.53,.86,1.06,1.73,1.58,2.59,.02-.04,.05-.08,.07-.12,1.45-2.4,3.01-4.72,4.53-7.08,1.13-1.6,2.28-3.18,3.46-4.75,.6-.82,1.2-1.63,1.8-2.45,1.1-1.35,2.21-2.69,3.36-4.01,.15-.18,.31-.35,.46-.53-.67-.77-1.34-1.54-2.02-2.3-.65-.74-1.3-1.49-1.94-2.23-.6-.77-1.2-1.54-1.8-2.3-1.18-1.56-2.33-3.14-3.46-4.75-1.42-2.23-2.85-4.46-4.22-6.72-.08-.14-.16-.27-.25-.41-.41,.74-.82,1.49-1.22,2.23-1.02,1.6-2.05,3.18-3.1,4.75-1.16,1.55-2.32,3.11-3.46,4.68-.65,.79-1.29,1.58-1.94,2.38-.67,.79-1.34,1.58-2.02,2.38-.7,.77-1.39,1.54-2.09,2.3,.07,.08,.14,.17,.21,.25,1.16,1.38,2.31,2.76,3.46,4.14,.62,.77,1.25,1.54,1.87,2.3,1.11,1.55,2.24,3.08,3.38,4.61Z" style="fill: #db0f1a;"/>
              <path d="M98.62,57.32c1.13,1.67,2.23,3.34,3.31,5.04,.53,.86,1.06,1.73,1.58,2.59,.02-.04,.05-.08,.07-.12,1.45-2.4,3.01-4.72,4.53-7.08,1.13-1.6,2.28-3.18,3.46-4.75,.6-.82,1.2-1.63,1.8-2.45,1.1-1.35,2.21-2.69,3.36-4.01,.15-.18,.31-.35,.46-.53-.67-.77-1.34-1.54-2.02-2.3-.65-.74-1.3-1.49-1.94-2.23-.6-.77-1.2-1.54-1.8-2.3-1.18-1.56-2.33-3.14-3.46-4.75-1.42-2.23-2.85-4.46-4.22-6.72-.08-.14-.16-.27-.25-.41-.41,.74-.82,1.49-1.22,2.23-1.02,1.6-2.05,3.18-3.1,4.75-1.16,1.55-2.32,3.11-3.46,4.68-.65,.79-1.29,1.58-1.94,2.38-.67,.79-1.34,1.58-2.02,2.38-.7,.77-1.39,1.54-2.09,2.3,.07,.08,.14,.17,.21,.25,1.16,1.38,2.31,2.76,3.46,4.14,.62,.77,1.25,1.54,1.87,2.3,1.11,1.55,2.24,3.08,3.38,4.61Z" style="fill: #db0f1a;"/>
            </g>
            <g>
              <path d="M98.62,180.99c1.13,1.67,2.23,3.34,3.31,5.04,.53,.86,1.06,1.73,1.58,2.59,.02-.04,.05-.08,.07-.12,1.45-2.4,3.01-4.72,4.53-7.08,1.13-1.6,2.28-3.18,3.46-4.75,.6-.82,1.2-1.63,1.8-2.45,1.1-1.35,2.21-2.69,3.36-4.01,.15-.18,.31-.35,.46-.53-.67-.77-1.34-1.54-2.02-2.3-.65-.74-1.3-1.49-1.94-2.23-.6-.77-1.2-1.54-1.8-2.3-1.18-1.56-2.33-3.14-3.46-4.75-1.42-2.23-2.85-4.46-4.22-6.72-.08-.14-.16-.27-.25-.41-.41,.74-.82,1.49-1.22,2.23-1.02,1.6-2.05,3.18-3.1,4.75-1.16,1.55-2.32,3.11-3.46,4.68-.65,.79-1.29,1.58-1.94,2.38-.67,.79-1.34,1.58-2.02,2.38-.7,.77-1.39,1.54-2.09,2.3,.07,.08,.14,.17,.21,.25,1.16,1.38,2.31,2.76,3.46,4.14,.62,.77,1.25,1.54,1.87,2.3,1.11,1.55,2.24,3.08,3.38,4.61Z" style="fill: #db0f1a;"/>
              <path d="M98.62,180.99c1.13,1.67,2.23,3.34,3.31,5.04,.53,.86,1.06,1.73,1.58,2.59,.02-.04,.05-.08,.07-.12,1.45-2.4,3.01-4.72,4.53-7.08,1.13-1.6,2.28-3.18,3.46-4.75,.6-.82,1.2-1.63,1.8-2.45,1.1-1.35,2.21-2.69,3.36-4.01,.15-.18,.31-.35,.46-.53-.67-.77-1.34-1.54-2.02-2.3-.65-.74-1.3-1.49-1.94-2.23-.6-.77-1.2-1.54-1.8-2.3-1.18-1.56-2.33-3.14-3.46-4.75-1.42-2.23-2.85-4.46-4.22-6.72-.08-.14-.16-.27-.25-.41-.41,.74-.82,1.49-1.22,2.23-1.02,1.6-2.05,3.18-3.1,4.75-1.16,1.55-2.32,3.11-3.46,4.68-.65,.79-1.29,1.58-1.94,2.38-.67,.79-1.34,1.58-2.02,2.38-.7,.77-1.39,1.54-2.09,2.3,.07,.08,.14,.17,.21,.25,1.16,1.38,2.31,2.76,3.46,4.14,.62,.77,1.25,1.54,1.87,2.3,1.11,1.55,2.24,3.08,3.38,4.61Z" style="fill: #db0f1a;"/>
              <path d="M98.62,180.99c1.13,1.67,2.23,3.34,3.31,5.04,.53,.86,1.06,1.73,1.58,2.59,.02-.04,.05-.08,.07-.12,1.45-2.4,3.01-4.72,4.53-7.08,1.13-1.6,2.28-3.18,3.46-4.75,.6-.82,1.2-1.63,1.8-2.45,1.1-1.35,2.21-2.69,3.36-4.01,.15-.18,.31-.35,.46-.53-.67-.77-1.34-1.54-2.02-2.3-.65-.74-1.3-1.49-1.94-2.23-.6-.77-1.2-1.54-1.8-2.3-1.18-1.56-2.33-3.14-3.46-4.75-1.42-2.23-2.85-4.46-4.22-6.72-.08-.14-.16-.27-.25-.41-.41,.74-.82,1.49-1.22,2.23-1.02,1.6-2.05,3.18-3.1,4.75-1.16,1.55-2.32,3.11-3.46,4.68-.65,.79-1.29,1.58-1.94,2.38-.67,.79-1.34,1.58-2.02,2.38-.7,.77-1.39,1.54-2.09,2.3,.07,.08,.14,.17,.21,.25,1.16,1.38,2.31,2.76,3.46,4.14,.62,.77,1.25,1.54,1.87,2.3,1.11,1.55,2.24,3.08,3.38,4.61Z" style="fill: #db0f1a;"/>
            </g>
            <g>
              <path d="M71.62,119.49c1.13,1.67,2.23,3.34,3.31,5.04,.53,.86,1.06,1.73,1.58,2.59,.02-.04,.05-.08,.07-.12,1.45-2.4,3.01-4.72,4.53-7.08,1.13-1.6,2.28-3.18,3.46-4.75,.6-.82,1.2-1.63,1.8-2.45,1.1-1.35,2.21-2.69,3.36-4.01,.15-.18,.31-.35,.46-.53-.67-.77-1.34-1.54-2.02-2.3-.65-.74-1.3-1.49-1.94-2.23-.6-.77-1.2-1.54-1.8-2.3-1.18-1.56-2.33-3.14-3.46-4.75-1.42-2.23-2.85-4.46-4.22-6.72-.08-.14-.16-.27-.25-.41-.41,.74-.82,1.49-1.22,2.23-1.02,1.6-2.05,3.18-3.1,4.75-1.17,1.55-2.32,3.11-3.46,4.68-.65,.79-1.29,1.58-1.94,2.38-.67,.79-1.34,1.58-2.02,2.38-.7,.77-1.39,1.54-2.09,2.3,.07,.08,.14,.17,.21,.25,1.16,1.38,2.31,2.76,3.46,4.14,.62,.77,1.25,1.54,1.87,2.3,1.11,1.55,2.24,3.08,3.38,4.61Z" style="fill: #db0f1a;"/>
              <path d="M71.62,119.49c1.13,1.67,2.23,3.34,3.31,5.04,.53,.86,1.06,1.73,1.58,2.59,.02-.04,.05-.08,.07-.12,1.45-2.4,3.01-4.72,4.53-7.08,1.13-1.6,2.28-3.18,3.46-4.75,.6-.82,1.2-1.63,1.8-2.45,1.1-1.35,2.21-2.69,3.36-4.01,.15-.18,.31-.35,.46-.53-.67-.77-1.34-1.54-2.02-2.3-.65-.74-1.3-1.49-1.94-2.23-.6-.77-1.2-1.54-1.8-2.3-1.18-1.56-2.33-3.14-3.46-4.75-1.42-2.23-2.85-4.46-4.22-6.72-.08-.14-.16-.27-.25-.41-.41,.74-.82,1.49-1.22,2.23-1.02,1.6-2.05,3.18-3.1,4.75-1.17,1.55-2.32,3.11-3.46,4.68-.65,.79-1.29,1.58-1.94,2.38-.67,.79-1.34,1.58-2.02,2.38-.7,.77-1.39,1.54-2.09,2.3,.07,.08,.14,.17,.21,.25,1.16,1.38,2.31,2.76,3.46,4.14,.62,.77,1.25,1.54,1.87,2.3,1.11,1.55,2.24,3.08,3.38,4.61Z" style="fill: #db0f1a;"/>
              <path d="M71.62,119.49c1.13,1.67,2.23,3.34,3.31,5.04,.53,.86,1.06,1.73,1.58,2.59,.02-.04,.05-.08,.07-.12,1.45-2.4,3.01-4.72,4.53-7.08,1.13-1.6,2.28-3.18,3.46-4.75,.6-.82,1.2-1.63,1.8-2.45,1.1-1.35,2.21-2.69,3.36-4.01,.15-.18,.31-.35,.46-.53-.67-.77-1.34-1.54-2.02-2.3-.65-.74-1.3-1.49-1.94-2.23-.6-.77-1.2-1.54-1.8-2.3-1.18-1.56-2.33-3.14-3.46-4.75-1.42-2.23-2.85-4.46-4.22-6.72-.08-.14-.16-.27-.25-.41-.41,.74-.82,1.49-1.22,2.23-1.02,1.6-2.05,3.18-3.1,4.75-1.17,1.55-2.32,3.11-3.46,4.68-.65,.79-1.29,1.58-1.94,2.38-.67,.79-1.34,1.58-2.02,2.38-.7,.77-1.39,1.54-2.09,2.3,.07,.08,.14,.17,.21,.25,1.16,1.38,2.31,2.76,3.46,4.14,.62,.77,1.25,1.54,1.87,2.3,1.11,1.55,2.24,3.08,3.38,4.61Z" style="fill: #db0f1a;"/>
            </g>
          </g>
        </g>
        <g>
          <path d="M133.43,51.84c.48,.7,.94,1.41,1.4,2.13,.22,.37,.45,.73,.67,1.1,.01-.02,.02-.03,.03-.05,.61-1.01,1.27-2,1.92-2.99,.48-.68,.96-1.35,1.46-2.01,.25-.35,.51-.69,.76-1.04,.47-.57,.94-1.14,1.42-1.7,.06-.07,.13-.15,.19-.22-.28-.33-.57-.65-.85-.97-.27-.31-.55-.63-.82-.94-.25-.32-.51-.65-.76-.97-.5-.66-.99-1.33-1.46-2.01-.6-.94-1.2-1.89-1.78-2.84-.04-.06-.07-.12-.1-.17-.17,.31-.34,.63-.52,.94-.43,.67-.87,1.34-1.31,2.01-.49,.66-.98,1.32-1.46,1.98-.27,.34-.55,.67-.82,1-.29,.34-.57,.67-.85,1-.29,.32-.59,.65-.88,.97,.03,.04,.06,.07,.09,.11,.49,.58,.98,1.17,1.46,1.75,.26,.32,.53,.65,.79,.97,.47,.65,.95,1.3,1.43,1.95Z" style="fill: #db0f1a;"/>
          <path d="M133.43,51.84c.48,.7,.94,1.41,1.4,2.13,.22,.37,.45,.73,.67,1.1,.01-.02,.02-.03,.03-.05,.61-1.01,1.27-2,1.92-2.99,.48-.68,.96-1.35,1.46-2.01,.25-.35,.51-.69,.76-1.04,.47-.57,.94-1.14,1.42-1.7,.06-.07,.13-.15,.19-.22-.28-.33-.57-.65-.85-.97-.27-.31-.55-.63-.82-.94-.25-.32-.51-.65-.76-.97-.5-.66-.99-1.33-1.46-2.01-.6-.94-1.2-1.89-1.78-2.84-.04-.06-.07-.12-.1-.17-.17,.31-.34,.63-.52,.94-.43,.67-.87,1.34-1.31,2.01-.49,.66-.98,1.32-1.46,1.98-.27,.34-.55,.67-.82,1-.29,.34-.57,.67-.85,1-.29,.32-.59,.65-.88,.97,.03,.04,.06,.07,.09,.11,.49,.58,.98,1.17,1.46,1.75,.26,.32,.53,.65,.79,.97,.47,.65,.95,1.3,1.43,1.95Z" style="fill: #db0f1a;"/>
          <path d="M133.43,51.84c.48,.7,.94,1.41,1.4,2.13,.22,.37,.45,.73,.67,1.1,.01-.02,.02-.03,.03-.05,.61-1.01,1.27-2,1.92-2.99,.48-.68,.96-1.35,1.46-2.01,.25-.35,.51-.69,.76-1.04,.47-.57,.94-1.14,1.42-1.7,.06-.07,.13-.15,.19-.22-.28-.33-.57-.65-.85-.97-.27-.31-.55-.63-.82-.94-.25-.32-.51-.65-.76-.97-.5-.66-.99-1.33-1.46-2.01-.6-.94-1.2-1.89-1.78-2.84-.04-.06-.07-.12-.1-.17-.17,.31-.34,.63-.52,.94-.43,.67-.87,1.34-1.31,2.01-.49,.66-.98,1.32-1.46,1.98-.27,.34-.55,.67-.82,1-.29,.34-.57,.67-.85,1-.29,.32-.59,.65-.88,.97,.03,.04,.06,.07,.09,.11,.49,.58,.98,1.17,1.46,1.75,.26,.32,.53,.65,.79,.97,.47,.65,.95,1.3,1.43,1.95Z" style="fill: #db0f1a;"/>
        </g>
        <path d="M141.52,10.02l-1.26,2.74h-6.58l-1.44,2.94c2.85,.42,5.11,1.48,6.77,3.18,1.43,1.46,2.15,3.18,2.15,5.16,0,1.15-.23,2.21-.7,3.19-.47,.98-1.06,1.81-1.77,2.5-.71,.69-1.5,1.24-2.37,1.66-1.24,.59-2.5,.89-3.81,.89s-2.27-.22-2.86-.67c-.6-.45-.9-.94-.9-1.48,0-.3,.12-.57,.37-.8,.25-.23,.56-.35,.94-.35,.28,0,.52,.04,.73,.13,.21,.09,.57,.31,1.07,.66,.81,.56,1.62,.84,2.45,.84,1.26,0,2.36-.48,3.31-1.43,.95-.95,1.43-2.11,1.43-3.48s-.42-2.56-1.27-3.7c-.85-1.14-2.02-2.03-3.51-2.65-1.17-.48-2.77-.76-4.79-.84l4.19-8.5h7.84Z" style="fill: #db0f1a;"/>
        <g>
          <path d="M18.74,163.58c-.48-.7-.94-1.41-1.4-2.13-.22-.37-.45-.73-.67-1.1-.01,.02-.02,.03-.03,.05-.62,1.01-1.27,2-1.92,2.99-.48,.68-.96,1.35-1.46,2.01-.25,.35-.51,.69-.76,1.04-.46,.57-.94,1.14-1.42,1.7-.06,.07-.13,.15-.19,.22,.28,.33,.57,.65,.85,.97,.27,.31,.55,.63,.82,.94,.25,.32,.51,.65,.76,.97,.5,.66,.99,1.33,1.46,2.01,.6,.94,1.2,1.89,1.78,2.84,.04,.06,.07,.12,.11,.17,.17-.31,.34-.63,.52-.94,.43-.67,.87-1.34,1.31-2.01,.49-.66,.98-1.32,1.46-1.98,.27-.33,.55-.67,.82-1,.28-.33,.57-.67,.85-1,.29-.32,.59-.65,.88-.97-.03-.04-.06-.07-.09-.11-.49-.58-.98-1.17-1.46-1.75-.26-.32-.53-.65-.79-.97-.47-.65-.95-1.3-1.43-1.95Z" style="fill: #db0f1a;"/>
          <path d="M18.74,163.58c-.48-.7-.94-1.41-1.4-2.13-.22-.37-.45-.73-.67-1.1-.01,.02-.02,.03-.03,.05-.62,1.01-1.27,2-1.92,2.99-.48,.68-.96,1.35-1.46,2.01-.25,.35-.51,.69-.76,1.04-.46,.57-.94,1.14-1.42,1.7-.06,.07-.13,.15-.19,.22,.28,.33,.57,.65,.85,.97,.27,.31,.55,.63,.82,.94,.25,.32,.51,.65,.76,.97,.5,.66,.99,1.33,1.46,2.01,.6,.94,1.2,1.89,1.78,2.84,.04,.06,.07,.12,.11,.17,.17-.31,.34-.63,.52-.94,.43-.67,.87-1.34,1.31-2.01,.49-.66,.98-1.32,1.46-1.98,.27-.33,.55-.67,.82-1,.28-.33,.57-.67,.85-1,.29-.32,.59-.65,.88-.97-.03-.04-.06-.07-.09-.11-.49-.58-.98-1.17-1.46-1.75-.26-.32-.53-.65-.79-.97-.47-.65-.95-1.3-1.43-1.95Z" style="fill: #db0f1a;"/>
          <path d="M18.74,163.58c-.48-.7-.94-1.41-1.4-2.13-.22-.37-.45-.73-.67-1.1-.01,.02-.02,.03-.03,.05-.62,1.01-1.27,2-1.92,2.99-.48,.68-.96,1.35-1.46,2.01-.25,.35-.51,.69-.76,1.04-.46,.57-.94,1.14-1.42,1.7-.06,.07-.13,.15-.19,.22,.28,.33,.57,.65,.85,.97,.27,.31,.55,.63,.82,.94,.25,.32,.51,.65,.76,.97,.5,.66,.99,1.33,1.46,2.01,.6,.94,1.2,1.89,1.78,2.84,.04,.06,.07,.12,.11,.17,.17-.31,.34-.63,.52-.94,.43-.67,.87-1.34,1.31-2.01,.49-.66,.98-1.32,1.46-1.98,.27-.33,.55-.67,.82-1,.28-.33,.57-.67,.85-1,.29-.32,.59-.65,.88-.97-.03-.04-.06-.07-.09-.11-.49-.58-.98-1.17-1.46-1.75-.26-.32-.53-.65-.79-.97-.47-.65-.95-1.3-1.43-1.95Z" style="fill: #db0f1a;"/>
        </g>
        <path d="M9.32,204.22l1.26-2.74h6.58l1.44-2.93c-2.85-.42-5.11-1.48-6.77-3.18-1.43-1.46-2.15-3.18-2.15-5.16,0-1.15,.23-2.21,.7-3.19,.47-.98,1.06-1.81,1.77-2.5,.71-.69,1.5-1.24,2.37-1.66,1.24-.59,2.5-.89,3.81-.89s2.27,.22,2.86,.67c.6,.45,.9,.94,.9,1.48,0,.3-.12,.57-.37,.8-.25,.23-.56,.35-.94,.35-.28,0-.52-.04-.73-.13-.21-.09-.57-.31-1.07-.66-.81-.56-1.62-.84-2.45-.84-1.26,0-2.36,.48-3.31,1.43-.95,.95-1.43,2.11-1.43,3.47s.42,2.56,1.27,3.7c.85,1.15,2.02,2.03,3.51,2.65,1.17,.48,2.77,.76,4.79,.84l-4.19,8.5h-7.84Z" style="fill: #db0f1a;"/>
      </g>
    </g>
  </g>
</svg>