<?xml version="1.0" encoding="UTF-8"?>
<svg id="Playing_Cards" data-name="Playing Cards" xmlns="http://www.w3.org/2000/svg" viewBox="0 0 152.06 215.64">
  <g id="Cards">
    <g id="Hearts">
      <g>
        <path d="M6.52,.02H145.49c.47,0,.95,.06,1.41,.17l.11,.03c.98,.25,1.88,.74,2.61,1.44l.04,.04c.48,.46,.87,.99,1.17,1.59l.41,.83c.29,.58,.48,1.2,.56,1.84l.26,1.97c.03,.25,.05,.5,.05,.75V207.07c0,.26-.02,.52-.05,.78l-.25,1.86c-.08,.61-.26,1.2-.53,1.75l-.41,.85c-.32,.65-.75,1.23-1.28,1.72l-.05,.04c-.67,.62-1.48,1.07-2.36,1.32l-.2,.06c-.51,.14-1.04,.22-1.57,.22H6.6c-.53,0-1.06-.07-1.57-.22l-.14-.04c-.92-.26-1.75-.74-2.44-1.4h0c-.49-.48-.9-1.04-1.2-1.65l-.41-.84c-.29-.59-.47-1.23-.55-1.88l-.21-1.86c-.02-.22-.04-.44-.04-.65V8.62c0-.21,.01-.42,.03-.63l.21-1.97c.07-.68,.27-1.35,.58-1.96l.41-.82c.28-.56,.65-1.07,1.09-1.51h0C3.11,.99,4.04,.47,5.06,.21h.06c.46-.13,.93-.19,1.41-.19Z" style="fill: #fff; fill-rule: evenodd;"/>
        <g>
          <path d="M23.4,10.18l-1.26,2.74h-6.58l-1.44,2.93c2.85,.42,5.11,1.48,6.77,3.18,1.43,1.46,2.15,3.18,2.15,5.16,0,1.15-.23,2.21-.7,3.19-.47,.98-1.06,1.81-1.77,2.5-.71,.69-1.5,1.24-2.37,1.66-1.24,.59-2.5,.89-3.81,.89s-2.27-.22-2.86-.67c-.6-.45-.9-.94-.9-1.48,0-.3,.12-.57,.37-.8,.25-.23,.56-.35,.94-.35,.28,0,.52,.04,.73,.13,.21,.09,.57,.31,1.07,.66,.81,.56,1.62,.84,2.45,.84,1.26,0,2.36-.48,3.31-1.43,.95-.95,1.43-2.11,1.43-3.47s-.42-2.56-1.27-3.7c-.85-1.15-2.02-2.03-3.51-2.65-1.17-.48-2.77-.76-4.79-.84l4.19-8.5h7.84Z" style="fill: #db0f1a;"/>
          <path d="M128.75,205.51l1.26-2.74h6.58l1.44-2.94c-2.85-.42-5.11-1.48-6.77-3.18-1.43-1.46-2.15-3.18-2.15-5.16,0-1.15,.23-2.21,.7-3.19,.47-.98,1.06-1.81,1.77-2.5,.71-.69,1.5-1.24,2.37-1.66,1.24-.59,2.5-.89,3.81-.89s2.27,.22,2.86,.67c.6,.45,.9,.94,.9,1.48,0,.3-.12,.57-.37,.8-.25,.23-.56,.35-.94,.35-.28,0-.52-.04-.73-.13-.21-.09-.57-.31-1.07-.66-.81-.56-1.62-.84-2.45-.84-1.26,0-2.36,.47-3.31,1.43-.95,.95-1.43,2.11-1.43,3.47s.42,2.56,1.27,3.7c.85,1.14,2.02,2.03,3.51,2.65,1.17,.48,2.77,.76,4.79,.84l-4.19,8.5h-7.84Z" style="fill: #db0f1a;"/>
        </g>
        <g>
          <path d="M14.84,48.28c.5,.67,.95,1.41,1.28,2.28,.08,.22,.16,.44,.23,.67,.06,.19,.1,.28,.14,.28,.01,0,.03,0,.04-.03,.01,.02,.02,.03,.04,.03,.13,0,.25-.62,.29-.73,.32-.91,.8-1.74,1.37-2.5,1.51-2.02,3.46-3.37,3.97-5.39,.34-1.34,.01-2.94-.9-3.98-.52-.59-1.19-.95-1.93-.95-.89,0-1.68,.52-2.22,1.34-.28,.43-.5,.94-.62,1.51-.35-1.64-1.49-2.85-2.84-2.85-.74,0-1.41,.36-1.93,.95-.91,1.04-1.24,2.63-.9,3.98,.51,2.01,2.46,3.37,3.97,5.39Z" style="fill: #db0f1a;"/>
          <path d="M137.3,167.41c-.5-.67-.95-1.41-1.28-2.28-.08-.22-.16-.44-.23-.67-.06-.19-.1-.28-.14-.28-.01,0-.03,0-.04,.03-.01-.02-.02-.03-.04-.03-.13,0-.25,.62-.29,.73-.32,.91-.8,1.74-1.37,2.5-1.51,2.02-3.46,3.37-3.97,5.39-.34,1.34-.01,2.94,.9,3.98,.52,.59,1.19,.95,1.93,.95,.89,0,1.68-.52,2.22-1.34,.28-.43,.5-.94,.62-1.51,.35,1.64,1.49,2.85,2.84,2.85,.74,0,1.41-.36,1.93-.95,.91-1.04,1.24-2.63,.9-3.98-.51-2.02-2.46-3.37-3.97-5.39Z" style="fill: #db0f1a;"/>
        </g>
        <g>
          <g>
            <g>
              <path d="M99.12,55.99c1.3,1.74,2.47,3.67,3.33,5.92,.22,.56,.42,1.14,.59,1.75,.14,.5,.27,.73,.38,.74,.03,0,.07-.02,.1-.07,.03,.05,.06,.07,.1,.07,.34-.02,.65-1.61,.75-1.9,.84-2.35,2.07-4.52,3.54-6.5,3.91-5.25,8.99-8.75,10.31-13.98,.88-3.48,.03-7.63-2.33-10.32-1.34-1.53-3.09-2.45-5-2.45-2.31,0-4.37,1.35-5.77,3.48-.73,1.12-1.29,2.45-1.6,3.91-.9-4.26-3.86-7.39-7.37-7.39-1.91,0-3.66,.93-5,2.45-2.36,2.69-3.22,6.84-2.33,10.32,1.32,5.23,6.4,8.74,10.31,13.98Z" style="fill: #db0f1a;"/>
              <path d="M99.12,178.06c1.3,1.74,2.47,3.67,3.33,5.92,.22,.56,.42,1.14,.59,1.75,.14,.5,.27,.73,.38,.74,.03,0,.07-.02,.1-.07,.03,.05,.06,.07,.1,.07,.34-.02,.65-1.61,.75-1.9,.84-2.35,2.07-4.51,3.54-6.5,3.91-5.25,8.99-8.75,10.31-13.98,.88-3.48,.03-7.63-2.33-10.32-1.34-1.53-3.09-2.46-5-2.46-2.31,0-4.37,1.35-5.77,3.48-.73,1.12-1.29,2.45-1.6,3.91-.9-4.26-3.86-7.39-7.37-7.39-1.91,0-3.66,.93-5,2.46-2.36,2.69-3.22,6.84-2.33,10.32,1.32,5.23,6.4,8.73,10.31,13.98Z" style="fill: #db0f1a;"/>
            </g>
            <g>
              <path d="M44.23,55.99c1.3,1.74,2.47,3.67,3.33,5.92,.22,.56,.42,1.14,.59,1.75,.14,.5,.27,.73,.38,.74,.03,0,.07-.02,.1-.07,.03,.05,.06,.07,.1,.07,.34-.02,.65-1.61,.75-1.9,.84-2.35,2.07-4.52,3.54-6.5,3.91-5.25,8.99-8.75,10.31-13.98,.88-3.48,.03-7.63-2.33-10.32-1.34-1.53-3.09-2.45-5-2.45-2.31,0-4.37,1.35-5.77,3.48-.73,1.12-1.29,2.45-1.6,3.91-.9-4.26-3.86-7.39-7.37-7.39-1.91,0-3.66,.93-5,2.45-2.36,2.69-3.22,6.84-2.33,10.32,1.32,5.23,6.4,8.74,10.31,13.98Z" style="fill: #db0f1a;"/>
              <path d="M44.23,178.06c1.3,1.74,2.47,3.67,3.33,5.92,.22,.56,.42,1.14,.59,1.75,.14,.5,.27,.73,.38,.74,.03,0,.07-.02,.1-.07,.03,.05,.06,.07,.1,.07,.34-.02,.65-1.61,.75-1.9,.84-2.35,2.07-4.51,3.54-6.5,3.91-5.25,8.99-8.75,10.31-13.98,.88-3.48,.03-7.63-2.33-10.32-1.34-1.53-3.09-2.46-5-2.46-2.31,0-4.37,1.35-5.77,3.48-.73,1.12-1.29,2.45-1.6,3.91-.9-4.26-3.86-7.39-7.37-7.39-1.91,0-3.66,.93-5,2.46-2.36,2.69-3.22,6.84-2.33,10.32,1.32,5.23,6.4,8.73,10.31,13.98Z" style="fill: #db0f1a;"/>
            </g>
          </g>
          <path d="M71.68,117.03c1.3,1.74,2.47,3.67,3.33,5.92,.22,.56,.42,1.14,.59,1.75,.15,.5,.27,.73,.38,.74,.03,0,.07-.02,.1-.07,.03,.05,.06,.07,.1,.07,.34-.02,.65-1.61,.75-1.9,.84-2.35,2.07-4.52,3.54-6.5,3.91-5.25,8.99-8.75,10.31-13.98,.88-3.48,.03-7.63-2.33-10.32-1.34-1.53-3.09-2.45-5-2.45-2.31,0-4.37,1.35-5.77,3.48-.73,1.12-1.29,2.45-1.6,3.91-.9-4.26-3.86-7.39-7.37-7.39-1.91,0-3.66,.93-5,2.45-2.36,2.69-3.22,6.84-2.33,10.32,1.32,5.23,6.4,8.74,10.31,13.98Z" style="fill: #db0f1a;"/>
        </g>
        <path d="M142.24,10.49l-1.26,2.74h-6.58l-1.44,2.93c2.85,.42,5.11,1.48,6.77,3.18,1.43,1.46,2.15,3.18,2.15,5.16,0,1.15-.23,2.21-.7,3.19-.47,.98-1.06,1.81-1.77,2.5-.71,.69-1.5,1.24-2.37,1.66-1.24,.59-2.5,.89-3.81,.89s-2.27-.22-2.86-.67c-.6-.45-.9-.94-.9-1.48,0-.3,.12-.57,.37-.8,.25-.23,.56-.35,.94-.35,.28,0,.52,.04,.73,.13,.21,.09,.57,.31,1.07,.66,.81,.56,1.62,.84,2.45,.84,1.26,0,2.36-.48,3.31-1.43,.95-.95,1.43-2.11,1.43-3.47s-.42-2.56-1.27-3.7c-.85-1.15-2.02-2.03-3.51-2.65-1.17-.48-2.77-.76-4.79-.84l4.19-8.5h7.84Z" style="fill: #db0f1a;"/>
        <path d="M133.68,48.59c.5,.67,.95,1.41,1.28,2.28,.08,.22,.16,.44,.23,.67,.06,.19,.1,.28,.14,.28,.01,0,.03,0,.04-.03,.01,.02,.02,.03,.04,.03,.13,0,.25-.62,.29-.73,.32-.91,.8-1.74,1.37-2.5,1.51-2.02,3.46-3.37,3.97-5.39,.34-1.34,.01-2.94-.9-3.98-.52-.59-1.19-.95-1.93-.95-.89,0-1.68,.52-2.22,1.34-.28,.43-.5,.94-.62,1.51-.35-1.64-1.49-2.85-2.84-2.85-.74,0-1.41,.36-1.93,.95-.91,1.04-1.24,2.63-.9,3.98,.51,2.01,2.46,3.37,3.97,5.39Z" style="fill: #db0f1a;"/>
        <path d="M10.04,204.7l1.26-2.74h6.58l1.44-2.94c-2.85-.42-5.11-1.48-6.77-3.18-1.43-1.46-2.15-3.18-2.15-5.16,0-1.15,.23-2.21,.7-3.19,.47-.98,1.06-1.81,1.77-2.5,.71-.69,1.5-1.24,2.37-1.66,1.24-.59,2.5-.89,3.81-.89s2.27,.22,2.86,.67c.6,.45,.9,.94,.9,1.48,0,.3-.12,.57-.37,.8-.25,.23-.56,.35-.94,.35-.28,0-.52-.04-.73-.13-.21-.09-.57-.31-1.07-.66-.81-.56-1.62-.84-2.45-.84-1.26,0-2.36,.47-3.31,1.43-.95,.95-1.43,2.11-1.43,3.47s.42,2.56,1.27,3.7c.85,1.14,2.02,2.03,3.51,2.65,1.17,.48,2.77,.76,4.79,.84l-4.19,8.5h-7.84Z" style="fill: #db0f1a;"/>
        <path d="M18.59,166.61c-.5-.67-.95-1.41-1.28-2.28-.08-.22-.16-.44-.23-.67-.06-.19-.1-.28-.14-.28-.01,0-.03,0-.04,.03-.01-.02-.02-.03-.04-.03-.13,0-.25,.62-.29,.73-.32,.91-.8,1.74-1.37,2.5-1.51,2.02-3.46,3.37-3.97,5.39-.34,1.34-.01,2.94,.9,3.98,.52,.59,1.19,.95,1.93,.95,.89,0,1.68-.52,2.22-1.34,.28-.43,.5-.94,.62-1.51,.35,1.64,1.49,2.85,2.84,2.85,.74,0,1.41-.36,1.93-.95,.91-1.04,1.24-2.63,.9-3.98-.51-2.02-2.46-3.37-3.97-5.39Z" style="fill: #db0f1a;"/>
      </g>
    </g>
  </g>
</svg>