<?xml version="1.0" encoding="UTF-8"?>
<svg id="Playing_Cards" data-name="Playing Cards" xmlns="http://www.w3.org/2000/svg" viewBox="0 0 152.06 215.64">
  <g id="Cards">
    <g id="Diamonds">
      <g>
        <g>
          <g>
            <path d="M6.46,0H145.44c.47,0,.95,.06,1.41,.17l.11,.03c.98,.25,1.88,.74,2.61,1.44l.04,.04c.48,.46,.87,.99,1.17,1.59l.41,.83c.29,.58,.48,1.2,.56,1.84l.26,1.97c.03,.25,.05,.5,.05,.75V207.04c0,.26-.02,.52-.05,.78l-.25,1.86c-.08,.61-.26,1.2-.53,1.75l-.41,.85c-.32,.65-.75,1.23-1.28,1.72l-.05,.04c-.67,.62-1.48,1.07-2.36,1.32l-.2,.05c-.51,.14-1.04,.22-1.57,.22H6.55c-.53,0-1.06-.07-1.57-.22l-.14-.04c-.92-.26-1.76-.74-2.44-1.4h0c-.49-.48-.9-1.04-1.2-1.65l-.41-.84c-.29-.59-.47-1.23-.55-1.88l-.21-1.86c-.02-.22-.04-.44-.04-.65V8.59c0-.21,.01-.42,.03-.63l.21-1.97c.07-.68,.27-1.35,.58-1.96l.41-.82c.28-.56,.65-1.07,1.09-1.51h0C3.05,.97,3.98,.44,5,.19h.06C5.52,.06,5.99,0,6.46,0Z" style="fill: #fff; fill-rule: evenodd;"/>
            <g>
              <g>
                <path d="M14.59,51.4c.48,.7,.94,1.41,1.4,2.13,.22,.37,.45,.73,.67,1.1,.01-.02,.02-.03,.03-.05,.61-1.02,1.27-2,1.92-2.99,.48-.68,.96-1.35,1.46-2.01,.25-.35,.51-.69,.76-1.04,.47-.57,.94-1.14,1.42-1.7,.06-.07,.13-.15,.19-.22-.28-.33-.57-.65-.85-.97-.27-.31-.55-.63-.82-.94-.25-.33-.51-.65-.76-.97-.5-.66-.99-1.33-1.46-2.01-.6-.94-1.2-1.89-1.78-2.84-.04-.06-.07-.12-.1-.17-.17,.31-.34,.63-.52,.94-.43,.67-.87,1.34-1.31,2.01-.49,.66-.98,1.32-1.46,1.98-.27,.34-.55,.67-.82,1-.29,.33-.57,.67-.85,1-.29,.32-.59,.65-.88,.97,.03,.04,.06,.07,.09,.11,.49,.58,.98,1.17,1.46,1.75,.26,.32,.53,.65,.79,.97,.47,.65,.95,1.3,1.43,1.95Z" style="fill: #db0f1a;"/>
                <path d="M14.59,51.4c.48,.7,.94,1.41,1.4,2.13,.22,.37,.45,.73,.67,1.1,.01-.02,.02-.03,.03-.05,.61-1.02,1.27-2,1.92-2.99,.48-.68,.96-1.35,1.46-2.01,.25-.35,.51-.69,.76-1.04,.47-.57,.94-1.14,1.42-1.7,.06-.07,.13-.15,.19-.22-.28-.33-.57-.65-.85-.97-.27-.31-.55-.63-.82-.94-.25-.33-.51-.65-.76-.97-.5-.66-.99-1.33-1.46-2.01-.6-.94-1.2-1.89-1.78-2.84-.04-.06-.07-.12-.1-.17-.17,.31-.34,.63-.52,.94-.43,.67-.87,1.34-1.31,2.01-.49,.66-.98,1.32-1.46,1.98-.27,.34-.55,.67-.82,1-.29,.33-.57,.67-.85,1-.29,.32-.59,.65-.88,.97,.03,.04,.06,.07,.09,.11,.49,.58,.98,1.17,1.46,1.75,.26,.32,.53,.65,.79,.97,.47,.65,.95,1.3,1.43,1.95Z" style="fill: #db0f1a;"/>
                <path d="M14.59,51.4c.48,.7,.94,1.41,1.4,2.13,.22,.37,.45,.73,.67,1.1,.01-.02,.02-.03,.03-.05,.61-1.02,1.27-2,1.92-2.99,.48-.68,.96-1.35,1.46-2.01,.25-.35,.51-.69,.76-1.04,.47-.57,.94-1.14,1.42-1.7,.06-.07,.13-.15,.19-.22-.28-.33-.57-.65-.85-.97-.27-.31-.55-.63-.82-.94-.25-.33-.51-.65-.76-.97-.5-.66-.99-1.33-1.46-2.01-.6-.94-1.2-1.89-1.78-2.84-.04-.06-.07-.12-.1-.17-.17,.31-.34,.63-.52,.94-.43,.67-.87,1.34-1.31,2.01-.49,.66-.98,1.32-1.46,1.98-.27,.34-.55,.67-.82,1-.29,.33-.57,.67-.85,1-.29,.32-.59,.65-.88,.97,.03,.04,.06,.07,.09,.11,.49,.58,.98,1.17,1.46,1.75,.26,.32,.53,.65,.79,.97,.47,.65,.95,1.3,1.43,1.95Z" style="fill: #db0f1a;"/>
              </g>
              <g>
                <path d="M137.45,164.25c-.48-.7-.94-1.41-1.4-2.13-.22-.37-.45-.73-.67-1.1-.01,.02-.02,.04-.03,.05-.62,1.01-1.27,2-1.92,2.99-.48,.68-.96,1.35-1.46,2.01-.25,.35-.51,.69-.76,1.04-.46,.57-.94,1.14-1.42,1.7-.06,.07-.13,.15-.19,.22,.28,.33,.57,.65,.85,.97,.27,.31,.55,.63,.82,.94,.25,.33,.51,.65,.76,.97,.5,.66,.99,1.33,1.46,2.01,.6,.94,1.2,1.89,1.78,2.84,.04,.06,.07,.12,.11,.17,.17-.31,.34-.63,.52-.95,.43-.67,.87-1.34,1.31-2.01,.49-.66,.98-1.32,1.46-1.98,.27-.33,.55-.67,.82-1,.28-.34,.57-.67,.85-1.01,.29-.32,.59-.65,.88-.97-.03-.04-.06-.07-.09-.11-.49-.58-.98-1.17-1.46-1.75-.26-.32-.53-.65-.79-.97-.47-.66-.95-1.3-1.43-1.95Z" style="fill: #db0f1a;"/>
                <path d="M137.45,164.25c-.48-.7-.94-1.41-1.4-2.13-.22-.37-.45-.73-.67-1.1-.01,.02-.02,.04-.03,.05-.62,1.01-1.27,2-1.92,2.99-.48,.68-.96,1.35-1.46,2.01-.25,.35-.51,.69-.76,1.04-.46,.57-.94,1.14-1.42,1.7-.06,.07-.13,.15-.19,.22,.28,.33,.57,.65,.85,.97,.27,.31,.55,.63,.82,.94,.25,.33,.51,.65,.76,.97,.5,.66,.99,1.33,1.46,2.01,.6,.94,1.2,1.89,1.78,2.84,.04,.06,.07,.12,.11,.17,.17-.31,.34-.63,.52-.95,.43-.67,.87-1.34,1.31-2.01,.49-.66,.98-1.32,1.46-1.98,.27-.33,.55-.67,.82-1,.28-.34,.57-.67,.85-1.01,.29-.32,.59-.65,.88-.97-.03-.04-.06-.07-.09-.11-.49-.58-.98-1.17-1.46-1.75-.26-.32-.53-.65-.79-.97-.47-.66-.95-1.3-1.43-1.95Z" style="fill: #db0f1a;"/>
                <path d="M137.45,164.25c-.48-.7-.94-1.41-1.4-2.13-.22-.37-.45-.73-.67-1.1-.01,.02-.02,.04-.03,.05-.62,1.01-1.27,2-1.92,2.99-.48,.68-.96,1.35-1.46,2.01-.25,.35-.51,.69-.76,1.04-.46,.57-.94,1.14-1.42,1.7-.06,.07-.13,.15-.19,.22,.28,.33,.57,.65,.85,.97,.27,.31,.55,.63,.82,.94,.25,.33,.51,.65,.76,.97,.5,.66,.99,1.33,1.46,2.01,.6,.94,1.2,1.89,1.78,2.84,.04,.06,.07,.12,.11,.17,.17-.31,.34-.63,.52-.95,.43-.67,.87-1.34,1.31-2.01,.49-.66,.98-1.32,1.46-1.98,.27-.33,.55-.67,.82-1,.28-.34,.57-.67,.85-1.01,.29-.32,.59-.65,.88-.97-.03-.04-.06-.07-.09-.11-.49-.58-.98-1.17-1.46-1.75-.26-.32-.53-.65-.79-.97-.47-.66-.95-1.3-1.43-1.95Z" style="fill: #db0f1a;"/>
              </g>
            </g>
          </g>
          <path d="M23.15,9.12v.6c-1.42,.14-2.58,.42-3.48,.85-.9,.42-1.78,1.07-2.66,1.94-.88,.87-1.6,1.84-2.18,2.91-.58,1.07-1.06,2.34-1.44,3.81,1.55-1.06,3.1-1.6,4.66-1.6s2.79,.6,3.89,1.81c1.1,1.2,1.65,2.75,1.65,4.64s-.55,3.49-1.66,5c-1.33,1.83-3.1,2.74-5.29,2.74-1.5,0-2.76-.49-3.81-1.48-2.04-1.92-3.06-4.42-3.06-7.48,0-1.96,.39-3.82,1.18-5.58,.79-1.76,1.91-3.33,3.36-4.69,1.46-1.37,2.85-2.28,4.19-2.76,1.33-.47,2.57-.71,3.72-.71h.94Zm-10.03,11.29c-.19,1.45-.29,2.62-.29,3.52,0,1.03,.19,2.15,.57,3.36,.38,1.21,.95,2.17,1.7,2.88,.55,.51,1.21,.76,2,.76,.94,0,1.77-.44,2.51-1.32,.74-.88,1.1-2.14,1.1-3.77,0-1.84-.37-3.43-1.1-4.77-.73-1.34-1.77-2.02-3.11-2.02-.41,0-.85,.09-1.31,.26-.47,.17-1.16,.54-2.07,1.11Z" style="fill: #db0f1a;"/>
          <path d="M127.57,205.34v-.6c1.42-.14,2.58-.42,3.47-.85,.9-.42,1.79-1.07,2.66-1.94,.88-.87,1.6-1.84,2.18-2.91,.58-1.07,1.06-2.34,1.44-3.81-1.55,1.06-3.1,1.6-4.66,1.6s-2.79-.6-3.89-1.81c-1.1-1.21-1.64-2.75-1.64-4.64s.55-3.49,1.66-5c1.33-1.83,3.1-2.74,5.29-2.74,1.49,0,2.76,.5,3.81,1.48,2.04,1.92,3.06,4.42,3.06,7.48,0,1.96-.39,3.82-1.18,5.58-.78,1.76-1.91,3.33-3.36,4.69-1.46,1.37-2.85,2.28-4.18,2.76-1.33,.47-2.57,.71-3.73,.71h-.93Zm10.03-11.29c.19-1.45,.29-2.62,.29-3.52,0-1.03-.19-2.15-.57-3.36-.38-1.21-.95-2.17-1.7-2.88-.55-.5-1.21-.76-2-.76-.94,0-1.77,.44-2.51,1.32-.74,.88-1.1,2.14-1.1,3.77,0,1.84,.37,3.43,1.1,4.77,.73,1.34,1.77,2.02,3.11,2.02,.41,0,.85-.09,1.31-.26,.47-.17,1.16-.54,2.07-1.11Z" style="fill: #db0f1a;"/>
        </g>
        <g>
          <g>
            <g>
              <path d="M43.62,57.18c1.13,1.67,2.23,3.34,3.31,5.04,.53,.86,1.06,1.73,1.58,2.59,.02-.04,.05-.08,.07-.12,1.45-2.4,3.01-4.72,4.53-7.08,1.13-1.6,2.28-3.18,3.46-4.75,.6-.82,1.2-1.63,1.8-2.45,1.1-1.35,2.21-2.69,3.36-4.01,.15-.18,.31-.35,.46-.53-.67-.77-1.34-1.54-2.02-2.3-.65-.74-1.3-1.49-1.94-2.23-.6-.77-1.2-1.54-1.8-2.3-1.18-1.56-2.33-3.14-3.46-4.75-1.42-2.23-2.85-4.46-4.22-6.72-.08-.14-.16-.27-.25-.41-.41,.74-.82,1.49-1.22,2.23-1.02,1.6-2.05,3.18-3.1,4.75-1.16,1.55-2.32,3.11-3.46,4.68-.65,.79-1.29,1.58-1.94,2.38-.67,.79-1.34,1.58-2.02,2.38-.7,.77-1.39,1.54-2.09,2.3,.07,.08,.14,.17,.21,.25,1.16,1.38,2.31,2.76,3.46,4.14,.62,.77,1.25,1.54,1.87,2.3,1.11,1.55,2.24,3.08,3.38,4.61Z" style="fill: #db0f1a;"/>
              <path d="M43.62,57.18c1.13,1.67,2.23,3.34,3.31,5.04,.53,.86,1.06,1.73,1.58,2.59,.02-.04,.05-.08,.07-.12,1.45-2.4,3.01-4.72,4.53-7.08,1.13-1.6,2.28-3.18,3.46-4.75,.6-.82,1.2-1.63,1.8-2.45,1.1-1.35,2.21-2.69,3.36-4.01,.15-.18,.31-.35,.46-.53-.67-.77-1.34-1.54-2.02-2.3-.65-.74-1.3-1.49-1.94-2.23-.6-.77-1.2-1.54-1.8-2.3-1.18-1.56-2.33-3.14-3.46-4.75-1.42-2.23-2.85-4.46-4.22-6.72-.08-.14-.16-.27-.25-.41-.41,.74-.82,1.49-1.22,2.23-1.02,1.6-2.05,3.18-3.1,4.75-1.16,1.55-2.32,3.11-3.46,4.68-.65,.79-1.29,1.58-1.94,2.38-.67,.79-1.34,1.58-2.02,2.38-.7,.77-1.39,1.54-2.09,2.3,.07,.08,.14,.17,.21,.25,1.16,1.38,2.31,2.76,3.46,4.14,.62,.77,1.25,1.54,1.87,2.3,1.11,1.55,2.24,3.08,3.38,4.61Z" style="fill: #db0f1a;"/>
              <path d="M43.62,57.18c1.13,1.67,2.23,3.34,3.31,5.04,.53,.86,1.06,1.73,1.58,2.59,.02-.04,.05-.08,.07-.12,1.45-2.4,3.01-4.72,4.53-7.08,1.13-1.6,2.28-3.18,3.46-4.75,.6-.82,1.2-1.63,1.8-2.45,1.1-1.35,2.21-2.69,3.36-4.01,.15-.18,.31-.35,.46-.53-.67-.77-1.34-1.54-2.02-2.3-.65-.74-1.3-1.49-1.94-2.23-.6-.77-1.2-1.54-1.8-2.3-1.18-1.56-2.33-3.14-3.46-4.75-1.42-2.23-2.85-4.46-4.22-6.72-.08-.14-.16-.27-.25-.41-.41,.74-.82,1.49-1.22,2.23-1.02,1.6-2.05,3.18-3.1,4.75-1.16,1.55-2.32,3.11-3.46,4.68-.65,.79-1.29,1.58-1.94,2.38-.67,.79-1.34,1.58-2.02,2.38-.7,.77-1.39,1.54-2.09,2.3,.07,.08,.14,.17,.21,.25,1.16,1.38,2.31,2.76,3.46,4.14,.62,.77,1.25,1.54,1.87,2.3,1.11,1.55,2.24,3.08,3.38,4.61Z" style="fill: #db0f1a;"/>
            </g>
            <g>
              <path d="M43.62,180.85c1.13,1.67,2.23,3.34,3.31,5.04,.53,.86,1.06,1.73,1.58,2.59,.02-.04,.05-.08,.07-.12,1.45-2.4,3.01-4.72,4.53-7.08,1.13-1.6,2.28-3.18,3.46-4.75,.6-.82,1.2-1.63,1.8-2.45,1.1-1.35,2.21-2.69,3.36-4.01,.15-.17,.31-.35,.46-.53-.67-.77-1.34-1.54-2.02-2.3-.65-.74-1.3-1.49-1.94-2.23-.6-.77-1.2-1.54-1.8-2.3-1.18-1.56-2.33-3.14-3.46-4.75-1.42-2.23-2.85-4.46-4.22-6.72-.08-.14-.16-.27-.25-.41-.41,.74-.82,1.49-1.22,2.23-1.02,1.6-2.05,3.18-3.1,4.75-1.16,1.55-2.32,3.11-3.46,4.68-.65,.79-1.29,1.58-1.94,2.38-.67,.79-1.34,1.58-2.02,2.38-.7,.77-1.39,1.54-2.09,2.3,.07,.08,.14,.17,.21,.25,1.16,1.38,2.31,2.76,3.46,4.14,.62,.77,1.25,1.54,1.87,2.3,1.11,1.55,2.24,3.08,3.38,4.61Z" style="fill: #db0f1a;"/>
              <path d="M43.62,180.85c1.13,1.67,2.23,3.34,3.31,5.04,.53,.86,1.06,1.73,1.58,2.59,.02-.04,.05-.08,.07-.12,1.45-2.4,3.01-4.72,4.53-7.08,1.13-1.6,2.28-3.18,3.46-4.75,.6-.82,1.2-1.63,1.8-2.45,1.1-1.35,2.21-2.69,3.36-4.01,.15-.17,.31-.35,.46-.53-.67-.77-1.34-1.54-2.02-2.3-.65-.74-1.3-1.49-1.94-2.23-.6-.77-1.2-1.54-1.8-2.3-1.18-1.56-2.33-3.14-3.46-4.75-1.42-2.23-2.85-4.46-4.22-6.72-.08-.14-.16-.27-.25-.41-.41,.74-.82,1.49-1.22,2.23-1.02,1.6-2.05,3.18-3.1,4.75-1.16,1.55-2.32,3.11-3.46,4.68-.65,.79-1.29,1.58-1.94,2.38-.67,.79-1.34,1.58-2.02,2.38-.7,.77-1.39,1.54-2.09,2.3,.07,.08,.14,.17,.21,.25,1.16,1.38,2.31,2.76,3.46,4.14,.62,.77,1.25,1.54,1.87,2.3,1.11,1.55,2.24,3.08,3.38,4.61Z" style="fill: #db0f1a;"/>
              <path d="M43.62,180.85c1.13,1.67,2.23,3.34,3.31,5.04,.53,.86,1.06,1.73,1.58,2.59,.02-.04,.05-.08,.07-.12,1.45-2.4,3.01-4.72,4.53-7.08,1.13-1.6,2.28-3.18,3.46-4.75,.6-.82,1.2-1.63,1.8-2.45,1.1-1.35,2.21-2.69,3.36-4.01,.15-.17,.31-.35,.46-.53-.67-.77-1.34-1.54-2.02-2.3-.65-.74-1.3-1.49-1.94-2.23-.6-.77-1.2-1.54-1.8-2.3-1.18-1.56-2.33-3.14-3.46-4.75-1.42-2.23-2.85-4.46-4.22-6.72-.08-.14-.16-.27-.25-.41-.41,.74-.82,1.49-1.22,2.23-1.02,1.6-2.05,3.18-3.1,4.75-1.16,1.55-2.32,3.11-3.46,4.68-.65,.79-1.29,1.58-1.94,2.38-.67,.79-1.34,1.58-2.02,2.38-.7,.77-1.39,1.54-2.09,2.3,.07,.08,.14,.17,.21,.25,1.16,1.38,2.31,2.76,3.46,4.14,.62,.77,1.25,1.54,1.87,2.3,1.11,1.55,2.24,3.08,3.38,4.61Z" style="fill: #db0f1a;"/>
            </g>
          </g>
          <g>
            <g>
              <path d="M98.62,57.18c1.13,1.67,2.23,3.34,3.31,5.04,.53,.86,1.06,1.73,1.58,2.59,.02-.04,.05-.08,.08-.12,1.45-2.4,3.01-4.72,4.53-7.08,1.13-1.6,2.28-3.18,3.46-4.75,.6-.82,1.2-1.63,1.8-2.45,1.1-1.35,2.21-2.69,3.36-4.01,.15-.18,.3-.35,.46-.53-.67-.77-1.34-1.54-2.02-2.3-.65-.74-1.29-1.49-1.94-2.23-.6-.77-1.2-1.54-1.8-2.3-1.18-1.56-2.33-3.14-3.46-4.75-1.42-2.23-2.85-4.46-4.22-6.72-.08-.14-.16-.27-.25-.41-.41,.74-.82,1.49-1.22,2.23-1.02,1.6-2.05,3.18-3.1,4.75-1.16,1.55-2.32,3.11-3.46,4.68-.65,.79-1.3,1.58-1.94,2.38-.67,.79-1.34,1.58-2.02,2.38-.7,.77-1.39,1.54-2.09,2.3,.07,.08,.14,.17,.21,.25,1.16,1.38,2.31,2.76,3.46,4.14,.62,.77,1.25,1.54,1.87,2.3,1.11,1.55,2.24,3.08,3.38,4.61Z" style="fill: #db0f1a;"/>
              <path d="M98.62,57.18c1.13,1.67,2.23,3.34,3.31,5.04,.53,.86,1.06,1.73,1.58,2.59,.02-.04,.05-.08,.08-.12,1.45-2.4,3.01-4.72,4.53-7.08,1.13-1.6,2.28-3.18,3.46-4.75,.6-.82,1.2-1.63,1.8-2.45,1.1-1.35,2.21-2.69,3.36-4.01,.15-.18,.3-.35,.46-.53-.67-.77-1.34-1.54-2.02-2.3-.65-.74-1.29-1.49-1.94-2.23-.6-.77-1.2-1.54-1.8-2.3-1.18-1.56-2.33-3.14-3.46-4.75-1.42-2.23-2.85-4.46-4.22-6.72-.08-.14-.16-.27-.25-.41-.41,.74-.82,1.49-1.22,2.23-1.02,1.6-2.05,3.18-3.1,4.75-1.16,1.55-2.32,3.11-3.46,4.68-.65,.79-1.3,1.58-1.94,2.38-.67,.79-1.34,1.58-2.02,2.38-.7,.77-1.39,1.54-2.09,2.3,.07,.08,.14,.17,.21,.25,1.16,1.38,2.31,2.76,3.46,4.14,.62,.77,1.25,1.54,1.87,2.3,1.11,1.55,2.24,3.08,3.38,4.61Z" style="fill: #db0f1a;"/>
              <path d="M98.62,57.18c1.13,1.67,2.23,3.34,3.31,5.04,.53,.86,1.06,1.73,1.58,2.59,.02-.04,.05-.08,.08-.12,1.45-2.4,3.01-4.72,4.53-7.08,1.13-1.6,2.28-3.18,3.46-4.75,.6-.82,1.2-1.63,1.8-2.45,1.1-1.35,2.21-2.69,3.36-4.01,.15-.18,.3-.35,.46-.53-.67-.77-1.34-1.54-2.02-2.3-.65-.74-1.29-1.49-1.94-2.23-.6-.77-1.2-1.54-1.8-2.3-1.18-1.56-2.33-3.14-3.46-4.75-1.42-2.23-2.85-4.46-4.22-6.72-.08-.14-.16-.27-.25-.41-.41,.74-.82,1.49-1.22,2.23-1.02,1.6-2.05,3.18-3.1,4.75-1.16,1.55-2.32,3.11-3.46,4.68-.65,.79-1.3,1.58-1.94,2.38-.67,.79-1.34,1.58-2.02,2.38-.7,.77-1.39,1.54-2.09,2.3,.07,.08,.14,.17,.21,.25,1.16,1.38,2.31,2.76,3.46,4.14,.62,.77,1.25,1.54,1.87,2.3,1.11,1.55,2.24,3.08,3.38,4.61Z" style="fill: #db0f1a;"/>
            </g>
            <g>
              <path d="M98.62,180.85c1.13,1.67,2.23,3.34,3.31,5.04,.53,.86,1.06,1.73,1.58,2.59,.02-.04,.05-.08,.08-.12,1.45-2.4,3.01-4.72,4.53-7.08,1.13-1.6,2.28-3.18,3.46-4.75,.6-.82,1.2-1.63,1.8-2.45,1.1-1.35,2.21-2.69,3.36-4.01,.15-.17,.3-.35,.46-.53-.67-.77-1.34-1.54-2.02-2.3-.65-.74-1.29-1.49-1.94-2.23-.6-.77-1.2-1.54-1.8-2.3-1.18-1.56-2.33-3.14-3.46-4.75-1.42-2.23-2.85-4.46-4.22-6.72-.08-.14-.16-.27-.25-.41-.41,.74-.82,1.49-1.22,2.23-1.02,1.6-2.05,3.18-3.1,4.75-1.16,1.55-2.32,3.11-3.46,4.68-.65,.79-1.3,1.58-1.94,2.38-.67,.79-1.34,1.58-2.02,2.38-.7,.77-1.39,1.54-2.09,2.3,.07,.08,.14,.17,.21,.25,1.16,1.38,2.31,2.76,3.46,4.14,.62,.77,1.25,1.54,1.87,2.3,1.11,1.55,2.24,3.08,3.38,4.61Z" style="fill: #db0f1a;"/>
              <path d="M98.62,180.85c1.13,1.67,2.23,3.34,3.31,5.04,.53,.86,1.06,1.73,1.58,2.59,.02-.04,.05-.08,.08-.12,1.45-2.4,3.01-4.72,4.53-7.08,1.13-1.6,2.28-3.18,3.46-4.75,.6-.82,1.2-1.63,1.8-2.45,1.1-1.35,2.21-2.69,3.36-4.01,.15-.17,.3-.35,.46-.53-.67-.77-1.34-1.54-2.02-2.3-.65-.74-1.29-1.49-1.94-2.23-.6-.77-1.2-1.54-1.8-2.3-1.18-1.56-2.33-3.14-3.46-4.75-1.42-2.23-2.85-4.46-4.22-6.72-.08-.14-.16-.27-.25-.41-.41,.74-.82,1.49-1.22,2.23-1.02,1.6-2.05,3.18-3.1,4.75-1.16,1.55-2.32,3.11-3.46,4.68-.65,.79-1.3,1.58-1.94,2.38-.67,.79-1.34,1.58-2.02,2.38-.7,.77-1.39,1.54-2.09,2.3,.07,.08,.14,.17,.21,.25,1.16,1.38,2.31,2.76,3.46,4.14,.62,.77,1.25,1.54,1.87,2.3,1.11,1.55,2.24,3.08,3.38,4.61Z" style="fill: #db0f1a;"/>
              <path d="M98.62,180.85c1.13,1.67,2.23,3.34,3.31,5.04,.53,.86,1.06,1.73,1.58,2.59,.02-.04,.05-.08,.08-.12,1.45-2.4,3.01-4.72,4.53-7.08,1.13-1.6,2.28-3.18,3.46-4.75,.6-.82,1.2-1.63,1.8-2.45,1.1-1.35,2.21-2.69,3.36-4.01,.15-.17,.3-.35,.46-.53-.67-.77-1.34-1.54-2.02-2.3-.65-.74-1.29-1.49-1.94-2.23-.6-.77-1.2-1.54-1.8-2.3-1.18-1.56-2.33-3.14-3.46-4.75-1.42-2.23-2.85-4.46-4.22-6.72-.08-.14-.16-.27-.25-.41-.41,.74-.82,1.49-1.22,2.23-1.02,1.6-2.05,3.18-3.1,4.75-1.16,1.55-2.32,3.11-3.46,4.68-.65,.79-1.3,1.58-1.94,2.38-.67,.79-1.34,1.58-2.02,2.38-.7,.77-1.39,1.54-2.09,2.3,.07,.08,.14,.17,.21,.25,1.16,1.38,2.31,2.76,3.46,4.14,.62,.77,1.25,1.54,1.87,2.3,1.11,1.55,2.24,3.08,3.38,4.61Z" style="fill: #db0f1a;"/>
            </g>
            <g>
              <path d="M98.62,119.35c1.13,1.67,2.23,3.34,3.31,5.04,.53,.86,1.06,1.73,1.58,2.59,.02-.04,.05-.08,.08-.12,1.45-2.4,3.01-4.72,4.53-7.08,1.13-1.6,2.28-3.18,3.46-4.75,.6-.82,1.2-1.63,1.8-2.45,1.1-1.36,2.21-2.69,3.36-4.01,.15-.18,.3-.35,.46-.53-.67-.77-1.34-1.54-2.02-2.3-.65-.74-1.29-1.49-1.94-2.23-.6-.77-1.2-1.54-1.8-2.3-1.18-1.56-2.33-3.14-3.46-4.75-1.42-2.23-2.85-4.46-4.22-6.72-.08-.13-.16-.27-.25-.41-.41,.74-.82,1.49-1.22,2.23-1.02,1.6-2.05,3.18-3.1,4.75-1.16,1.55-2.32,3.11-3.46,4.68-.65,.79-1.3,1.58-1.94,2.37-.67,.79-1.34,1.58-2.02,2.38-.7,.77-1.39,1.54-2.09,2.3,.07,.09,.14,.17,.21,.25,1.16,1.38,2.31,2.76,3.46,4.14,.62,.77,1.25,1.54,1.87,2.3,1.11,1.55,2.24,3.08,3.38,4.61Z" style="fill: #db0f1a;"/>
              <path d="M98.62,119.35c1.13,1.67,2.23,3.34,3.31,5.04,.53,.86,1.06,1.73,1.58,2.59,.02-.04,.05-.08,.08-.12,1.45-2.4,3.01-4.72,4.53-7.08,1.13-1.6,2.28-3.18,3.46-4.75,.6-.82,1.2-1.63,1.8-2.45,1.1-1.36,2.21-2.69,3.36-4.01,.15-.18,.3-.35,.46-.53-.67-.77-1.34-1.54-2.02-2.3-.65-.74-1.29-1.49-1.94-2.23-.6-.77-1.2-1.54-1.8-2.3-1.18-1.56-2.33-3.14-3.46-4.75-1.42-2.23-2.85-4.46-4.22-6.72-.08-.13-.16-.27-.25-.41-.41,.74-.82,1.49-1.22,2.23-1.02,1.6-2.05,3.18-3.1,4.75-1.16,1.55-2.32,3.11-3.46,4.68-.65,.79-1.3,1.58-1.94,2.37-.67,.79-1.34,1.58-2.02,2.38-.7,.77-1.39,1.54-2.09,2.3,.07,.09,.14,.17,.21,.25,1.16,1.38,2.31,2.76,3.46,4.14,.62,.77,1.25,1.54,1.87,2.3,1.11,1.55,2.24,3.08,3.38,4.61Z" style="fill: #db0f1a;"/>
              <path d="M98.62,119.35c1.13,1.67,2.23,3.34,3.31,5.04,.53,.86,1.06,1.73,1.58,2.59,.02-.04,.05-.08,.08-.12,1.45-2.4,3.01-4.72,4.53-7.08,1.13-1.6,2.28-3.18,3.46-4.75,.6-.82,1.2-1.63,1.8-2.45,1.1-1.36,2.21-2.69,3.36-4.01,.15-.18,.3-.35,.46-.53-.67-.77-1.34-1.54-2.02-2.3-.65-.74-1.29-1.49-1.94-2.23-.6-.77-1.2-1.54-1.8-2.3-1.18-1.56-2.33-3.14-3.46-4.75-1.42-2.23-2.85-4.46-4.22-6.72-.08-.13-.16-.27-.25-.41-.41,.74-.82,1.49-1.22,2.23-1.02,1.6-2.05,3.18-3.1,4.75-1.16,1.55-2.32,3.11-3.46,4.68-.65,.79-1.3,1.58-1.94,2.37-.67,.79-1.34,1.58-2.02,2.38-.7,.77-1.39,1.54-2.09,2.3,.07,.09,.14,.17,.21,.25,1.16,1.38,2.31,2.76,3.46,4.14,.62,.77,1.25,1.54,1.87,2.3,1.11,1.55,2.24,3.08,3.38,4.61Z" style="fill: #db0f1a;"/>
            </g>
            <g>
              <path d="M42.62,119.35c1.13,1.67,2.23,3.34,3.31,5.04,.53,.86,1.06,1.73,1.58,2.59,.02-.04,.05-.08,.08-.12,1.45-2.4,3.01-4.72,4.53-7.08,1.13-1.6,2.28-3.18,3.46-4.75,.6-.82,1.2-1.63,1.8-2.45,1.1-1.36,2.21-2.69,3.36-4.01,.15-.18,.3-.35,.46-.53-.67-.77-1.34-1.54-2.02-2.3-.65-.74-1.29-1.49-1.94-2.23-.6-.77-1.2-1.54-1.8-2.3-1.18-1.56-2.33-3.14-3.46-4.75-1.42-2.23-2.85-4.46-4.22-6.72-.08-.13-.16-.27-.25-.41-.41,.74-.82,1.49-1.22,2.23-1.02,1.6-2.05,3.18-3.1,4.75-1.16,1.55-2.32,3.11-3.46,4.68-.65,.79-1.3,1.58-1.94,2.37-.67,.79-1.34,1.58-2.02,2.38-.7,.77-1.39,1.54-2.09,2.3,.07,.09,.14,.17,.21,.25,1.16,1.38,2.31,2.76,3.46,4.14,.62,.77,1.25,1.54,1.87,2.3,1.11,1.55,2.24,3.08,3.38,4.61Z" style="fill: #db0f1a;"/>
              <path d="M42.62,119.35c1.13,1.67,2.23,3.34,3.31,5.04,.53,.86,1.06,1.73,1.58,2.59,.02-.04,.05-.08,.08-.12,1.45-2.4,3.01-4.72,4.53-7.08,1.13-1.6,2.28-3.18,3.46-4.75,.6-.82,1.2-1.63,1.8-2.45,1.1-1.36,2.21-2.69,3.36-4.01,.15-.18,.3-.35,.46-.53-.67-.77-1.34-1.54-2.02-2.3-.65-.74-1.29-1.49-1.94-2.23-.6-.77-1.2-1.54-1.8-2.3-1.18-1.56-2.33-3.14-3.46-4.75-1.42-2.23-2.85-4.46-4.22-6.72-.08-.13-.16-.27-.25-.41-.41,.74-.82,1.49-1.22,2.23-1.02,1.6-2.05,3.18-3.1,4.75-1.16,1.55-2.32,3.11-3.46,4.68-.65,.79-1.3,1.58-1.94,2.37-.67,.79-1.34,1.58-2.02,2.38-.7,.77-1.39,1.54-2.09,2.3,.07,.09,.14,.17,.21,.25,1.16,1.38,2.31,2.76,3.46,4.14,.62,.77,1.25,1.54,1.87,2.3,1.11,1.55,2.24,3.08,3.38,4.61Z" style="fill: #db0f1a;"/>
              <path d="M42.62,119.35c1.13,1.67,2.23,3.34,3.31,5.04,.53,.86,1.06,1.73,1.58,2.59,.02-.04,.05-.08,.08-.12,1.45-2.4,3.01-4.72,4.53-7.08,1.13-1.6,2.28-3.18,3.46-4.75,.6-.82,1.2-1.63,1.8-2.45,1.1-1.36,2.21-2.69,3.36-4.01,.15-.18,.3-.35,.46-.53-.67-.77-1.34-1.54-2.02-2.3-.65-.74-1.29-1.49-1.94-2.23-.6-.77-1.2-1.54-1.8-2.3-1.18-1.56-2.33-3.14-3.46-4.75-1.42-2.23-2.85-4.46-4.22-6.72-.08-.13-.16-.27-.25-.41-.41,.74-.82,1.49-1.22,2.23-1.02,1.6-2.05,3.18-3.1,4.75-1.16,1.55-2.32,3.11-3.46,4.68-.65,.79-1.3,1.58-1.94,2.37-.67,.79-1.34,1.58-2.02,2.38-.7,.77-1.39,1.54-2.09,2.3,.07,.09,.14,.17,.21,.25,1.16,1.38,2.31,2.76,3.46,4.14,.62,.77,1.25,1.54,1.87,2.3,1.11,1.55,2.24,3.08,3.38,4.61Z" style="fill: #db0f1a;"/>
            </g>
          </g>
        </g>
        <g>
          <path d="M133.43,51.71c.48,.7,.94,1.41,1.4,2.13,.22,.37,.45,.73,.67,1.1,.01-.02,.02-.03,.03-.05,.61-1.02,1.27-2,1.92-2.99,.48-.68,.96-1.35,1.46-2.01,.25-.35,.51-.69,.76-1.04,.47-.57,.94-1.14,1.42-1.7,.06-.07,.13-.15,.19-.22-.28-.33-.57-.65-.85-.97-.27-.31-.55-.63-.82-.94-.25-.33-.51-.65-.76-.97-.5-.66-.99-1.33-1.46-2.01-.6-.94-1.2-1.89-1.78-2.84-.04-.06-.07-.12-.1-.17-.17,.31-.34,.63-.52,.94-.43,.67-.87,1.34-1.31,2.01-.49,.66-.98,1.32-1.46,1.98-.27,.34-.55,.67-.82,1-.29,.33-.57,.67-.85,1-.29,.32-.59,.65-.88,.97,.03,.04,.06,.07,.09,.11,.49,.58,.98,1.17,1.46,1.75,.26,.32,.53,.65,.79,.97,.47,.65,.95,1.3,1.43,1.95Z" style="fill: #db0f1a;"/>
          <path d="M133.43,51.71c.48,.7,.94,1.41,1.4,2.13,.22,.37,.45,.73,.67,1.1,.01-.02,.02-.03,.03-.05,.61-1.02,1.27-2,1.92-2.99,.48-.68,.96-1.35,1.46-2.01,.25-.35,.51-.69,.76-1.04,.47-.57,.94-1.14,1.42-1.7,.06-.07,.13-.15,.19-.22-.28-.33-.57-.65-.85-.97-.27-.31-.55-.63-.82-.94-.25-.33-.51-.65-.76-.97-.5-.66-.99-1.33-1.46-2.01-.6-.94-1.2-1.89-1.78-2.84-.04-.06-.07-.12-.1-.17-.17,.31-.34,.63-.52,.94-.43,.67-.87,1.34-1.31,2.01-.49,.66-.98,1.32-1.46,1.98-.27,.34-.55,.67-.82,1-.29,.33-.57,.67-.85,1-.29,.32-.59,.65-.88,.97,.03,.04,.06,.07,.09,.11,.49,.58,.98,1.17,1.46,1.75,.26,.32,.53,.65,.79,.97,.47,.65,.95,1.3,1.43,1.95Z" style="fill: #db0f1a;"/>
          <path d="M133.43,51.71c.48,.7,.94,1.41,1.4,2.13,.22,.37,.45,.73,.67,1.1,.01-.02,.02-.03,.03-.05,.61-1.02,1.27-2,1.92-2.99,.48-.68,.96-1.35,1.46-2.01,.25-.35,.51-.69,.76-1.04,.47-.57,.94-1.14,1.42-1.7,.06-.07,.13-.15,.19-.22-.28-.33-.57-.65-.85-.97-.27-.31-.55-.63-.82-.94-.25-.33-.51-.65-.76-.97-.5-.66-.99-1.33-1.46-2.01-.6-.94-1.2-1.89-1.78-2.84-.04-.06-.07-.12-.1-.17-.17,.31-.34,.63-.52,.94-.43,.67-.87,1.34-1.31,2.01-.49,.66-.98,1.32-1.46,1.98-.27,.34-.55,.67-.82,1-.29,.33-.57,.67-.85,1-.29,.32-.59,.65-.88,.97,.03,.04,.06,.07,.09,.11,.49,.58,.98,1.17,1.46,1.75,.26,.32,.53,.65,.79,.97,.47,.65,.95,1.3,1.43,1.95Z" style="fill: #db0f1a;"/>
        </g>
        <path d="M141.98,9.43v.6c-1.42,.14-2.58,.42-3.48,.85-.9,.42-1.78,1.07-2.66,1.94-.88,.87-1.6,1.84-2.18,2.91-.58,1.07-1.06,2.34-1.44,3.81,1.55-1.06,3.1-1.6,4.66-1.6s2.79,.6,3.89,1.81c1.1,1.2,1.65,2.75,1.65,4.64s-.55,3.49-1.66,5c-1.33,1.83-3.1,2.74-5.29,2.74-1.5,0-2.76-.49-3.81-1.48-2.04-1.92-3.06-4.42-3.06-7.48,0-1.96,.39-3.82,1.18-5.58,.79-1.76,1.91-3.33,3.36-4.69,1.46-1.37,2.85-2.28,4.19-2.76,1.33-.47,2.57-.71,3.72-.71h.94Zm-10.03,11.29c-.19,1.45-.29,2.62-.29,3.52,0,1.03,.19,2.15,.57,3.36,.38,1.21,.95,2.17,1.7,2.88,.55,.51,1.21,.76,2,.76,.94,0,1.77-.44,2.51-1.32,.74-.88,1.1-2.14,1.1-3.77,0-1.84-.37-3.43-1.1-4.77-.73-1.34-1.77-2.02-3.11-2.02-.41,0-.85,.09-1.31,.26-.47,.17-1.16,.54-2.07,1.11Z" style="fill: #db0f1a;"/>
        <g>
          <path d="M18.73,163.44c-.48-.7-.94-1.41-1.4-2.13-.22-.37-.45-.73-.67-1.1-.01,.02-.02,.04-.03,.05-.62,1.01-1.27,2-1.92,2.99-.48,.68-.96,1.35-1.46,2.01-.25,.35-.51,.69-.76,1.04-.46,.57-.94,1.14-1.42,1.7-.06,.07-.13,.15-.19,.22,.28,.33,.57,.65,.85,.97,.27,.31,.55,.63,.82,.94,.25,.33,.51,.65,.76,.97,.5,.66,.99,1.33,1.46,2.01,.6,.94,1.2,1.89,1.78,2.84,.04,.06,.07,.12,.11,.17,.17-.31,.34-.63,.52-.95,.43-.67,.87-1.34,1.31-2.01,.49-.66,.98-1.32,1.46-1.98,.27-.33,.55-.67,.82-1,.28-.34,.57-.67,.85-1.01,.29-.32,.59-.65,.88-.97-.03-.04-.06-.07-.09-.11-.49-.58-.98-1.17-1.46-1.75-.26-.32-.53-.65-.79-.97-.47-.66-.95-1.3-1.43-1.95Z" style="fill: #db0f1a;"/>
          <path d="M18.73,163.44c-.48-.7-.94-1.41-1.4-2.13-.22-.37-.45-.73-.67-1.1-.01,.02-.02,.04-.03,.05-.62,1.01-1.27,2-1.92,2.99-.48,.68-.96,1.35-1.46,2.01-.25,.35-.51,.69-.76,1.04-.46,.57-.94,1.14-1.42,1.7-.06,.07-.13,.15-.19,.22,.28,.33,.57,.65,.85,.97,.27,.31,.55,.63,.82,.94,.25,.33,.51,.65,.76,.97,.5,.66,.99,1.33,1.46,2.01,.6,.94,1.2,1.89,1.78,2.84,.04,.06,.07,.12,.11,.17,.17-.31,.34-.63,.52-.95,.43-.67,.87-1.34,1.31-2.01,.49-.66,.98-1.32,1.46-1.98,.27-.33,.55-.67,.82-1,.28-.34,.57-.67,.85-1.01,.29-.32,.59-.65,.88-.97-.03-.04-.06-.07-.09-.11-.49-.58-.98-1.17-1.46-1.75-.26-.32-.53-.65-.79-.97-.47-.66-.95-1.3-1.43-1.95Z" style="fill: #db0f1a;"/>
          <path d="M18.73,163.44c-.48-.7-.94-1.41-1.4-2.13-.22-.37-.45-.73-.67-1.1-.01,.02-.02,.04-.03,.05-.62,1.01-1.27,2-1.92,2.99-.48,.68-.96,1.35-1.46,2.01-.25,.35-.51,.69-.76,1.04-.46,.57-.94,1.14-1.42,1.7-.06,.07-.13,.15-.19,.22,.28,.33,.57,.65,.85,.97,.27,.31,.55,.63,.82,.94,.25,.33,.51,.65,.76,.97,.5,.66,.99,1.33,1.46,2.01,.6,.94,1.2,1.89,1.78,2.84,.04,.06,.07,.12,.11,.17,.17-.31,.34-.63,.52-.95,.43-.67,.87-1.34,1.31-2.01,.49-.66,.98-1.32,1.46-1.98,.27-.33,.55-.67,.82-1,.28-.34,.57-.67,.85-1.01,.29-.32,.59-.65,.88-.97-.03-.04-.06-.07-.09-.11-.49-.58-.98-1.17-1.46-1.75-.26-.32-.53-.65-.79-.97-.47-.66-.95-1.3-1.43-1.95Z" style="fill: #db0f1a;"/>
        </g>
        <path d="M8.85,204.54v-.6c1.42-.14,2.58-.42,3.47-.85,.9-.42,1.79-1.07,2.66-1.94,.88-.87,1.6-1.84,2.18-2.91,.58-1.07,1.06-2.34,1.44-3.81-1.55,1.06-3.1,1.6-4.66,1.6s-2.79-.6-3.89-1.81c-1.1-1.21-1.64-2.75-1.64-4.64s.55-3.49,1.66-5c1.33-1.83,3.1-2.74,5.29-2.74,1.49,0,2.76,.5,3.81,1.48,2.04,1.92,3.06,4.42,3.06,7.48,0,1.96-.39,3.82-1.18,5.58-.78,1.76-1.91,3.33-3.36,4.69-1.46,1.37-2.85,2.28-4.18,2.76-1.33,.47-2.57,.71-3.73,.71h-.93Zm10.03-11.29c.19-1.45,.29-2.62,.29-3.52,0-1.03-.19-2.15-.57-3.36-.38-1.21-.95-2.17-1.7-2.88-.55-.5-1.21-.76-2-.76-.94,0-1.77,.44-2.51,1.32-.74,.88-1.1,2.14-1.1,3.77,0,1.84,.37,3.43,1.1,4.77,.73,1.34,1.77,2.02,3.11,2.02,.41,0,.85-.09,1.31-.26,.47-.17,1.16-.54,2.07-1.11Z" style="fill: #db0f1a;"/>
      </g>
    </g>
  </g>
</svg>