<?xml version="1.0" encoding="UTF-8"?>
<svg id="Playing_Cards" data-name="Playing Cards" xmlns="http://www.w3.org/2000/svg" viewBox="0 0 152.06 215.64">
  <g id="Cards">
    <g id="Hearts">
      <g>
        <path d="M6.53,.02H145.5c.47,0,.95,.06,1.41,.17l.11,.03c.98,.25,1.88,.74,2.61,1.44l.04,.04c.48,.46,.87,.99,1.17,1.59l.41,.83c.29,.58,.48,1.2,.56,1.84l.26,1.97c.03,.25,.05,.5,.05,.75V207.06c0,.26-.02,.52-.05,.78l-.25,1.86c-.08,.61-.26,1.2-.53,1.75l-.41,.85c-.32,.65-.75,1.23-1.28,1.72l-.05,.04c-.67,.62-1.48,1.07-2.36,1.32l-.2,.05c-.51,.14-1.04,.22-1.57,.22H6.62c-.53,0-1.06-.07-1.57-.22l-.14-.04c-.92-.26-1.76-.74-2.44-1.4h0c-.49-.48-.9-1.04-1.2-1.65l-.41-.84c-.29-.59-.47-1.23-.55-1.88l-.21-1.86c-.02-.22-.04-.44-.04-.65V8.62c0-.21,.01-.42,.03-.63l.21-1.97c.07-.68,.27-1.35,.58-1.96l.41-.82c.28-.56,.65-1.07,1.09-1.51h0C3.12,.99,4.05,.47,5.07,.21h.06c.46-.13,.93-.19,1.4-.19Z" style="fill: #fff; fill-rule: evenodd;"/>
        <g>
          <path d="M23.88,9.73v.6c-1.42,.14-2.58,.42-3.48,.85-.9,.42-1.78,1.07-2.66,1.94-.88,.87-1.6,1.84-2.18,2.91-.58,1.07-1.06,2.34-1.44,3.81,1.55-1.06,3.1-1.6,4.66-1.6s2.79,.6,3.89,1.81c1.1,1.2,1.65,2.75,1.65,4.64s-.55,3.49-1.66,5c-1.33,1.83-3.1,2.74-5.29,2.74-1.5,0-2.76-.49-3.81-1.48-2.04-1.92-3.06-4.42-3.06-7.48,0-1.96,.39-3.82,1.18-5.58,.79-1.76,1.91-3.33,3.36-4.69,1.46-1.37,2.85-2.28,4.19-2.76,1.33-.47,2.57-.71,3.72-.71h.94Zm-10.03,11.29c-.19,1.45-.29,2.62-.29,3.52,0,1.03,.19,2.15,.57,3.36,.38,1.21,.95,2.17,1.7,2.88,.55,.51,1.21,.76,2,.76,.94,0,1.77-.44,2.51-1.32,.74-.88,1.1-2.14,1.1-3.77,0-1.84-.37-3.43-1.1-4.77-.73-1.34-1.77-2.02-3.11-2.02-.41,0-.85,.09-1.31,.26-.47,.17-1.16,.54-2.07,1.11Z" style="fill: #db0f1a;"/>
          <path d="M128.3,205.96v-.6c1.42-.14,2.58-.42,3.47-.85,.9-.42,1.79-1.07,2.66-1.94,.88-.87,1.6-1.84,2.18-2.91,.58-1.07,1.06-2.34,1.44-3.81-1.55,1.06-3.1,1.6-4.66,1.6s-2.79-.6-3.89-1.81c-1.1-1.21-1.64-2.75-1.64-4.64s.55-3.49,1.66-5c1.33-1.83,3.1-2.74,5.29-2.74,1.49,0,2.76,.49,3.81,1.48,2.04,1.92,3.06,4.42,3.06,7.48,0,1.96-.39,3.82-1.18,5.58-.78,1.76-1.91,3.33-3.36,4.69-1.46,1.37-2.85,2.28-4.18,2.76-1.33,.47-2.57,.71-3.73,.71h-.93Zm10.03-11.29c.19-1.45,.29-2.62,.29-3.52,0-1.03-.19-2.15-.57-3.36-.38-1.21-.95-2.17-1.7-2.88-.55-.5-1.21-.76-2-.76-.94,0-1.77,.44-2.51,1.32-.74,.88-1.1,2.14-1.1,3.77,0,1.84,.37,3.43,1.1,4.77,.73,1.34,1.77,2.02,3.11,2.02,.41,0,.85-.09,1.31-.26,.47-.17,1.16-.54,2.07-1.11Z" style="fill: #db0f1a;"/>
        </g>
        <g>
          <path d="M14.86,48.28c.5,.67,.95,1.41,1.28,2.28,.08,.22,.16,.44,.23,.67,.06,.19,.1,.28,.14,.28,.01,0,.03,0,.04-.03,.01,.02,.02,.03,.04,.03,.13,0,.25-.62,.29-.73,.32-.91,.8-1.74,1.37-2.5,1.51-2.02,3.46-3.37,3.97-5.39,.34-1.34,.01-2.94-.9-3.98-.52-.59-1.19-.95-1.93-.95-.89,0-1.68,.52-2.22,1.34-.28,.43-.5,.94-.62,1.51-.35-1.64-1.49-2.85-2.84-2.85-.74,0-1.41,.36-1.93,.95-.91,1.04-1.24,2.63-.9,3.98,.51,2.01,2.46,3.37,3.97,5.39Z" style="fill: #db0f1a;"/>
          <path d="M137.32,167.41c-.5-.67-.95-1.41-1.28-2.28-.08-.22-.16-.44-.23-.67-.06-.19-.1-.28-.15-.28-.01,0-.03,0-.04,.03-.01-.02-.02-.03-.04-.03-.13,0-.25,.62-.29,.73-.32,.91-.8,1.74-1.37,2.5-1.51,2.02-3.46,3.37-3.97,5.39-.34,1.34-.01,2.94,.9,3.98,.52,.59,1.19,.95,1.93,.95,.89,0,1.68-.52,2.22-1.34,.28-.43,.5-.94,.62-1.51,.35,1.64,1.49,2.85,2.84,2.85,.74,0,1.41-.36,1.93-.95,.91-1.04,1.24-2.63,.9-3.98-.51-2.02-2.46-3.37-3.97-5.39Z" style="fill: #db0f1a;"/>
        </g>
        <g>
          <path d="M99.14,55.99c1.3,1.74,2.47,3.67,3.33,5.92,.22,.56,.42,1.14,.59,1.75,.14,.5,.27,.73,.38,.74,.03,0,.07-.02,.1-.07,.03,.05,.06,.07,.1,.07,.34-.02,.65-1.61,.75-1.9,.84-2.35,2.07-4.52,3.54-6.5,3.91-5.25,8.99-8.75,10.31-13.98,.88-3.48,.03-7.63-2.33-10.32-1.34-1.53-3.09-2.45-5-2.45-2.31,0-4.37,1.35-5.77,3.48-.73,1.12-1.29,2.45-1.6,3.91-.9-4.26-3.86-7.39-7.37-7.39-1.91,0-3.66,.93-5,2.45-2.36,2.69-3.22,6.84-2.33,10.32,1.32,5.23,6.4,8.74,10.31,13.98Z" style="fill: #db0f1a;"/>
          <path d="M99.14,117.09c1.3,1.74,2.47,3.67,3.33,5.92,.22,.56,.42,1.14,.59,1.75,.14,.5,.27,.73,.38,.74,.03,0,.07-.02,.1-.07,.03,.05,.06,.07,.1,.07,.34-.02,.65-1.61,.75-1.9,.84-2.35,2.07-4.52,3.54-6.5,3.91-5.25,8.99-8.75,10.31-13.98,.88-3.48,.03-7.63-2.33-10.32-1.34-1.53-3.09-2.45-5-2.45-2.31,0-4.37,1.35-5.77,3.48-.73,1.12-1.29,2.45-1.6,3.91-.9-4.26-3.86-7.39-7.37-7.39-1.91,0-3.66,.93-5,2.45-2.36,2.69-3.22,6.84-2.33,10.32,1.32,5.23,6.4,8.74,10.31,13.98Z" style="fill: #db0f1a;"/>
          <path d="M44.24,117.09c1.3,1.74,2.47,3.67,3.33,5.92,.22,.56,.42,1.14,.59,1.75,.14,.5,.27,.73,.38,.74,.03,0,.07-.02,.1-.07,.03,.05,.06,.07,.1,.07,.34-.02,.65-1.61,.75-1.9,.84-2.35,2.07-4.52,3.54-6.5,3.91-5.25,8.99-8.75,10.31-13.98,.88-3.48,.03-7.63-2.33-10.32-1.34-1.53-3.09-2.45-5-2.45-2.31,0-4.37,1.35-5.77,3.48-.73,1.12-1.29,2.45-1.6,3.91-.9-4.26-3.86-7.39-7.37-7.39-1.91,0-3.66,.93-5,2.45-2.36,2.69-3.22,6.84-2.33,10.32,1.32,5.23,6.4,8.74,10.31,13.98Z" style="fill: #db0f1a;"/>
          <path d="M99.14,178.06c1.3,1.74,2.47,3.67,3.33,5.92,.22,.56,.42,1.14,.59,1.75,.14,.5,.27,.73,.38,.74,.03,0,.07-.02,.1-.07,.03,.05,.06,.07,.1,.07,.34-.02,.65-1.61,.75-1.9,.84-2.35,2.07-4.51,3.54-6.5,3.91-5.25,8.99-8.75,10.31-13.98,.88-3.48,.03-7.63-2.33-10.32-1.34-1.53-3.09-2.46-5-2.46-2.31,0-4.37,1.35-5.77,3.48-.73,1.12-1.29,2.45-1.6,3.91-.9-4.26-3.86-7.39-7.37-7.39-1.91,0-3.66,.93-5,2.46-2.36,2.69-3.22,6.84-2.33,10.32,1.32,5.23,6.4,8.73,10.31,13.98Z" style="fill: #db0f1a;"/>
          <g>
            <path d="M44.24,55.99c1.3,1.74,2.47,3.67,3.33,5.92,.22,.56,.42,1.14,.59,1.75,.14,.5,.27,.73,.38,.74,.03,0,.07-.02,.1-.07,.03,.05,.06,.07,.1,.07,.34-.02,.65-1.61,.75-1.9,.84-2.35,2.07-4.52,3.54-6.5,3.91-5.25,8.99-8.75,10.31-13.98,.88-3.48,.03-7.63-2.33-10.32-1.34-1.53-3.09-2.45-5-2.45-2.31,0-4.37,1.35-5.77,3.48-.73,1.12-1.29,2.45-1.6,3.91-.9-4.26-3.86-7.39-7.37-7.39-1.91,0-3.66,.93-5,2.45-2.36,2.69-3.22,6.84-2.33,10.32,1.32,5.23,6.4,8.74,10.31,13.98Z" style="fill: #db0f1a;"/>
            <path d="M44.24,178.06c1.3,1.74,2.47,3.67,3.33,5.92,.22,.56,.42,1.14,.59,1.75,.14,.5,.27,.73,.38,.74,.03,0,.07-.02,.1-.07,.03,.05,.06,.07,.1,.07,.34-.02,.65-1.61,.75-1.9,.84-2.35,2.07-4.51,3.54-6.5,3.91-5.25,8.99-8.75,10.31-13.98,.88-3.48,.03-7.63-2.33-10.32-1.34-1.53-3.09-2.46-5-2.46-2.31,0-4.37,1.35-5.77,3.48-.73,1.12-1.29,2.45-1.6,3.91-.9-4.26-3.86-7.39-7.37-7.39-1.91,0-3.66,.93-5,2.46-2.36,2.69-3.22,6.84-2.33,10.32,1.32,5.23,6.4,8.73,10.31,13.98Z" style="fill: #db0f1a;"/>
          </g>
        </g>
        <path d="M142.72,10.04v.6c-1.42,.14-2.58,.42-3.48,.85-.9,.42-1.78,1.07-2.66,1.94-.88,.87-1.6,1.84-2.18,2.91-.58,1.07-1.06,2.34-1.44,3.81,1.55-1.06,3.1-1.6,4.66-1.6s2.79,.6,3.89,1.81c1.1,1.2,1.65,2.75,1.65,4.64s-.55,3.49-1.66,5c-1.33,1.83-3.1,2.74-5.29,2.74-1.5,0-2.76-.49-3.81-1.48-2.04-1.92-3.06-4.42-3.06-7.48,0-1.96,.39-3.82,1.18-5.58,.79-1.76,1.91-3.33,3.36-4.69,1.46-1.37,2.85-2.28,4.19-2.76,1.33-.47,2.57-.71,3.72-.71h.94Zm-10.03,11.29c-.19,1.45-.29,2.62-.29,3.52,0,1.03,.19,2.15,.57,3.36,.38,1.21,.95,2.17,1.7,2.88,.55,.51,1.21,.76,2,.76,.94,0,1.77-.44,2.51-1.32,.74-.88,1.1-2.14,1.1-3.77,0-1.84-.37-3.43-1.1-4.77-.73-1.34-1.77-2.02-3.11-2.02-.41,0-.85,.09-1.31,.26-.47,.17-1.16,.54-2.07,1.11Z" style="fill: #db0f1a;"/>
        <path d="M133.7,48.59c.5,.67,.95,1.41,1.28,2.28,.08,.22,.16,.44,.23,.67,.06,.19,.1,.28,.14,.28,.01,0,.03,0,.04-.03,.01,.02,.02,.03,.04,.03,.13,0,.25-.62,.29-.73,.32-.91,.8-1.74,1.37-2.5,1.51-2.02,3.46-3.37,3.97-5.39,.34-1.34,.01-2.94-.9-3.98-.52-.59-1.19-.95-1.93-.95-.89,0-1.68,.52-2.22,1.34-.28,.43-.5,.94-.62,1.51-.35-1.64-1.49-2.85-2.84-2.85-.74,0-1.41,.36-1.93,.95-.91,1.04-1.24,2.63-.9,3.98,.51,2.01,2.46,3.37,3.97,5.39Z" style="fill: #db0f1a;"/>
        <path d="M9.58,205.15v-.6c1.42-.14,2.58-.42,3.47-.85,.9-.42,1.79-1.07,2.66-1.94,.88-.87,1.6-1.84,2.18-2.91,.58-1.07,1.06-2.34,1.44-3.81-1.55,1.06-3.1,1.6-4.66,1.6s-2.79-.6-3.89-1.81c-1.1-1.21-1.64-2.75-1.64-4.64s.55-3.49,1.66-5c1.33-1.83,3.1-2.74,5.29-2.74,1.49,0,2.76,.49,3.81,1.48,2.04,1.92,3.06,4.42,3.06,7.48,0,1.96-.39,3.82-1.18,5.58-.78,1.76-1.91,3.33-3.36,4.69-1.46,1.37-2.85,2.28-4.18,2.76-1.33,.47-2.57,.71-3.73,.71h-.93Zm10.03-11.29c.19-1.45,.29-2.62,.29-3.52,0-1.03-.19-2.15-.57-3.36-.38-1.21-.95-2.17-1.7-2.88-.55-.5-1.21-.76-2-.76-.94,0-1.77,.44-2.51,1.32-.74,.88-1.1,2.14-1.1,3.77,0,1.84,.37,3.43,1.1,4.77,.73,1.34,1.77,2.02,3.11,2.02,.41,0,.85-.09,1.31-.26,.47-.17,1.16-.54,2.07-1.11Z" style="fill: #db0f1a;"/>
        <path d="M18.6,166.61c-.5-.67-.95-1.41-1.28-2.28-.08-.22-.16-.44-.23-.67-.06-.19-.1-.28-.15-.28-.01,0-.03,0-.04,.03-.01-.02-.02-.03-.04-.03-.13,0-.25,.62-.29,.73-.32,.91-.8,1.74-1.37,2.5-1.51,2.02-3.46,3.37-3.97,5.39-.34,1.34-.01,2.94,.9,3.98,.52,.59,1.19,.95,1.93,.95,.89,0,1.68-.52,2.22-1.34,.28-.43,.5-.94,.62-1.51,.35,1.64,1.49,2.85,2.84,2.85,.74,0,1.41-.36,1.93-.95,.91-1.04,1.24-2.63,.9-3.98-.51-2.02-2.46-3.37-3.97-5.39Z" style="fill: #db0f1a;"/>
      </g>
    </g>
  </g>
</svg>