<?xml version="1.0" encoding="UTF-8"?>
<svg id="Playing_Cards" data-name="Playing Cards" xmlns="http://www.w3.org/2000/svg" viewBox="0 0 152.06 215.64">
  <g id="Cards">
    <g id="Diamonds">
      <g>
        <g>
          <g>
            <path d="M6.46,0H145.43c.47,0,.95,.06,1.41,.17l.11,.03c.98,.25,1.88,.74,2.61,1.45l.04,.04c.48,.46,.87,1,1.17,1.59l.41,.82c.29,.58,.48,1.2,.56,1.84l.26,1.97c.03,.25,.05,.5,.05,.75V207.04c0,.26-.02,.52-.05,.78l-.25,1.86c-.08,.61-.26,1.2-.53,1.75l-.41,.85c-.32,.65-.75,1.24-1.28,1.73l-.05,.04c-.67,.62-1.48,1.07-2.36,1.32l-.19,.05c-.51,.14-1.04,.22-1.57,.22H6.54c-.53,0-1.06-.07-1.57-.22l-.14-.04c-.92-.26-1.76-.74-2.44-1.4h0c-.49-.48-.9-1.04-1.2-1.65l-.41-.84c-.29-.59-.47-1.23-.55-1.88l-.21-1.85c-.02-.22-.04-.44-.04-.66V8.6c0-.21,.01-.42,.03-.63l.21-1.97c.07-.68,.27-1.35,.58-1.97l.41-.82c.28-.56,.65-1.07,1.09-1.51h0C3.05,.97,3.98,.44,5,.19h.05C5.51,.06,5.98,0,6.46,0Z" style="fill: #fff; fill-rule: evenodd;"/>
            <g>
              <g>
                <path d="M14.59,51.4c.48,.7,.94,1.41,1.4,2.13,.22,.37,.45,.73,.67,1.1,.01-.02,.02-.03,.03-.05,.62-1.02,1.27-2,1.92-2.99,.48-.68,.96-1.35,1.46-2.01,.25-.35,.51-.69,.76-1.04,.46-.57,.94-1.14,1.42-1.7,.06-.07,.13-.15,.19-.22-.28-.33-.57-.65-.85-.97-.27-.31-.55-.63-.82-.94-.25-.33-.51-.65-.76-.97-.5-.66-.99-1.33-1.46-2.01-.6-.94-1.2-1.89-1.78-2.84-.04-.06-.07-.12-.11-.17-.17,.31-.34,.63-.52,.94-.43,.67-.87,1.34-1.31,2.01-.49,.66-.98,1.32-1.46,1.98-.27,.34-.55,.67-.82,1-.28,.33-.57,.67-.85,1-.29,.32-.59,.65-.88,.97,.03,.04,.06,.07,.09,.11,.49,.58,.98,1.17,1.46,1.75,.26,.32,.53,.65,.79,.97,.47,.65,.95,1.3,1.43,1.95Z" style="fill: #db0f1a;"/>
                <path d="M14.59,51.4c.48,.7,.94,1.41,1.4,2.13,.22,.37,.45,.73,.67,1.1,.01-.02,.02-.03,.03-.05,.62-1.02,1.27-2,1.92-2.99,.48-.68,.96-1.35,1.46-2.01,.25-.35,.51-.69,.76-1.04,.46-.57,.94-1.14,1.42-1.7,.06-.07,.13-.15,.19-.22-.28-.33-.57-.65-.85-.97-.27-.31-.55-.63-.82-.94-.25-.33-.51-.65-.76-.97-.5-.66-.99-1.33-1.46-2.01-.6-.94-1.2-1.89-1.78-2.84-.04-.06-.07-.12-.11-.17-.17,.31-.34,.63-.52,.94-.43,.67-.87,1.34-1.31,2.01-.49,.66-.98,1.32-1.46,1.98-.27,.34-.55,.67-.82,1-.28,.33-.57,.67-.85,1-.29,.32-.59,.65-.88,.97,.03,.04,.06,.07,.09,.11,.49,.58,.98,1.17,1.46,1.75,.26,.32,.53,.65,.79,.97,.47,.65,.95,1.3,1.43,1.95Z" style="fill: #db0f1a;"/>
                <path d="M14.59,51.4c.48,.7,.94,1.41,1.4,2.13,.22,.37,.45,.73,.67,1.1,.01-.02,.02-.03,.03-.05,.62-1.02,1.27-2,1.92-2.99,.48-.68,.96-1.35,1.46-2.01,.25-.35,.51-.69,.76-1.04,.46-.57,.94-1.14,1.42-1.7,.06-.07,.13-.15,.19-.22-.28-.33-.57-.65-.85-.97-.27-.31-.55-.63-.82-.94-.25-.33-.51-.65-.76-.97-.5-.66-.99-1.33-1.46-2.01-.6-.94-1.2-1.89-1.78-2.84-.04-.06-.07-.12-.11-.17-.17,.31-.34,.63-.52,.94-.43,.67-.87,1.34-1.31,2.01-.49,.66-.98,1.32-1.46,1.98-.27,.34-.55,.67-.82,1-.28,.33-.57,.67-.85,1-.29,.32-.59,.65-.88,.97,.03,.04,.06,.07,.09,.11,.49,.58,.98,1.17,1.46,1.75,.26,.32,.53,.65,.79,.97,.47,.65,.95,1.3,1.43,1.95Z" style="fill: #db0f1a;"/>
              </g>
              <g>
                <path d="M137.44,164.25c-.48-.7-.94-1.41-1.4-2.13-.22-.37-.45-.73-.67-1.1,0,.02-.02,.04-.03,.05-.61,1.01-1.27,2-1.92,2.99-.48,.68-.96,1.35-1.46,2.01-.25,.35-.51,.69-.76,1.04-.46,.57-.93,1.14-1.42,1.7-.07,.07-.13,.15-.19,.22,.28,.33,.57,.65,.85,.97,.27,.31,.55,.63,.82,.94,.25,.33,.51,.65,.76,.97,.5,.66,.99,1.33,1.46,2.01,.6,.94,1.2,1.89,1.78,2.84,.04,.06,.07,.12,.1,.17,.17-.31,.35-.63,.52-.95,.43-.67,.87-1.34,1.31-2.01,.49-.66,.98-1.32,1.46-1.98,.27-.33,.55-.67,.82-1,.28-.34,.57-.67,.85-1.01,.3-.32,.59-.65,.88-.97-.03-.04-.06-.07-.09-.11-.49-.58-.98-1.17-1.46-1.75-.26-.32-.53-.65-.79-.97-.47-.66-.95-1.3-1.43-1.95Z" style="fill: #db0f1a;"/>
                <path d="M137.44,164.25c-.48-.7-.94-1.41-1.4-2.13-.22-.37-.45-.73-.67-1.1,0,.02-.02,.04-.03,.05-.61,1.01-1.27,2-1.92,2.99-.48,.68-.96,1.35-1.46,2.01-.25,.35-.51,.69-.76,1.04-.46,.57-.93,1.14-1.42,1.7-.07,.07-.13,.15-.19,.22,.28,.33,.57,.65,.85,.97,.27,.31,.55,.63,.82,.94,.25,.33,.51,.65,.76,.97,.5,.66,.99,1.33,1.46,2.01,.6,.94,1.2,1.89,1.78,2.84,.04,.06,.07,.12,.1,.17,.17-.31,.35-.63,.52-.95,.43-.67,.87-1.34,1.31-2.01,.49-.66,.98-1.32,1.46-1.98,.27-.33,.55-.67,.82-1,.28-.34,.57-.67,.85-1.01,.3-.32,.59-.65,.88-.97-.03-.04-.06-.07-.09-.11-.49-.58-.98-1.17-1.46-1.75-.26-.32-.53-.65-.79-.97-.47-.66-.95-1.3-1.43-1.95Z" style="fill: #db0f1a;"/>
                <path d="M137.44,164.25c-.48-.7-.94-1.41-1.4-2.13-.22-.37-.45-.73-.67-1.1,0,.02-.02,.04-.03,.05-.61,1.01-1.27,2-1.92,2.99-.48,.68-.96,1.35-1.46,2.01-.25,.35-.51,.69-.76,1.04-.46,.57-.93,1.14-1.42,1.7-.07,.07-.13,.15-.19,.22,.28,.33,.57,.65,.85,.97,.27,.31,.55,.63,.82,.94,.25,.33,.51,.65,.76,.97,.5,.66,.99,1.33,1.46,2.01,.6,.94,1.2,1.89,1.78,2.84,.04,.06,.07,.12,.1,.17,.17-.31,.35-.63,.52-.95,.43-.67,.87-1.34,1.31-2.01,.49-.66,.98-1.32,1.46-1.98,.27-.33,.55-.67,.82-1,.28-.34,.57-.67,.85-1.01,.3-.32,.59-.65,.88-.97-.03-.04-.06-.07-.09-.11-.49-.58-.98-1.17-1.46-1.75-.26-.32-.53-.65-.79-.97-.47-.66-.95-1.3-1.43-1.95Z" style="fill: #db0f1a;"/>
              </g>
            </g>
          </g>
          <path d="M14.67,20.43c-1.73-1.42-2.85-2.56-3.35-3.42-.5-.86-.75-1.75-.75-2.68,0-1.42,.55-2.64,1.64-3.67,1.1-1.03,2.55-1.54,4.37-1.54s3.18,.48,4.26,1.43c1.08,.96,1.61,2.05,1.61,3.27,0,.82-.29,1.65-.87,2.5-.58,.85-1.79,1.85-3.63,3,1.89,1.46,3.14,2.61,3.76,3.45,.82,1.1,1.23,2.25,1.23,3.47,0,1.54-.59,2.85-1.76,3.94-1.17,1.09-2.71,1.64-4.61,1.64-2.08,0-3.69-.65-4.85-1.95-.92-1.04-1.39-2.18-1.39-3.42,0-.97,.33-1.93,.98-2.88,.65-.95,1.77-2,3.36-3.15Zm.76,.61c-.89,.75-1.55,1.57-1.98,2.46-.43,.89-.64,1.85-.64,2.88,0,1.39,.38,2.5,1.14,3.33s1.72,1.25,2.89,1.25,2.09-.33,2.79-.98c.7-.66,1.05-1.45,1.05-2.39,0-.77-.2-1.47-.61-2.08-.76-1.14-2.31-2.63-4.63-4.47Zm1.77-2.34c1.29-1.16,2.11-2.08,2.45-2.75,.34-.67,.52-1.43,.52-2.28,0-1.13-.32-2.01-.95-2.65-.63-.64-1.5-.96-2.6-.96s-1.99,.32-2.68,.95c-.69,.63-1.03,1.38-1.03,2.22,0,.56,.14,1.12,.43,1.68,.29,.56,.69,1.09,1.22,1.6l2.64,2.19Z" style="fill: #db0f1a;"/>
          <path d="M136.02,194.04c1.73,1.42,2.85,2.56,3.35,3.42,.5,.86,.75,1.75,.75,2.68,0,1.42-.55,2.64-1.64,3.67-1.1,1.03-2.55,1.54-4.37,1.54s-3.18-.48-4.26-1.44c-1.08-.96-1.61-2.05-1.61-3.27,0-.82,.29-1.65,.87-2.5,.58-.85,1.79-1.85,3.63-3-1.89-1.46-3.14-2.61-3.76-3.45-.82-1.1-1.23-2.25-1.23-3.47,0-1.54,.59-2.85,1.76-3.94,1.17-1.09,2.71-1.64,4.61-1.64,2.07,0,3.69,.65,4.85,1.95,.92,1.04,1.39,2.18,1.39,3.42,0,.97-.33,1.93-.98,2.88s-1.77,2-3.36,3.15Zm-.76-.61c.89-.75,1.55-1.57,1.98-2.46,.43-.89,.65-1.85,.65-2.88,0-1.39-.38-2.5-1.14-3.33-.76-.83-1.72-1.25-2.89-1.25s-2.09,.33-2.79,.98c-.7,.66-1.05,1.45-1.05,2.39,0,.77,.2,1.47,.61,2.08,.76,1.14,2.31,2.63,4.63,4.47Zm-1.77,2.34c-1.29,1.16-2.11,2.08-2.45,2.75-.34,.67-.52,1.43-.52,2.28,0,1.13,.32,2.01,.95,2.65,.63,.64,1.5,.96,2.6,.96s1.99-.32,2.68-.95c.69-.63,1.03-1.38,1.03-2.23,0-.56-.14-1.12-.43-1.68-.28-.56-.69-1.09-1.22-1.6l-2.64-2.19Z" style="fill: #db0f1a;"/>
        </g>
        <g>
          <g>
            <g>
              <path d="M47.2,57.59c1.13,1.67,2.23,3.34,3.31,5.04,.53,.86,1.06,1.73,1.59,2.59,.02-.04,.05-.08,.08-.12,1.45-2.4,3.01-4.72,4.53-7.08,1.13-1.6,2.28-3.18,3.46-4.75,.6-.82,1.2-1.63,1.8-2.45,1.1-1.35,2.21-2.69,3.36-4.01,.15-.18,.3-.35,.46-.53-.67-.77-1.34-1.54-2.02-2.3-.65-.74-1.29-1.49-1.94-2.23-.6-.77-1.2-1.54-1.8-2.3-1.18-1.56-2.33-3.14-3.46-4.75-1.42-2.23-2.85-4.46-4.22-6.72-.08-.14-.16-.27-.25-.41-.41,.74-.82,1.49-1.22,2.23-1.02,1.6-2.05,3.18-3.1,4.75-1.16,1.55-2.32,3.11-3.46,4.68-.65,.79-1.3,1.58-1.94,2.38-.67,.79-1.34,1.58-2.02,2.38-.7,.77-1.39,1.54-2.09,2.3,.07,.08,.14,.17,.21,.25,1.16,1.38,2.31,2.76,3.46,4.14,.62,.77,1.25,1.54,1.87,2.3,1.11,1.55,2.24,3.08,3.38,4.61Z" style="fill: #db0f1a;"/>
              <path d="M47.2,57.59c1.13,1.67,2.23,3.34,3.31,5.04,.53,.86,1.06,1.73,1.59,2.59,.02-.04,.05-.08,.08-.12,1.45-2.4,3.01-4.72,4.53-7.08,1.13-1.6,2.28-3.18,3.46-4.75,.6-.82,1.2-1.63,1.8-2.45,1.1-1.35,2.21-2.69,3.36-4.01,.15-.18,.3-.35,.46-.53-.67-.77-1.34-1.54-2.02-2.3-.65-.74-1.29-1.49-1.94-2.23-.6-.77-1.2-1.54-1.8-2.3-1.18-1.56-2.33-3.14-3.46-4.75-1.42-2.23-2.85-4.46-4.22-6.72-.08-.14-.16-.27-.25-.41-.41,.74-.82,1.49-1.22,2.23-1.02,1.6-2.05,3.18-3.1,4.75-1.16,1.55-2.32,3.11-3.46,4.68-.65,.79-1.3,1.58-1.94,2.38-.67,.79-1.34,1.58-2.02,2.38-.7,.77-1.39,1.54-2.09,2.3,.07,.08,.14,.17,.21,.25,1.16,1.38,2.31,2.76,3.46,4.14,.62,.77,1.25,1.54,1.87,2.3,1.11,1.55,2.24,3.08,3.38,4.61Z" style="fill: #db0f1a;"/>
              <path d="M47.2,57.59c1.13,1.67,2.23,3.34,3.31,5.04,.53,.86,1.06,1.73,1.59,2.59,.02-.04,.05-.08,.08-.12,1.45-2.4,3.01-4.72,4.53-7.08,1.13-1.6,2.28-3.18,3.46-4.75,.6-.82,1.2-1.63,1.8-2.45,1.1-1.35,2.21-2.69,3.36-4.01,.15-.18,.3-.35,.46-.53-.67-.77-1.34-1.54-2.02-2.3-.65-.74-1.29-1.49-1.94-2.23-.6-.77-1.2-1.54-1.8-2.3-1.18-1.56-2.33-3.14-3.46-4.75-1.42-2.23-2.85-4.46-4.22-6.72-.08-.14-.16-.27-.25-.41-.41,.74-.82,1.49-1.22,2.23-1.02,1.6-2.05,3.18-3.1,4.75-1.16,1.55-2.32,3.11-3.46,4.68-.65,.79-1.3,1.58-1.94,2.38-.67,.79-1.34,1.58-2.02,2.38-.7,.77-1.39,1.54-2.09,2.3,.07,.08,.14,.17,.21,.25,1.16,1.38,2.31,2.76,3.46,4.14,.62,.77,1.25,1.54,1.87,2.3,1.11,1.55,2.24,3.08,3.38,4.61Z" style="fill: #db0f1a;"/>
            </g>
            <g>
              <path d="M47.2,181.26c1.13,1.67,2.23,3.34,3.31,5.04,.53,.86,1.06,1.73,1.59,2.59,.02-.04,.05-.08,.08-.12,1.45-2.4,3.01-4.72,4.53-7.08,1.13-1.6,2.28-3.18,3.46-4.75,.6-.82,1.2-1.63,1.8-2.45,1.1-1.35,2.21-2.69,3.36-4.01,.15-.17,.3-.35,.46-.53-.67-.77-1.34-1.54-2.02-2.3-.65-.74-1.29-1.49-1.94-2.23-.6-.77-1.2-1.54-1.8-2.3-1.18-1.56-2.33-3.14-3.46-4.75-1.42-2.23-2.85-4.46-4.22-6.72-.08-.14-.16-.27-.25-.41-.41,.74-.82,1.49-1.22,2.23-1.02,1.6-2.05,3.18-3.1,4.75-1.16,1.55-2.32,3.11-3.46,4.68-.65,.79-1.3,1.58-1.94,2.38-.67,.79-1.34,1.58-2.02,2.37-.7,.77-1.39,1.54-2.09,2.3,.07,.09,.14,.17,.21,.25,1.16,1.38,2.31,2.76,3.46,4.14,.62,.77,1.25,1.54,1.87,2.3,1.11,1.55,2.24,3.08,3.38,4.61Z" style="fill: #db0f1a;"/>
              <path d="M47.2,181.26c1.13,1.67,2.23,3.34,3.31,5.04,.53,.86,1.06,1.73,1.59,2.59,.02-.04,.05-.08,.08-.12,1.45-2.4,3.01-4.72,4.53-7.08,1.13-1.6,2.28-3.18,3.46-4.75,.6-.82,1.2-1.63,1.8-2.45,1.1-1.35,2.21-2.69,3.36-4.01,.15-.17,.3-.35,.46-.53-.67-.77-1.34-1.54-2.02-2.3-.65-.74-1.29-1.49-1.94-2.23-.6-.77-1.2-1.54-1.8-2.3-1.18-1.56-2.33-3.14-3.46-4.75-1.42-2.23-2.85-4.46-4.22-6.72-.08-.14-.16-.27-.25-.41-.41,.74-.82,1.49-1.22,2.23-1.02,1.6-2.05,3.18-3.1,4.75-1.16,1.55-2.32,3.11-3.46,4.68-.65,.79-1.3,1.58-1.94,2.38-.67,.79-1.34,1.58-2.02,2.37-.7,.77-1.39,1.54-2.09,2.3,.07,.09,.14,.17,.21,.25,1.16,1.38,2.31,2.76,3.46,4.14,.62,.77,1.25,1.54,1.87,2.3,1.11,1.55,2.24,3.08,3.38,4.61Z" style="fill: #db0f1a;"/>
              <path d="M47.2,181.26c1.13,1.67,2.23,3.34,3.31,5.04,.53,.86,1.06,1.73,1.59,2.59,.02-.04,.05-.08,.08-.12,1.45-2.4,3.01-4.72,4.53-7.08,1.13-1.6,2.28-3.18,3.46-4.75,.6-.82,1.2-1.63,1.8-2.45,1.1-1.35,2.21-2.69,3.36-4.01,.15-.17,.3-.35,.46-.53-.67-.77-1.34-1.54-2.02-2.3-.65-.74-1.29-1.49-1.94-2.23-.6-.77-1.2-1.54-1.8-2.3-1.18-1.56-2.33-3.14-3.46-4.75-1.42-2.23-2.85-4.46-4.22-6.72-.08-.14-.16-.27-.25-.41-.41,.74-.82,1.49-1.22,2.23-1.02,1.6-2.05,3.18-3.1,4.75-1.16,1.55-2.32,3.11-3.46,4.68-.65,.79-1.3,1.58-1.94,2.38-.67,.79-1.34,1.58-2.02,2.37-.7,.77-1.39,1.54-2.09,2.3,.07,.09,.14,.17,.21,.25,1.16,1.38,2.31,2.76,3.46,4.14,.62,.77,1.25,1.54,1.87,2.3,1.11,1.55,2.24,3.08,3.38,4.61Z" style="fill: #db0f1a;"/>
            </g>
          </g>
          <g>
            <path d="M74.86,149.59c1.13,1.67,2.23,3.34,3.31,5.04,.53,.86,1.06,1.73,1.58,2.59,.03-.04,.05-.08,.07-.12,1.45-2.4,3.01-4.72,4.53-7.08,1.13-1.6,2.28-3.18,3.46-4.75,.6-.82,1.2-1.63,1.8-2.45,1.1-1.35,2.21-2.69,3.36-4.01,.15-.18,.31-.35,.46-.53-.67-.77-1.34-1.54-2.02-2.3-.65-.74-1.3-1.49-1.94-2.23-.6-.77-1.2-1.54-1.8-2.3-1.19-1.56-2.33-3.14-3.46-4.75-1.42-2.23-2.85-4.46-4.22-6.72-.08-.14-.17-.27-.25-.41-.41,.74-.82,1.49-1.22,2.23-1.01,1.6-2.05,3.18-3.1,4.75-1.16,1.55-2.31,3.11-3.46,4.68-.65,.79-1.3,1.58-1.94,2.38-.67,.79-1.34,1.58-2.02,2.38-.7,.77-1.39,1.54-2.09,2.3,.07,.08,.14,.17,.21,.25,1.16,1.38,2.31,2.76,3.46,4.14,.62,.77,1.25,1.54,1.87,2.3,1.11,1.55,2.24,3.08,3.38,4.61Z" style="fill: #db0f1a;"/>
            <path d="M74.86,149.59c1.13,1.67,2.23,3.34,3.31,5.04,.53,.86,1.06,1.73,1.58,2.59,.03-.04,.05-.08,.07-.12,1.45-2.4,3.01-4.72,4.53-7.08,1.13-1.6,2.28-3.18,3.46-4.75,.6-.82,1.2-1.63,1.8-2.45,1.1-1.35,2.21-2.69,3.36-4.01,.15-.18,.31-.35,.46-.53-.67-.77-1.34-1.54-2.02-2.3-.65-.74-1.3-1.49-1.94-2.23-.6-.77-1.2-1.54-1.8-2.3-1.19-1.56-2.33-3.14-3.46-4.75-1.42-2.23-2.85-4.46-4.22-6.72-.08-.14-.17-.27-.25-.41-.41,.74-.82,1.49-1.22,2.23-1.01,1.6-2.05,3.18-3.1,4.75-1.16,1.55-2.31,3.11-3.46,4.68-.65,.79-1.3,1.58-1.94,2.38-.67,.79-1.34,1.58-2.02,2.38-.7,.77-1.39,1.54-2.09,2.3,.07,.08,.14,.17,.21,.25,1.16,1.38,2.31,2.76,3.46,4.14,.62,.77,1.25,1.54,1.87,2.3,1.11,1.55,2.24,3.08,3.38,4.61Z" style="fill: #db0f1a;"/>
            <path d="M74.86,149.59c1.13,1.67,2.23,3.34,3.31,5.04,.53,.86,1.06,1.73,1.58,2.59,.03-.04,.05-.08,.07-.12,1.45-2.4,3.01-4.72,4.53-7.08,1.13-1.6,2.28-3.18,3.46-4.75,.6-.82,1.2-1.63,1.8-2.45,1.1-1.35,2.21-2.69,3.36-4.01,.15-.18,.31-.35,.46-.53-.67-.77-1.34-1.54-2.02-2.3-.65-.74-1.3-1.49-1.94-2.23-.6-.77-1.2-1.54-1.8-2.3-1.19-1.56-2.33-3.14-3.46-4.75-1.42-2.23-2.85-4.46-4.22-6.72-.08-.14-.17-.27-.25-.41-.41,.74-.82,1.49-1.22,2.23-1.01,1.6-2.05,3.18-3.1,4.75-1.16,1.55-2.31,3.11-3.46,4.68-.65,.79-1.3,1.58-1.94,2.38-.67,.79-1.34,1.58-2.02,2.38-.7,.77-1.39,1.54-2.09,2.3,.07,.08,.14,.17,.21,.25,1.16,1.38,2.31,2.76,3.46,4.14,.62,.77,1.25,1.54,1.87,2.3,1.11,1.55,2.24,3.08,3.38,4.61Z" style="fill: #db0f1a;"/>
          </g>
          <g>
            <path d="M74.86,88.16c1.13,1.67,2.23,3.34,3.31,5.04,.53,.86,1.06,1.73,1.58,2.59,.03-.04,.05-.08,.07-.12,1.45-2.4,3.01-4.72,4.53-7.08,1.13-1.6,2.28-3.18,3.46-4.75,.6-.82,1.2-1.63,1.8-2.45,1.1-1.35,2.21-2.69,3.36-4.01,.15-.17,.31-.35,.46-.53-.67-.77-1.34-1.54-2.02-2.3-.65-.74-1.3-1.49-1.94-2.23-.6-.77-1.2-1.54-1.8-2.3-1.19-1.56-2.33-3.14-3.46-4.75-1.42-2.23-2.85-4.46-4.22-6.72-.08-.14-.17-.27-.25-.41-.41,.74-.82,1.49-1.22,2.23-1.01,1.6-2.05,3.18-3.1,4.75-1.16,1.55-2.31,3.11-3.46,4.68-.65,.79-1.3,1.58-1.94,2.38-.67,.79-1.34,1.58-2.02,2.38-.7,.77-1.39,1.54-2.09,2.3,.07,.09,.14,.17,.21,.26,1.16,1.38,2.31,2.76,3.46,4.14,.62,.77,1.25,1.54,1.87,2.3,1.11,1.55,2.24,3.08,3.38,4.61Z" style="fill: #db0f1a;"/>
            <path d="M74.86,88.16c1.13,1.67,2.23,3.34,3.31,5.04,.53,.86,1.06,1.73,1.58,2.59,.03-.04,.05-.08,.07-.12,1.45-2.4,3.01-4.72,4.53-7.08,1.13-1.6,2.28-3.18,3.46-4.75,.6-.82,1.2-1.63,1.8-2.45,1.1-1.35,2.21-2.69,3.36-4.01,.15-.17,.31-.35,.46-.53-.67-.77-1.34-1.54-2.02-2.3-.65-.74-1.3-1.49-1.94-2.23-.6-.77-1.2-1.54-1.8-2.3-1.19-1.56-2.33-3.14-3.46-4.75-1.42-2.23-2.85-4.46-4.22-6.72-.08-.14-.17-.27-.25-.41-.41,.74-.82,1.49-1.22,2.23-1.01,1.6-2.05,3.18-3.1,4.75-1.16,1.55-2.31,3.11-3.46,4.68-.65,.79-1.3,1.58-1.94,2.38-.67,.79-1.34,1.58-2.02,2.38-.7,.77-1.39,1.54-2.09,2.3,.07,.09,.14,.17,.21,.26,1.16,1.38,2.31,2.76,3.46,4.14,.62,.77,1.25,1.54,1.87,2.3,1.11,1.55,2.24,3.08,3.38,4.61Z" style="fill: #db0f1a;"/>
            <path d="M74.86,88.16c1.13,1.67,2.23,3.34,3.31,5.04,.53,.86,1.06,1.73,1.58,2.59,.03-.04,.05-.08,.07-.12,1.45-2.4,3.01-4.72,4.53-7.08,1.13-1.6,2.28-3.18,3.46-4.75,.6-.82,1.2-1.63,1.8-2.45,1.1-1.35,2.21-2.69,3.36-4.01,.15-.17,.31-.35,.46-.53-.67-.77-1.34-1.54-2.02-2.3-.65-.74-1.3-1.49-1.94-2.23-.6-.77-1.2-1.54-1.8-2.3-1.19-1.56-2.33-3.14-3.46-4.75-1.42-2.23-2.85-4.46-4.22-6.72-.08-.14-.17-.27-.25-.41-.41,.74-.82,1.49-1.22,2.23-1.01,1.6-2.05,3.18-3.1,4.75-1.16,1.55-2.31,3.11-3.46,4.68-.65,.79-1.3,1.58-1.94,2.38-.67,.79-1.34,1.58-2.02,2.38-.7,.77-1.39,1.54-2.09,2.3,.07,.09,.14,.17,.21,.26,1.16,1.38,2.31,2.76,3.46,4.14,.62,.77,1.25,1.54,1.87,2.3,1.11,1.55,2.24,3.08,3.38,4.61Z" style="fill: #db0f1a;"/>
          </g>
          <g>
            <g>
              <path d="M102.2,57.59c1.13,1.67,2.23,3.34,3.31,5.04,.53,.86,1.06,1.73,1.58,2.59,.03-.04,.05-.08,.08-.12,1.45-2.4,3.01-4.72,4.53-7.08,1.13-1.6,2.28-3.18,3.46-4.75,.6-.82,1.2-1.63,1.8-2.45,1.1-1.35,2.21-2.69,3.36-4.01,.15-.18,.31-.35,.46-.53-.67-.77-1.34-1.54-2.02-2.3-.65-.74-1.3-1.49-1.94-2.23-.6-.77-1.2-1.54-1.8-2.3-1.19-1.56-2.33-3.14-3.46-4.75-1.42-2.23-2.85-4.46-4.22-6.72-.08-.14-.17-.27-.25-.41-.41,.74-.82,1.49-1.22,2.23-1.01,1.6-2.05,3.18-3.1,4.75-1.16,1.55-2.31,3.11-3.46,4.68-.65,.79-1.3,1.58-1.94,2.38-.67,.79-1.34,1.58-2.02,2.38-.7,.77-1.39,1.54-2.09,2.3,.07,.08,.14,.17,.21,.25,1.15,1.38,2.31,2.76,3.46,4.14,.62,.77,1.25,1.54,1.87,2.3,1.11,1.55,2.24,3.08,3.38,4.61Z" style="fill: #db0f1a;"/>
              <path d="M102.2,57.59c1.13,1.67,2.23,3.34,3.31,5.04,.53,.86,1.06,1.73,1.58,2.59,.03-.04,.05-.08,.08-.12,1.45-2.4,3.01-4.72,4.53-7.08,1.13-1.6,2.28-3.18,3.46-4.75,.6-.82,1.2-1.63,1.8-2.45,1.1-1.35,2.21-2.69,3.36-4.01,.15-.18,.31-.35,.46-.53-.67-.77-1.34-1.54-2.02-2.3-.65-.74-1.3-1.49-1.94-2.23-.6-.77-1.2-1.54-1.8-2.3-1.19-1.56-2.33-3.14-3.46-4.75-1.42-2.23-2.85-4.46-4.22-6.72-.08-.14-.17-.27-.25-.41-.41,.74-.82,1.49-1.22,2.23-1.01,1.6-2.05,3.18-3.1,4.75-1.16,1.55-2.31,3.11-3.46,4.68-.65,.79-1.3,1.58-1.94,2.38-.67,.79-1.34,1.58-2.02,2.38-.7,.77-1.39,1.54-2.09,2.3,.07,.08,.14,.17,.21,.25,1.15,1.38,2.31,2.76,3.46,4.14,.62,.77,1.25,1.54,1.87,2.3,1.11,1.55,2.24,3.08,3.38,4.61Z" style="fill: #db0f1a;"/>
              <path d="M102.2,57.59c1.13,1.67,2.23,3.34,3.31,5.04,.53,.86,1.06,1.73,1.58,2.59,.03-.04,.05-.08,.08-.12,1.45-2.4,3.01-4.72,4.53-7.08,1.13-1.6,2.28-3.18,3.46-4.75,.6-.82,1.2-1.63,1.8-2.45,1.1-1.35,2.21-2.69,3.36-4.01,.15-.18,.31-.35,.46-.53-.67-.77-1.34-1.54-2.02-2.3-.65-.74-1.3-1.49-1.94-2.23-.6-.77-1.2-1.54-1.8-2.3-1.19-1.56-2.33-3.14-3.46-4.75-1.42-2.23-2.85-4.46-4.22-6.72-.08-.14-.17-.27-.25-.41-.41,.74-.82,1.49-1.22,2.23-1.01,1.6-2.05,3.18-3.1,4.75-1.16,1.55-2.31,3.11-3.46,4.68-.65,.79-1.3,1.58-1.94,2.38-.67,.79-1.34,1.58-2.02,2.38-.7,.77-1.39,1.54-2.09,2.3,.07,.08,.14,.17,.21,.25,1.15,1.38,2.31,2.76,3.46,4.14,.62,.77,1.25,1.54,1.87,2.3,1.11,1.55,2.24,3.08,3.38,4.61Z" style="fill: #db0f1a;"/>
            </g>
            <g>
              <path d="M102.2,181.26c1.13,1.67,2.23,3.34,3.31,5.04,.53,.86,1.06,1.73,1.58,2.59,.03-.04,.05-.08,.08-.12,1.45-2.4,3.01-4.72,4.53-7.08,1.13-1.6,2.28-3.18,3.46-4.75,.6-.82,1.2-1.63,1.8-2.45,1.1-1.35,2.21-2.69,3.36-4.01,.15-.17,.31-.35,.46-.53-.67-.77-1.34-1.54-2.02-2.3-.65-.74-1.3-1.49-1.94-2.23-.6-.77-1.2-1.54-1.8-2.3-1.19-1.56-2.33-3.14-3.46-4.75-1.42-2.23-2.85-4.46-4.22-6.72-.08-.14-.17-.27-.25-.41-.41,.74-.82,1.49-1.22,2.23-1.01,1.6-2.05,3.18-3.1,4.75-1.16,1.55-2.31,3.11-3.46,4.68-.65,.79-1.3,1.58-1.94,2.38-.67,.79-1.34,1.58-2.02,2.37-.7,.77-1.39,1.54-2.09,2.3,.07,.09,.14,.17,.21,.25,1.15,1.38,2.31,2.76,3.46,4.14,.62,.77,1.25,1.54,1.87,2.3,1.11,1.55,2.24,3.08,3.38,4.61Z" style="fill: #db0f1a;"/>
              <path d="M102.2,181.26c1.13,1.67,2.23,3.34,3.31,5.04,.53,.86,1.06,1.73,1.58,2.59,.03-.04,.05-.08,.08-.12,1.45-2.4,3.01-4.72,4.53-7.08,1.13-1.6,2.28-3.18,3.46-4.75,.6-.82,1.2-1.63,1.8-2.45,1.1-1.35,2.21-2.69,3.36-4.01,.15-.17,.31-.35,.46-.53-.67-.77-1.34-1.54-2.02-2.3-.65-.74-1.3-1.49-1.94-2.23-.6-.77-1.2-1.54-1.8-2.3-1.19-1.56-2.33-3.14-3.46-4.75-1.42-2.23-2.85-4.46-4.22-6.72-.08-.14-.17-.27-.25-.41-.41,.74-.82,1.49-1.22,2.23-1.01,1.6-2.05,3.18-3.1,4.75-1.16,1.55-2.31,3.11-3.46,4.68-.65,.79-1.3,1.58-1.94,2.38-.67,.79-1.34,1.58-2.02,2.37-.7,.77-1.39,1.54-2.09,2.3,.07,.09,.14,.17,.21,.25,1.15,1.38,2.31,2.76,3.46,4.14,.62,.77,1.25,1.54,1.87,2.3,1.11,1.55,2.24,3.08,3.38,4.61Z" style="fill: #db0f1a;"/>
              <path d="M102.2,181.26c1.13,1.67,2.23,3.34,3.31,5.04,.53,.86,1.06,1.73,1.58,2.59,.03-.04,.05-.08,.08-.12,1.45-2.4,3.01-4.72,4.53-7.08,1.13-1.6,2.28-3.18,3.46-4.75,.6-.82,1.2-1.63,1.8-2.45,1.1-1.35,2.21-2.69,3.36-4.01,.15-.17,.31-.35,.46-.53-.67-.77-1.34-1.54-2.02-2.3-.65-.74-1.3-1.49-1.94-2.23-.6-.77-1.2-1.54-1.8-2.3-1.19-1.56-2.33-3.14-3.46-4.75-1.42-2.23-2.85-4.46-4.22-6.72-.08-.14-.17-.27-.25-.41-.41,.74-.82,1.49-1.22,2.23-1.01,1.6-2.05,3.18-3.1,4.75-1.16,1.55-2.31,3.11-3.46,4.68-.65,.79-1.3,1.58-1.94,2.38-.67,.79-1.34,1.58-2.02,2.37-.7,.77-1.39,1.54-2.09,2.3,.07,.09,.14,.17,.21,.25,1.15,1.38,2.31,2.76,3.46,4.14,.62,.77,1.25,1.54,1.87,2.3,1.11,1.55,2.24,3.08,3.38,4.61Z" style="fill: #db0f1a;"/>
            </g>
            <g>
              <path d="M102.2,119.76c1.13,1.67,2.23,3.34,3.31,5.04,.53,.86,1.06,1.73,1.58,2.59,.03-.04,.05-.08,.08-.12,1.45-2.4,3.01-4.72,4.53-7.08,1.13-1.6,2.28-3.18,3.46-4.75,.6-.82,1.2-1.63,1.8-2.45,1.1-1.36,2.21-2.69,3.36-4.01,.15-.18,.31-.35,.46-.53-.67-.77-1.34-1.54-2.02-2.3-.65-.74-1.3-1.49-1.94-2.23-.6-.77-1.2-1.54-1.8-2.3-1.19-1.56-2.33-3.14-3.46-4.75-1.42-2.23-2.85-4.46-4.22-6.72-.08-.13-.17-.27-.25-.41-.41,.74-.82,1.49-1.22,2.23-1.01,1.6-2.05,3.18-3.1,4.75-1.16,1.55-2.31,3.11-3.46,4.68-.65,.79-1.3,1.58-1.94,2.37-.67,.79-1.34,1.58-2.02,2.38-.7,.77-1.39,1.54-2.09,2.3,.07,.08,.14,.17,.21,.25,1.15,1.38,2.31,2.76,3.46,4.14,.62,.77,1.25,1.54,1.87,2.3,1.11,1.55,2.24,3.08,3.38,4.61Z" style="fill: #db0f1a;"/>
              <path d="M102.2,119.76c1.13,1.67,2.23,3.34,3.31,5.04,.53,.86,1.06,1.73,1.58,2.59,.03-.04,.05-.08,.08-.12,1.45-2.4,3.01-4.72,4.53-7.08,1.13-1.6,2.28-3.18,3.46-4.75,.6-.82,1.2-1.63,1.8-2.45,1.1-1.36,2.21-2.69,3.36-4.01,.15-.18,.31-.35,.46-.53-.67-.77-1.34-1.54-2.02-2.3-.65-.74-1.3-1.49-1.94-2.23-.6-.77-1.2-1.54-1.8-2.3-1.19-1.56-2.33-3.14-3.46-4.75-1.42-2.23-2.85-4.46-4.22-6.72-.08-.13-.17-.27-.25-.41-.41,.74-.82,1.49-1.22,2.23-1.01,1.6-2.05,3.18-3.1,4.75-1.16,1.55-2.31,3.11-3.46,4.68-.65,.79-1.3,1.58-1.94,2.37-.67,.79-1.34,1.58-2.02,2.38-.7,.77-1.39,1.54-2.09,2.3,.07,.08,.14,.17,.21,.25,1.15,1.38,2.31,2.76,3.46,4.14,.62,.77,1.25,1.54,1.87,2.3,1.11,1.55,2.24,3.08,3.38,4.61Z" style="fill: #db0f1a;"/>
              <path d="M102.2,119.76c1.13,1.67,2.23,3.34,3.31,5.04,.53,.86,1.06,1.73,1.58,2.59,.03-.04,.05-.08,.08-.12,1.45-2.4,3.01-4.72,4.53-7.08,1.13-1.6,2.28-3.18,3.46-4.75,.6-.82,1.2-1.63,1.8-2.45,1.1-1.36,2.21-2.69,3.36-4.01,.15-.18,.31-.35,.46-.53-.67-.77-1.34-1.54-2.02-2.3-.65-.74-1.3-1.49-1.94-2.23-.6-.77-1.2-1.54-1.8-2.3-1.19-1.56-2.33-3.14-3.46-4.75-1.42-2.23-2.85-4.46-4.22-6.72-.08-.13-.17-.27-.25-.41-.41,.74-.82,1.49-1.22,2.23-1.01,1.6-2.05,3.18-3.1,4.75-1.16,1.55-2.31,3.11-3.46,4.68-.65,.79-1.3,1.58-1.94,2.37-.67,.79-1.34,1.58-2.02,2.38-.7,.77-1.39,1.54-2.09,2.3,.07,.08,.14,.17,.21,.25,1.15,1.38,2.31,2.76,3.46,4.14,.62,.77,1.25,1.54,1.87,2.3,1.11,1.55,2.24,3.08,3.38,4.61Z" style="fill: #db0f1a;"/>
            </g>
            <g>
              <path d="M46.2,119.76c1.13,1.67,2.23,3.34,3.31,5.04,.53,.86,1.06,1.73,1.58,2.59,.03-.04,.05-.08,.08-.12,1.45-2.4,3.01-4.72,4.53-7.08,1.13-1.6,2.28-3.18,3.46-4.75,.6-.82,1.2-1.63,1.8-2.45,1.1-1.36,2.21-2.69,3.36-4.01,.15-.18,.31-.35,.46-.53-.67-.77-1.34-1.54-2.02-2.3-.65-.74-1.3-1.49-1.94-2.23-.6-.77-1.2-1.54-1.8-2.3-1.19-1.56-2.33-3.14-3.46-4.75-1.42-2.23-2.85-4.46-4.22-6.72-.08-.13-.17-.27-.25-.41-.41,.74-.82,1.49-1.22,2.23-1.01,1.6-2.05,3.18-3.1,4.75-1.16,1.55-2.31,3.11-3.46,4.68-.65,.79-1.3,1.58-1.94,2.37-.67,.79-1.34,1.58-2.02,2.38-.7,.77-1.39,1.54-2.09,2.3,.07,.08,.14,.17,.21,.25,1.15,1.38,2.31,2.76,3.46,4.14,.62,.77,1.25,1.54,1.87,2.3,1.11,1.55,2.24,3.08,3.38,4.61Z" style="fill: #db0f1a;"/>
              <path d="M46.2,119.76c1.13,1.67,2.23,3.34,3.31,5.04,.53,.86,1.06,1.73,1.58,2.59,.03-.04,.05-.08,.08-.12,1.45-2.4,3.01-4.72,4.53-7.08,1.13-1.6,2.28-3.18,3.46-4.75,.6-.82,1.2-1.63,1.8-2.45,1.1-1.36,2.21-2.69,3.36-4.01,.15-.18,.31-.35,.46-.53-.67-.77-1.34-1.54-2.02-2.3-.65-.74-1.3-1.49-1.94-2.23-.6-.77-1.2-1.54-1.8-2.3-1.19-1.56-2.33-3.14-3.46-4.75-1.42-2.23-2.85-4.46-4.22-6.72-.08-.13-.17-.27-.25-.41-.41,.74-.82,1.49-1.22,2.23-1.01,1.6-2.05,3.18-3.1,4.75-1.16,1.55-2.31,3.11-3.46,4.68-.65,.79-1.3,1.58-1.94,2.37-.67,.79-1.34,1.58-2.02,2.38-.7,.77-1.39,1.54-2.09,2.3,.07,.08,.14,.17,.21,.25,1.15,1.38,2.31,2.76,3.46,4.14,.62,.77,1.25,1.54,1.87,2.3,1.11,1.55,2.24,3.08,3.38,4.61Z" style="fill: #db0f1a;"/>
              <path d="M46.2,119.76c1.13,1.67,2.23,3.34,3.31,5.04,.53,.86,1.06,1.73,1.58,2.59,.03-.04,.05-.08,.08-.12,1.45-2.4,3.01-4.72,4.53-7.08,1.13-1.6,2.28-3.18,3.46-4.75,.6-.82,1.2-1.63,1.8-2.45,1.1-1.36,2.21-2.69,3.36-4.01,.15-.18,.31-.35,.46-.53-.67-.77-1.34-1.54-2.02-2.3-.65-.74-1.3-1.49-1.94-2.23-.6-.77-1.2-1.54-1.8-2.3-1.19-1.56-2.33-3.14-3.46-4.75-1.42-2.23-2.85-4.46-4.22-6.72-.08-.13-.17-.27-.25-.41-.41,.74-.82,1.49-1.22,2.23-1.01,1.6-2.05,3.18-3.1,4.75-1.16,1.55-2.31,3.11-3.46,4.68-.65,.79-1.3,1.58-1.94,2.37-.67,.79-1.34,1.58-2.02,2.38-.7,.77-1.39,1.54-2.09,2.3,.07,.08,.14,.17,.21,.25,1.15,1.38,2.31,2.76,3.46,4.14,.62,.77,1.25,1.54,1.87,2.3,1.11,1.55,2.24,3.08,3.38,4.61Z" style="fill: #db0f1a;"/>
            </g>
          </g>
        </g>
      </g>
      <g>
        <path d="M133.42,51.71c.48,.7,.94,1.41,1.4,2.13,.22,.37,.45,.73,.67,1.1,.01-.02,.02-.03,.03-.05,.62-1.02,1.27-2,1.92-2.99,.48-.68,.96-1.35,1.46-2.01,.25-.35,.51-.69,.76-1.04,.46-.57,.94-1.14,1.42-1.7,.06-.07,.13-.15,.19-.22-.28-.33-.57-.65-.85-.97-.27-.31-.55-.63-.82-.94-.25-.33-.51-.65-.76-.97-.5-.66-.99-1.33-1.46-2.01-.6-.94-1.2-1.89-1.78-2.84-.04-.06-.07-.12-.11-.17-.17,.31-.34,.63-.52,.94-.43,.67-.87,1.34-1.31,2.01-.49,.66-.98,1.32-1.46,1.98-.27,.34-.55,.67-.82,1-.28,.33-.57,.67-.85,1-.29,.32-.59,.65-.88,.97,.03,.04,.06,.07,.09,.11,.49,.58,.98,1.17,1.46,1.75,.26,.32,.53,.65,.79,.97,.47,.65,.95,1.3,1.43,1.95Z" style="fill: #db0f1a;"/>
        <path d="M133.42,51.71c.48,.7,.94,1.41,1.4,2.13,.22,.37,.45,.73,.67,1.1,.01-.02,.02-.03,.03-.05,.62-1.02,1.27-2,1.92-2.99,.48-.68,.96-1.35,1.46-2.01,.25-.35,.51-.69,.76-1.04,.46-.57,.94-1.14,1.42-1.7,.06-.07,.13-.15,.19-.22-.28-.33-.57-.65-.85-.97-.27-.31-.55-.63-.82-.94-.25-.33-.51-.65-.76-.97-.5-.66-.99-1.33-1.46-2.01-.6-.94-1.2-1.89-1.78-2.84-.04-.06-.07-.12-.11-.17-.17,.31-.34,.63-.52,.94-.43,.67-.87,1.34-1.31,2.01-.49,.66-.98,1.32-1.46,1.98-.27,.34-.55,.67-.82,1-.28,.33-.57,.67-.85,1-.29,.32-.59,.65-.88,.97,.03,.04,.06,.07,.09,.11,.49,.58,.98,1.17,1.46,1.75,.26,.32,.53,.65,.79,.97,.47,.65,.95,1.3,1.43,1.95Z" style="fill: #db0f1a;"/>
        <path d="M133.42,51.71c.48,.7,.94,1.41,1.4,2.13,.22,.37,.45,.73,.67,1.1,.01-.02,.02-.03,.03-.05,.62-1.02,1.27-2,1.92-2.99,.48-.68,.96-1.35,1.46-2.01,.25-.35,.51-.69,.76-1.04,.46-.57,.94-1.14,1.42-1.7,.06-.07,.13-.15,.19-.22-.28-.33-.57-.65-.85-.97-.27-.31-.55-.63-.82-.94-.25-.33-.51-.65-.76-.97-.5-.66-.99-1.33-1.46-2.01-.6-.94-1.2-1.89-1.78-2.84-.04-.06-.07-.12-.11-.17-.17,.31-.34,.63-.52,.94-.43,.67-.87,1.34-1.31,2.01-.49,.66-.98,1.32-1.46,1.98-.27,.34-.55,.67-.82,1-.28,.33-.57,.67-.85,1-.29,.32-.59,.65-.88,.97,.03,.04,.06,.07,.09,.11,.49,.58,.98,1.17,1.46,1.75,.26,.32,.53,.65,.79,.97,.47,.65,.95,1.3,1.43,1.95Z" style="fill: #db0f1a;"/>
      </g>
      <path d="M133.51,20.74c-1.73-1.42-2.85-2.56-3.35-3.42-.5-.86-.75-1.75-.75-2.68,0-1.42,.55-2.64,1.64-3.67,1.1-1.03,2.55-1.54,4.37-1.54s3.18,.48,4.26,1.43c1.08,.96,1.61,2.05,1.61,3.27,0,.82-.29,1.65-.87,2.5-.58,.85-1.79,1.85-3.63,3,1.89,1.46,3.14,2.61,3.76,3.45,.82,1.1,1.23,2.25,1.23,3.47,0,1.54-.59,2.85-1.76,3.94-1.17,1.09-2.71,1.64-4.61,1.64-2.08,0-3.69-.65-4.85-1.95-.92-1.04-1.39-2.18-1.39-3.42,0-.97,.33-1.93,.98-2.88,.65-.95,1.77-2,3.36-3.15Zm.76,.61c-.89,.75-1.55,1.57-1.98,2.46-.43,.89-.64,1.85-.64,2.88,0,1.39,.38,2.5,1.14,3.33s1.72,1.25,2.89,1.25,2.09-.33,2.79-.98c.7-.66,1.05-1.45,1.05-2.39,0-.77-.2-1.47-.61-2.08-.76-1.14-2.31-2.63-4.63-4.47Zm1.77-2.34c1.29-1.16,2.11-2.08,2.45-2.75,.34-.67,.52-1.43,.52-2.28,0-1.13-.32-2.01-.95-2.65-.63-.64-1.5-.96-2.6-.96s-1.99,.32-2.68,.95c-.69,.63-1.03,1.38-1.03,2.22,0,.56,.14,1.12,.43,1.68,.29,.56,.69,1.09,1.22,1.6l2.64,2.19Z" style="fill: #db0f1a;"/>
      <g>
        <path d="M20.03,164.24c-.48-.7-.94-1.41-1.4-2.13-.22-.37-.45-.73-.67-1.1,0,.02-.02,.04-.03,.05-.61,1.01-1.27,2-1.92,2.99-.48,.68-.96,1.35-1.46,2.01-.25,.35-.51,.69-.76,1.04-.46,.57-.93,1.14-1.42,1.7-.07,.07-.13,.15-.19,.22,.28,.33,.57,.65,.85,.97,.27,.31,.55,.63,.82,.94,.25,.33,.51,.65,.76,.97,.5,.66,.99,1.33,1.46,2.01,.6,.94,1.2,1.89,1.78,2.84,.04,.06,.07,.12,.1,.17,.17-.31,.35-.63,.52-.95,.43-.67,.87-1.34,1.31-2.01,.49-.66,.98-1.32,1.46-1.98,.27-.33,.55-.67,.82-1,.28-.34,.57-.67,.85-1.01,.3-.32,.59-.65,.88-.97-.03-.04-.06-.07-.09-.11-.49-.58-.98-1.17-1.46-1.75-.26-.32-.53-.65-.79-.97-.47-.66-.95-1.3-1.43-1.95Z" style="fill: #db0f1a;"/>
        <path d="M20.03,164.24c-.48-.7-.94-1.41-1.4-2.13-.22-.37-.45-.73-.67-1.1,0,.02-.02,.04-.03,.05-.61,1.01-1.27,2-1.92,2.99-.48,.68-.96,1.35-1.46,2.01-.25,.35-.51,.69-.76,1.04-.46,.57-.93,1.14-1.42,1.7-.07,.07-.13,.15-.19,.22,.28,.33,.57,.65,.85,.97,.27,.31,.55,.63,.82,.94,.25,.33,.51,.65,.76,.97,.5,.66,.99,1.33,1.46,2.01,.6,.94,1.2,1.89,1.78,2.84,.04,.06,.07,.12,.1,.17,.17-.31,.35-.63,.52-.95,.43-.67,.87-1.34,1.31-2.01,.49-.66,.98-1.32,1.46-1.98,.27-.33,.55-.67,.82-1,.28-.34,.57-.67,.85-1.01,.3-.32,.59-.65,.88-.97-.03-.04-.06-.07-.09-.11-.49-.58-.98-1.17-1.46-1.75-.26-.32-.53-.65-.79-.97-.47-.66-.95-1.3-1.43-1.95Z" style="fill: #db0f1a;"/>
        <path d="M20.03,164.24c-.48-.7-.94-1.41-1.4-2.13-.22-.37-.45-.73-.67-1.1,0,.02-.02,.04-.03,.05-.61,1.01-1.27,2-1.92,2.99-.48,.68-.96,1.35-1.46,2.01-.25,.35-.51,.69-.76,1.04-.46,.57-.93,1.14-1.42,1.7-.07,.07-.13,.15-.19,.22,.28,.33,.57,.65,.85,.97,.27,.31,.55,.63,.82,.94,.25,.33,.51,.65,.76,.97,.5,.66,.99,1.33,1.46,2.01,.6,.94,1.2,1.89,1.78,2.84,.04,.06,.07,.12,.1,.17,.17-.31,.35-.63,.52-.95,.43-.67,.87-1.34,1.31-2.01,.49-.66,.98-1.32,1.46-1.98,.27-.33,.55-.67,.82-1,.28-.34,.57-.67,.85-1.01,.3-.32,.59-.65,.88-.97-.03-.04-.06-.07-.09-.11-.49-.58-.98-1.17-1.46-1.75-.26-.32-.53-.65-.79-.97-.47-.66-.95-1.3-1.43-1.95Z" style="fill: #db0f1a;"/>
      </g>
      <path d="M18.61,194.04c1.73,1.42,2.85,2.56,3.35,3.42,.5,.86,.75,1.75,.75,2.68,0,1.42-.55,2.64-1.64,3.67-1.1,1.03-2.55,1.54-4.37,1.54s-3.18-.48-4.26-1.44c-1.08-.96-1.61-2.05-1.61-3.27,0-.82,.29-1.65,.87-2.5,.58-.85,1.79-1.85,3.63-3-1.89-1.46-3.14-2.61-3.76-3.45-.82-1.1-1.23-2.25-1.23-3.47,0-1.54,.59-2.85,1.76-3.94,1.17-1.09,2.71-1.64,4.61-1.64,2.07,0,3.69,.65,4.85,1.95,.92,1.04,1.39,2.18,1.39,3.42,0,.97-.33,1.93-.98,2.88s-1.77,2-3.36,3.15Zm-.76-.61c.89-.75,1.55-1.57,1.98-2.46,.43-.89,.65-1.85,.65-2.88,0-1.39-.38-2.5-1.14-3.33-.76-.83-1.72-1.25-2.89-1.25s-2.09,.33-2.79,.98c-.7,.66-1.05,1.45-1.05,2.39,0,.77,.2,1.47,.61,2.08,.76,1.14,2.31,2.63,4.63,4.47Zm-1.77,2.34c-1.29,1.16-2.11,2.08-2.45,2.75-.34,.67-.52,1.43-.52,2.28,0,1.13,.32,2.01,.95,2.65,.63,.64,1.5,.96,2.6,.96s1.99-.32,2.68-.95c.69-.63,1.03-1.38,1.03-2.23,0-.56-.14-1.12-.43-1.68-.28-.56-.69-1.09-1.22-1.6l-2.64-2.19Z" style="fill: #db0f1a;"/>
    </g>
  </g>
</svg>