<?xml version="1.0" encoding="UTF-8"?>
<svg id="Playing_Cards" data-name="Playing Cards" xmlns="http://www.w3.org/2000/svg" viewBox="0 0 152.06 215.64">
  <g id="Cards">
    <g id="Hearts">
      <g>
        <path d="M6.56,.02H145.53c.47,0,.95,.06,1.41,.17l.11,.03c.98,.25,1.88,.74,2.61,1.45l.04,.04c.48,.46,.87,1,1.17,1.59l.41,.82c.29,.58,.48,1.2,.56,1.84l.26,1.97c.03,.25,.05,.5,.05,.75V207.06c0,.26-.02,.52-.05,.78l-.25,1.86c-.08,.61-.26,1.2-.53,1.75l-.41,.85c-.32,.65-.75,1.24-1.28,1.73l-.05,.04c-.67,.62-1.48,1.07-2.36,1.32l-.19,.05c-.51,.14-1.04,.22-1.57,.22H6.64c-.53,0-1.06-.07-1.57-.22l-.14-.04c-.92-.26-1.76-.74-2.44-1.4h0c-.49-.48-.9-1.04-1.2-1.65l-.41-.84c-.29-.59-.47-1.23-.55-1.88l-.21-1.85c-.02-.22-.04-.44-.04-.66V8.62c0-.21,.01-.42,.03-.63l.21-1.96c.07-.68,.27-1.35,.58-1.97l.41-.82c.28-.56,.65-1.07,1.09-1.51h0C3.15,.99,4.08,.47,5.1,.21h.05c.46-.13,.93-.19,1.41-.19Z" style="fill: #fff; fill-rule: evenodd;"/>
        <g>
          <path d="M15.44,21.04c-1.73-1.42-2.85-2.56-3.35-3.42-.5-.86-.75-1.75-.75-2.68,0-1.42,.55-2.64,1.64-3.67,1.1-1.03,2.55-1.54,4.37-1.54s3.18,.48,4.26,1.43c1.08,.96,1.61,2.05,1.61,3.27,0,.82-.29,1.65-.87,2.5-.58,.85-1.79,1.85-3.63,3,1.89,1.46,3.14,2.61,3.76,3.45,.82,1.1,1.23,2.25,1.23,3.47,0,1.54-.59,2.85-1.76,3.94-1.17,1.09-2.71,1.64-4.61,1.64-2.08,0-3.69-.65-4.85-1.95-.92-1.04-1.39-2.18-1.39-3.42,0-.97,.33-1.93,.98-2.88,.65-.95,1.77-2,3.36-3.15Zm.76,.61c-.89,.75-1.55,1.57-1.98,2.46-.43,.89-.64,1.85-.64,2.88,0,1.39,.38,2.5,1.14,3.33s1.72,1.25,2.89,1.25,2.09-.33,2.79-.98c.7-.66,1.05-1.45,1.05-2.39,0-.77-.2-1.47-.61-2.08-.76-1.14-2.31-2.63-4.63-4.47Zm1.77-2.34c1.29-1.16,2.11-2.08,2.45-2.75,.34-.67,.52-1.43,.52-2.28,0-1.13-.32-2.01-.95-2.65-.63-.64-1.5-.96-2.6-.96s-1.99,.32-2.68,.95c-.69,.63-1.03,1.38-1.03,2.22,0,.56,.14,1.12,.43,1.68,.29,.56,.69,1.09,1.22,1.6l2.64,2.19Z" style="fill: #db0f1a;"/>
          <path d="M136.79,194.65c1.73,1.42,2.85,2.56,3.35,3.42,.5,.86,.75,1.75,.75,2.68,0,1.42-.55,2.64-1.64,3.67-1.1,1.03-2.55,1.54-4.37,1.54s-3.18-.48-4.26-1.44c-1.08-.96-1.61-2.05-1.61-3.27,0-.82,.29-1.65,.87-2.5,.58-.85,1.79-1.85,3.63-3-1.89-1.46-3.14-2.61-3.76-3.45-.82-1.1-1.23-2.25-1.23-3.47,0-1.54,.59-2.85,1.76-3.94,1.17-1.09,2.71-1.64,4.61-1.64,2.07,0,3.69,.65,4.85,1.95,.92,1.04,1.39,2.18,1.39,3.42,0,.97-.33,1.93-.98,2.88s-1.77,2-3.36,3.15Zm-.76-.61c.89-.75,1.55-1.57,1.98-2.46,.43-.89,.65-1.85,.65-2.88,0-1.39-.38-2.5-1.14-3.33-.76-.83-1.72-1.25-2.89-1.25s-2.09,.33-2.79,.98c-.7,.66-1.05,1.45-1.05,2.39,0,.78,.2,1.47,.61,2.08,.76,1.14,2.31,2.63,4.63,4.47Zm-1.77,2.34c-1.29,1.16-2.11,2.08-2.45,2.75-.34,.67-.52,1.43-.52,2.28,0,1.13,.32,2.01,.95,2.65,.63,.64,1.5,.96,2.6,.96s1.99-.32,2.68-.95c.69-.63,1.03-1.37,1.03-2.22,0-.56-.14-1.12-.43-1.68-.28-.56-.69-1.09-1.22-1.6l-2.64-2.19Z" style="fill: #db0f1a;"/>
        </g>
        <g>
          <path d="M14.88,48.28c.5,.67,.95,1.41,1.28,2.28,.08,.22,.16,.44,.23,.67,.06,.19,.1,.28,.14,.28,.01,0,.03,0,.04-.03,.01,.02,.02,.03,.04,.03,.13,0,.25-.62,.29-.73,.32-.91,.8-1.74,1.37-2.5,1.51-2.02,3.46-3.37,3.97-5.39,.34-1.34,.01-2.94-.9-3.98-.52-.59-1.19-.95-1.93-.95-.89,0-1.68,.52-2.22,1.34-.28,.43-.5,.94-.62,1.51-.35-1.64-1.49-2.85-2.84-2.85-.74,0-1.41,.36-1.93,.95-.91,1.04-1.24,2.63-.9,3.98,.51,2.01,2.46,3.37,3.97,5.39Z" style="fill: #db0f1a;"/>
          <path d="M137.35,167.41c-.5-.67-.95-1.41-1.28-2.28-.08-.22-.16-.44-.23-.67-.06-.19-.1-.28-.15-.28-.01,0-.03,0-.04,.03-.01-.02-.03-.03-.04-.03-.13,0-.25,.62-.29,.73-.32,.91-.8,1.74-1.37,2.5-1.51,2.02-3.46,3.37-3.97,5.39-.34,1.34-.01,2.94,.9,3.98,.52,.59,1.19,.95,1.93,.95,.89,0,1.68-.52,2.23-1.34,.28-.43,.5-.94,.62-1.51,.35,1.64,1.49,2.85,2.84,2.85,.74,0,1.41-.36,1.93-.95,.91-1.04,1.24-2.63,.9-3.98-.51-2.02-2.46-3.37-3.97-5.39Z" style="fill: #db0f1a;"/>
        </g>
        <g>
          <path d="M99.17,55.99c1.3,1.74,2.47,3.67,3.33,5.92,.22,.56,.42,1.14,.59,1.75,.15,.5,.27,.73,.38,.74,.03,0,.07-.02,.1-.07,.03,.05,.06,.07,.1,.07,.34-.02,.65-1.61,.75-1.9,.84-2.35,2.07-4.52,3.54-6.5,3.91-5.25,8.99-8.75,10.31-13.98,.88-3.48,.03-7.63-2.33-10.32-1.34-1.53-3.09-2.45-5-2.45-2.31,0-4.37,1.35-5.77,3.48-.73,1.12-1.29,2.45-1.6,3.91-.9-4.26-3.86-7.39-7.37-7.39-1.91,0-3.66,.93-5,2.45-2.36,2.69-3.22,6.84-2.33,10.32,1.32,5.23,6.4,8.74,10.31,13.98Z" style="fill: #db0f1a;"/>
          <path d="M99.17,117.09c1.3,1.74,2.47,3.67,3.33,5.92,.22,.56,.42,1.14,.59,1.75,.15,.5,.27,.73,.38,.74,.03,0,.07-.02,.1-.07,.03,.05,.06,.07,.1,.07,.34-.02,.65-1.61,.75-1.9,.84-2.35,2.07-4.52,3.54-6.5,3.91-5.25,8.99-8.75,10.31-13.98,.88-3.48,.03-7.63-2.33-10.32-1.34-1.53-3.09-2.45-5-2.45-2.31,0-4.37,1.35-5.77,3.48-.73,1.12-1.29,2.45-1.6,3.91-.9-4.26-3.86-7.39-7.37-7.39-1.91,0-3.66,.93-5,2.45-2.36,2.69-3.22,6.84-2.33,10.32,1.32,5.23,6.4,8.74,10.31,13.98Z" style="fill: #db0f1a;"/>
          <path d="M44.27,117.09c1.3,1.74,2.47,3.67,3.33,5.92,.22,.56,.42,1.14,.59,1.75,.15,.5,.27,.73,.38,.74,.03,0,.07-.02,.1-.07,.03,.05,.06,.07,.1,.07,.34-.02,.65-1.61,.75-1.9,.84-2.35,2.07-4.52,3.54-6.5,3.91-5.25,8.99-8.75,10.31-13.98,.88-3.48,.03-7.63-2.33-10.32-1.34-1.53-3.09-2.45-5-2.45-2.31,0-4.37,1.35-5.77,3.48-.73,1.12-1.29,2.45-1.6,3.91-.9-4.26-3.86-7.39-7.37-7.39-1.91,0-3.66,.93-5,2.45-2.36,2.69-3.22,6.84-2.33,10.32,1.32,5.23,6.4,8.74,10.31,13.98Z" style="fill: #db0f1a;"/>
          <path d="M99.17,178.06c1.3,1.74,2.47,3.67,3.33,5.92,.22,.56,.42,1.14,.59,1.75,.15,.5,.27,.73,.38,.74,.03,0,.07-.02,.1-.07,.03,.05,.06,.07,.1,.07,.34-.02,.65-1.61,.75-1.9,.84-2.35,2.07-4.51,3.54-6.5,3.91-5.25,8.99-8.75,10.31-13.98,.88-3.48,.03-7.63-2.33-10.32-1.34-1.53-3.09-2.46-5-2.46-2.31,0-4.37,1.35-5.77,3.48-.73,1.12-1.29,2.45-1.6,3.91-.9-4.26-3.86-7.39-7.37-7.39-1.91,0-3.66,.93-5,2.46-2.36,2.69-3.22,6.84-2.33,10.32,1.32,5.23,6.4,8.73,10.31,13.98Z" style="fill: #db0f1a;"/>
          <path d="M71.83,144.52c1.3,1.74,2.47,3.67,3.33,5.92,.22,.56,.42,1.14,.59,1.75,.14,.5,.27,.73,.38,.74,.03,0,.07-.02,.1-.07,.03,.05,.06,.07,.1,.07,.34-.02,.65-1.61,.75-1.9,.84-2.35,2.07-4.51,3.54-6.5,3.91-5.25,8.99-8.75,10.31-13.98,.88-3.48,.03-7.63-2.33-10.32-1.34-1.53-3.09-2.45-5-2.45-2.31,0-4.37,1.35-5.77,3.48-.73,1.12-1.29,2.45-1.6,3.91-.9-4.26-3.86-7.39-7.37-7.39-1.91,0-3.66,.93-5,2.45-2.36,2.69-3.22,6.84-2.33,10.32,1.32,5.23,6.4,8.73,10.31,13.98Z" style="fill: #db0f1a;"/>
          <path d="M71.83,86.43c1.3,1.74,2.47,3.67,3.33,5.92,.22,.56,.42,1.14,.59,1.75,.14,.5,.27,.73,.38,.74,.03,0,.07-.02,.1-.07,.03,.05,.06,.07,.1,.07,.34-.02,.65-1.61,.75-1.9,.84-2.35,2.07-4.51,3.54-6.5,3.91-5.25,8.99-8.75,10.31-13.98,.88-3.48,.03-7.63-2.33-10.32-1.34-1.53-3.09-2.46-5-2.46-2.31,0-4.37,1.35-5.77,3.48-.73,1.12-1.29,2.45-1.6,3.91-.9-4.26-3.86-7.39-7.37-7.39-1.91,0-3.66,.93-5,2.46-2.36,2.69-3.22,6.84-2.33,10.32,1.32,5.23,6.4,8.73,10.31,13.98Z" style="fill: #db0f1a;"/>
          <g>
            <path d="M44.27,55.99c1.3,1.74,2.47,3.67,3.33,5.92,.22,.56,.42,1.14,.59,1.75,.15,.5,.27,.73,.38,.74,.03,0,.07-.02,.1-.07,.03,.05,.06,.07,.1,.07,.34-.02,.65-1.61,.75-1.9,.84-2.35,2.07-4.52,3.54-6.5,3.91-5.25,8.99-8.75,10.31-13.98,.88-3.48,.03-7.63-2.33-10.32-1.34-1.53-3.09-2.45-5-2.45-2.31,0-4.37,1.35-5.77,3.48-.73,1.12-1.29,2.45-1.6,3.91-.9-4.26-3.86-7.39-7.37-7.39-1.91,0-3.66,.93-5,2.45-2.36,2.69-3.22,6.84-2.33,10.32,1.32,5.23,6.4,8.74,10.31,13.98Z" style="fill: #db0f1a;"/>
            <path d="M44.27,178.06c1.3,1.74,2.47,3.67,3.33,5.92,.22,.56,.42,1.14,.59,1.75,.15,.5,.27,.73,.38,.74,.03,0,.07-.02,.1-.07,.03,.05,.06,.07,.1,.07,.34-.02,.65-1.61,.75-1.9,.84-2.35,2.07-4.51,3.54-6.5,3.91-5.25,8.99-8.75,10.31-13.98,.88-3.48,.03-7.63-2.33-10.32-1.34-1.53-3.09-2.46-5-2.46-2.31,0-4.37,1.35-5.77,3.48-.73,1.12-1.29,2.45-1.6,3.91-.9-4.26-3.86-7.39-7.37-7.39-1.91,0-3.66,.93-5,2.46-2.36,2.69-3.22,6.84-2.33,10.32,1.32,5.23,6.4,8.73,10.31,13.98Z" style="fill: #db0f1a;"/>
          </g>
        </g>
        <path d="M134.28,21.35c-1.73-1.42-2.85-2.56-3.35-3.42-.5-.86-.75-1.75-.75-2.68,0-1.42,.55-2.64,1.64-3.67,1.1-1.03,2.55-1.54,4.37-1.54s3.18,.48,4.26,1.43c1.08,.96,1.61,2.05,1.61,3.27,0,.82-.29,1.65-.87,2.5-.58,.85-1.79,1.85-3.63,3,1.89,1.46,3.14,2.61,3.76,3.45,.82,1.1,1.23,2.25,1.23,3.47,0,1.54-.59,2.85-1.76,3.94-1.17,1.09-2.71,1.64-4.61,1.64-2.08,0-3.69-.65-4.85-1.95-.92-1.04-1.39-2.18-1.39-3.42,0-.97,.33-1.93,.98-2.88,.65-.95,1.77-2,3.36-3.15Zm.76,.61c-.89,.75-1.55,1.57-1.98,2.46-.43,.89-.64,1.85-.64,2.88,0,1.39,.38,2.5,1.14,3.33s1.72,1.25,2.89,1.25,2.09-.33,2.79-.98c.7-.66,1.05-1.45,1.05-2.39,0-.77-.2-1.47-.61-2.08-.76-1.14-2.31-2.63-4.63-4.47Zm1.77-2.34c1.29-1.16,2.11-2.08,2.45-2.75,.34-.67,.52-1.43,.52-2.28,0-1.13-.32-2.01-.95-2.65-.63-.64-1.5-.96-2.6-.96s-1.99,.32-2.68,.95c-.69,.63-1.03,1.38-1.03,2.22,0,.56,.14,1.12,.43,1.68,.29,.56,.69,1.09,1.22,1.6l2.64,2.19Z" style="fill: #db0f1a;"/>
        <path d="M133.72,48.59c.5,.67,.95,1.41,1.28,2.28,.08,.22,.16,.44,.23,.67,.06,.19,.1,.28,.15,.28,.01,0,.03,0,.04-.03,.01,.02,.02,.03,.04,.03,.13,0,.25-.62,.29-.73,.32-.91,.8-1.74,1.37-2.5,1.51-2.02,3.46-3.37,3.97-5.39,.34-1.34,.01-2.94-.9-3.98-.52-.59-1.19-.95-1.93-.95-.89,0-1.68,.52-2.22,1.34-.28,.43-.5,.94-.62,1.51-.35-1.64-1.49-2.85-2.84-2.85-.74,0-1.41,.36-1.93,.95-.91,1.04-1.24,2.63-.9,3.98,.51,2.01,2.46,3.37,3.97,5.39Z" style="fill: #db0f1a;"/>
        <path d="M18.08,193.84c1.73,1.42,2.85,2.56,3.35,3.42,.5,.86,.75,1.75,.75,2.68,0,1.42-.55,2.64-1.64,3.67-1.1,1.03-2.55,1.54-4.37,1.54s-3.18-.48-4.26-1.44c-1.08-.96-1.61-2.05-1.61-3.27,0-.82,.29-1.65,.87-2.5,.58-.85,1.79-1.85,3.63-3-1.89-1.46-3.14-2.61-3.76-3.45-.82-1.1-1.23-2.25-1.23-3.47,0-1.54,.59-2.85,1.76-3.94,1.17-1.09,2.71-1.64,4.61-1.64,2.07,0,3.69,.65,4.85,1.95,.92,1.04,1.39,2.18,1.39,3.42,0,.97-.33,1.93-.98,2.88s-1.77,2-3.36,3.15Zm-.76-.61c.89-.75,1.55-1.57,1.98-2.46,.43-.89,.65-1.85,.65-2.88,0-1.39-.38-2.5-1.14-3.33-.76-.83-1.72-1.25-2.89-1.25s-2.09,.33-2.79,.98c-.7,.66-1.05,1.45-1.05,2.39,0,.78,.2,1.47,.61,2.08,.76,1.14,2.31,2.63,4.63,4.47Zm-1.77,2.34c-1.29,1.16-2.11,2.08-2.45,2.75-.34,.67-.52,1.43-.52,2.28,0,1.13,.32,2.01,.95,2.65,.63,.64,1.5,.96,2.6,.96s1.99-.32,2.68-.95c.69-.63,1.03-1.37,1.03-2.22,0-.56-.14-1.12-.43-1.68-.28-.56-.69-1.09-1.22-1.6l-2.64-2.19Z" style="fill: #db0f1a;"/>
        <path d="M18.63,166.61c-.5-.67-.95-1.41-1.28-2.28-.08-.22-.16-.44-.23-.67-.06-.19-.1-.28-.15-.28-.01,0-.03,0-.04,.03-.01-.02-.03-.03-.04-.03-.13,0-.25,.62-.29,.73-.32,.91-.8,1.74-1.37,2.5-1.51,2.02-3.46,3.37-3.97,5.39-.34,1.34-.01,2.94,.9,3.98,.52,.59,1.19,.95,1.93,.95,.89,0,1.68-.52,2.23-1.34,.28-.43,.5-.94,.62-1.51,.35,1.64,1.49,2.85,2.84,2.85,.74,0,1.41-.36,1.93-.95,.91-1.04,1.24-2.63,.9-3.98-.51-2.02-2.46-3.37-3.97-5.39Z" style="fill: #db0f1a;"/>
      </g>
    </g>
  </g>
</svg>