<?xml version="1.0" encoding="UTF-8"?>
<svg id="Playing_Cards" data-name="Playing Cards" xmlns="http://www.w3.org/2000/svg" viewBox="0 0 152.06 215.64">
  <g id="Cards">
    <g id="Diamonds">
      <g>
        <g>
          <g>
            <path d="M6.45,.01H145.43c.47,0,.95,.06,1.41,.17l.11,.03c.98,.25,1.88,.74,2.61,1.44l.04,.04c.48,.46,.87,1,1.17,1.59l.41,.83c.29,.58,.48,1.2,.56,1.84l.26,1.97c.03,.25,.05,.5,.05,.75V207.05c0,.26-.02,.52-.05,.78l-.25,1.86c-.08,.61-.26,1.2-.53,1.75l-.41,.85c-.32,.65-.75,1.24-1.28,1.73l-.05,.04c-.67,.62-1.48,1.07-2.36,1.32l-.2,.05c-.51,.14-1.04,.22-1.57,.22H6.54c-.53,0-1.06-.07-1.57-.22l-.14-.04c-.92-.26-1.76-.74-2.45-1.4h0c-.49-.48-.9-1.04-1.2-1.65l-.41-.84c-.29-.59-.47-1.23-.55-1.88l-.21-1.85c-.02-.22-.04-.43-.04-.65V8.6c0-.21,.01-.42,.03-.63l.21-1.96c.07-.68,.27-1.35,.58-1.97l.41-.82c.28-.56,.64-1.06,1.08-1.5h0C3.04,.98,3.97,.45,4.99,.2h.05C5.51,.07,5.98,.01,6.45,.01Z" style="fill: #fff; fill-rule: evenodd;"/>
            <g>
              <g>
                <path d="M14.58,51.41c.48,.7,.94,1.41,1.4,2.13,.22,.37,.45,.73,.67,1.1,0-.02,.02-.03,.03-.05,.61-1.01,1.27-2,1.92-2.99,.48-.68,.96-1.35,1.46-2.01,.25-.35,.51-.69,.76-1.04,.47-.57,.94-1.14,1.42-1.7,.06-.07,.13-.15,.2-.22-.29-.33-.57-.65-.85-.97-.27-.31-.55-.63-.82-.94-.25-.32-.51-.65-.76-.97-.5-.66-.99-1.33-1.46-2.01-.6-.94-1.2-1.89-1.78-2.84-.04-.06-.07-.12-.1-.17-.17,.31-.35,.63-.52,.94-.43,.67-.87,1.34-1.31,2.01-.49,.66-.98,1.32-1.46,1.98-.28,.34-.55,.67-.82,1-.29,.34-.57,.67-.85,1-.29,.32-.59,.65-.88,.97,.03,.04,.06,.07,.09,.11,.49,.58,.97,1.17,1.46,1.75,.26,.32,.53,.65,.79,.97,.47,.65,.95,1.3,1.43,1.95Z" style="fill: #db0f1a;"/>
                <path d="M14.58,51.41c.48,.7,.94,1.41,1.4,2.13,.22,.37,.45,.73,.67,1.1,0-.02,.02-.03,.03-.05,.61-1.01,1.27-2,1.92-2.99,.48-.68,.96-1.35,1.46-2.01,.25-.35,.51-.69,.76-1.04,.47-.57,.94-1.14,1.42-1.7,.06-.07,.13-.15,.2-.22-.29-.33-.57-.65-.85-.97-.27-.31-.55-.63-.82-.94-.25-.32-.51-.65-.76-.97-.5-.66-.99-1.33-1.46-2.01-.6-.94-1.2-1.89-1.78-2.84-.04-.06-.07-.12-.1-.17-.17,.31-.35,.63-.52,.94-.43,.67-.87,1.34-1.31,2.01-.49,.66-.98,1.32-1.46,1.98-.28,.34-.55,.67-.82,1-.29,.34-.57,.67-.85,1-.29,.32-.59,.65-.88,.97,.03,.04,.06,.07,.09,.11,.49,.58,.97,1.17,1.46,1.75,.26,.32,.53,.65,.79,.97,.47,.65,.95,1.3,1.43,1.95Z" style="fill: #db0f1a;"/>
                <path d="M14.58,51.41c.48,.7,.94,1.41,1.4,2.13,.22,.37,.45,.73,.67,1.1,0-.02,.02-.03,.03-.05,.61-1.01,1.27-2,1.92-2.99,.48-.68,.96-1.35,1.46-2.01,.25-.35,.51-.69,.76-1.04,.47-.57,.94-1.14,1.42-1.7,.06-.07,.13-.15,.2-.22-.29-.33-.57-.65-.85-.97-.27-.31-.55-.63-.82-.94-.25-.32-.51-.65-.76-.97-.5-.66-.99-1.33-1.46-2.01-.6-.94-1.2-1.89-1.78-2.84-.04-.06-.07-.12-.1-.17-.17,.31-.35,.63-.52,.94-.43,.67-.87,1.34-1.31,2.01-.49,.66-.98,1.32-1.46,1.98-.28,.34-.55,.67-.82,1-.29,.34-.57,.67-.85,1-.29,.32-.59,.65-.88,.97,.03,.04,.06,.07,.09,.11,.49,.58,.97,1.17,1.46,1.75,.26,.32,.53,.65,.79,.97,.47,.65,.95,1.3,1.43,1.95Z" style="fill: #db0f1a;"/>
              </g>
              <g>
                <path d="M137.44,164.26c-.48-.71-.94-1.41-1.4-2.13-.22-.37-.45-.73-.67-1.1,0,.02-.02,.03-.03,.05-.62,1.01-1.27,2-1.92,2.99-.48,.68-.96,1.35-1.46,2.01-.25,.35-.51,.69-.76,1.04-.46,.57-.94,1.14-1.42,1.7-.06,.07-.13,.15-.19,.22,.28,.33,.57,.65,.85,.97,.27,.31,.55,.63,.82,.94,.25,.32,.51,.65,.76,.97,.5,.66,.99,1.33,1.46,2.01,.6,.94,1.2,1.88,1.78,2.84,.04,.06,.07,.12,.11,.17,.17-.31,.35-.63,.52-.94,.43-.67,.87-1.34,1.31-2.01,.49-.66,.98-1.32,1.46-1.98,.27-.33,.55-.67,.82-1,.28-.33,.57-.67,.85-1,.29-.33,.59-.65,.88-.97-.03-.04-.06-.07-.09-.11-.49-.58-.98-1.17-1.46-1.75-.26-.33-.53-.65-.79-.97-.47-.66-.95-1.3-1.43-1.95Z" style="fill: #db0f1a;"/>
                <path d="M137.44,164.26c-.48-.71-.94-1.41-1.4-2.13-.22-.37-.45-.73-.67-1.1,0,.02-.02,.03-.03,.05-.62,1.01-1.27,2-1.92,2.99-.48,.68-.96,1.35-1.46,2.01-.25,.35-.51,.69-.76,1.04-.46,.57-.94,1.14-1.42,1.7-.06,.07-.13,.15-.19,.22,.28,.33,.57,.65,.85,.97,.27,.31,.55,.63,.82,.94,.25,.32,.51,.65,.76,.97,.5,.66,.99,1.33,1.46,2.01,.6,.94,1.2,1.88,1.78,2.84,.04,.06,.07,.12,.11,.17,.17-.31,.35-.63,.52-.94,.43-.67,.87-1.34,1.31-2.01,.49-.66,.98-1.32,1.46-1.98,.27-.33,.55-.67,.82-1,.28-.33,.57-.67,.85-1,.29-.33,.59-.65,.88-.97-.03-.04-.06-.07-.09-.11-.49-.58-.98-1.17-1.46-1.75-.26-.33-.53-.65-.79-.97-.47-.66-.95-1.3-1.43-1.95Z" style="fill: #db0f1a;"/>
                <path d="M137.44,164.26c-.48-.71-.94-1.41-1.4-2.13-.22-.37-.45-.73-.67-1.1,0,.02-.02,.03-.03,.05-.62,1.01-1.27,2-1.92,2.99-.48,.68-.96,1.35-1.46,2.01-.25,.35-.51,.69-.76,1.04-.46,.57-.94,1.14-1.42,1.7-.06,.07-.13,.15-.19,.22,.28,.33,.57,.65,.85,.97,.27,.31,.55,.63,.82,.94,.25,.32,.51,.65,.76,.97,.5,.66,.99,1.33,1.46,2.01,.6,.94,1.2,1.88,1.78,2.84,.04,.06,.07,.12,.11,.17,.17-.31,.35-.63,.52-.94,.43-.67,.87-1.34,1.31-2.01,.49-.66,.98-1.32,1.46-1.98,.27-.33,.55-.67,.82-1,.28-.33,.57-.67,.85-1,.29-.33,.59-.65,.88-.97-.03-.04-.06-.07-.09-.11-.49-.58-.98-1.17-1.46-1.75-.26-.33-.53-.65-.79-.97-.47-.66-.95-1.3-1.43-1.95Z" style="fill: #db0f1a;"/>
              </g>
            </g>
          </g>
          <path d="M10.07,31.9v-.6c1.4-.02,2.7-.35,3.9-.98,1.2-.63,2.37-1.73,3.49-3.3,1.12-1.57,1.91-3.29,2.35-5.18-1.69,1.09-3.21,1.63-4.58,1.63-1.54,0-2.85-.59-3.95-1.78-1.1-1.19-1.64-2.77-1.64-4.73s.55-3.62,1.64-5.11c1.32-1.82,3.05-2.72,5.18-2.72,1.8,0,3.33,.74,4.61,2.22,1.57,1.84,2.35,4.11,2.35,6.81,0,2.43-.6,4.7-1.79,6.8-1.19,2.1-2.85,3.85-4.98,5.23-1.73,1.14-3.62,1.71-5.66,1.71h-.92Zm10-11.24c.19-1.4,.29-2.52,.29-3.35,0-1.04-.18-2.17-.53-3.38-.35-1.21-.86-2.14-1.51-2.78-.65-.65-1.39-.97-2.22-.97-.96,0-1.8,.43-2.52,1.29-.72,.86-1.08,2.14-1.08,3.84,0,2.27,.48,4.04,1.43,5.32,.7,.92,1.56,1.39,2.58,1.39,.5,0,1.08-.12,1.76-.36,.68-.24,1.27-.57,1.79-1Z" style="fill: #db0f1a;"/>
          <path d="M140.62,182.58v.6c-1.4,.02-2.7,.35-3.9,.98-1.2,.63-2.37,1.73-3.49,3.3-1.12,1.57-1.91,3.29-2.35,5.18,1.69-1.09,3.21-1.63,4.58-1.63,1.54,0,2.85,.59,3.95,1.78,1.1,1.19,1.65,2.77,1.65,4.73s-.55,3.62-1.65,5.11c-1.32,1.82-3.05,2.73-5.18,2.73-1.8,0-3.33-.74-4.61-2.23-1.57-1.84-2.35-4.11-2.35-6.8,0-2.43,.6-4.7,1.79-6.8,1.19-2.1,2.85-3.85,4.98-5.23,1.73-1.14,3.62-1.71,5.66-1.71h.92Zm-10,11.24c-.19,1.4-.29,2.52-.29,3.35,0,1.04,.18,2.17,.53,3.38,.36,1.21,.86,2.14,1.51,2.78,.65,.64,1.39,.97,2.22,.97,.96,0,1.8-.43,2.52-1.29,.72-.86,1.08-2.14,1.08-3.84,0-2.27-.48-4.04-1.44-5.32-.7-.92-1.56-1.39-2.58-1.39-.49,0-1.08,.12-1.76,.35-.68,.24-1.27,.57-1.79,1Z" style="fill: #db0f1a;"/>
        </g>
        <g>
          <g>
            <g>
              <path d="M46.92,57.6c1.13,1.67,2.23,3.34,3.31,5.04,.53,.86,1.06,1.73,1.58,2.59,.03-.04,.05-.08,.07-.12,1.45-2.4,3.01-4.72,4.53-7.08,1.13-1.6,2.28-3.18,3.46-4.75,.6-.82,1.2-1.63,1.8-2.45,1.1-1.35,2.21-2.69,3.36-4.01,.15-.18,.31-.35,.46-.53-.67-.77-1.34-1.54-2.02-2.3-.65-.74-1.3-1.49-1.94-2.23-.6-.77-1.2-1.54-1.8-2.3-1.19-1.56-2.33-3.14-3.46-4.75-1.42-2.23-2.85-4.46-4.22-6.72-.08-.14-.17-.27-.25-.41-.41,.74-.82,1.49-1.22,2.23-1.01,1.6-2.05,3.18-3.1,4.75-1.16,1.55-2.31,3.11-3.45,4.68-.65,.79-1.3,1.58-1.95,2.38-.67,.79-1.34,1.58-2.02,2.38-.7,.77-1.39,1.54-2.09,2.3,.07,.08,.14,.17,.21,.25,1.15,1.38,2.31,2.76,3.46,4.14,.62,.77,1.25,1.54,1.87,2.3,1.11,1.55,2.24,3.08,3.38,4.61Z" style="fill: #db0f1a;"/>
              <path d="M46.92,57.6c1.13,1.67,2.23,3.34,3.31,5.04,.53,.86,1.06,1.73,1.58,2.59,.03-.04,.05-.08,.07-.12,1.45-2.4,3.01-4.72,4.53-7.08,1.13-1.6,2.28-3.18,3.46-4.75,.6-.82,1.2-1.63,1.8-2.45,1.1-1.35,2.21-2.69,3.36-4.01,.15-.18,.31-.35,.46-.53-.67-.77-1.34-1.54-2.02-2.3-.65-.74-1.3-1.49-1.94-2.23-.6-.77-1.2-1.54-1.8-2.3-1.19-1.56-2.33-3.14-3.46-4.75-1.42-2.23-2.85-4.46-4.22-6.72-.08-.14-.17-.27-.25-.41-.41,.74-.82,1.49-1.22,2.23-1.01,1.6-2.05,3.18-3.1,4.75-1.16,1.55-2.31,3.11-3.45,4.68-.65,.79-1.3,1.58-1.95,2.38-.67,.79-1.34,1.58-2.02,2.38-.7,.77-1.39,1.54-2.09,2.3,.07,.08,.14,.17,.21,.25,1.15,1.38,2.31,2.76,3.46,4.14,.62,.77,1.25,1.54,1.87,2.3,1.11,1.55,2.24,3.08,3.38,4.61Z" style="fill: #db0f1a;"/>
              <path d="M46.92,57.6c1.13,1.67,2.23,3.34,3.31,5.04,.53,.86,1.06,1.73,1.58,2.59,.03-.04,.05-.08,.07-.12,1.45-2.4,3.01-4.72,4.53-7.08,1.13-1.6,2.28-3.18,3.46-4.75,.6-.82,1.2-1.63,1.8-2.45,1.1-1.35,2.21-2.69,3.36-4.01,.15-.18,.31-.35,.46-.53-.67-.77-1.34-1.54-2.02-2.3-.65-.74-1.3-1.49-1.94-2.23-.6-.77-1.2-1.54-1.8-2.3-1.19-1.56-2.33-3.14-3.46-4.75-1.42-2.23-2.85-4.46-4.22-6.72-.08-.14-.17-.27-.25-.41-.41,.74-.82,1.49-1.22,2.23-1.01,1.6-2.05,3.18-3.1,4.75-1.16,1.55-2.31,3.11-3.45,4.68-.65,.79-1.3,1.58-1.95,2.38-.67,.79-1.34,1.58-2.02,2.38-.7,.77-1.39,1.54-2.09,2.3,.07,.08,.14,.17,.21,.25,1.15,1.38,2.31,2.76,3.46,4.14,.62,.77,1.25,1.54,1.87,2.3,1.11,1.55,2.24,3.08,3.38,4.61Z" style="fill: #db0f1a;"/>
            </g>
            <g>
              <path d="M46.92,181.27c1.13,1.67,2.23,3.34,3.31,5.04,.53,.86,1.06,1.73,1.58,2.59,.03-.04,.05-.08,.07-.12,1.45-2.4,3.01-4.72,4.53-7.08,1.13-1.6,2.28-3.18,3.46-4.75,.6-.82,1.2-1.63,1.8-2.45,1.1-1.35,2.21-2.69,3.36-4.01,.15-.17,.31-.35,.46-.53-.67-.77-1.34-1.54-2.02-2.3-.65-.74-1.3-1.49-1.94-2.23-.6-.77-1.2-1.54-1.8-2.3-1.19-1.56-2.33-3.14-3.46-4.75-1.42-2.23-2.85-4.46-4.22-6.72-.08-.14-.17-.27-.25-.41-.41,.74-.82,1.49-1.22,2.23-1.01,1.6-2.05,3.18-3.1,4.75-1.16,1.55-2.31,3.11-3.45,4.68-.65,.79-1.3,1.58-1.95,2.38-.67,.79-1.34,1.58-2.02,2.38-.7,.77-1.39,1.54-2.09,2.3,.07,.09,.14,.17,.21,.26,1.15,1.38,2.31,2.76,3.46,4.14,.62,.77,1.25,1.54,1.87,2.3,1.11,1.55,2.24,3.08,3.38,4.61Z" style="fill: #db0f1a;"/>
              <path d="M46.92,181.27c1.13,1.67,2.23,3.34,3.31,5.04,.53,.86,1.06,1.73,1.58,2.59,.03-.04,.05-.08,.07-.12,1.45-2.4,3.01-4.72,4.53-7.08,1.13-1.6,2.28-3.18,3.46-4.75,.6-.82,1.2-1.63,1.8-2.45,1.1-1.35,2.21-2.69,3.36-4.01,.15-.17,.31-.35,.46-.53-.67-.77-1.34-1.54-2.02-2.3-.65-.74-1.3-1.49-1.94-2.23-.6-.77-1.2-1.54-1.8-2.3-1.19-1.56-2.33-3.14-3.46-4.75-1.42-2.23-2.85-4.46-4.22-6.72-.08-.14-.17-.27-.25-.41-.41,.74-.82,1.49-1.22,2.23-1.01,1.6-2.05,3.18-3.1,4.75-1.16,1.55-2.31,3.11-3.45,4.68-.65,.79-1.3,1.58-1.95,2.38-.67,.79-1.34,1.58-2.02,2.38-.7,.77-1.39,1.54-2.09,2.3,.07,.09,.14,.17,.21,.26,1.15,1.38,2.31,2.76,3.46,4.14,.62,.77,1.25,1.54,1.87,2.3,1.11,1.55,2.24,3.08,3.38,4.61Z" style="fill: #db0f1a;"/>
              <path d="M46.92,181.27c1.13,1.67,2.23,3.34,3.31,5.04,.53,.86,1.06,1.73,1.58,2.59,.03-.04,.05-.08,.07-.12,1.45-2.4,3.01-4.72,4.53-7.08,1.13-1.6,2.28-3.18,3.46-4.75,.6-.82,1.2-1.63,1.8-2.45,1.1-1.35,2.21-2.69,3.36-4.01,.15-.17,.31-.35,.46-.53-.67-.77-1.34-1.54-2.02-2.3-.65-.74-1.3-1.49-1.94-2.23-.6-.77-1.2-1.54-1.8-2.3-1.19-1.56-2.33-3.14-3.46-4.75-1.42-2.23-2.85-4.46-4.22-6.72-.08-.14-.17-.27-.25-.41-.41,.74-.82,1.49-1.22,2.23-1.01,1.6-2.05,3.18-3.1,4.75-1.16,1.55-2.31,3.11-3.45,4.68-.65,.79-1.3,1.58-1.95,2.38-.67,.79-1.34,1.58-2.02,2.38-.7,.77-1.39,1.54-2.09,2.3,.07,.09,.14,.17,.21,.26,1.15,1.38,2.31,2.76,3.46,4.14,.62,.77,1.25,1.54,1.87,2.3,1.11,1.55,2.24,3.08,3.38,4.61Z" style="fill: #db0f1a;"/>
            </g>
            <g>
              <path d="M46.92,140.04c1.13,1.67,2.23,3.34,3.31,5.04,.53,.86,1.05,1.73,1.58,2.59,.03-.04,.05-.08,.07-.12,1.45-2.4,3.01-4.72,4.53-7.08,1.13-1.6,2.28-3.18,3.46-4.75,.6-.82,1.2-1.63,1.8-2.45,1.1-1.36,2.21-2.69,3.36-4.01,.15-.18,.31-.35,.46-.53-.67-.77-1.34-1.54-2.02-2.3-.65-.74-1.3-1.49-1.95-2.23-.6-.77-1.2-1.54-1.8-2.3-1.19-1.56-2.33-3.14-3.46-4.75-1.42-2.23-2.85-4.46-4.22-6.72-.08-.13-.16-.27-.25-.41-.41,.74-.82,1.49-1.22,2.23-1.02,1.6-2.05,3.18-3.1,4.75-1.16,1.55-2.31,3.11-3.46,4.68-.65,.79-1.29,1.58-1.94,2.38-.67,.79-1.34,1.58-2.02,2.38-.7,.77-1.39,1.54-2.09,2.3,.07,.08,.14,.17,.21,.25,1.16,1.38,2.31,2.76,3.46,4.14,.62,.77,1.25,1.54,1.87,2.3,1.11,1.55,2.24,3.08,3.38,4.61Z" style="fill: #db0f1a;"/>
              <path d="M46.92,140.04c1.13,1.67,2.23,3.34,3.31,5.04,.53,.86,1.05,1.73,1.58,2.59,.03-.04,.05-.08,.07-.12,1.45-2.4,3.01-4.72,4.53-7.08,1.13-1.6,2.28-3.18,3.46-4.75,.6-.82,1.2-1.63,1.8-2.45,1.1-1.36,2.21-2.69,3.36-4.01,.15-.18,.31-.35,.46-.53-.67-.77-1.34-1.54-2.02-2.3-.65-.74-1.3-1.49-1.95-2.23-.6-.77-1.2-1.54-1.8-2.3-1.19-1.56-2.33-3.14-3.46-4.75-1.42-2.23-2.85-4.46-4.22-6.72-.08-.13-.16-.27-.25-.41-.41,.74-.82,1.49-1.22,2.23-1.02,1.6-2.05,3.18-3.1,4.75-1.16,1.55-2.31,3.11-3.46,4.68-.65,.79-1.29,1.58-1.94,2.38-.67,.79-1.34,1.58-2.02,2.38-.7,.77-1.39,1.54-2.09,2.3,.07,.08,.14,.17,.21,.25,1.16,1.38,2.31,2.76,3.46,4.14,.62,.77,1.25,1.54,1.87,2.3,1.11,1.55,2.24,3.08,3.38,4.61Z" style="fill: #db0f1a;"/>
              <path d="M46.92,140.04c1.13,1.67,2.23,3.34,3.31,5.04,.53,.86,1.05,1.73,1.58,2.59,.03-.04,.05-.08,.07-.12,1.45-2.4,3.01-4.72,4.53-7.08,1.13-1.6,2.28-3.18,3.46-4.75,.6-.82,1.2-1.63,1.8-2.45,1.1-1.36,2.21-2.69,3.36-4.01,.15-.18,.31-.35,.46-.53-.67-.77-1.34-1.54-2.02-2.3-.65-.74-1.3-1.49-1.95-2.23-.6-.77-1.2-1.54-1.8-2.3-1.19-1.56-2.33-3.14-3.46-4.75-1.42-2.23-2.85-4.46-4.22-6.72-.08-.13-.16-.27-.25-.41-.41,.74-.82,1.49-1.22,2.23-1.02,1.6-2.05,3.18-3.1,4.75-1.16,1.55-2.31,3.11-3.46,4.68-.65,.79-1.29,1.58-1.94,2.38-.67,.79-1.34,1.58-2.02,2.38-.7,.77-1.39,1.54-2.09,2.3,.07,.08,.14,.17,.21,.25,1.16,1.38,2.31,2.76,3.46,4.14,.62,.77,1.25,1.54,1.87,2.3,1.11,1.55,2.24,3.08,3.38,4.61Z" style="fill: #db0f1a;"/>
            </g>
            <g>
              <path d="M46.92,98.82c1.13,1.67,2.23,3.34,3.31,5.04,.53,.86,1.05,1.73,1.58,2.59,.03-.04,.05-.08,.07-.12,1.45-2.4,3.01-4.72,4.53-7.08,1.13-1.6,2.28-3.18,3.46-4.75,.6-.82,1.2-1.63,1.8-2.45,1.1-1.35,2.21-2.69,3.36-4.01,.15-.17,.31-.35,.46-.53-.67-.77-1.34-1.54-2.02-2.3-.65-.74-1.3-1.49-1.95-2.23-.6-.77-1.2-1.54-1.8-2.3-1.19-1.56-2.33-3.14-3.46-4.75-1.42-2.23-2.85-4.46-4.22-6.72-.08-.14-.16-.27-.25-.41-.41,.74-.82,1.49-1.22,2.23-1.02,1.6-2.05,3.18-3.1,4.75-1.16,1.55-2.31,3.11-3.46,4.68-.65,.79-1.29,1.58-1.94,2.38-.67,.79-1.34,1.58-2.02,2.38-.7,.77-1.39,1.54-2.09,2.3,.07,.09,.14,.17,.21,.25,1.16,1.38,2.31,2.76,3.46,4.14,.62,.77,1.25,1.54,1.87,2.3,1.11,1.55,2.24,3.08,3.38,4.61Z" style="fill: #db0f1a;"/>
              <path d="M46.92,98.82c1.13,1.67,2.23,3.34,3.31,5.04,.53,.86,1.05,1.73,1.58,2.59,.03-.04,.05-.08,.07-.12,1.45-2.4,3.01-4.72,4.53-7.08,1.13-1.6,2.28-3.18,3.46-4.75,.6-.82,1.2-1.63,1.8-2.45,1.1-1.35,2.21-2.69,3.36-4.01,.15-.17,.31-.35,.46-.53-.67-.77-1.34-1.54-2.02-2.3-.65-.74-1.3-1.49-1.95-2.23-.6-.77-1.2-1.54-1.8-2.3-1.19-1.56-2.33-3.14-3.46-4.75-1.42-2.23-2.85-4.46-4.22-6.72-.08-.14-.16-.27-.25-.41-.41,.74-.82,1.49-1.22,2.23-1.02,1.6-2.05,3.18-3.1,4.75-1.16,1.55-2.31,3.11-3.46,4.68-.65,.79-1.29,1.58-1.94,2.38-.67,.79-1.34,1.58-2.02,2.38-.7,.77-1.39,1.54-2.09,2.3,.07,.09,.14,.17,.21,.25,1.16,1.38,2.31,2.76,3.46,4.14,.62,.77,1.25,1.54,1.87,2.3,1.11,1.55,2.24,3.08,3.38,4.61Z" style="fill: #db0f1a;"/>
              <path d="M46.92,98.82c1.13,1.67,2.23,3.34,3.31,5.04,.53,.86,1.05,1.73,1.58,2.59,.03-.04,.05-.08,.07-.12,1.45-2.4,3.01-4.72,4.53-7.08,1.13-1.6,2.28-3.18,3.46-4.75,.6-.82,1.2-1.63,1.8-2.45,1.1-1.35,2.21-2.69,3.36-4.01,.15-.17,.31-.35,.46-.53-.67-.77-1.34-1.54-2.02-2.3-.65-.74-1.3-1.49-1.95-2.23-.6-.77-1.2-1.54-1.8-2.3-1.19-1.56-2.33-3.14-3.46-4.75-1.42-2.23-2.85-4.46-4.22-6.72-.08-.14-.16-.27-.25-.41-.41,.74-.82,1.49-1.22,2.23-1.02,1.6-2.05,3.18-3.1,4.75-1.16,1.55-2.31,3.11-3.46,4.68-.65,.79-1.29,1.58-1.94,2.38-.67,.79-1.34,1.58-2.02,2.38-.7,.77-1.39,1.54-2.09,2.3,.07,.09,.14,.17,.21,.25,1.16,1.38,2.31,2.76,3.46,4.14,.62,.77,1.25,1.54,1.87,2.3,1.11,1.55,2.24,3.08,3.38,4.61Z" style="fill: #db0f1a;"/>
            </g>
          </g>
          <g>
            <g>
              <path d="M102.25,57.6c1.13,1.67,2.23,3.34,3.31,5.04,.53,.86,1.06,1.73,1.58,2.59,.03-.04,.05-.08,.07-.12,1.45-2.4,3.01-4.72,4.53-7.08,1.13-1.6,2.28-3.18,3.46-4.75,.6-.82,1.2-1.63,1.8-2.45,1.1-1.35,2.21-2.69,3.36-4.01,.15-.18,.31-.35,.46-.53-.67-.77-1.34-1.54-2.02-2.3-.65-.74-1.3-1.49-1.94-2.23-.6-.77-1.2-1.54-1.8-2.3-1.19-1.56-2.33-3.14-3.45-4.75-1.42-2.23-2.85-4.46-4.22-6.72-.08-.14-.17-.27-.25-.41-.41,.74-.82,1.49-1.22,2.23-1.01,1.6-2.05,3.18-3.1,4.75-1.16,1.55-2.31,3.11-3.46,4.68-.65,.79-1.3,1.58-1.95,2.38-.67,.79-1.34,1.58-2.02,2.38-.7,.77-1.39,1.54-2.09,2.3,.07,.08,.14,.17,.21,.25,1.15,1.38,2.31,2.76,3.46,4.14,.62,.77,1.25,1.54,1.87,2.3,1.11,1.55,2.24,3.08,3.38,4.61Z" style="fill: #db0f1a;"/>
              <path d="M102.25,57.6c1.13,1.67,2.23,3.34,3.31,5.04,.53,.86,1.06,1.73,1.58,2.59,.03-.04,.05-.08,.07-.12,1.45-2.4,3.01-4.72,4.53-7.08,1.13-1.6,2.28-3.18,3.46-4.75,.6-.82,1.2-1.63,1.8-2.45,1.1-1.35,2.21-2.69,3.36-4.01,.15-.18,.31-.35,.46-.53-.67-.77-1.34-1.54-2.02-2.3-.65-.74-1.3-1.49-1.94-2.23-.6-.77-1.2-1.54-1.8-2.3-1.19-1.56-2.33-3.14-3.45-4.75-1.42-2.23-2.85-4.46-4.22-6.72-.08-.14-.17-.27-.25-.41-.41,.74-.82,1.49-1.22,2.23-1.01,1.6-2.05,3.18-3.1,4.75-1.16,1.55-2.31,3.11-3.46,4.68-.65,.79-1.3,1.58-1.95,2.38-.67,.79-1.34,1.58-2.02,2.38-.7,.77-1.39,1.54-2.09,2.3,.07,.08,.14,.17,.21,.25,1.15,1.38,2.31,2.76,3.46,4.14,.62,.77,1.25,1.54,1.87,2.3,1.11,1.55,2.24,3.08,3.38,4.61Z" style="fill: #db0f1a;"/>
              <path d="M102.25,57.6c1.13,1.67,2.23,3.34,3.31,5.04,.53,.86,1.06,1.73,1.58,2.59,.03-.04,.05-.08,.07-.12,1.45-2.4,3.01-4.72,4.53-7.08,1.13-1.6,2.28-3.18,3.46-4.75,.6-.82,1.2-1.63,1.8-2.45,1.1-1.35,2.21-2.69,3.36-4.01,.15-.18,.31-.35,.46-.53-.67-.77-1.34-1.54-2.02-2.3-.65-.74-1.3-1.49-1.94-2.23-.6-.77-1.2-1.54-1.8-2.3-1.19-1.56-2.33-3.14-3.45-4.75-1.42-2.23-2.85-4.46-4.22-6.72-.08-.14-.17-.27-.25-.41-.41,.74-.82,1.49-1.22,2.23-1.01,1.6-2.05,3.18-3.1,4.75-1.16,1.55-2.31,3.11-3.46,4.68-.65,.79-1.3,1.58-1.95,2.38-.67,.79-1.34,1.58-2.02,2.38-.7,.77-1.39,1.54-2.09,2.3,.07,.08,.14,.17,.21,.25,1.15,1.38,2.31,2.76,3.46,4.14,.62,.77,1.25,1.54,1.87,2.3,1.11,1.55,2.24,3.08,3.38,4.61Z" style="fill: #db0f1a;"/>
            </g>
            <g>
              <path d="M102.25,181.27c1.13,1.67,2.23,3.34,3.31,5.04,.53,.86,1.06,1.73,1.58,2.59,.03-.04,.05-.08,.07-.12,1.45-2.4,3.01-4.72,4.53-7.08,1.13-1.6,2.28-3.18,3.46-4.75,.6-.82,1.2-1.63,1.8-2.45,1.1-1.35,2.21-2.69,3.36-4.01,.15-.17,.31-.35,.46-.53-.67-.77-1.34-1.54-2.02-2.3-.65-.74-1.3-1.49-1.94-2.23-.6-.77-1.2-1.54-1.8-2.3-1.19-1.56-2.33-3.14-3.45-4.75-1.42-2.23-2.85-4.46-4.22-6.72-.08-.14-.17-.27-.25-.41-.41,.74-.82,1.49-1.22,2.23-1.01,1.6-2.05,3.18-3.1,4.75-1.16,1.55-2.31,3.11-3.46,4.68-.65,.79-1.3,1.58-1.95,2.38-.67,.79-1.34,1.58-2.02,2.38-.7,.77-1.39,1.54-2.09,2.3,.07,.09,.14,.17,.21,.26,1.15,1.38,2.31,2.76,3.46,4.14,.62,.77,1.25,1.54,1.87,2.3,1.11,1.55,2.24,3.08,3.38,4.61Z" style="fill: #db0f1a;"/>
              <path d="M102.25,181.27c1.13,1.67,2.23,3.34,3.31,5.04,.53,.86,1.06,1.73,1.58,2.59,.03-.04,.05-.08,.07-.12,1.45-2.4,3.01-4.72,4.53-7.08,1.13-1.6,2.28-3.18,3.46-4.75,.6-.82,1.2-1.63,1.8-2.45,1.1-1.35,2.21-2.69,3.36-4.01,.15-.17,.31-.35,.46-.53-.67-.77-1.34-1.54-2.02-2.3-.65-.74-1.3-1.49-1.94-2.23-.6-.77-1.2-1.54-1.8-2.3-1.19-1.56-2.33-3.14-3.45-4.75-1.42-2.23-2.85-4.46-4.22-6.72-.08-.14-.17-.27-.25-.41-.41,.74-.82,1.49-1.22,2.23-1.01,1.6-2.05,3.18-3.1,4.75-1.16,1.55-2.31,3.11-3.46,4.68-.65,.79-1.3,1.58-1.95,2.38-.67,.79-1.34,1.58-2.02,2.38-.7,.77-1.39,1.54-2.09,2.3,.07,.09,.14,.17,.21,.26,1.15,1.38,2.31,2.76,3.46,4.14,.62,.77,1.25,1.54,1.87,2.3,1.11,1.55,2.24,3.08,3.38,4.61Z" style="fill: #db0f1a;"/>
              <path d="M102.25,181.27c1.13,1.67,2.23,3.34,3.31,5.04,.53,.86,1.06,1.73,1.58,2.59,.03-.04,.05-.08,.07-.12,1.45-2.4,3.01-4.72,4.53-7.08,1.13-1.6,2.28-3.18,3.46-4.75,.6-.82,1.2-1.63,1.8-2.45,1.1-1.35,2.21-2.69,3.36-4.01,.15-.17,.31-.35,.46-.53-.67-.77-1.34-1.54-2.02-2.3-.65-.74-1.3-1.49-1.94-2.23-.6-.77-1.2-1.54-1.8-2.3-1.19-1.56-2.33-3.14-3.45-4.75-1.42-2.23-2.85-4.46-4.22-6.72-.08-.14-.17-.27-.25-.41-.41,.74-.82,1.49-1.22,2.23-1.01,1.6-2.05,3.18-3.1,4.75-1.16,1.55-2.31,3.11-3.46,4.68-.65,.79-1.3,1.58-1.95,2.38-.67,.79-1.34,1.58-2.02,2.38-.7,.77-1.39,1.54-2.09,2.3,.07,.09,.14,.17,.21,.26,1.15,1.38,2.31,2.76,3.46,4.14,.62,.77,1.25,1.54,1.87,2.3,1.11,1.55,2.24,3.08,3.38,4.61Z" style="fill: #db0f1a;"/>
            </g>
            <g>
              <path d="M74.92,119.93c1.13,1.67,2.23,3.34,3.31,5.04,.53,.86,1.06,1.73,1.58,2.59,.03-.04,.05-.08,.08-.12,1.45-2.4,3.01-4.72,4.53-7.08,1.13-1.6,2.28-3.18,3.46-4.75,.6-.82,1.2-1.63,1.8-2.45,1.1-1.36,2.21-2.69,3.36-4.01,.15-.18,.3-.35,.46-.53-.67-.77-1.34-1.54-2.02-2.3-.65-.74-1.29-1.49-1.94-2.23-.6-.77-1.2-1.54-1.8-2.3-1.19-1.56-2.33-3.14-3.46-4.75-1.42-2.23-2.85-4.46-4.22-6.72-.08-.13-.16-.27-.25-.41-.41,.74-.81,1.49-1.22,2.23-1.02,1.6-2.05,3.18-3.1,4.75-1.16,1.55-2.31,3.11-3.45,4.68-.65,.79-1.3,1.58-1.94,2.37-.67,.79-1.35,1.58-2.02,2.38-.7,.77-1.39,1.54-2.09,2.3,.07,.08,.14,.17,.21,.25,1.15,1.38,2.31,2.76,3.46,4.14,.62,.77,1.25,1.54,1.87,2.3,1.11,1.55,2.24,3.08,3.38,4.61Z" style="fill: #db0f1a;"/>
              <path d="M74.92,119.93c1.13,1.67,2.23,3.34,3.31,5.04,.53,.86,1.06,1.73,1.58,2.59,.03-.04,.05-.08,.08-.12,1.45-2.4,3.01-4.72,4.53-7.08,1.13-1.6,2.28-3.18,3.46-4.75,.6-.82,1.2-1.63,1.8-2.45,1.1-1.36,2.21-2.69,3.36-4.01,.15-.18,.3-.35,.46-.53-.67-.77-1.34-1.54-2.02-2.3-.65-.74-1.29-1.49-1.94-2.23-.6-.77-1.2-1.54-1.8-2.3-1.19-1.56-2.33-3.14-3.46-4.75-1.42-2.23-2.85-4.46-4.22-6.72-.08-.13-.16-.27-.25-.41-.41,.74-.81,1.49-1.22,2.23-1.02,1.6-2.05,3.18-3.1,4.75-1.16,1.55-2.31,3.11-3.45,4.68-.65,.79-1.3,1.58-1.94,2.37-.67,.79-1.35,1.58-2.02,2.38-.7,.77-1.39,1.54-2.09,2.3,.07,.08,.14,.17,.21,.25,1.15,1.38,2.31,2.76,3.46,4.14,.62,.77,1.25,1.54,1.87,2.3,1.11,1.55,2.24,3.08,3.38,4.61Z" style="fill: #db0f1a;"/>
              <path d="M74.92,119.93c1.13,1.67,2.23,3.34,3.31,5.04,.53,.86,1.06,1.73,1.58,2.59,.03-.04,.05-.08,.08-.12,1.45-2.4,3.01-4.72,4.53-7.08,1.13-1.6,2.28-3.18,3.46-4.75,.6-.82,1.2-1.63,1.8-2.45,1.1-1.36,2.21-2.69,3.36-4.01,.15-.18,.3-.35,.46-.53-.67-.77-1.34-1.54-2.02-2.3-.65-.74-1.29-1.49-1.94-2.23-.6-.77-1.2-1.54-1.8-2.3-1.19-1.56-2.33-3.14-3.46-4.75-1.42-2.23-2.85-4.46-4.22-6.72-.08-.13-.16-.27-.25-.41-.41,.74-.81,1.49-1.22,2.23-1.02,1.6-2.05,3.18-3.1,4.75-1.16,1.55-2.31,3.11-3.45,4.68-.65,.79-1.3,1.58-1.94,2.37-.67,.79-1.35,1.58-2.02,2.38-.7,.77-1.39,1.54-2.09,2.3,.07,.08,.14,.17,.21,.25,1.15,1.38,2.31,2.76,3.46,4.14,.62,.77,1.25,1.54,1.87,2.3,1.11,1.55,2.24,3.08,3.38,4.61Z" style="fill: #db0f1a;"/>
            </g>
            <g>
              <path d="M102.25,140.04c1.13,1.67,2.23,3.34,3.31,5.04,.53,.86,1.05,1.73,1.58,2.59,.03-.04,.05-.08,.07-.12,1.45-2.4,3.01-4.72,4.53-7.08,1.13-1.6,2.28-3.18,3.46-4.75,.6-.82,1.2-1.63,1.8-2.45,1.1-1.36,2.21-2.69,3.36-4.01,.15-.18,.31-.35,.46-.53-.67-.77-1.34-1.54-2.02-2.3-.65-.74-1.3-1.49-1.95-2.23-.6-.77-1.2-1.54-1.8-2.3-1.19-1.56-2.33-3.14-3.46-4.75-1.42-2.23-2.85-4.46-4.22-6.72-.08-.13-.16-.27-.25-.41-.41,.74-.82,1.49-1.22,2.23-1.02,1.6-2.05,3.18-3.1,4.75-1.16,1.55-2.31,3.11-3.46,4.68-.65,.79-1.29,1.58-1.94,2.38-.67,.79-1.34,1.58-2.02,2.38-.7,.77-1.39,1.54-2.09,2.3,.07,.08,.14,.17,.21,.25,1.16,1.38,2.31,2.76,3.46,4.14,.62,.77,1.25,1.54,1.87,2.3,1.11,1.55,2.24,3.08,3.38,4.61Z" style="fill: #db0f1a;"/>
              <path d="M102.25,140.04c1.13,1.67,2.23,3.34,3.31,5.04,.53,.86,1.05,1.73,1.58,2.59,.03-.04,.05-.08,.07-.12,1.45-2.4,3.01-4.72,4.53-7.08,1.13-1.6,2.28-3.18,3.46-4.75,.6-.82,1.2-1.63,1.8-2.45,1.1-1.36,2.21-2.69,3.36-4.01,.15-.18,.31-.35,.46-.53-.67-.77-1.34-1.54-2.02-2.3-.65-.74-1.3-1.49-1.95-2.23-.6-.77-1.2-1.54-1.8-2.3-1.19-1.56-2.33-3.14-3.46-4.75-1.42-2.23-2.85-4.46-4.22-6.72-.08-.13-.16-.27-.25-.41-.41,.74-.82,1.49-1.22,2.23-1.02,1.6-2.05,3.18-3.1,4.75-1.16,1.55-2.31,3.11-3.46,4.68-.65,.79-1.29,1.58-1.94,2.38-.67,.79-1.34,1.58-2.02,2.38-.7,.77-1.39,1.54-2.09,2.3,.07,.08,.14,.17,.21,.25,1.16,1.38,2.31,2.76,3.46,4.14,.62,.77,1.25,1.54,1.87,2.3,1.11,1.55,2.24,3.08,3.38,4.61Z" style="fill: #db0f1a;"/>
              <path d="M102.25,140.04c1.13,1.67,2.23,3.34,3.31,5.04,.53,.86,1.05,1.73,1.58,2.59,.03-.04,.05-.08,.07-.12,1.45-2.4,3.01-4.72,4.53-7.08,1.13-1.6,2.28-3.18,3.46-4.75,.6-.82,1.2-1.63,1.8-2.45,1.1-1.36,2.21-2.69,3.36-4.01,.15-.18,.31-.35,.46-.53-.67-.77-1.34-1.54-2.02-2.3-.65-.74-1.3-1.49-1.95-2.23-.6-.77-1.2-1.54-1.8-2.3-1.19-1.56-2.33-3.14-3.46-4.75-1.42-2.23-2.85-4.46-4.22-6.72-.08-.13-.16-.27-.25-.41-.41,.74-.82,1.49-1.22,2.23-1.02,1.6-2.05,3.18-3.1,4.75-1.16,1.55-2.31,3.11-3.46,4.68-.65,.79-1.29,1.58-1.94,2.38-.67,.79-1.34,1.58-2.02,2.38-.7,.77-1.39,1.54-2.09,2.3,.07,.08,.14,.17,.21,.25,1.16,1.38,2.31,2.76,3.46,4.14,.62,.77,1.25,1.54,1.87,2.3,1.11,1.55,2.24,3.08,3.38,4.61Z" style="fill: #db0f1a;"/>
            </g>
            <g>
              <path d="M102.25,98.82c1.13,1.67,2.23,3.34,3.31,5.04,.53,.86,1.05,1.73,1.58,2.59,.03-.04,.05-.08,.07-.12,1.45-2.4,3.01-4.72,4.53-7.08,1.13-1.6,2.28-3.18,3.46-4.75,.6-.82,1.2-1.63,1.8-2.45,1.1-1.35,2.21-2.69,3.36-4.01,.15-.17,.31-.35,.46-.53-.67-.77-1.34-1.54-2.02-2.3-.65-.74-1.3-1.49-1.95-2.23-.6-.77-1.2-1.54-1.8-2.3-1.19-1.56-2.33-3.14-3.46-4.75-1.42-2.23-2.85-4.46-4.22-6.72-.08-.14-.16-.27-.25-.41-.41,.74-.82,1.49-1.22,2.23-1.02,1.6-2.05,3.18-3.1,4.75-1.16,1.55-2.31,3.11-3.46,4.68-.65,.79-1.29,1.58-1.94,2.38-.67,.79-1.34,1.58-2.02,2.38-.7,.77-1.39,1.54-2.09,2.3,.07,.09,.14,.17,.21,.25,1.16,1.38,2.31,2.76,3.46,4.14,.62,.77,1.25,1.54,1.87,2.3,1.11,1.55,2.24,3.08,3.38,4.61Z" style="fill: #db0f1a;"/>
              <path d="M102.25,98.82c1.13,1.67,2.23,3.34,3.31,5.04,.53,.86,1.05,1.73,1.58,2.59,.03-.04,.05-.08,.07-.12,1.45-2.4,3.01-4.72,4.53-7.08,1.13-1.6,2.28-3.18,3.46-4.75,.6-.82,1.2-1.63,1.8-2.45,1.1-1.35,2.21-2.69,3.36-4.01,.15-.17,.31-.35,.46-.53-.67-.77-1.34-1.54-2.02-2.3-.65-.74-1.3-1.49-1.95-2.23-.6-.77-1.2-1.54-1.8-2.3-1.19-1.56-2.33-3.14-3.46-4.75-1.42-2.23-2.85-4.46-4.22-6.72-.08-.14-.16-.27-.25-.41-.41,.74-.82,1.49-1.22,2.23-1.02,1.6-2.05,3.18-3.1,4.75-1.16,1.55-2.31,3.11-3.46,4.68-.65,.79-1.29,1.58-1.94,2.38-.67,.79-1.34,1.58-2.02,2.38-.7,.77-1.39,1.54-2.09,2.3,.07,.09,.14,.17,.21,.25,1.16,1.38,2.31,2.76,3.46,4.14,.62,.77,1.25,1.54,1.87,2.3,1.11,1.55,2.24,3.08,3.38,4.61Z" style="fill: #db0f1a;"/>
              <path d="M102.25,98.82c1.13,1.67,2.23,3.34,3.31,5.04,.53,.86,1.05,1.73,1.58,2.59,.03-.04,.05-.08,.07-.12,1.45-2.4,3.01-4.72,4.53-7.08,1.13-1.6,2.28-3.18,3.46-4.75,.6-.82,1.2-1.63,1.8-2.45,1.1-1.35,2.21-2.69,3.36-4.01,.15-.17,.31-.35,.46-.53-.67-.77-1.34-1.54-2.02-2.3-.65-.74-1.3-1.49-1.95-2.23-.6-.77-1.2-1.54-1.8-2.3-1.19-1.56-2.33-3.14-3.46-4.75-1.42-2.23-2.85-4.46-4.22-6.72-.08-.14-.16-.27-.25-.41-.41,.74-.82,1.49-1.22,2.23-1.02,1.6-2.05,3.18-3.1,4.75-1.16,1.55-2.31,3.11-3.46,4.68-.65,.79-1.29,1.58-1.94,2.38-.67,.79-1.34,1.58-2.02,2.38-.7,.77-1.39,1.54-2.09,2.3,.07,.09,.14,.17,.21,.25,1.16,1.38,2.31,2.76,3.46,4.14,.62,.77,1.25,1.54,1.87,2.3,1.11,1.55,2.24,3.08,3.38,4.61Z" style="fill: #db0f1a;"/>
            </g>
          </g>
        </g>
        <g>
          <path d="M133.42,51.72c.48,.7,.94,1.41,1.4,2.13,.22,.37,.45,.73,.67,1.1,0-.02,.02-.03,.03-.05,.61-1.01,1.27-2,1.92-2.99,.48-.68,.96-1.35,1.46-2.01,.25-.35,.51-.69,.76-1.04,.47-.57,.94-1.14,1.42-1.7,.06-.07,.13-.15,.2-.22-.29-.33-.57-.65-.85-.97-.27-.31-.55-.63-.82-.94-.25-.32-.51-.65-.76-.97-.5-.66-.99-1.33-1.46-2.01-.6-.94-1.2-1.89-1.78-2.84-.04-.06-.07-.12-.1-.17-.17,.31-.35,.63-.52,.94-.43,.67-.87,1.34-1.31,2.01-.49,.66-.98,1.32-1.46,1.98-.28,.34-.55,.67-.82,1-.29,.34-.57,.67-.85,1-.29,.32-.59,.65-.88,.97,.03,.04,.06,.07,.09,.11,.49,.58,.97,1.17,1.46,1.75,.26,.32,.53,.65,.79,.97,.47,.65,.95,1.3,1.43,1.95Z" style="fill: #db0f1a;"/>
          <path d="M133.42,51.72c.48,.7,.94,1.41,1.4,2.13,.22,.37,.45,.73,.67,1.1,0-.02,.02-.03,.03-.05,.61-1.01,1.27-2,1.92-2.99,.48-.68,.96-1.35,1.46-2.01,.25-.35,.51-.69,.76-1.04,.47-.57,.94-1.14,1.42-1.7,.06-.07,.13-.15,.2-.22-.29-.33-.57-.65-.85-.97-.27-.31-.55-.63-.82-.94-.25-.32-.51-.65-.76-.97-.5-.66-.99-1.33-1.46-2.01-.6-.94-1.2-1.89-1.78-2.84-.04-.06-.07-.12-.1-.17-.17,.31-.35,.63-.52,.94-.43,.67-.87,1.34-1.31,2.01-.49,.66-.98,1.32-1.46,1.98-.28,.34-.55,.67-.82,1-.29,.34-.57,.67-.85,1-.29,.32-.59,.65-.88,.97,.03,.04,.06,.07,.09,.11,.49,.58,.97,1.17,1.46,1.75,.26,.32,.53,.65,.79,.97,.47,.65,.95,1.3,1.43,1.95Z" style="fill: #db0f1a;"/>
          <path d="M133.42,51.72c.48,.7,.94,1.41,1.4,2.13,.22,.37,.45,.73,.67,1.1,0-.02,.02-.03,.03-.05,.61-1.01,1.27-2,1.92-2.99,.48-.68,.96-1.35,1.46-2.01,.25-.35,.51-.69,.76-1.04,.47-.57,.94-1.14,1.42-1.7,.06-.07,.13-.15,.2-.22-.29-.33-.57-.65-.85-.97-.27-.31-.55-.63-.82-.94-.25-.32-.51-.65-.76-.97-.5-.66-.99-1.33-1.46-2.01-.6-.94-1.2-1.89-1.78-2.84-.04-.06-.07-.12-.1-.17-.17,.31-.35,.63-.52,.94-.43,.67-.87,1.34-1.31,2.01-.49,.66-.98,1.32-1.46,1.98-.28,.34-.55,.67-.82,1-.29,.34-.57,.67-.85,1-.29,.32-.59,.65-.88,.97,.03,.04,.06,.07,.09,.11,.49,.58,.97,1.17,1.46,1.75,.26,.32,.53,.65,.79,.97,.47,.65,.95,1.3,1.43,1.95Z" style="fill: #db0f1a;"/>
        </g>
        <path d="M128.91,32.21v-.6c1.4-.02,2.7-.35,3.9-.98,1.2-.63,2.37-1.73,3.49-3.3,1.12-1.57,1.91-3.29,2.35-5.18-1.69,1.09-3.21,1.63-4.58,1.63-1.54,0-2.85-.59-3.95-1.78-1.1-1.19-1.64-2.77-1.64-4.73s.55-3.62,1.64-5.11c1.32-1.82,3.05-2.72,5.18-2.72,1.8,0,3.33,.74,4.61,2.22,1.57,1.84,2.35,4.11,2.35,6.81,0,2.43-.6,4.7-1.79,6.8-1.19,2.1-2.85,3.85-4.98,5.23-1.73,1.14-3.62,1.71-5.66,1.71h-.92Zm10-11.24c.19-1.4,.29-2.52,.29-3.35,0-1.04-.18-2.17-.53-3.38-.35-1.21-.86-2.14-1.51-2.78-.65-.65-1.39-.97-2.22-.97-.96,0-1.8,.43-2.52,1.29-.72,.86-1.08,2.14-1.08,3.84,0,2.27,.48,4.04,1.43,5.32,.7,.92,1.56,1.39,2.58,1.39,.5,0,1.08-.12,1.76-.36,.68-.24,1.27-.57,1.79-1Z" style="fill: #db0f1a;"/>
        <g>
          <path d="M18.73,163.45c-.48-.71-.94-1.41-1.4-2.13-.22-.37-.45-.73-.67-1.1,0,.02-.02,.03-.03,.05-.62,1.01-1.27,2-1.92,2.99-.48,.68-.96,1.35-1.46,2.01-.25,.35-.51,.69-.76,1.04-.46,.57-.94,1.14-1.42,1.7-.06,.07-.13,.15-.19,.22,.28,.33,.57,.65,.85,.97,.27,.31,.55,.63,.82,.94,.25,.32,.51,.65,.76,.97,.5,.66,.99,1.33,1.46,2.01,.6,.94,1.2,1.88,1.78,2.84,.04,.06,.07,.12,.11,.17,.17-.31,.35-.63,.52-.94,.43-.67,.87-1.34,1.31-2.01,.49-.66,.98-1.32,1.46-1.98,.27-.33,.55-.67,.82-1,.28-.33,.57-.67,.85-1,.29-.33,.59-.65,.88-.97-.03-.04-.06-.07-.09-.11-.49-.58-.98-1.17-1.46-1.75-.26-.33-.53-.65-.79-.97-.47-.66-.95-1.3-1.43-1.95Z" style="fill: #db0f1a;"/>
          <path d="M18.73,163.45c-.48-.71-.94-1.41-1.4-2.13-.22-.37-.45-.73-.67-1.1,0,.02-.02,.03-.03,.05-.62,1.01-1.27,2-1.92,2.99-.48,.68-.96,1.35-1.46,2.01-.25,.35-.51,.69-.76,1.04-.46,.57-.94,1.14-1.42,1.7-.06,.07-.13,.15-.19,.22,.28,.33,.57,.65,.85,.97,.27,.31,.55,.63,.82,.94,.25,.32,.51,.65,.76,.97,.5,.66,.99,1.33,1.46,2.01,.6,.94,1.2,1.88,1.78,2.84,.04,.06,.07,.12,.11,.17,.17-.31,.35-.63,.52-.94,.43-.67,.87-1.34,1.31-2.01,.49-.66,.98-1.32,1.46-1.98,.27-.33,.55-.67,.82-1,.28-.33,.57-.67,.85-1,.29-.33,.59-.65,.88-.97-.03-.04-.06-.07-.09-.11-.49-.58-.98-1.17-1.46-1.75-.26-.33-.53-.65-.79-.97-.47-.66-.95-1.3-1.43-1.95Z" style="fill: #db0f1a;"/>
          <path d="M18.73,163.45c-.48-.71-.94-1.41-1.4-2.13-.22-.37-.45-.73-.67-1.1,0,.02-.02,.03-.03,.05-.62,1.01-1.27,2-1.92,2.99-.48,.68-.96,1.35-1.46,2.01-.25,.35-.51,.69-.76,1.04-.46,.57-.94,1.14-1.42,1.7-.06,.07-.13,.15-.19,.22,.28,.33,.57,.65,.85,.97,.27,.31,.55,.63,.82,.94,.25,.32,.51,.65,.76,.97,.5,.66,.99,1.33,1.46,2.01,.6,.94,1.2,1.88,1.78,2.84,.04,.06,.07,.12,.11,.17,.17-.31,.35-.63,.52-.94,.43-.67,.87-1.34,1.31-2.01,.49-.66,.98-1.32,1.46-1.98,.27-.33,.55-.67,.82-1,.28-.33,.57-.67,.85-1,.29-.33,.59-.65,.88-.97-.03-.04-.06-.07-.09-.11-.49-.58-.98-1.17-1.46-1.75-.26-.33-.53-.65-.79-.97-.47-.66-.95-1.3-1.43-1.95Z" style="fill: #db0f1a;"/>
        </g>
        <path d="M21.9,181.78v.6c-1.4,.02-2.7,.35-3.9,.98-1.2,.63-2.37,1.73-3.49,3.3-1.12,1.57-1.91,3.29-2.35,5.18,1.69-1.09,3.21-1.63,4.58-1.63,1.54,0,2.85,.59,3.95,1.78,1.1,1.19,1.65,2.77,1.65,4.73s-.55,3.62-1.65,5.11c-1.32,1.82-3.05,2.73-5.18,2.73-1.8,0-3.33-.74-4.61-2.23-1.57-1.84-2.35-4.11-2.35-6.8,0-2.43,.6-4.7,1.79-6.8,1.19-2.1,2.85-3.85,4.98-5.23,1.73-1.14,3.62-1.71,5.66-1.71h.92Zm-10,11.24c-.19,1.4-.29,2.52-.29,3.35,0,1.04,.18,2.17,.53,3.38,.36,1.21,.86,2.14,1.51,2.78,.65,.64,1.39,.97,2.22,.97,.96,0,1.8-.43,2.52-1.29,.72-.86,1.08-2.14,1.08-3.84,0-2.27-.48-4.04-1.44-5.32-.7-.92-1.56-1.39-2.58-1.39-.49,0-1.08,.12-1.76,.35-.68,.24-1.27,.57-1.79,1Z" style="fill: #db0f1a;"/>
      </g>
    </g>
  </g>
</svg>