<?xml version="1.0" encoding="UTF-8"?>
<svg id="Playing_Cards" data-name="Playing Cards" xmlns="http://www.w3.org/2000/svg" viewBox="0 0 152.06 215.64">
  <g id="Cards">
    <g id="Hearts">
      <g>
        <path d="M6.57,.02H145.54c.47,0,.95,.06,1.41,.17l.11,.03c.98,.25,1.88,.74,2.61,1.44l.04,.04c.48,.46,.87,1,1.17,1.59l.41,.83c.29,.58,.48,1.2,.56,1.84l.26,1.97c.03,.25,.05,.5,.05,.75V207.06c0,.26-.02,.52-.05,.78l-.25,1.86c-.08,.61-.26,1.2-.53,1.75l-.41,.85c-.32,.65-.75,1.24-1.28,1.73l-.05,.04c-.67,.62-1.48,1.07-2.36,1.32l-.2,.06c-.51,.14-1.04,.22-1.57,.22H6.66c-.53,0-1.06-.07-1.57-.22l-.14-.04c-.92-.26-1.76-.74-2.44-1.4h0c-.49-.48-.9-1.04-1.2-1.65l-.41-.84c-.29-.59-.47-1.23-.55-1.88l-.21-1.85c-.02-.22-.04-.43-.04-.65V8.62c0-.21,.01-.42,.03-.63l.21-1.96c.07-.68,.27-1.35,.58-1.97l.41-.82c.28-.56,.64-1.06,1.08-1.5h0C3.16,.99,4.09,.47,5.11,.21h.06c.46-.13,.93-.19,1.4-.19Z" style="fill: #fff; fill-rule: evenodd;"/>
        <g>
          <path d="M10.86,32.5v-.6c1.4-.02,2.7-.35,3.9-.98,1.2-.63,2.37-1.73,3.49-3.3,1.12-1.57,1.91-3.29,2.35-5.18-1.69,1.09-3.21,1.63-4.58,1.63-1.54,0-2.85-.59-3.95-1.78-1.1-1.19-1.64-2.77-1.64-4.73s.55-3.62,1.64-5.11c1.32-1.82,3.05-2.72,5.18-2.72,1.8,0,3.33,.74,4.61,2.22,1.57,1.84,2.35,4.11,2.35,6.81,0,2.43-.6,4.7-1.79,6.8-1.19,2.1-2.85,3.85-4.98,5.23-1.73,1.14-3.62,1.71-5.66,1.71h-.92Zm10-11.24c.19-1.4,.29-2.52,.29-3.35,0-1.04-.18-2.17-.53-3.38-.35-1.21-.86-2.14-1.51-2.78-.65-.65-1.39-.97-2.22-.97-.96,0-1.8,.43-2.52,1.29-.72,.86-1.08,2.14-1.08,3.84,0,2.27,.48,4.04,1.43,5.32,.7,.92,1.56,1.39,2.58,1.39,.5,0,1.08-.12,1.76-.36,.68-.24,1.27-.57,1.79-1Z" style="fill: #db0f1a;"/>
          <path d="M141.4,183.18v.6c-1.4,.02-2.7,.35-3.9,.98s-2.37,1.73-3.49,3.3c-1.12,1.57-1.91,3.29-2.35,5.18,1.69-1.09,3.21-1.63,4.58-1.63,1.54,0,2.85,.59,3.95,1.78,1.1,1.19,1.65,2.77,1.65,4.73s-.55,3.62-1.65,5.11c-1.32,1.82-3.05,2.72-5.18,2.72-1.79,0-3.33-.74-4.61-2.22-1.57-1.84-2.35-4.11-2.35-6.8,0-2.43,.6-4.7,1.79-6.8,1.19-2.1,2.85-3.85,4.98-5.23,1.73-1.14,3.62-1.71,5.66-1.71h.92Zm-10,11.24c-.19,1.4-.29,2.52-.29,3.35,0,1.04,.18,2.17,.53,3.38,.36,1.21,.86,2.14,1.51,2.78,.65,.64,1.39,.97,2.22,.97,.96,0,1.8-.43,2.52-1.29,.72-.86,1.08-2.14,1.08-3.84,0-2.27-.48-4.04-1.44-5.32-.7-.92-1.56-1.39-2.58-1.39-.49,0-1.08,.12-1.76,.36-.68,.24-1.27,.57-1.79,1Z" style="fill: #db0f1a;"/>
        </g>
        <g>
          <path d="M14.9,48.28c.5,.67,.95,1.41,1.28,2.28,.08,.22,.16,.44,.23,.67,.06,.19,.1,.28,.15,.28,.01,0,.03,0,.04-.03,.01,.02,.03,.03,.04,.03,.13,0,.25-.62,.29-.73,.32-.91,.8-1.74,1.37-2.5,1.51-2.02,3.46-3.37,3.97-5.39,.34-1.34,.01-2.94-.9-3.98-.52-.59-1.19-.95-1.93-.95-.89,0-1.68,.52-2.22,1.34-.28,.43-.5,.94-.62,1.51-.35-1.64-1.49-2.85-2.84-2.85-.74,0-1.41,.36-1.93,.95-.91,1.04-1.24,2.63-.9,3.98,.51,2.01,2.46,3.37,3.97,5.39Z" style="fill: #db0f1a;"/>
          <path d="M137.36,167.41c-.5-.67-.95-1.41-1.28-2.28-.08-.22-.16-.44-.23-.67-.05-.19-.1-.28-.14-.28-.01,0-.03,0-.04,.03-.01-.02-.03-.03-.04-.03-.13,0-.25,.62-.29,.73-.32,.91-.79,1.74-1.37,2.5-1.51,2.02-3.46,3.37-3.97,5.39-.34,1.34,0,2.94,.9,3.98,.52,.59,1.19,.95,1.93,.95,.89,0,1.69-.52,2.22-1.34,.28-.43,.5-.94,.62-1.51,.35,1.64,1.49,2.85,2.84,2.85,.74,0,1.41-.36,1.93-.95,.91-1.04,1.24-2.63,.9-3.98-.51-2.02-2.46-3.37-3.97-5.39Z" style="fill: #db0f1a;"/>
        </g>
        <g>
          <path d="M99.18,55.99c1.3,1.74,2.46,3.67,3.33,5.92,.22,.56,.42,1.14,.59,1.75,.14,.5,.27,.73,.38,.74,.03,0,.07-.02,.1-.07,.03,.05,.06,.07,.1,.07,.34-.02,.65-1.61,.75-1.9,.84-2.35,2.07-4.52,3.54-6.5,3.91-5.25,8.99-8.75,10.31-13.98,.88-3.48,.03-7.63-2.33-10.32-1.34-1.53-3.09-2.45-5-2.45-2.31,0-4.37,1.35-5.78,3.48-.73,1.12-1.29,2.45-1.6,3.91-.91-4.26-3.86-7.39-7.37-7.39-1.91,0-3.66,.93-5,2.45-2.36,2.69-3.22,6.84-2.33,10.32,1.32,5.23,6.4,8.74,10.31,13.98Z" style="fill: #db0f1a;"/>
          <path d="M99.18,96.68c1.3,1.74,2.46,3.67,3.33,5.92,.22,.56,.42,1.14,.59,1.75,.14,.5,.27,.73,.38,.74,.03,0,.07-.02,.1-.07,.03,.05,.06,.07,.1,.07,.34-.02,.65-1.61,.75-1.9,.84-2.35,2.07-4.52,3.54-6.5,3.91-5.25,8.99-8.75,10.31-13.98,.88-3.48,.03-7.63-2.33-10.32-1.34-1.53-3.09-2.45-5-2.45-2.31,0-4.37,1.35-5.78,3.48-.73,1.12-1.29,2.45-1.6,3.91-.91-4.26-3.86-7.39-7.37-7.39-1.91,0-3.66,.93-5,2.45-2.36,2.69-3.22,6.84-2.33,10.32,1.32,5.23,6.4,8.74,10.31,13.98Z" style="fill: #db0f1a;"/>
          <path d="M44.28,96.68c1.3,1.74,2.46,3.67,3.33,5.92,.22,.56,.42,1.14,.59,1.75,.14,.5,.27,.73,.38,.74,.04,0,.07-.02,.1-.07,.03,.05,.06,.07,.1,.07,.34-.02,.65-1.61,.75-1.9,.84-2.35,2.07-4.52,3.55-6.5,3.91-5.25,8.99-8.75,10.31-13.98,.88-3.48,.03-7.63-2.33-10.32-1.34-1.53-3.09-2.45-5-2.45-2.31,0-4.37,1.35-5.77,3.48-.73,1.12-1.29,2.45-1.6,3.91-.9-4.26-3.86-7.39-7.37-7.39-1.91,0-3.66,.93-5,2.45-2.36,2.69-3.22,6.84-2.33,10.32,1.32,5.23,6.4,8.74,10.31,13.98Z" style="fill: #db0f1a;"/>
          <path d="M99.18,137.37c1.3,1.74,2.46,3.67,3.33,5.92,.22,.56,.42,1.14,.59,1.75,.14,.5,.27,.73,.38,.74,.03,0,.07-.02,.1-.07,.03,.05,.06,.07,.1,.07,.34-.02,.65-1.61,.75-1.9,.84-2.35,2.07-4.52,3.54-6.5,3.91-5.25,8.99-8.75,10.31-13.98,.88-3.48,.03-7.63-2.33-10.32-1.34-1.53-3.09-2.45-5-2.45-2.31,0-4.37,1.35-5.78,3.48-.73,1.12-1.29,2.45-1.6,3.91-.91-4.26-3.86-7.39-7.37-7.39-1.91,0-3.66,.93-5,2.45-2.36,2.69-3.22,6.84-2.33,10.32,1.32,5.23,6.4,8.74,10.31,13.98Z" style="fill: #db0f1a;"/>
          <path d="M44.28,137.37c1.3,1.74,2.46,3.67,3.33,5.92,.22,.56,.42,1.14,.59,1.75,.14,.5,.27,.73,.38,.74,.04,0,.07-.02,.1-.07,.03,.05,.06,.07,.1,.07,.34-.02,.65-1.61,.75-1.9,.84-2.35,2.07-4.52,3.55-6.5,3.91-5.25,8.99-8.75,10.31-13.98,.88-3.48,.03-7.63-2.33-10.32-1.34-1.53-3.09-2.45-5-2.45-2.31,0-4.37,1.35-5.77,3.48-.73,1.12-1.29,2.45-1.6,3.91-.9-4.26-3.86-7.39-7.37-7.39-1.91,0-3.66,.93-5,2.45-2.36,2.69-3.22,6.84-2.33,10.32,1.32,5.23,6.4,8.74,10.31,13.98Z" style="fill: #db0f1a;"/>
          <path d="M99.18,178.06c1.3,1.74,2.46,3.67,3.33,5.92,.22,.56,.42,1.14,.59,1.75,.14,.5,.27,.73,.38,.74,.03,0,.07-.02,.1-.07,.03,.05,.06,.07,.1,.07,.34-.02,.65-1.61,.75-1.9,.84-2.35,2.07-4.51,3.54-6.5,3.91-5.25,8.99-8.75,10.31-13.98,.88-3.48,.03-7.63-2.33-10.32-1.34-1.53-3.09-2.46-5-2.46-2.31,0-4.37,1.35-5.78,3.48-.73,1.12-1.29,2.45-1.6,3.91-.91-4.26-3.86-7.39-7.37-7.39-1.91,0-3.66,.93-5,2.46-2.36,2.69-3.22,6.84-2.33,10.32,1.32,5.23,6.4,8.73,10.31,13.98Z" style="fill: #db0f1a;"/>
          <path d="M71.85,115.52c1.3,1.74,2.47,3.67,3.33,5.92,.21,.56,.42,1.14,.59,1.75,.15,.5,.27,.73,.38,.74,.03,0,.07-.02,.1-.07,.03,.05,.06,.07,.1,.07,.34-.02,.65-1.61,.75-1.9,.84-2.35,2.07-4.51,3.54-6.5,3.91-5.25,8.99-8.75,10.31-13.98,.88-3.48,.03-7.63-2.33-10.32-1.34-1.53-3.09-2.45-5-2.45-2.31,0-4.37,1.35-5.77,3.48-.73,1.12-1.29,2.45-1.6,3.91-.91-4.26-3.86-7.39-7.37-7.39-1.91,0-3.66,.93-5,2.45-2.36,2.69-3.22,6.84-2.33,10.32,1.32,5.23,6.4,8.73,10.31,13.98Z" style="fill: #db0f1a;"/>
          <g>
            <path d="M44.28,55.99c1.3,1.74,2.46,3.67,3.33,5.92,.22,.56,.42,1.14,.59,1.75,.14,.5,.27,.73,.38,.74,.04,0,.07-.02,.1-.07,.03,.05,.06,.07,.1,.07,.34-.02,.65-1.61,.75-1.9,.84-2.35,2.07-4.52,3.55-6.5,3.91-5.25,8.99-8.75,10.31-13.98,.88-3.48,.03-7.63-2.33-10.32-1.34-1.53-3.09-2.45-5-2.45-2.31,0-4.37,1.35-5.77,3.48-.73,1.12-1.29,2.45-1.6,3.91-.9-4.26-3.86-7.39-7.37-7.39-1.91,0-3.66,.93-5,2.45-2.36,2.69-3.22,6.84-2.33,10.32,1.32,5.23,6.4,8.74,10.31,13.98Z" style="fill: #db0f1a;"/>
            <path d="M44.28,178.06c1.3,1.74,2.46,3.67,3.33,5.92,.22,.56,.42,1.14,.59,1.75,.14,.5,.27,.73,.38,.74,.04,0,.07-.02,.1-.07,.03,.05,.06,.07,.1,.07,.34-.02,.65-1.61,.75-1.9,.84-2.35,2.07-4.51,3.55-6.5,3.91-5.25,8.99-8.75,10.31-13.98,.88-3.48,.03-7.63-2.33-10.32-1.34-1.53-3.09-2.46-5-2.46-2.31,0-4.37,1.35-5.77,3.48-.73,1.12-1.29,2.45-1.6,3.91-.9-4.26-3.86-7.39-7.37-7.39-1.91,0-3.66,.93-5,2.46-2.36,2.69-3.22,6.84-2.33,10.32,1.32,5.23,6.4,8.73,10.31,13.98Z" style="fill: #db0f1a;"/>
          </g>
        </g>
        <path d="M129.7,32.81v-.6c1.4-.02,2.7-.35,3.9-.98,1.2-.63,2.37-1.73,3.49-3.3,1.12-1.57,1.91-3.29,2.35-5.18-1.69,1.09-3.21,1.63-4.58,1.63-1.54,0-2.85-.59-3.95-1.78-1.1-1.19-1.64-2.77-1.64-4.73s.55-3.62,1.64-5.11c1.32-1.82,3.05-2.72,5.18-2.72,1.8,0,3.33,.74,4.61,2.22,1.57,1.84,2.35,4.11,2.35,6.81,0,2.43-.6,4.7-1.79,6.8-1.19,2.1-2.85,3.85-4.98,5.23-1.73,1.14-3.62,1.71-5.66,1.71h-.92Zm10-11.24c.19-1.4,.29-2.52,.29-3.35,0-1.04-.18-2.17-.53-3.38-.35-1.21-.86-2.14-1.51-2.78-.65-.65-1.39-.97-2.22-.97-.96,0-1.8,.43-2.52,1.29-.72,.86-1.08,2.14-1.08,3.84,0,2.27,.48,4.04,1.43,5.32,.7,.92,1.56,1.39,2.58,1.39,.5,0,1.08-.12,1.76-.36,.68-.24,1.27-.57,1.79-1Z" style="fill: #db0f1a;"/>
        <path d="M133.74,48.59c.5,.67,.95,1.41,1.28,2.28,.08,.22,.16,.44,.23,.67,.06,.19,.1,.28,.15,.28,.01,0,.03,0,.04-.03,.01,.02,.03,.03,.04,.03,.13,0,.25-.62,.29-.73,.32-.91,.8-1.74,1.37-2.5,1.51-2.02,3.46-3.37,3.97-5.39,.34-1.34,.01-2.94-.9-3.98-.52-.59-1.19-.95-1.93-.95-.89,0-1.68,.52-2.22,1.34-.28,.43-.5,.94-.62,1.51-.35-1.64-1.49-2.85-2.84-2.85-.74,0-1.41,.36-1.93,.95-.91,1.04-1.24,2.63-.9,3.98,.51,2.01,2.46,3.37,3.97,5.39Z" style="fill: #db0f1a;"/>
        <path d="M22.69,182.38v.6c-1.4,.02-2.7,.35-3.9,.98s-2.37,1.73-3.49,3.3c-1.12,1.57-1.91,3.29-2.35,5.18,1.69-1.09,3.21-1.63,4.58-1.63,1.54,0,2.85,.59,3.95,1.78,1.1,1.19,1.65,2.77,1.65,4.73s-.55,3.62-1.65,5.11c-1.32,1.82-3.05,2.72-5.18,2.72-1.79,0-3.33-.74-4.61-2.22-1.57-1.84-2.35-4.11-2.35-6.8,0-2.43,.6-4.7,1.79-6.8,1.19-2.1,2.85-3.85,4.98-5.23,1.73-1.14,3.62-1.71,5.66-1.71h.92Zm-10,11.24c-.19,1.4-.29,2.52-.29,3.35,0,1.04,.18,2.17,.53,3.38,.36,1.21,.86,2.14,1.51,2.78,.65,.64,1.39,.97,2.22,.97,.96,0,1.8-.43,2.52-1.29,.72-.86,1.08-2.14,1.08-3.84,0-2.27-.48-4.04-1.44-5.32-.7-.92-1.56-1.39-2.58-1.39-.49,0-1.08,.12-1.76,.36-.68,.24-1.27,.57-1.79,1Z" style="fill: #db0f1a;"/>
        <path d="M18.65,166.61c-.5-.67-.95-1.41-1.28-2.28-.08-.22-.16-.44-.23-.67-.05-.19-.1-.28-.14-.28-.01,0-.03,0-.04,.03-.01-.02-.03-.03-.04-.03-.13,0-.25,.62-.29,.73-.32,.91-.79,1.74-1.37,2.5-1.51,2.02-3.46,3.37-3.97,5.39-.34,1.34,0,2.94,.9,3.98,.52,.59,1.19,.95,1.93,.95,.89,0,1.69-.52,2.22-1.34,.28-.43,.5-.94,.62-1.51,.35,1.64,1.49,2.85,2.84,2.85,.74,0,1.41-.36,1.93-.95,.91-1.04,1.24-2.63,.9-3.98-.51-2.02-2.46-3.37-3.97-5.39Z" style="fill: #db0f1a;"/>
      </g>
    </g>
  </g>
</svg>