<?xml version="1.0" encoding="UTF-8"?>
<svg id="Playing_Cards" data-name="Playing Cards" xmlns="http://www.w3.org/2000/svg" viewBox="0 0 152.06 215.64">
  <g id="Cards">
    <g id="Diamonds">
      <g>
        <g>
          <path d="M6.5,0H145.48c.47,0,.95,.06,1.41,.17l.11,.03c.98,.25,1.88,.74,2.61,1.44l.04,.04c.48,.46,.87,1,1.17,1.59l.41,.83c.29,.58,.48,1.2,.56,1.84l.26,1.97c.03,.25,.05,.5,.05,.75V207.03c0,.26-.02,.52-.05,.78l-.25,1.86c-.08,.61-.26,1.2-.53,1.75l-.41,.85c-.32,.65-.75,1.24-1.28,1.73l-.05,.04c-.67,.62-1.48,1.07-2.36,1.32l-.2,.05c-.51,.14-1.04,.22-1.57,.22H6.59c-.53,0-1.06-.07-1.57-.22l-.14-.04c-.92-.26-1.76-.74-2.45-1.4h0c-.49-.48-.9-1.04-1.2-1.65l-.41-.84c-.29-.59-.47-1.23-.55-1.88l-.21-1.85c-.02-.22-.04-.43-.04-.65V8.59c0-.21,.01-.42,.03-.62l.21-1.96c.07-.68,.27-1.35,.58-1.97l.41-.82c.28-.56,.64-1.06,1.08-1.5h0C3.09,.96,4.02,.43,5.04,.18h.05C5.56,.05,6.03,0,6.5,0Z" style="fill: #fff; fill-rule: evenodd;"/>
          <g>
            <g>
              <path d="M14.63,52.6c.48,.7,.94,1.41,1.4,2.13,.22,.37,.45,.73,.67,1.1,0-.02,.02-.03,.03-.05,.61-1.02,1.27-2,1.92-2.99,.48-.68,.96-1.35,1.46-2.01,.25-.35,.51-.69,.76-1.04,.47-.57,.93-1.14,1.42-1.7,.07-.07,.13-.15,.2-.22-.29-.33-.57-.65-.85-.97-.27-.31-.55-.63-.82-.94-.25-.33-.51-.65-.76-.97-.5-.66-.99-1.33-1.46-2.01-.6-.94-1.2-1.89-1.78-2.84-.04-.06-.07-.12-.1-.17-.17,.31-.35,.63-.52,.94-.43,.67-.87,1.34-1.31,2.01-.49,.66-.98,1.32-1.46,1.98-.27,.33-.55,.67-.82,1-.28,.33-.57,.67-.85,1-.29,.32-.59,.65-.88,.97,.03,.04,.06,.07,.09,.11,.49,.58,.97,1.17,1.46,1.75,.26,.32,.53,.65,.79,.97,.47,.65,.95,1.3,1.43,1.95Z" style="fill: #db0f1a; stroke: #000; stroke-width: .25px;"/>
              <path d="M14.63,52.6c.48,.7,.94,1.41,1.4,2.13,.22,.37,.45,.73,.67,1.1,0-.02,.02-.03,.03-.05,.61-1.02,1.27-2,1.92-2.99,.48-.68,.96-1.35,1.46-2.01,.25-.35,.51-.69,.76-1.04,.47-.57,.93-1.14,1.42-1.7,.07-.07,.13-.15,.2-.22-.29-.33-.57-.65-.85-.97-.27-.31-.55-.63-.82-.94-.25-.33-.51-.65-.76-.97-.5-.66-.99-1.33-1.46-2.01-.6-.94-1.2-1.89-1.78-2.84-.04-.06-.07-.12-.1-.17-.17,.31-.35,.63-.52,.94-.43,.67-.87,1.34-1.31,2.01-.49,.66-.98,1.32-1.46,1.98-.27,.33-.55,.67-.82,1-.28,.33-.57,.67-.85,1-.29,.32-.59,.65-.88,.97,.03,.04,.06,.07,.09,.11,.49,.58,.97,1.17,1.46,1.75,.26,.32,.53,.65,.79,.97,.47,.65,.95,1.3,1.43,1.95Z" style="fill: #db0f1a; stroke: #000; stroke-width: .25px;"/>
              <path d="M14.63,52.6c.48,.7,.94,1.41,1.4,2.13,.22,.37,.45,.73,.67,1.1,0-.02,.02-.03,.03-.05,.61-1.02,1.27-2,1.92-2.99,.48-.68,.96-1.35,1.46-2.01,.25-.35,.51-.69,.76-1.04,.47-.57,.93-1.14,1.42-1.7,.07-.07,.13-.15,.2-.22-.29-.33-.57-.65-.85-.97-.27-.31-.55-.63-.82-.94-.25-.33-.51-.65-.76-.97-.5-.66-.99-1.33-1.46-2.01-.6-.94-1.2-1.89-1.78-2.84-.04-.06-.07-.12-.1-.17-.17,.31-.35,.63-.52,.94-.43,.67-.87,1.34-1.31,2.01-.49,.66-.98,1.32-1.46,1.98-.27,.33-.55,.67-.82,1-.28,.33-.57,.67-.85,1-.29,.32-.59,.65-.88,.97,.03,.04,.06,.07,.09,.11,.49,.58,.97,1.17,1.46,1.75,.26,.32,.53,.65,.79,.97,.47,.65,.95,1.3,1.43,1.95Z" style="fill: #db0f1a;"/>
            </g>
            <g>
              <path d="M137.49,165.45c-.48-.71-.94-1.41-1.4-2.13-.22-.37-.45-.73-.67-1.1,0,.02-.02,.04-.03,.05-.61,1.01-1.27,2-1.92,2.99-.48,.68-.96,1.35-1.46,2.01-.25,.35-.51,.69-.76,1.04-.46,.57-.93,1.14-1.42,1.7-.07,.07-.13,.15-.19,.22,.28,.33,.57,.65,.85,.97,.27,.31,.55,.63,.82,.95,.25,.32,.51,.65,.76,.97,.5,.66,.99,1.33,1.46,2.01,.6,.94,1.2,1.88,1.78,2.84,.04,.06,.07,.12,.1,.17,.17-.31,.35-.63,.52-.95,.43-.67,.87-1.34,1.31-2.01,.49-.66,.98-1.32,1.46-1.98,.27-.33,.55-.67,.82-1,.28-.34,.57-.67,.85-1.01,.29-.32,.59-.65,.88-.97-.03-.04-.06-.07-.09-.11-.49-.58-.98-1.17-1.46-1.75-.26-.32-.53-.65-.79-.97-.47-.66-.95-1.3-1.43-1.95Z" style="fill: #db0f1a; stroke: #000; stroke-width: .25px;"/>
              <path d="M137.49,165.45c-.48-.71-.94-1.41-1.4-2.13-.22-.37-.45-.73-.67-1.1,0,.02-.02,.04-.03,.05-.61,1.01-1.27,2-1.92,2.99-.48,.68-.96,1.35-1.46,2.01-.25,.35-.51,.69-.76,1.04-.46,.57-.93,1.14-1.42,1.7-.07,.07-.13,.15-.19,.22,.28,.33,.57,.65,.85,.97,.27,.31,.55,.63,.82,.95,.25,.32,.51,.65,.76,.97,.5,.66,.99,1.33,1.46,2.01,.6,.94,1.2,1.88,1.78,2.84,.04,.06,.07,.12,.1,.17,.17-.31,.35-.63,.52-.95,.43-.67,.87-1.34,1.31-2.01,.49-.66,.98-1.32,1.46-1.98,.27-.33,.55-.67,.82-1,.28-.34,.57-.67,.85-1.01,.29-.32,.59-.65,.88-.97-.03-.04-.06-.07-.09-.11-.49-.58-.98-1.17-1.46-1.75-.26-.32-.53-.65-.79-.97-.47-.66-.95-1.3-1.43-1.95Z" style="fill: #db0f1a; stroke: #000; stroke-width: .25px;"/>
              <path d="M137.49,165.45c-.48-.71-.94-1.41-1.4-2.13-.22-.37-.45-.73-.67-1.1,0,.02-.02,.04-.03,.05-.61,1.01-1.27,2-1.92,2.99-.48,.68-.96,1.35-1.46,2.01-.25,.35-.51,.69-.76,1.04-.46,.57-.93,1.14-1.42,1.7-.07,.07-.13,.15-.19,.22,.28,.33,.57,.65,.85,.97,.27,.31,.55,.63,.82,.95,.25,.32,.51,.65,.76,.97,.5,.66,.99,1.33,1.46,2.01,.6,.94,1.2,1.88,1.78,2.84,.04,.06,.07,.12,.1,.17,.17-.31,.35-.63,.52-.95,.43-.67,.87-1.34,1.31-2.01,.49-.66,.98-1.32,1.46-1.98,.27-.33,.55-.67,.82-1,.28-.34,.57-.67,.85-1.01,.29-.32,.59-.65,.88-.97-.03-.04-.06-.07-.09-.11-.49-.58-.98-1.17-1.46-1.75-.26-.32-.53-.65-.79-.97-.47-.66-.95-1.3-1.43-1.95Z" style="fill: #db0f1a;"/>
            </g>
          </g>
        </g>
        <path d="M21.11,25.32H12.64l-1.48,3.45c-.37,.85-.55,1.48-.55,1.9,0,.33,.16,.63,.47,.88,.32,.25,1,.42,2.06,.49v.6H6.25v-.6c.91-.16,1.51-.37,1.77-.63,.55-.52,1.16-1.56,1.82-3.14l7.69-18h.56l7.61,18.19c.61,1.46,1.17,2.41,1.67,2.85,.5,.44,1.2,.68,2.09,.73v.6h-8.63v-.6c.87-.04,1.46-.19,1.77-.44,.31-.25,.46-.55,.46-.9,0-.47-.21-1.22-.64-2.24l-1.32-3.14Zm-.45-1.19l-3.71-8.84-3.81,8.84h7.51Z" style="fill: #db0f1a;"/>
        <path d="M130.42,191.55h8.47l1.48-3.45c.37-.85,.55-1.48,.55-1.9,0-.33-.16-.63-.48-.88-.32-.25-1-.42-2.06-.49v-.6h6.89v.6c-.91,.16-1.51,.37-1.77,.63-.55,.52-1.16,1.56-1.82,3.14l-7.69,18h-.56l-7.61-18.19c-.61-1.46-1.17-2.41-1.67-2.85-.5-.44-1.2-.68-2.09-.73v-.6h8.63v.6c-.87,.04-1.46,.19-1.77,.44-.31,.25-.46,.55-.46,.9,0,.47,.22,1.22,.65,2.24l1.32,3.14Zm.45,1.19l3.71,8.84,3.8-8.84h-7.51Z" style="fill: #db0f1a;"/>
        <g>
          <path d="M67.49,137.01c.4,.62,.8,1.23,1.2,1.84,2.64,4.05,5.29,8.11,7.93,12.16,.1-.15,.19-.3,.29-.45,2.95-4.52,5.9-9.04,8.84-13.55,2.91-4.46,5.83-8.93,8.74-13.4,4.26-6.53,8.53-13.07,12.79-19.6-.05-.08-.1-.16-.15-.23-4.27-6.55-8.55-13.1-12.82-19.65-2.85-4.37-5.71-8.74-8.56-13.12-2.95-4.52-5.9-9.04-8.84-13.55-.1-.15-.19-.3-.29-.45-2.64,4.05-5.29,8.1-7.93,12.16-.4,.61-.8,1.23-1.2,1.84-2.85,4.37-5.71,8.75-8.56,13.12-4.27,6.55-8.55,13.1-12.82,19.65-.05,.08-.1,.16-.15,.23,4.26,6.54,8.53,13.07,12.79,19.6,2.91,4.47,5.83,8.93,8.74,13.4Z" style="fill: none; stroke: #000; stroke-width: .25px;"/>
          <path d="M67.49,137.01c.4,.62,.8,1.23,1.2,1.84,2.64,4.05,5.29,8.11,7.93,12.16,.1-.15,.19-.3,.29-.45,2.95-4.52,5.9-9.04,8.84-13.55,2.91-4.46,5.83-8.93,8.74-13.4,4.26-6.53,8.53-13.07,12.79-19.6-.05-.08-.1-.16-.15-.23-4.27-6.55-8.55-13.1-12.82-19.65-2.85-4.37-5.71-8.74-8.56-13.12-2.95-4.52-5.9-9.04-8.84-13.55-.1-.15-.19-.3-.29-.45-2.64,4.05-5.29,8.1-7.93,12.16-.4,.61-.8,1.23-1.2,1.84-2.85,4.37-5.71,8.75-8.56,13.12-4.27,6.55-8.55,13.1-12.82,19.65-.05,.08-.1,.16-.15,.23,4.26,6.54,8.53,13.07,12.79,19.6,2.91,4.47,5.83,8.93,8.74,13.4Z" style="fill: #db0f1a;"/>
        </g>
        <g>
          <path d="M133.47,52.91c.48,.7,.94,1.41,1.4,2.13,.22,.37,.45,.73,.67,1.1,0-.02,.02-.03,.03-.05,.61-1.02,1.27-2,1.92-2.99,.48-.68,.96-1.35,1.46-2.01,.25-.35,.51-.69,.76-1.04,.47-.57,.93-1.14,1.42-1.7,.07-.07,.13-.15,.2-.22-.29-.33-.57-.65-.85-.97-.27-.31-.55-.63-.82-.94-.25-.33-.51-.65-.76-.97-.5-.66-.99-1.33-1.46-2.01-.6-.94-1.2-1.89-1.78-2.84-.04-.06-.07-.12-.1-.17-.17,.31-.35,.63-.52,.94-.43,.67-.87,1.34-1.31,2.01-.49,.66-.98,1.32-1.46,1.98-.27,.33-.55,.67-.82,1-.28,.33-.57,.67-.85,1-.29,.32-.59,.65-.88,.97,.03,.04,.06,.07,.09,.11,.49,.58,.97,1.17,1.46,1.75,.26,.32,.53,.65,.79,.97,.47,.65,.95,1.3,1.43,1.95Z" style="fill: #db0f1a; stroke: #000; stroke-width: .25px;"/>
          <path d="M133.47,52.91c.48,.7,.94,1.41,1.4,2.13,.22,.37,.45,.73,.67,1.1,0-.02,.02-.03,.03-.05,.61-1.02,1.27-2,1.92-2.99,.48-.68,.96-1.35,1.46-2.01,.25-.35,.51-.69,.76-1.04,.47-.57,.93-1.14,1.42-1.7,.07-.07,.13-.15,.2-.22-.29-.33-.57-.65-.85-.97-.27-.31-.55-.63-.82-.94-.25-.33-.51-.65-.76-.97-.5-.66-.99-1.33-1.46-2.01-.6-.94-1.2-1.89-1.78-2.84-.04-.06-.07-.12-.1-.17-.17,.31-.35,.63-.52,.94-.43,.67-.87,1.34-1.31,2.01-.49,.66-.98,1.32-1.46,1.98-.27,.33-.55,.67-.82,1-.28,.33-.57,.67-.85,1-.29,.32-.59,.65-.88,.97,.03,.04,.06,.07,.09,.11,.49,.58,.97,1.17,1.46,1.75,.26,.32,.53,.65,.79,.97,.47,.65,.95,1.3,1.43,1.95Z" style="fill: #db0f1a; stroke: #000; stroke-width: .25px;"/>
          <path d="M133.47,52.91c.48,.7,.94,1.41,1.4,2.13,.22,.37,.45,.73,.67,1.1,0-.02,.02-.03,.03-.05,.61-1.02,1.27-2,1.92-2.99,.48-.68,.96-1.35,1.46-2.01,.25-.35,.51-.69,.76-1.04,.47-.57,.93-1.14,1.42-1.7,.07-.07,.13-.15,.2-.22-.29-.33-.57-.65-.85-.97-.27-.31-.55-.63-.82-.94-.25-.33-.51-.65-.76-.97-.5-.66-.99-1.33-1.46-2.01-.6-.94-1.2-1.89-1.78-2.84-.04-.06-.07-.12-.1-.17-.17,.31-.35,.63-.52,.94-.43,.67-.87,1.34-1.31,2.01-.49,.66-.98,1.32-1.46,1.98-.27,.33-.55,.67-.82,1-.28,.33-.57,.67-.85,1-.29,.32-.59,.65-.88,.97,.03,.04,.06,.07,.09,.11,.49,.58,.97,1.17,1.46,1.75,.26,.32,.53,.65,.79,.97,.47,.65,.95,1.3,1.43,1.95Z" style="fill: #db0f1a;"/>
        </g>
        <path d="M139.94,25.63h-8.47l-1.48,3.45c-.37,.85-.55,1.48-.55,1.9,0,.33,.16,.63,.47,.88,.32,.25,1,.42,2.06,.49v.6h-6.89v-.6c.91-.16,1.51-.37,1.77-.63,.55-.52,1.16-1.56,1.82-3.14l7.69-18h.56l7.61,18.19c.61,1.46,1.17,2.41,1.67,2.85,.5,.44,1.2,.68,2.09,.73v.6h-8.63v-.6c.87-.04,1.46-.19,1.77-.44,.31-.25,.46-.55,.46-.9,0-.47-.21-1.22-.64-2.24l-1.32-3.14Zm-.45-1.19l-3.71-8.84-3.81,8.84h7.51Z" style="fill: #db0f1a;"/>
        <g>
          <path d="M18.78,164.64c-.48-.71-.94-1.41-1.4-2.13-.22-.37-.45-.73-.67-1.1,0,.02-.02,.04-.03,.05-.61,1.01-1.27,2-1.92,2.99-.48,.68-.96,1.35-1.46,2.01-.25,.35-.51,.69-.76,1.04-.46,.57-.93,1.14-1.42,1.7-.07,.07-.13,.15-.19,.22,.28,.33,.57,.65,.85,.97,.27,.31,.55,.63,.82,.95,.25,.32,.51,.65,.76,.97,.5,.66,.99,1.33,1.46,2.01,.6,.94,1.2,1.88,1.78,2.84,.04,.06,.07,.12,.1,.17,.17-.31,.35-.63,.52-.95,.43-.67,.87-1.34,1.31-2.01,.49-.66,.98-1.32,1.46-1.98,.27-.33,.55-.67,.82-1,.28-.34,.57-.67,.85-1.01,.29-.32,.59-.65,.88-.97-.03-.04-.06-.07-.09-.11-.49-.58-.98-1.17-1.46-1.75-.26-.32-.53-.65-.79-.97-.47-.66-.95-1.3-1.43-1.95Z" style="fill: #db0f1a; stroke: #000; stroke-width: .25px;"/>
          <path d="M18.78,164.64c-.48-.71-.94-1.41-1.4-2.13-.22-.37-.45-.73-.67-1.1,0,.02-.02,.04-.03,.05-.61,1.01-1.27,2-1.92,2.99-.48,.68-.96,1.35-1.46,2.01-.25,.35-.51,.69-.76,1.04-.46,.57-.93,1.14-1.42,1.7-.07,.07-.13,.15-.19,.22,.28,.33,.57,.65,.85,.97,.27,.31,.55,.63,.82,.95,.25,.32,.51,.65,.76,.97,.5,.66,.99,1.33,1.46,2.01,.6,.94,1.2,1.88,1.78,2.84,.04,.06,.07,.12,.1,.17,.17-.31,.35-.63,.52-.95,.43-.67,.87-1.34,1.31-2.01,.49-.66,.98-1.32,1.46-1.98,.27-.33,.55-.67,.82-1,.28-.34,.57-.67,.85-1.01,.29-.32,.59-.65,.88-.97-.03-.04-.06-.07-.09-.11-.49-.58-.98-1.17-1.46-1.75-.26-.32-.53-.65-.79-.97-.47-.66-.95-1.3-1.43-1.95Z" style="fill: #db0f1a; stroke: #000; stroke-width: .25px;"/>
          <path d="M18.78,164.64c-.48-.71-.94-1.41-1.4-2.13-.22-.37-.45-.73-.67-1.1,0,.02-.02,.04-.03,.05-.61,1.01-1.27,2-1.92,2.99-.48,.68-.96,1.35-1.46,2.01-.25,.35-.51,.69-.76,1.04-.46,.57-.93,1.14-1.42,1.7-.07,.07-.13,.15-.19,.22,.28,.33,.57,.65,.85,.97,.27,.31,.55,.63,.82,.95,.25,.32,.51,.65,.76,.97,.5,.66,.99,1.33,1.46,2.01,.6,.94,1.2,1.88,1.78,2.84,.04,.06,.07,.12,.1,.17,.17-.31,.35-.63,.52-.95,.43-.67,.87-1.34,1.31-2.01,.49-.66,.98-1.32,1.46-1.98,.27-.33,.55-.67,.82-1,.28-.34,.57-.67,.85-1.01,.29-.32,.59-.65,.88-.97-.03-.04-.06-.07-.09-.11-.49-.58-.98-1.17-1.46-1.75-.26-.32-.53-.65-.79-.97-.47-.66-.95-1.3-1.43-1.95Z" style="fill: #db0f1a;"/>
        </g>
        <path d="M11.71,190.74h8.47l1.48-3.45c.37-.85,.55-1.48,.55-1.9,0-.33-.16-.63-.48-.88-.32-.25-1-.42-2.06-.49v-.6h6.89v.6c-.91,.16-1.51,.37-1.77,.63-.55,.52-1.16,1.56-1.82,3.14l-7.69,18h-.56l-7.61-18.19c-.61-1.46-1.17-2.41-1.67-2.85-.5-.44-1.2-.68-2.09-.73v-.6H11.97v.6c-.87,.04-1.46,.19-1.77,.44-.31,.25-.46,.55-.46,.9,0,.47,.22,1.22,.65,2.24l1.32,3.14Zm.45,1.19l3.71,8.84,3.8-8.84h-7.51Z" style="fill: #db0f1a;"/>
      </g>
    </g>
  </g>
</svg>