<?xml version="1.0" encoding="UTF-8"?>
<svg id="Playing_Cards" data-name="Playing Cards" xmlns="http://www.w3.org/2000/svg" viewBox="0 0 152.06 215.64">
  <g id="Cards">
    <g id="Hearts">
      <g>
        <g>
          <path d="M6.6,.02H145.57c.47,0,.95,.06,1.41,.17l.11,.03c.98,.25,1.88,.74,2.61,1.44l.04,.04c.48,.46,.87,1,1.17,1.59l.41,.83c.29,.58,.48,1.2,.56,1.84l.26,1.97c.03,.25,.05,.5,.05,.75V207.06c0,.26-.02,.52-.05,.78l-.25,1.86c-.08,.61-.26,1.2-.53,1.75l-.41,.85c-.32,.65-.75,1.24-1.28,1.73l-.05,.04c-.67,.62-1.48,1.07-2.36,1.32l-.2,.05c-.51,.14-1.04,.22-1.57,.22H6.68c-.53,0-1.06-.07-1.57-.22l-.14-.04c-.92-.26-1.76-.74-2.45-1.4h0c-.49-.48-.9-1.04-1.2-1.65l-.41-.84c-.29-.59-.47-1.23-.55-1.88l-.21-1.85c-.02-.22-.04-.43-.04-.65V8.62c0-.21,.01-.42,.03-.63l.21-1.96c.07-.68,.27-1.35,.58-1.97l.41-.82c.28-.56,.64-1.06,1.08-1.5h0C3.19,.99,4.12,.47,5.14,.21h.06c.46-.13,.93-.19,1.4-.19Z" style="fill: #fff; fill-rule: evenodd;"/>
          <path d="M21.24,24.14H12.78l-1.48,3.45c-.37,.85-.55,1.48-.55,1.9,0,.33,.16,.63,.47,.88,.32,.25,1,.42,2.06,.49v.6H6.39v-.6c.91-.16,1.51-.37,1.77-.63,.55-.52,1.16-1.56,1.82-3.14l7.69-18h.56l7.61,18.19c.61,1.46,1.17,2.41,1.67,2.85,.5,.44,1.2,.68,2.09,.73v.6h-8.63v-.6c.87-.04,1.46-.19,1.77-.44,.31-.25,.46-.55,.46-.9,0-.47-.21-1.22-.64-2.24l-1.32-3.14Zm-.45-1.19l-3.71-8.84-3.81,8.84h7.51Z" style="fill: #db0f1a;"/>
          <path d="M130.56,190.37h8.47l1.48-3.45c.37-.85,.55-1.48,.55-1.9,0-.33-.16-.63-.48-.88-.32-.25-1-.42-2.06-.49v-.6h6.89v.6c-.91,.16-1.51,.37-1.77,.63-.55,.52-1.16,1.56-1.82,3.14l-7.69,18h-.56l-7.61-18.19c-.61-1.46-1.17-2.41-1.67-2.85-.5-.44-1.2-.68-2.09-.73v-.6h8.63v.6c-.87,.04-1.46,.19-1.77,.44-.31,.25-.46,.55-.46,.9,0,.47,.22,1.22,.65,2.24l1.32,3.14Zm.45,1.19l3.71,8.84,3.8-8.84h-7.51Z" style="fill: #db0f1a;"/>
          <g>
            <path d="M14.99,47.78c.5,.67,.95,1.41,1.28,2.28,.08,.22,.16,.44,.23,.67,.06,.19,.1,.28,.15,.28,.01,0,.03,0,.04-.03,.01,.02,.03,.03,.04,.03,.13,0,.25-.62,.29-.73,.32-.91,.8-1.74,1.37-2.5,1.51-2.02,3.46-3.37,3.97-5.39,.34-1.34,.01-2.94-.9-3.98-.52-.59-1.19-.95-1.93-.95-.89,0-1.68,.52-2.22,1.34-.28,.43-.5,.94-.62,1.51-.35-1.64-1.49-2.85-2.84-2.85-.74,0-1.41,.36-1.93,.95-.91,1.04-1.24,2.63-.9,3.98,.51,2.01,2.46,3.37,3.97,5.39Z" style="fill: #db0f1a;"/>
            <path d="M136.45,166.91c-.5-.67-.95-1.41-1.28-2.28-.08-.22-.16-.44-.23-.67-.06-.19-.1-.28-.15-.28-.01,0-.03,0-.04,.03-.01-.02-.03-.03-.04-.03-.13,0-.25,.62-.29,.73-.32,.91-.8,1.74-1.37,2.5-1.51,2.02-3.46,3.37-3.97,5.39-.34,1.34-.01,2.94,.9,3.98,.52,.59,1.19,.95,1.93,.95,.89,0,1.68-.52,2.22-1.34,.28-.43,.5-.94,.62-1.51,.35,1.64,1.49,2.85,2.84,2.85,.74,0,1.41-.36,1.93-.95,.91-1.04,1.24-2.63,.9-3.98-.51-2.02-2.46-3.37-3.97-5.39Z" style="fill: #db0f1a;"/>
          </g>
        </g>
        <g>
          <path d="M66.68,126.36c2.81,3.76,5.33,7.94,7.2,12.8,.47,1.22,.9,2.47,1.28,3.78,.31,1.08,.58,1.58,.82,1.59,.07,0,.14-.05,.21-.15,.07,.1,.14,.15,.21,.15,.74-.04,1.41-3.49,1.63-4.12,1.81-5.09,4.47-9.77,7.67-14.06,8.47-11.35,19.44-18.94,22.31-30.25,1.91-7.54,.06-16.51-5.05-22.33-2.91-3.31-6.69-5.31-10.82-5.31-4.99,0-9.46,2.92-12.5,7.53-1.59,2.42-2.78,5.29-3.45,8.46-1.96-9.22-8.35-15.98-15.95-15.98-4.13,0-7.92,2-10.82,5.31-5.11,5.82-6.96,14.79-5.05,22.33,2.86,11.31,13.84,18.9,22.31,30.25Z" style="fill: none; stroke: #000; stroke-width: .25px;"/>
          <path d="M66.68,126.36c2.81,3.76,5.33,7.94,7.2,12.8,.47,1.22,.9,2.47,1.28,3.78,.31,1.08,.58,1.58,.82,1.59,.07,0,.14-.05,.21-.15,.07,.1,.14,.15,.21,.15,.74-.04,1.41-3.49,1.63-4.12,1.81-5.09,4.47-9.77,7.67-14.06,8.47-11.35,19.44-18.94,22.31-30.25,1.91-7.54,.06-16.51-5.05-22.33-2.91-3.31-6.69-5.31-10.82-5.31-4.99,0-9.46,2.92-12.5,7.53-1.59,2.42-2.78,5.29-3.45,8.46-1.96-9.22-8.35-15.98-15.95-15.98-4.13,0-7.92,2-10.82,5.31-5.11,5.82-6.96,14.79-5.05,22.33,2.86,11.31,13.84,18.9,22.31,30.25Z" style="fill: #db0f1a; stroke: #000; stroke-width: .25px;"/>
        </g>
        <path d="M140.08,24.45h-8.47l-1.48,3.45c-.37,.85-.55,1.48-.55,1.9,0,.33,.16,.63,.47,.88,.32,.25,1,.42,2.06,.49v.6h-6.89v-.6c.91-.16,1.51-.37,1.77-.63,.55-.52,1.16-1.56,1.82-3.14l7.69-18h.56l7.61,18.19c.61,1.46,1.17,2.41,1.67,2.85,.5,.44,1.2,.68,2.09,.73v.6h-8.63v-.6c.87-.04,1.46-.19,1.77-.44,.31-.25,.46-.55,.46-.9,0-.47-.21-1.22-.64-2.24l-1.32-3.14Zm-.45-1.19l-3.71-8.84-3.81,8.84h7.51Z" style="fill: #db0f1a;"/>
        <path d="M133.83,48.09c.5,.67,.95,1.41,1.28,2.28,.08,.22,.16,.44,.23,.67,.06,.19,.1,.28,.15,.28,.01,0,.03,0,.04-.03,.01,.02,.03,.03,.04,.03,.13,0,.25-.62,.29-.73,.32-.91,.8-1.74,1.37-2.5,1.51-2.02,3.46-3.37,3.97-5.39,.34-1.34,.01-2.94-.9-3.98-.52-.59-1.19-.95-1.93-.95-.89,0-1.68,.52-2.22,1.34-.28,.43-.5,.94-.62,1.51-.35-1.64-1.49-2.85-2.84-2.85-.74,0-1.41,.36-1.93,.95-.91,1.04-1.24,2.63-.9,3.98,.51,2.01,2.46,3.37,3.97,5.39Z" style="fill: #db0f1a;"/>
        <path d="M11.85,189.56h8.47l1.48-3.45c.37-.85,.55-1.48,.55-1.9,0-.33-.16-.63-.48-.88-.32-.25-1-.42-2.06-.49v-.6h6.89v.6c-.91,.16-1.51,.37-1.77,.63-.55,.52-1.16,1.56-1.82,3.14l-7.69,18h-.56l-7.61-18.19c-.61-1.46-1.17-2.41-1.67-2.85-.5-.44-1.2-.68-2.09-.73v-.6H12.11v.6c-.87,.04-1.46,.19-1.77,.44-.31,.25-.46,.55-.46,.9,0,.47,.22,1.22,.65,2.24l1.32,3.14Zm.45,1.19l3.71,8.84,3.8-8.84h-7.51Z" style="fill: #db0f1a;"/>
        <path d="M17.74,166.11c-.5-.67-.95-1.41-1.28-2.28-.08-.22-.16-.44-.23-.67-.06-.19-.1-.28-.15-.28-.01,0-.03,0-.04,.03-.01-.02-.03-.03-.04-.03-.13,0-.25,.62-.29,.73-.32,.91-.8,1.74-1.37,2.5-1.51,2.02-3.46,3.37-3.97,5.39-.34,1.34-.01,2.94,.9,3.98,.52,.59,1.19,.95,1.93,.95,.89,0,1.68-.52,2.22-1.34,.28-.43,.5-.94,.62-1.51,.35,1.64,1.49,2.85,2.84,2.85,.74,0,1.41-.36,1.93-.95,.91-1.04,1.24-2.63,.9-3.98-.51-2.02-2.46-3.37-3.97-5.39Z" style="fill: #db0f1a;"/>
      </g>
    </g>
  </g>
</svg>