<?xml version="1.0" encoding="UTF-8"?>
<svg id="Playing_Cards" data-name="Playing Cards" xmlns="http://www.w3.org/2000/svg" xmlns:xlink="http://www.w3.org/1999/xlink" viewBox="0 0 152.06 215.64">
  <defs>
    <pattern id="New_Pattern_5" data-name="New Pattern 5" x="0" y="0" width="22.68" height="22.68" patternTransform="translate(-2232.48 632.27)" patternUnits="userSpaceOnUse" viewBox="0 0 22.68 22.68">
      <g>
        <rect y="0" width="22.68" height="22.68" style="fill: none;"/>
        <polygon points="22.68 0 28.35 11.34 22.68 22.68 17.01 11.34 22.68 0" style="fill: #fff; fill-rule: evenodd;"/>
        <polygon points="11.34 0 17.01 11.34 11.34 22.68 5.67 11.34 11.34 0" style="fill: #fff; fill-rule: evenodd;"/>
        <polygon points="0 0 5.67 11.34 0 22.68 -5.67 11.34 0 0" style="fill: #fff; fill-rule: evenodd;"/>
      </g>
    </pattern>
  </defs>
  <g id="Cards">
    <g id="Back">
      <path id="Back_Color" data-name="Back Color" d="M6.51,.02H145.48c.47,0,.95,.06,1.41,.17l.11,.03c.98,.25,1.88,.74,2.61,1.44l.04,.04c.48,.46,.87,1,1.17,1.59l.41,.82c.29,.58,.48,1.2,.56,1.84l.26,1.97c.03,.25,.05,.5,.05,.75V207.06c0,.26-.02,.52-.05,.78l-.25,1.86c-.08,.61-.26,1.2-.53,1.75l-.41,.85c-.32,.65-.75,1.24-1.28,1.73l-.05,.04c-.67,.62-1.48,1.07-2.36,1.32l-.2,.06c-.51,.14-1.04,.22-1.57,.22H6.6c-.53,0-1.06-.07-1.57-.22l-.14-.04c-.92-.26-1.76-.74-2.44-1.4h0c-.49-.48-.9-1.04-1.2-1.65l-.41-.84c-.29-.59-.47-1.23-.55-1.88l-.21-1.85c-.02-.22-.04-.44-.04-.65V8.62c0-.21,.01-.42,.03-.63l.21-1.96c.07-.69,.27-1.35,.58-1.97l.41-.82c.28-.56,.64-1.06,1.08-1.5h0C3.1,.99,4.03,.47,5.05,.21h.05c.46-.13,.93-.19,1.41-.19Z" style="fill: #333; fill-rule: evenodd;"/>
      <path id="Back_Color-2" data-name="Back Color" d="M12.99,7.11h126.02c.43,0,.86,.05,1.28,.16l.1,.03c.89,.23,1.71,.69,2.37,1.35l.04,.04c.43,.43,.79,.93,1.06,1.48l.54,1.1c.15,.32,.26,.66,.3,1.01l.3,2.36c.02,.14,.03,.28,.03,.42V200.69c0,.15,0,.29-.03,.43l-.3,2.24c-.04,.34-.14,.66-.29,.97l-.71,1.5c-.16,.35-.39,.66-.67,.93l-.76,.72c-.34,.32-.75,.56-1.2,.69l-.71,.2c-.46,.13-.94,.2-1.42,.2H13.07c-.48,0-.96-.07-1.42-.2l-.12-.04c-.83-.24-1.59-.69-2.22-1.31h0c-.45-.45-.82-.97-1.09-1.54l-.53-1.12c-.16-.33-.26-.68-.3-1.04l-.25-2.23c-.01-.12-.02-.24-.02-.36V15.02c0-.12,0-.23,.02-.35l.25-2.35c.04-.38,.14-.74,.31-1.08l.55-1.12c.25-.52,.58-.99,.98-1.4h0c.67-.7,1.52-1.19,2.44-1.43h.05c.42-.12,.85-.17,1.27-.17Z" style="fill: url(#New_Pattern_5); fill-rule: evenodd;"/>
    </g>
  </g>
</svg>