<?xml version="1.0" encoding="UTF-8"?>
<svg id="Playing_Cards" data-name="Playing Cards" xmlns="http://www.w3.org/2000/svg" xmlns:xlink="http://www.w3.org/1999/xlink" viewBox="0 0 152.06 215.64">
  <defs>
    <pattern id="New_Pattern_4" data-name="New Pattern 4" x="0" y="0" width="11.34" height="11.34" patternTransform="translate(-2232.48 632.27)" patternUnits="userSpaceOnUse" viewBox="0 0 11.34 11.34">
      <g>
        <rect y="0" width="11.34" height="11.34" style="fill: none;"/>
        <polygon points="11.34 11.34 8.5 5.67 11.34 0 14.17 5.67 11.34 11.34" style="fill: #fff;"/>
        <polygon points="5.67 11.34 2.83 5.67 5.67 0 8.5 5.67 5.67 11.34" style="fill: #fff;"/>
        <polygon points="0 11.34 -2.83 5.67 0 0 2.83 5.67 0 11.34" style="fill: #fff;"/>
      </g>
    </pattern>
  </defs>
  <g id="Cards">
    <g id="Back">
      <path id="Back_Color" data-name="Back Color" d="m6.51,0h138.97c.47,0,.95.06,1.41.17l.11.03c.98.25,1.88.74,2.61,1.44l.04.04c.48.46.87,1,1.17,1.59l.41.82c.29.58.48,1.2.56,1.84l.26,1.97c.03.25.05.5.05.75v198.38c0,.26-.02.52-.05.78l-.25,1.86c-.08.61-.26,1.2-.53,1.75l-.41.85c-.32.65-.75,1.24-1.28,1.73l-.05.04c-.67.62-1.48,1.07-2.36,1.32l-.2.06c-.51.14-1.04.22-1.57.22H6.6c-.53,0-1.06-.07-1.57-.22l-.14-.04c-.92-.26-1.76-.74-2.44-1.4h0c-.49-.48-.9-1.04-1.2-1.65l-.41-.84c-.29-.59-.47-1.23-.55-1.88l-.21-1.85c-.02-.22-.04-.44-.04-.65V8.59c0-.21.01-.42.03-.63l.21-1.96c.07-.69.27-1.35.58-1.97l.41-.82c.28-.56.64-1.06,1.08-1.5h0c.74-.74,1.67-1.27,2.69-1.53h.05c.46-.13.93-.19,1.41-.19Z" style="fill: #333; fill-rule: evenodd;"/>
    </g>
  </g>
  <rect x="7.12" y="7.09" width="137.89" height="201.49" rx="4.23" ry="4.23" style="fill: url(#New_Pattern_4);"/>
</svg>