<?xml version="1.0" encoding="UTF-8"?>
<svg id="Playing_Cards" data-name="Playing Cards" xmlns="http://www.w3.org/2000/svg" viewBox="0 0 152.06 215.64">
  <g id="Cards">
    <g id="Diamonds">
      <g>
        <g>
          <path d="M6.47,.01H145.45c.47,0,.95,.06,1.41,.17l.11,.03c.98,.25,1.88,.74,2.61,1.44l.04,.04c.48,.46,.87,1,1.17,1.59l.41,.83c.29,.58,.48,1.2,.56,1.84l.26,1.97c.03,.25,.05,.5,.05,.75V207.05c0,.26-.02,.52-.05,.78l-.25,1.86c-.08,.61-.26,1.2-.53,1.75l-.41,.85c-.32,.65-.75,1.24-1.28,1.73l-.05,.04c-.67,.62-1.48,1.07-2.36,1.32l-.2,.05c-.51,.14-1.04,.22-1.57,.22H6.56c-.53,0-1.06-.07-1.57-.22l-.14-.04c-.92-.26-1.76-.74-2.45-1.4h0c-.49-.48-.9-1.04-1.2-1.65l-.41-.84c-.29-.59-.47-1.23-.55-1.88l-.21-1.85c-.02-.22-.04-.43-.04-.65V8.6c0-.21,.01-.42,.03-.62l.21-1.96c.07-.68,.27-1.35,.58-1.97l.41-.82c.28-.56,.64-1.06,1.08-1.5h0C3.06,.98,3.99,.45,5.01,.2h.05C5.53,.07,6,.01,6.47,.01Z" style="fill: #fff; fill-rule: evenodd;"/>
          <g>
            <g>
              <g>
                <path d="M14.9,53.21c.48,.7,.94,1.41,1.4,2.13,.22,.37,.45,.73,.67,1.1,0-.02,.02-.04,.03-.05,.61-1.01,1.27-2,1.92-2.99,.48-.68,.96-1.35,1.46-2.01,.25-.35,.51-.69,.76-1.04,.47-.57,.93-1.14,1.42-1.7,.07-.07,.13-.15,.2-.22-.29-.33-.57-.65-.85-.97-.27-.31-.55-.63-.82-.94-.25-.33-.51-.65-.76-.97-.5-.66-.99-1.33-1.46-2.01-.6-.94-1.2-1.89-1.78-2.84-.04-.06-.07-.12-.1-.17-.17,.31-.35,.63-.52,.95-.43,.67-.87,1.34-1.31,2.01-.49,.66-.98,1.32-1.46,1.98-.27,.33-.55,.67-.82,1-.28,.34-.57,.67-.85,1.01-.29,.32-.59,.65-.88,.97,.03,.04,.06,.07,.09,.11,.49,.58,.97,1.17,1.46,1.75,.26,.32,.53,.65,.79,.97,.47,.66,.95,1.3,1.43,1.95Z" style="fill: #db0f1a; stroke: #000; stroke-width: .25px;"/>
                <path d="M14.9,53.21c.48,.7,.94,1.41,1.4,2.13,.22,.37,.45,.73,.67,1.1,0-.02,.02-.04,.03-.05,.61-1.01,1.27-2,1.92-2.99,.48-.68,.96-1.35,1.46-2.01,.25-.35,.51-.69,.76-1.04,.47-.57,.93-1.14,1.42-1.7,.07-.07,.13-.15,.2-.22-.29-.33-.57-.65-.85-.97-.27-.31-.55-.63-.82-.94-.25-.33-.51-.65-.76-.97-.5-.66-.99-1.33-1.46-2.01-.6-.94-1.2-1.89-1.78-2.84-.04-.06-.07-.12-.1-.17-.17,.31-.35,.63-.52,.95-.43,.67-.87,1.34-1.31,2.01-.49,.66-.98,1.32-1.46,1.98-.27,.33-.55,.67-.82,1-.28,.34-.57,.67-.85,1.01-.29,.32-.59,.65-.88,.97,.03,.04,.06,.07,.09,.11,.49,.58,.97,1.17,1.46,1.75,.26,.32,.53,.65,.79,.97,.47,.66,.95,1.3,1.43,1.95Z" style="fill: #db0f1a; stroke: #000; stroke-width: .25px;"/>
                <path d="M14.9,53.21c.48,.7,.94,1.41,1.4,2.13,.22,.37,.45,.73,.67,1.1,0-.02,.02-.04,.03-.05,.61-1.01,1.27-2,1.92-2.99,.48-.68,.96-1.35,1.46-2.01,.25-.35,.51-.69,.76-1.04,.47-.57,.93-1.14,1.42-1.7,.07-.07,.13-.15,.2-.22-.29-.33-.57-.65-.85-.97-.27-.31-.55-.63-.82-.94-.25-.33-.51-.65-.76-.97-.5-.66-.99-1.33-1.46-2.01-.6-.94-1.2-1.89-1.78-2.84-.04-.06-.07-.12-.1-.17-.17,.31-.35,.63-.52,.95-.43,.67-.87,1.34-1.31,2.01-.49,.66-.98,1.32-1.46,1.98-.27,.33-.55,.67-.82,1-.28,.34-.57,.67-.85,1.01-.29,.32-.59,.65-.88,.97,.03,.04,.06,.07,.09,.11,.49,.58,.97,1.17,1.46,1.75,.26,.32,.53,.65,.79,.97,.47,.66,.95,1.3,1.43,1.95Z" style="fill: #db0f1a;"/>
              </g>
              <g>
                <path d="M137.76,166.06c-.48-.71-.94-1.41-1.4-2.13-.22-.37-.45-.73-.67-1.1,0,.02-.02,.03-.03,.05-.61,1.01-1.27,2-1.92,2.99-.48,.68-.96,1.35-1.46,2.01-.25,.35-.51,.69-.76,1.04-.46,.57-.93,1.14-1.42,1.7-.07,.07-.13,.15-.19,.22,.28,.33,.57,.65,.85,.97,.27,.31,.55,.63,.82,.94,.25,.32,.51,.65,.76,.97,.5,.66,.99,1.33,1.46,2.01,.6,.94,1.2,1.88,1.78,2.84,.04,.06,.07,.12,.1,.17,.17-.31,.35-.63,.52-.94,.43-.67,.87-1.34,1.31-2.01,.49-.66,.98-1.32,1.46-1.98,.27-.33,.55-.67,.82-1,.28-.33,.57-.67,.85-1,.29-.33,.59-.65,.88-.97-.03-.04-.06-.07-.09-.11-.49-.58-.98-1.17-1.46-1.75-.26-.33-.53-.65-.79-.97-.47-.66-.95-1.3-1.43-1.95Z" style="fill: #db0f1a; stroke: #000; stroke-width: .25px;"/>
                <path d="M137.76,166.06c-.48-.71-.94-1.41-1.4-2.13-.22-.37-.45-.73-.67-1.1,0,.02-.02,.03-.03,.05-.61,1.01-1.27,2-1.92,2.99-.48,.68-.96,1.35-1.46,2.01-.25,.35-.51,.69-.76,1.04-.46,.57-.93,1.14-1.42,1.7-.07,.07-.13,.15-.19,.22,.28,.33,.57,.65,.85,.97,.27,.31,.55,.63,.82,.94,.25,.32,.51,.65,.76,.97,.5,.66,.99,1.33,1.46,2.01,.6,.94,1.2,1.88,1.78,2.84,.04,.06,.07,.12,.1,.17,.17-.31,.35-.63,.52-.94,.43-.67,.87-1.34,1.31-2.01,.49-.66,.98-1.32,1.46-1.98,.27-.33,.55-.67,.82-1,.28-.33,.57-.67,.85-1,.29-.33,.59-.65,.88-.97-.03-.04-.06-.07-.09-.11-.49-.58-.98-1.17-1.46-1.75-.26-.33-.53-.65-.79-.97-.47-.66-.95-1.3-1.43-1.95Z" style="fill: #db0f1a; stroke: #000; stroke-width: .25px;"/>
                <path d="M137.76,166.06c-.48-.71-.94-1.41-1.4-2.13-.22-.37-.45-.73-.67-1.1,0,.02-.02,.03-.03,.05-.61,1.01-1.27,2-1.92,2.99-.48,.68-.96,1.35-1.46,2.01-.25,.35-.51,.69-.76,1.04-.46,.57-.93,1.14-1.42,1.7-.07,.07-.13,.15-.19,.22,.28,.33,.57,.65,.85,.97,.27,.31,.55,.63,.82,.94,.25,.32,.51,.65,.76,.97,.5,.66,.99,1.33,1.46,2.01,.6,.94,1.2,1.88,1.78,2.84,.04,.06,.07,.12,.1,.17,.17-.31,.35-.63,.52-.94,.43-.67,.87-1.34,1.31-2.01,.49-.66,.98-1.32,1.46-1.98,.27-.33,.55-.67,.82-1,.28-.33,.57-.67,.85-1,.29-.33,.59-.65,.88-.97-.03-.04-.06-.07-.09-.11-.49-.58-.98-1.17-1.46-1.75-.26-.33-.53-.65-.79-.97-.47-.66-.95-1.3-1.43-1.95Z" style="fill: #db0f1a;"/>
              </g>
            </g>
            <path d="M15.22,21.13l8.06,8.01c1.32,1.32,2.45,2.22,3.39,2.7,.94,.48,1.87,.75,2.81,.81v.6h-10.4v-.6c.62,0,1.07-.1,1.35-.31,.27-.21,.41-.44,.41-.7s-.05-.49-.15-.69c-.1-.2-.44-.59-1.01-1.14l-7.55-7.47v7.05c0,1.11,.07,1.84,.21,2.19,.11,.27,.33,.5,.68,.69,.46,.26,.95,.39,1.47,.39h.74v.6H5.9v-.6h.77c.9,0,1.56-.26,1.97-.79,.26-.34,.39-1.17,.39-2.48V15.26c0-1.11-.07-1.84-.21-2.21-.11-.26-.33-.48-.66-.68-.47-.26-.97-.39-1.48-.39h-.77v-.6H15.22v.6h-.74c-.51,0-.99,.12-1.47,.37-.33,.17-.56,.43-.69,.77-.13,.34-.19,1.05-.19,2.13v6.69c.21-.2,.95-.89,2.21-2.05,3.19-2.92,5.12-4.88,5.79-5.85,.29-.43,.44-.81,.44-1.13,0-.25-.11-.46-.34-.65-.22-.19-.61-.28-1.14-.28h-.5v-.6h8.03v.6c-.47,.01-.9,.08-1.29,.19-.39,.12-.86,.35-1.42,.68-.56,.34-1.25,.88-2.06,1.64-.24,.22-1.33,1.32-3.27,3.31l-3.34,3.32Z" style="fill: #db0f1a;"/>
            <path d="M136.84,196.96l-8.06-8.01c-1.32-1.32-2.45-2.22-3.39-2.7-.93-.48-1.87-.75-2.8-.81v-.6h10.4v.6c-.62,0-1.07,.11-1.35,.31-.28,.21-.41,.44-.41,.7s.05,.49,.15,.69c.1,.21,.44,.59,1.01,1.15l7.55,7.47v-7.05c0-1.11-.07-1.84-.21-2.19-.11-.27-.33-.5-.68-.69-.46-.26-.95-.39-1.47-.39h-.74v-.6h9.32v.6h-.77c-.9,0-1.56,.26-1.97,.79-.26,.34-.39,1.17-.39,2.48v14.13c0,1.11,.07,1.84,.21,2.21,.11,.26,.33,.48,.66,.68,.47,.26,.97,.39,1.48,.39h.77v.6h-9.32v-.6h.74c.51,0,1-.12,1.47-.37,.33-.17,.56-.43,.69-.77,.13-.34,.19-1.05,.19-2.13v-6.69c-.21,.21-.95,.89-2.21,2.05-3.19,2.92-5.12,4.87-5.79,5.85-.29,.43-.44,.81-.44,1.13,0,.25,.11,.46,.34,.65,.23,.19,.61,.28,1.14,.28h.5v.6h-8.03v-.6c.47-.01,.9-.08,1.29-.19,.39-.12,.86-.35,1.42-.69,.56-.34,1.25-.88,2.06-1.64,.24-.21,1.33-1.32,3.27-3.31l3.34-3.32Z" style="fill: #db0f1a;"/>
          </g>
          <g>
            <path d="M44.91,101.7l8.8,24.65h44.64l8.8-24.65c4.09-.18,7.36-3.54,7.36-7.68s-3.45-7.7-7.7-7.7-7.7,3.45-7.7,7.7c0,1.89,.68,3.61,1.81,4.95l-7.97,8.9-3.9-17.27c3.15-.97,5.44-3.9,5.44-7.36,0-4.25-3.45-7.7-7.7-7.7s-7.7,3.45-7.7,7.7c0,2.76,1.46,5.17,3.63,6.53l-6.71,17.33-6.71-17.33c2.18-1.36,3.63-3.77,3.63-6.53,0-4.25-3.45-7.7-7.7-7.7s-7.7,3.45-7.7,7.7c0,3.46,2.29,6.39,5.44,7.36l-3.9,17.27-7.97-8.9c1.13-1.34,1.81-3.06,1.81-4.95,0-4.25-3.45-7.7-7.7-7.7s-7.7,3.45-7.7,7.7,3.27,7.5,7.36,7.68Z" style="fill: #db0f1a;"/>
            <path d="M44.91,101.7l8.8,24.65h44.64l8.8-24.65c4.09-.18,7.36-3.54,7.36-7.68s-3.45-7.7-7.7-7.7-7.7,3.45-7.7,7.7c0,1.89,.68,3.61,1.81,4.95l-7.97,8.9-3.9-17.27c3.15-.97,5.44-3.9,5.44-7.36,0-4.25-3.45-7.7-7.7-7.7s-7.7,3.45-7.7,7.7c0,2.76,1.46,5.17,3.63,6.53l-6.71,17.33-6.71-17.33c2.18-1.36,3.63-3.77,3.63-6.53,0-4.25-3.45-7.7-7.7-7.7s-7.7,3.45-7.7,7.7c0,3.46,2.29,6.39,5.44,7.36l-3.9,17.27-7.97-8.9c1.13-1.34,1.81-3.06,1.81-4.95,0-4.25-3.45-7.7-7.7-7.7s-7.7,3.45-7.7,7.7,3.27,7.5,7.36,7.68Z" style="fill: #db0f1a;"/>
            <rect x="53.72" y="130.97" width="44.64" height="10.78" style="fill: #db0f1a;"/>
            <rect x="53.72" y="130.97" width="44.64" height="10.78" style="fill: #db0f1a;"/>
          </g>
        </g>
        <g>
          <path d="M133.74,53.52c.48,.7,.94,1.41,1.4,2.13,.22,.37,.45,.73,.67,1.1,0-.02,.02-.04,.03-.05,.61-1.01,1.27-2,1.92-2.99,.48-.68,.96-1.35,1.46-2.01,.25-.35,.51-.69,.76-1.04,.47-.57,.93-1.14,1.42-1.7,.07-.07,.13-.15,.2-.22-.29-.33-.57-.65-.85-.97-.27-.31-.55-.63-.82-.94-.25-.33-.51-.65-.76-.97-.5-.66-.99-1.33-1.46-2.01-.6-.94-1.2-1.89-1.78-2.84-.04-.06-.07-.12-.1-.17-.17,.31-.35,.63-.52,.95-.43,.67-.87,1.34-1.31,2.01-.49,.66-.98,1.32-1.46,1.98-.27,.33-.55,.67-.82,1-.28,.34-.57,.67-.85,1.01-.29,.32-.59,.65-.88,.97,.03,.04,.06,.07,.09,.11,.49,.58,.97,1.17,1.46,1.75,.26,.32,.53,.65,.79,.97,.47,.66,.95,1.3,1.43,1.95Z" style="fill: #db0f1a; stroke: #000; stroke-width: .25px;"/>
          <path d="M133.74,53.52c.48,.7,.94,1.41,1.4,2.13,.22,.37,.45,.73,.67,1.1,0-.02,.02-.04,.03-.05,.61-1.01,1.27-2,1.92-2.99,.48-.68,.96-1.35,1.46-2.01,.25-.35,.51-.69,.76-1.04,.47-.57,.93-1.14,1.42-1.7,.07-.07,.13-.15,.2-.22-.29-.33-.57-.65-.85-.97-.27-.31-.55-.63-.82-.94-.25-.33-.51-.65-.76-.97-.5-.66-.99-1.33-1.46-2.01-.6-.94-1.2-1.89-1.78-2.84-.04-.06-.07-.12-.1-.17-.17,.31-.35,.63-.52,.95-.43,.67-.87,1.34-1.31,2.01-.49,.66-.98,1.32-1.46,1.98-.27,.33-.55,.67-.82,1-.28,.34-.57,.67-.85,1.01-.29,.32-.59,.65-.88,.97,.03,.04,.06,.07,.09,.11,.49,.58,.97,1.17,1.46,1.75,.26,.32,.53,.65,.79,.97,.47,.66,.95,1.3,1.43,1.95Z" style="fill: #db0f1a; stroke: #000; stroke-width: .25px;"/>
          <path d="M133.74,53.52c.48,.7,.94,1.41,1.4,2.13,.22,.37,.45,.73,.67,1.1,0-.02,.02-.04,.03-.05,.61-1.01,1.27-2,1.92-2.99,.48-.68,.96-1.35,1.46-2.01,.25-.35,.51-.69,.76-1.04,.47-.57,.93-1.14,1.42-1.7,.07-.07,.13-.15,.2-.22-.29-.33-.57-.65-.85-.97-.27-.31-.55-.63-.82-.94-.25-.33-.51-.65-.76-.97-.5-.66-.99-1.33-1.46-2.01-.6-.94-1.2-1.89-1.78-2.84-.04-.06-.07-.12-.1-.17-.17,.31-.35,.63-.52,.95-.43,.67-.87,1.34-1.31,2.01-.49,.66-.98,1.32-1.46,1.98-.27,.33-.55,.67-.82,1-.28,.34-.57,.67-.85,1.01-.29,.32-.59,.65-.88,.97,.03,.04,.06,.07,.09,.11,.49,.58,.97,1.17,1.46,1.75,.26,.32,.53,.65,.79,.97,.47,.66,.95,1.3,1.43,1.95Z" style="fill: #db0f1a;"/>
        </g>
        <path d="M134.06,21.44l8.06,8.01c1.32,1.32,2.45,2.22,3.39,2.7,.94,.48,1.87,.75,2.81,.81v.6h-10.4v-.6c.62,0,1.07-.1,1.35-.31,.27-.21,.41-.44,.41-.7s-.05-.49-.15-.69c-.1-.2-.44-.59-1.01-1.14l-7.55-7.47v7.05c0,1.11,.07,1.84,.21,2.19,.11,.27,.33,.5,.68,.69,.46,.26,.95,.39,1.47,.39h.74v.6h-9.32v-.6h.77c.9,0,1.56-.26,1.97-.79,.26-.34,.39-1.17,.39-2.48V15.57c0-1.11-.07-1.84-.21-2.21-.11-.26-.33-.48-.66-.68-.47-.26-.97-.39-1.48-.39h-.77v-.6h9.32v.6h-.74c-.51,0-.99,.12-1.47,.37-.33,.17-.56,.43-.69,.77-.13,.34-.19,1.05-.19,2.13v6.69c.21-.2,.95-.89,2.21-2.05,3.19-2.92,5.12-4.88,5.79-5.85,.29-.43,.44-.81,.44-1.13,0-.25-.11-.46-.34-.65-.22-.19-.61-.28-1.14-.28h-.5v-.6h8.03v.6c-.47,.01-.9,.08-1.29,.19-.39,.12-.86,.35-1.42,.68-.56,.34-1.25,.88-2.06,1.64-.24,.22-1.33,1.32-3.27,3.31l-3.34,3.32Z" style="fill: #db0f1a;"/>
        <g>
          <path d="M19.04,165.25c-.48-.71-.94-1.41-1.4-2.13-.22-.37-.45-.73-.67-1.1,0,.02-.02,.03-.03,.05-.61,1.01-1.27,2-1.92,2.99-.48,.68-.96,1.35-1.46,2.01-.25,.35-.51,.69-.76,1.04-.46,.57-.93,1.14-1.42,1.7-.07,.07-.13,.15-.19,.22,.28,.33,.57,.65,.85,.97,.27,.31,.55,.63,.82,.94,.25,.32,.51,.65,.76,.97,.5,.66,.99,1.33,1.46,2.01,.6,.94,1.2,1.88,1.78,2.84,.04,.06,.07,.12,.1,.17,.17-.31,.35-.63,.52-.94,.43-.67,.87-1.34,1.31-2.01,.49-.66,.98-1.32,1.46-1.98,.27-.33,.55-.67,.82-1,.28-.33,.57-.67,.85-1,.29-.33,.59-.65,.88-.97-.03-.04-.06-.07-.09-.11-.49-.58-.98-1.17-1.46-1.75-.26-.33-.53-.65-.79-.97-.47-.66-.95-1.3-1.43-1.95Z" style="fill: #db0f1a; stroke: #000; stroke-width: .25px;"/>
          <path d="M19.04,165.25c-.48-.71-.94-1.41-1.4-2.13-.22-.37-.45-.73-.67-1.1,0,.02-.02,.03-.03,.05-.61,1.01-1.27,2-1.92,2.99-.48,.68-.96,1.35-1.46,2.01-.25,.35-.51,.69-.76,1.04-.46,.57-.93,1.14-1.42,1.7-.07,.07-.13,.15-.19,.22,.28,.33,.57,.65,.85,.97,.27,.31,.55,.63,.82,.94,.25,.32,.51,.65,.76,.97,.5,.66,.99,1.33,1.46,2.01,.6,.94,1.2,1.88,1.78,2.84,.04,.06,.07,.12,.1,.17,.17-.31,.35-.63,.52-.94,.43-.67,.87-1.34,1.31-2.01,.49-.66,.98-1.32,1.46-1.98,.27-.33,.55-.67,.82-1,.28-.33,.57-.67,.85-1,.29-.33,.59-.65,.88-.97-.03-.04-.06-.07-.09-.11-.49-.58-.98-1.17-1.46-1.75-.26-.33-.53-.65-.79-.97-.47-.66-.95-1.3-1.43-1.95Z" style="fill: #db0f1a; stroke: #000; stroke-width: .25px;"/>
          <path d="M19.04,165.25c-.48-.71-.94-1.41-1.4-2.13-.22-.37-.45-.73-.67-1.1,0,.02-.02,.03-.03,.05-.61,1.01-1.27,2-1.92,2.99-.48,.68-.96,1.35-1.46,2.01-.25,.35-.51,.69-.76,1.04-.46,.57-.93,1.14-1.42,1.7-.07,.07-.13,.15-.19,.22,.28,.33,.57,.65,.85,.97,.27,.31,.55,.63,.82,.94,.25,.32,.51,.65,.76,.97,.5,.66,.99,1.33,1.46,2.01,.6,.94,1.2,1.88,1.78,2.84,.04,.06,.07,.12,.1,.17,.17-.31,.35-.63,.52-.94,.43-.67,.87-1.34,1.31-2.01,.49-.66,.98-1.32,1.46-1.98,.27-.33,.55-.67,.82-1,.28-.33,.57-.67,.85-1,.29-.33,.59-.65,.88-.97-.03-.04-.06-.07-.09-.11-.49-.58-.98-1.17-1.46-1.75-.26-.33-.53-.65-.79-.97-.47-.66-.95-1.3-1.43-1.95Z" style="fill: #db0f1a;"/>
        </g>
        <path d="M18.13,196.16l-8.06-8.01c-1.32-1.32-2.45-2.22-3.39-2.7-.93-.48-1.87-.75-2.8-.81v-.6H14.28v.6c-.62,0-1.07,.11-1.35,.31-.28,.21-.41,.44-.41,.7s.05,.49,.15,.69c.1,.21,.44,.59,1.01,1.15l7.55,7.47v-7.05c0-1.11-.07-1.84-.21-2.19-.11-.27-.33-.5-.68-.69-.46-.26-.95-.39-1.47-.39h-.74v-.6h9.32v.6h-.77c-.9,0-1.56,.26-1.97,.79-.26,.34-.39,1.17-.39,2.48v14.13c0,1.11,.07,1.84,.21,2.21,.11,.26,.33,.48,.66,.68,.47,.26,.97,.39,1.48,.39h.77v.6h-9.32v-.6h.74c.51,0,1-.12,1.47-.37,.33-.17,.56-.43,.69-.77,.13-.34,.19-1.05,.19-2.13v-6.69c-.21,.21-.95,.89-2.21,2.05-3.19,2.92-5.12,4.87-5.79,5.85-.29,.43-.44,.81-.44,1.13,0,.25,.11,.46,.34,.65,.23,.19,.61,.28,1.14,.28h.5v.6H6.74v-.6c.47-.01,.9-.08,1.29-.19,.39-.12,.86-.35,1.42-.69,.56-.34,1.25-.88,2.06-1.64,.24-.21,1.33-1.32,3.27-3.31l3.34-3.32Z" style="fill: #db0f1a;"/>
      </g>
    </g>
  </g>
</svg>